<svg width="162" height="162" viewBox="0 0 162 162" fill="none" xmlns="http://www.w3.org/2000/svg">
<path fill="black" clip-rule="evenodd" d="M161 81C161 70.8417 156.042 61.8459 148.418 56.2862C156.306 50.5332 161.341 41.1024 160.982 30.5115C160.441 14.5469 147.454 1.55873 131.488 1.018C120.897 0.659154 111.467 5.69367 105.713 13.5826C100.154 5.9583 91.158 1.0008 80.9996 1.0008C70.8421 1.0008 61.8463 5.9583 56.2866 13.5826C50.5343 5.69367 41.1027 0.659154 30.5117 1.018C14.5462 1.55873 1.55963 14.5469 1.01808 30.5115C0.65923 41.1024 5.69377 50.5332 13.5827 56.2862C5.9584 61.8459 1.00005 70.8417 1.00005 81C1.00005 91.1575 5.9584 100.153 13.5827 105.713C5.69377 111.466 0.65841 120.898 1.01808 131.489C1.55963 147.454 14.547 160.44 30.5117 160.981C41.1035 161.34 50.5343 156.305 56.2866 148.417C61.8463 156.041 70.8421 161 80.9996 161C91.158 161 100.154 156.041 105.713 148.417C111.467 156.305 120.897 161.341 131.488 160.981C147.454 160.44 160.44 147.453 160.982 131.488C161.341 120.897 156.306 111.466 148.418 105.713C156.042 100.153 161 91.1575 161 81Z" stroke="black" stroke-linejoin="round"/>
</svg>
