<svg width="680" height="680" viewBox="0 0 680 680" fill="none" xmlns="http://www.w3.org/2000/svg">
<path fill-rule="evenodd" clip-rule="evenodd" d="M675.803 340C675.803 297.36 654.991 259.6 622.989 236.263C656.099 212.115 677.234 172.529 675.727 128.073C673.456 61.0611 618.943 6.54283 551.925 4.2731C507.469 2.76683 467.886 23.8994 443.734 57.0134C420.4 25.0102 382.639 4.2009 339.998 4.2009C297.362 4.2009 259.602 25.0102 236.265 57.0134C212.119 23.8994 172.53 2.76683 128.074 4.2731C61.0581 6.54283 6.54657 61.0611 4.2734 128.073C2.76711 172.529 23.8998 212.115 57.0138 236.263C25.0105 259.6 4.19771 297.36 4.19771 340C4.19771 382.636 25.0105 420.395 57.0138 443.734C23.8998 467.882 2.76367 507.473 4.2734 551.929C6.54657 618.943 61.0615 673.452 128.074 675.723C172.533 677.23 212.119 656.095 236.265 622.985C259.602 654.987 297.362 675.803 339.998 675.803C382.639 675.803 420.4 654.987 443.734 622.985C467.886 656.095 507.469 677.234 551.925 675.723C618.943 673.452 673.452 618.939 675.727 551.925C677.234 507.469 656.099 467.882 622.989 443.734C654.991 420.395 675.803 382.636 675.803 340Z" stroke="black" stroke-linejoin="round"/>
</svg>

