<svg width="534" height="697" viewBox="0 0 534 697" fill="none" xmlns="http://www.w3.org/2000/svg">
<path fill-rule="evenodd" clip-rule="evenodd" d="M491.341 348.501C516.59 330.032 533 300.232 533 266.588C533 266.507 532.996 266.428 532.996 266.349C532.996 265.384 532.978 264.418 532.952 263.448C532.952 263.445 532.952 263.441 532.952 263.438C532.945 263.223 532.947 263.01 532.94 262.795C532.924 262.326 532.88 261.864 532.859 261.395C532.828 260.779 532.793 260.164 532.75 259.548C530.715 228.844 514.8 201.742 491.25 184.479C517.43 165.376 534.133 134.096 532.94 98.9734C531.142 45.9721 487.958 2.85523 434.875 1.05972C399.658 -0.131223 368.3 16.5833 349.172 42.7709C330.687 17.4604 300.776 1.00026 267.001 1.00026C233.225 1.00026 203.313 17.4604 184.829 42.7709C165.701 16.5833 134.343 -0.131223 99.1248 1.05972C46.0432 2.85523 2.8595 45.9721 1.06121 98.9734C-0.13158 134.096 16.5725 165.376 42.751 184.479C19.2029 201.74 3.28963 228.839 1.25146 259.543C1.20845 260.163 1.17371 260.784 1.14227 261.403C1.12077 261.871 1.0761 262.33 1.06121 262.795C1.05459 263.01 1.05459 263.222 1.04963 263.435C1.04963 263.448 1.04963 263.461 1.04798 263.473C1.02316 264.432 1.00496 265.39 1.00496 266.344C1.00496 266.426 1 266.505 1 266.588C1 300.232 17.4112 330.032 42.6583 348.501C17.4112 366.968 1 396.768 1 430.412C1 430.496 1.00496 430.577 1.00496 430.661C1.00496 431.596 1.02316 432.533 1.04798 433.469C1.04798 433.504 1.04798 433.537 1.04963 433.572C1.05459 433.785 1.05459 433.995 1.06121 434.208C1.0761 434.672 1.12077 435.129 1.14227 435.593C1.17371 436.218 1.20845 436.841 1.25146 437.463C3.29128 468.164 19.2045 495.261 42.751 512.523C16.5708 531.626 -0.133234 562.908 1.06121 598.03C2.86115 651.031 46.0448 694.146 99.1281 695.94C134.343 697.131 165.701 680.416 184.829 654.229C203.313 679.539 233.225 696 267.001 696C300.776 696 330.687 679.539 349.172 654.229C368.3 680.416 399.658 697.133 434.875 695.94C487.958 694.145 531.142 651.028 532.94 598.026C534.131 562.904 517.43 531.624 491.249 512.523C514.795 495.263 530.708 468.167 532.748 437.468C532.793 436.841 532.828 436.213 532.859 435.582C532.88 435.119 532.924 434.665 532.94 434.204C532.947 433.993 532.945 433.785 532.952 433.575C532.952 433.532 532.952 433.487 532.953 433.444C532.978 432.515 532.996 431.588 532.996 430.663C532.996 430.579 533 430.496 533 430.412C533 396.768 516.59 366.968 491.341 348.501Z" stroke="black" stroke-linejoin="round"/>
</svg>
