<svg width="680" height="680" viewBox="0 0 680 680" fill="none" xmlns="http://www.w3.org/2000/svg">
<path fill-rule="evenodd" clip-rule="evenodd" d="M602.911 340.001C648.814 305.748 678.538 251.017 678.538 189.337C678.538 85.5773 594.422 1.46234 490.662 1.46234C428.985 1.46234 374.253 31.1836 340 77.0855C305.747 31.1836 251.015 1.46234 189.335 1.46234C85.5769 1.46234 1.46234 85.5773 1.46234 189.337C1.46234 251.017 31.1868 305.748 77.0886 340.001C31.1868 374.254 1.46234 428.984 1.46234 490.668C1.46234 594.422 85.5769 678.538 189.335 678.538C251.015 678.538 305.747 648.817 340 602.914C374.253 648.817 428.985 678.538 490.662 678.538C594.422 678.538 678.538 594.422 678.538 490.668C678.538 428.984 648.814 374.254 602.911 340.001Z" stroke="black" stroke-linejoin="round"/>
</svg>
