<svg width="465" height="465" viewBox="0 0 465 465" fill="none" xmlns="http://www.w3.org/2000/svg">
<path fill-rule="evenodd" clip-rule="evenodd" d="M412.285 232.501C443.674 209.078 464 171.651 464 129.473C464 58.5198 406.48 1 335.526 1C293.35 1 255.923 21.3241 232.5 52.7129C209.077 21.3241 171.65 1 129.472 1C58.5195 1 1 58.5198 1 129.473C1 171.651 21.3263 209.078 52.715 232.501C21.3263 255.924 1 293.349 1 335.53C1 406.48 58.5195 464 129.472 464C171.65 464 209.077 443.676 232.5 412.287C255.923 443.676 293.35 464 335.526 464C406.48 464 464 406.48 464 335.53C464 293.349 443.674 255.924 412.285 232.501Z" stroke="black" stroke-linejoin="round"/>
</svg>
