<svg width="202" height="202" viewBox="0 0 202 202" fill="none" xmlns="http://www.w3.org/2000/svg">
<path fill-rule="evenodd" clip-rule="evenodd" d="M201 101.001C201 93.9267 198.06 87.1953 192.76 81.0965C185.227 72.4272 180.761 61.6423 179.958 50.1856C179.392 42.1257 176.712 35.2903 171.71 30.2886C166.709 25.2881 159.873 22.6069 151.815 22.0424C140.358 21.2379 129.573 16.7722 120.904 9.23961C114.805 3.93873 108.074 1 100.999 1C93.9251 1 87.1938 3.93873 81.0949 9.23961C72.4257 16.7722 61.6409 21.239 50.1842 22.0424C42.1266 22.6069 35.2901 25.2892 30.2884 30.2897C25.2879 35.2914 22.6068 42.1268 22.0423 50.1856C21.2388 61.6423 16.7721 72.4272 9.23957 81.0954C3.93871 87.1942 1 93.9267 1 101.001C1 108.074 3.93871 114.806 9.23957 120.905C16.7721 129.574 21.2388 140.359 22.0423 151.816C22.6068 159.874 25.2879 166.71 30.2884 171.711C35.2901 176.712 42.1266 179.393 50.1842 179.959C61.6409 180.762 72.4268 185.229 81.0949 192.761C87.1938 198.062 93.9251 201 100.999 201C108.074 201 114.805 198.062 120.904 192.761C129.573 185.229 140.358 180.762 151.815 179.959C159.873 179.394 166.709 176.713 171.71 171.712C176.711 166.711 179.392 159.874 179.958 151.816C180.761 140.36 185.227 129.574 192.76 120.906C198.06 114.807 201 108.076 201 101.001Z" stroke="black" stroke-linejoin="round"/>
</svg>
