<svg width="480" height="480" viewBox="0 0 480 480" fill="none" xmlns="http://www.w3.org/2000/svg">
  <path fill-rule="evenodd" clip-rule="evenodd" d="M479 240.003C479 223.095 471.974 207.007 459.307 192.431C441.302 171.711 430.629 145.935 428.709 118.554C427.357 99.2905 420.952 82.9537 408.998 70.9998C397.044 59.0485 380.707 52.6406 361.447 51.2914C334.066 49.3685 308.29 38.6956 287.571 20.6927C272.994 8.02356 256.906 1 239.999 1C223.091 1 207.003 8.02356 192.427 20.6927C171.707 38.6956 145.932 49.3711 118.55 51.2914C99.2926 52.6406 82.9533 59.0511 70.9994 71.0024C59.0482 82.9563 52.6403 99.2931 51.2911 118.554C49.3708 145.935 38.6954 171.711 20.6926 192.428C8.02352 207.004 1 223.095 1 240.003C1 256.908 8.02352 272.996 20.6926 287.572C38.6954 308.292 49.3708 334.067 51.2911 361.449C52.6403 380.71 59.0482 397.046 70.9994 409C82.9533 420.952 99.2926 427.359 118.55 428.711C145.932 430.632 171.71 441.307 192.427 459.31C207.003 471.979 223.091 479 239.999 479C256.906 479 272.994 471.979 287.571 459.31C308.29 441.307 334.066 430.632 361.447 428.711C380.707 427.362 397.044 420.954 408.998 409.003C420.949 397.049 427.357 380.71 428.709 361.449C430.629 334.07 441.302 308.292 459.307 287.575C471.974 272.998 479 256.91 479 240.003Z" stroke="#F6F4EE" stroke-linejoin="round"/>
</svg>
