<svg width="680" height="680" viewBox="0 0 680 680" fill="none" xmlns="http://www.w3.org/2000/svg">
<path fill-rule="evenodd" clip-rule="evenodd" d="M676.634 340.003C676.634 316.189 666.737 293.529 648.895 272.998C623.536 243.814 608.502 207.509 605.799 168.942C603.894 141.809 594.872 118.799 578.034 101.962C561.199 85.1283 538.186 76.1024 511.06 74.2021C472.492 71.4939 436.186 56.4609 407.004 31.1036C386.472 13.2591 363.813 3.36633 339.997 3.36633C316.183 3.36633 293.524 13.2591 272.993 31.1036C243.809 56.4609 207.504 71.4976 168.937 74.2021C141.812 76.1024 118.798 85.132 101.961 101.965C85.1276 118.803 76.1021 141.813 74.2018 168.942C71.4969 207.509 56.4605 243.814 31.1035 272.994C13.259 293.525 3.36633 316.189 3.36633 340.003C3.36633 363.813 13.259 386.476 31.1035 407.007C56.4605 436.19 71.4969 472.496 74.2018 511.064C76.1021 538.19 85.1276 561.202 101.961 578.037C118.798 594.872 141.812 603.897 168.937 605.803C207.504 608.506 243.813 623.543 272.993 648.898C293.524 666.743 316.183 676.634 339.997 676.634C363.813 676.634 386.472 666.743 407.004 648.898C436.186 623.543 472.492 608.506 511.06 605.803C538.186 603.901 561.199 594.875 578.034 578.04C594.869 561.205 603.894 538.19 605.799 511.064C608.502 472.499 623.536 436.19 648.895 407.01C666.737 386.479 676.634 363.82 676.634 340.003Z" stroke="black" stroke-linejoin="round"/>
</svg>

