<svg width="930" height="930" viewBox="0 0 930 930" fill="none" xmlns="http://www.w3.org/2000/svg">
<path fill-rule="evenodd" clip-rule="evenodd" d="M929 465C929 406.082 900.242 353.906 856.025 321.66C901.776 288.293 930.977 233.594 928.896 172.167C925.759 79.5719 850.432 4.24064 757.832 1.10441C696.405 -0.976905 641.706 28.2233 608.338 73.9789C576.092 29.7581 523.916 1.00462 464.998 1.00462C406.084 1.00462 353.908 29.7581 321.662 73.9789C288.299 28.2233 233.595 -0.976905 172.168 1.10441C79.5679 4.24064 4.24585 79.5719 1.10486 172.167C-0.976468 233.594 28.2238 288.293 73.9797 321.66C29.7587 353.906 1.00031 406.082 1.00031 465C1.00031 523.913 29.7587 576.089 73.9797 608.335C28.2238 641.703 -0.98122 696.406 1.10486 757.838C4.24585 850.433 79.5727 925.754 172.168 928.891C233.6 930.972 288.299 901.772 321.662 856.016C353.908 900.237 406.084 929 464.998 929C523.916 929 576.092 900.237 608.338 856.021C641.706 901.772 696.405 930.977 757.832 928.891C850.432 925.754 925.755 850.428 928.896 757.833C930.977 696.401 901.776 641.703 856.025 608.335C900.242 576.089 929 523.913 929 465Z" stroke="black" stroke-width="2" stroke-linejoin="round"/>
</svg>
