<svg width="930" height="930" viewBox="0 0 930 930" fill="none" xmlns="http://www.w3.org/2000/svg">
<path fill-rule="evenodd" clip-rule="evenodd" d="M929 465.005C929 432.18 915.359 400.946 890.768 372.648C855.812 332.422 835.092 282.38 831.364 229.221C828.739 191.823 816.304 160.107 793.097 136.899C769.889 113.697 738.173 101.256 700.78 98.6368C647.621 94.9037 597.58 74.1831 557.354 39.2318C529.056 14.6357 497.823 1 464.997 1C432.172 1 400.939 14.6357 372.64 39.2318C332.415 74.1831 282.374 94.9088 229.215 98.6368C191.827 101.256 160.106 113.702 136.898 136.904C113.696 160.112 101.256 191.828 98.6363 229.221C94.9082 282.38 74.1827 332.422 39.2316 372.642C14.6356 400.941 1 432.18 1 465.005C1 497.825 14.6356 529.059 39.2316 557.358C74.1827 597.583 94.9082 647.625 98.6363 700.784C101.256 738.177 113.696 769.893 136.898 793.101C160.106 816.303 191.827 828.744 229.215 831.368C282.374 835.096 332.42 855.822 372.64 890.773C400.939 915.369 432.172 929 464.997 929C497.823 929 529.056 915.369 557.354 890.773C597.58 855.822 647.621 835.096 700.78 831.368C738.173 828.749 769.889 816.308 793.097 793.106C816.299 769.898 828.739 738.177 831.364 700.784C835.092 647.63 855.812 597.583 890.768 557.363C915.359 529.064 929 497.83 929 465.005Z" stroke="black" stroke-width="2" stroke-linejoin="round"/>
</svg>
