<svg width="928" height="930" viewBox="0 0 928 930" fill="none" xmlns="http://www.w3.org/2000/svg">
<path fill-rule="evenodd" clip-rule="evenodd" d="M880.105 523.472C851.986 488.507 851.986 441.493 880.105 406.528C910.137 369.186 927 327.209 927 282.829C927 127.18 719.704 1 464 1C208.291 1 1 127.18 1 282.829C1 327.209 17.8585 369.186 47.89 406.528C76.0091 441.493 76.0091 488.507 47.89 523.472C17.8585 560.819 1 602.791 1 647.171C1 802.82 208.291 929 464 929C719.704 929 927 802.82 927 647.171C927 602.791 910.137 560.819 880.105 523.472Z" stroke="black" stroke-width="2" stroke-linejoin="round"/>
</svg>
