<svg width="161" height="153" viewBox="0 0 161 153" fill="none" xmlns="http://www.w3.org/2000/svg">
<path fill-rule="evenodd" clip-rule="evenodd" d="M151.948 86.0143C147.12 80.3249 147.12 72.6751 151.948 66.9858C157.104 60.9096 160 54.0792 160 46.858C160 21.5314 124.406 1 80.5 1C36.5932 1 1 21.5314 1 46.858C1 54.0792 3.89471 60.9096 9.0513 66.9858C13.8795 72.6751 13.8795 80.3249 9.0513 86.0143C3.89471 92.0912 1 98.9208 1 106.142C1 131.469 36.5932 152 80.5 152C124.406 152 160 131.469 160 106.142C160 98.9208 157.104 92.0912 151.948 86.0143Z" stroke="#f6f4ee" stroke-linejoin="round" stroke-width="0.3px"/>
</svg>
