<svg width="358" height="338" viewBox="0 0 358 338" fill="none" xmlns="http://www.w3.org/2000/svg">
<path fill-rule="evenodd" clip-rule="evenodd" d="M338.971 190.171C328.161 177.511 328.161 160.489 338.971 147.829C350.517 134.309 357 119.11 357 103.042C357 46.6859 277.305 1 179 1C80.693 1 1 46.6859 1 103.042C1 119.11 7.48123 134.309 19.0268 147.829C29.8372 160.489 29.8372 177.511 19.0268 190.171C7.48123 203.693 1 218.89 1 234.958C1 291.314 80.693 337 179 337C277.305 337 357 291.314 357 234.958C357 218.89 350.517 203.693 338.971 190.171Z" stroke="black" stroke-linejoin="round"/>
</svg>
