<svg width="680" height="680" viewBox="0 0 680 680" fill="none" xmlns="http://www.w3.org/2000/svg">
<path fill-rule="evenodd" clip-rule="evenodd" d="M644.665 382.72C624.078 357.174 624.078 322.826 644.665 297.281C666.651 269.998 679 239.329 679 206.905C679 93.1874 527.222 1 340 1C152.775 1 1 93.1874 1 206.905C1 239.329 13.3435 269.998 35.332 297.281C55.9201 322.826 55.9201 357.174 35.332 382.72C13.3435 410.005 1 440.671 1 473.095C1 586.814 152.775 679 340 679C527.222 679 679 586.814 679 473.095C679 440.671 666.651 410.005 644.665 382.72Z" stroke="black" stroke-linejoin="round"/>
</svg>

