<?xml version="1.0" standalone="no"?>
<!DOCTYPE svg PUBLIC "-//W3C//DTD SVG 1.1//EN" "http://www.w3.org/Graphics/SVG/1.1/DTD/svg11.dtd" >
<svg xmlns="http://www.w3.org/2000/svg" xmlns:xlink="http://www.w3.org/1999/xlink" version="1.1">
<metadata>
Created by FontForge 20170731 at Thu Jul 25 22:13:52 2019
 By Aleksey,,,
Copyright (c) 2019 by Jan Estrada-Osmycki. All rights reserved.
</metadata>
<defs>
<font id="WulkanDisplay-Regular" horiz-adv-x="589" >
  <font-face 
    font-family="Wulkan Display"
    font-weight="400"
    font-stretch="normal"
    units-per-em="1000"
    panose-1="0 0 0 0 0 0 0 0 0 0"
    ascent="800"
    descent="-200"
    x-height="500"
    cap-height="720"
    bbox="-658 -306 1142 941"
    underline-thickness="50"
    underline-position="-250"
    unicode-range="U+0020-2212"
  />
<missing-glyph horiz-adv-x="436" 
 />
    <glyph glyph-name=".notdef" horiz-adv-x="436" 
 />
    <glyph glyph-name=".null" horiz-adv-x="0" 
 />
    <glyph glyph-name="nonmarkingreturn" horiz-adv-x="333" 
 />
    <glyph glyph-name="space" unicode=" " horiz-adv-x="244" 
 />
    <glyph glyph-name="exclam" unicode="!" horiz-adv-x="240" 
d="M114 178v82q0 133 -22 262t-22 141q0 32 13.5 51t35.5 19q23 0 36 -18.5t13 -51.5q0 -12 -21 -141t-21 -262v-82h-12zM121 -13q-23 0 -38.5 15.5t-15.5 38.5t15.5 38.5t38.5 15.5q22 0 37.5 -16t15.5 -38t-15.5 -38t-37.5 -16z" />
    <glyph glyph-name="quotedbl" unicode="&#x22;" horiz-adv-x="286" 
d="M73 437q0 71 -13.5 148t-13.5 92q0 56 32 56q33 0 33 -56q0 -15 -13.5 -92t-13.5 -148h-11zM202 437q0 71 -13.5 148t-13.5 92q0 56 32 56q33 0 33 -56q0 -15 -13.5 -92t-13.5 -148h-11z" />
    <glyph glyph-name="numbersign" unicode="#" horiz-adv-x="605" 
d="M576 473l-138 1l-65 -226l146 2l-8 -15l-141 1l-63 -236h-20l70 236h-181l-64 -236h-19l69 236l-142 -1l8 15l138 -2l64 226l-145 -1l9 16l139 -3l64 234h19l-70 -234h182l63 234h21l-70 -234l143 3zM424 474h-181l-64 -226h181z" />
    <glyph glyph-name="dollar" unicode="$" horiz-adv-x="549" 
d="M278 416q112 -48 144 -69q92 -60 93 -150q0 -95 -59 -152.5t-152 -57.5q-16 0 -23 1l1 -67h-18l1 69q-31 5 -63 17t-51 21.5t-36 13.5t-25.5 -6.5t-11.5 -38.5h-9l-33 284h13q29 -122 86.5 -192.5t129.5 -85.5l1 182v145q-48 21 -67 29.5t-57 30.5t-54.5 40t-31 47.5
t-14.5 63.5q0 74 54.5 133t141.5 59q4 0 13 -0.5t14 -0.5l-1 72h18l-1 -75q25 -4 54 -14t46.5 -17t33.5 -10.5t24.5 5t10.5 30.5h8l22 -226h-13q-18 91 -69 147.5t-117 71.5l-3 -197v-103zM97 597q0 -64 43.5 -102t125.5 -74v100l-1 198q-20 2 -29 2q-58 0 -98.5 -36
t-40.5 -88zM302 -1q63 0 109.5 38.5t46.5 108.5q0 63 -46 102t-134 77v-142l3 -183q7 -1 21 -1z" />
    <glyph glyph-name="percent" unicode="%" horiz-adv-x="798" 
d="M191 342q-63 0 -109.5 56t-46.5 140t46.5 139.5t109.5 55.5t110 -56t47 -139q0 -84 -47 -140t-110 -56zM191 354q45 0 72.5 51.5t27.5 132.5t-27.5 132t-72.5 51t-72.5 -51.5t-27.5 -131.5t27.5 -132t72.5 -52zM150 0l133 202l196 311l129 207h23l-141 -215l-199 -314
l-118 -191h-23zM606 -13q-63 0 -109.5 56t-46.5 140t46.5 139.5t109.5 55.5t110 -56t47 -139q0 -84 -47 -140t-110 -56zM606 -1q45 0 72.5 51.5t27.5 132.5t-27.5 132t-72.5 51t-72.5 -51.5t-27.5 -131.5t27.5 -132t72.5 -52z" />
    <glyph glyph-name="ampersand" unicode="&#x26;" horiz-adv-x="712" 
d="M690 158q10 -79 -12.5 -125t-73.5 -46q-36 0 -64.5 23t-74.5 85q-90 -108 -216 -108q-90 0 -147 58.5t-57 139.5t44.5 133.5t136.5 102.5q-74 99 -74 163q0 60 44 104.5t119 44.5q63 0 106.5 -29.5t43.5 -85.5q0 -47 -35.5 -83.5t-128.5 -82.5l201 -276q35 72 46 165
q6 60 -14 84.5t-64 26.5v11h192v-11q-49 -2 -70.5 -22.5t-29.5 -88.5q-12 -100 -52 -176l25 -35q56 -78 99 -78q55 0 46 106h10zM313 721q-43 0 -72.5 -26t-29.5 -63q0 -29 14 -61.5t23.5 -46t36.5 -50.5l10 -14q125 74 125 159q0 47 -29 74.5t-78 27.5zM302 26q87 0 154 80
q-5 8 -17 24l-208 283q-62 -41 -93.5 -82.5t-31.5 -97.5q0 -92 55 -149.5t141 -57.5z" />
    <glyph glyph-name="quotesingle" unicode="'" horiz-adv-x="157" 
d="M73 437q0 71 -13.5 148t-13.5 92q0 56 32 56q33 0 33 -56q0 -15 -13.5 -92t-13.5 -148h-11z" />
    <glyph glyph-name="parenleft" unicode="(" horiz-adv-x="292" 
d="M287 -230q-128 69 -192.5 201t-64.5 297t64.5 298t193.5 198l4 -7q-197 -123 -201 -487q-4 -359 200 -493z" />
    <glyph glyph-name="parenright" unicode=")" horiz-adv-x="292" 
d="M6 -230l-5 7q204 133 200 493q-4 365 -201 487l4 7q129 -65 194 -198t65 -298t-64.5 -297t-192.5 -201z" />
    <glyph glyph-name="asterisk" unicode="*" horiz-adv-x="399" 
d="M370 608q2 -9 -3 -18t-16 -13q-12 -4 -52.5 -8t-89.5 -18l-3 -1l1 -1q32 -41 62.5 -68t37.5 -36q16 -21 -3 -37q-20 -14 -36 8q-8 11 -24 48t-44 79l-1 1l-1 -1q-28 -42 -44 -79t-24 -48q-7 -10 -17.5 -12t-18.5 4q-7 6 -8.5 16t5.5 21q7 9 37.5 36t62.5 68l1 1l-5 2
q-49 14 -89.5 17.5t-52.5 7.5q-25 8 -18 32q2 9 12 14t21 1q12 -4 47 -25t83 -38l4 -1v3q-2 51 -10.5 90.5t-8.5 52.5q0 12 7 19.5t17 7.5t17.5 -7.5t7.5 -19.5q0 -13 -9 -52.5t-11 -90.5v-4l2 1q48 18 83 38.5t47 24.5q11 4 21 -0.5t13 -14.5z" />
    <glyph glyph-name="plus" unicode="+" horiz-adv-x="462" 
d="M328 313l97 5v-22l-140 5h-47v-85l5 -103h-22l5 136v52h-85l-103 -5v22l136 -5h52v90l-5 97h22l-5 -140v-47h90z" />
    <glyph glyph-name="comma" unicode="," horiz-adv-x="231" 
d="M32 -161v11q53 30 83.5 74t31.5 95l-4 1q-8 -33 -39 -33q-16 0 -31.5 15.5t-15.5 40.5q0 24 16 39.5t40 15.5q28 0 43.5 -19.5t15.5 -47.5q0 -55 -34 -105.5t-106 -86.5z" />
    <glyph glyph-name="hyphen" unicode="-" horiz-adv-x="354" 
d="M38 290v22l101 -5h104l74 5v-22l-98 5h-111z" />
    <glyph glyph-name="period" unicode="." horiz-adv-x="199" 
d="M100 -13q-22 0 -38 15.5t-16 38.5t16 38.5t38 15.5t37.5 -16t15.5 -38t-15.5 -38t-37.5 -16z" />
    <glyph glyph-name="slash" unicode="/" horiz-adv-x="492" 
d="M3 -159l128 247l189 379l125 253h22l-136 -262l-192 -384l-114 -233h-22z" />
    <glyph glyph-name="zero" unicode="0" horiz-adv-x="512" 
d="M256 -13q-90 0 -156.5 78t-66.5 185q0 109 66.5 186t156.5 77q98 0 161 -76t63 -187q0 -110 -63.5 -186.5t-160.5 -76.5zM256 -1q61 0 103.5 66.5t42.5 184.5q0 119 -42.5 185t-103.5 66t-103.5 -66t-42.5 -185q0 -118 42.5 -184.5t103.5 -66.5z" />
    <glyph glyph-name="one" unicode="1" horiz-adv-x="299" 
d="M44 397v14l145 105v-420q0 -49 18.5 -66.5t50.5 -18.5v-11h-211v11q35 1 54 18.5t19 66.5v245q0 107 -76 56z" />
    <glyph glyph-name="two" unicode="2" horiz-adv-x="488" 
d="M457 182h12l-61 -196q-32 14 -138 14h-262l214 196q68 62 96.5 102t28.5 87q0 51 -33.5 83.5t-86.5 32.5q-56 0 -88 -28.5t-32 -69.5q0 -21 10 -41t10 -32q0 -17 -10.5 -28t-25.5 -11q-19 0 -31 15t-12 39q0 26 10.5 53.5t31 54t58.5 43.5t86 17q89 0 137 -38t48 -100
t-67.5 -125t-258.5 -188h215q62 0 91.5 24t57.5 96z" />
    <glyph glyph-name="three" unicode="3" horiz-adv-x="469" 
d="M184 157q124 17 191 -36.5t67 -133.5q0 -51 -23 -92.5t-59.5 -66.5t-76 -38t-76.5 -13q-101 1 -146 46.5t-45 96.5q0 30 16 48.5t36 18.5q16 0 28 -11t12 -31q0 -13 -9 -31.5t-9 -36.5q0 -40 33.5 -64t83.5 -24q67 0 112 51.5t45 126.5q0 101 -72 151t-195 9l-4 9
q108 36 175.5 95.5t67.5 134.5q0 62 -33 98.5t-92 36.5q-51 0 -80.5 -26t-29.5 -60q0 -18 9.5 -37t9.5 -33q0 -18 -10 -30t-28 -12q-20 0 -32 15.5t-12 41.5q0 21 10 46t30 49.5t56.5 41t82.5 16.5q78 0 132.5 -41.5t54.5 -107.5q0 -65 -59 -117t-162 -87z" />
    <glyph glyph-name="four" unicode="4" horiz-adv-x="520" 
d="M512 55l-25 -55h-83v-220h-69v220h-338l407 518v-463h108zM60 55h275v348z" />
    <glyph glyph-name="five" unicode="5" horiz-adv-x="466" 
d="M232 238q97 0 150.5 -60.5t53.5 -149.5q0 -93 -69.5 -176t-172.5 -83q-92 0 -136 44.5t-44 95.5q0 28 13 46t32 18q17 0 28 -11.5t8 -32.5q-1 -10 -8.5 -27.5t-7.5 -34.5q0 -32 30.5 -58.5t81.5 -26.5q65 0 119.5 54t63.5 140q10 96 -42 152t-124 56q-110 0 -152 -96h-11
l70 412h195q48 0 77 13.5t40 48.5h11l-34 -126h-279l-54 -281q58 83 161 83z" />
    <glyph glyph-name="six" unicode="6" horiz-adv-x="503" 
d="M273 473q83 0 140.5 -72t57.5 -164q0 -109 -58.5 -179.5t-157.5 -70.5q-101 0 -161.5 89.5t-60.5 221.5q0 169 114 294t272 141l1 -8q-127 -23 -219.5 -138.5t-96.5 -267.5q20 85 68 119.5t101 34.5zM268 0q57 0 91 62.5t34 149.5q0 104 -42 170.5t-107 66.5
q-53 0 -91 -56t-38 -154q0 -108 46.5 -173.5t106.5 -65.5z" />
    <glyph glyph-name="seven" unicode="7" horiz-adv-x="471" 
d="M189 500h274q-75 -152 -112.5 -233.5t-87.5 -217.5t-80 -269h-88q140 382 323 656h-230q-80 0 -110 -24t-56 -105h-12l56 221l6 -4q6 -5 7 -5.5t7 -4t9.5 -4t11 -3t15 -3.5t17.5 -2t22.5 -1.5t27.5 -0.5z" />
    <glyph glyph-name="eight" unicode="8" horiz-adv-x="509" 
d="M298 395q40 -25 65 -42.5t53 -45.5t41.5 -61t13.5 -72q0 -79 -63 -133t-154 -54q-90 0 -153 46t-63 129q0 122 168 200q-69 42 -106 84.5t-37 102.5q0 76 59 130t141 54q83 0 136.5 -45.5t53.5 -106.5q0 -58 -36 -102.5t-119 -83.5zM120 593q0 -26 10 -50t23 -40.5
t39 -37t42.5 -31.5t50.5 -31q115 69 115 169q0 62 -37.5 105.5t-99.5 43.5q-60 0 -101.5 -36.5t-41.5 -91.5zM254 -1q64 0 110.5 42t46.5 107q0 16 -3 31t-11 29t-14.5 24.5t-21.5 23.5t-23 20.5t-28.5 21t-28 18t-31.5 19t-30 18.5q-122 -68 -122 -181q0 -81 43.5 -127
t112.5 -46z" />
    <glyph glyph-name="nine" unicode="9" horiz-adv-x="503" 
d="M248 513q101 0 162 -89.5t61 -221.5q0 -169 -114.5 -294t-272.5 -141l-1 8q128 23 221.5 140t95.5 271q-19 -88 -67.5 -123.5t-102.5 -35.5q-83 0 -140 72t-57 164q0 109 58.5 179.5t156.5 70.5zM259 51q53 0 91.5 56t38.5 154q0 108 -47 173.5t-107 65.5
q-56 0 -90 -62.5t-34 -149.5q0 -105 41.5 -171t106.5 -66z" />
    <glyph glyph-name="colon" unicode=":" horiz-adv-x="199" 
d="M100 406q-23 0 -38.5 15.5t-15.5 38.5q0 22 16 37.5t38 15.5t37.5 -15.5t15.5 -37.5q0 -23 -15.5 -38.5t-37.5 -15.5zM100 -13q-22 0 -38 15.5t-16 38.5t16 38.5t38 15.5t37.5 -16t15.5 -38t-15.5 -38t-37.5 -16z" />
    <glyph glyph-name="semicolon" unicode=";" horiz-adv-x="231" 
d="M114 406q-23 0 -39 15.5t-16 38.5q0 22 16 37.5t39 15.5q21 0 37 -15.5t16 -37.5q0 -23 -16 -38.5t-37 -15.5zM32 -161v11q53 30 83.5 74t31.5 95l-4 1q-8 -33 -39 -33q-16 0 -31.5 15.5t-15.5 40.5q0 24 16 39.5t40 15.5q28 0 43.5 -19.5t15.5 -47.5q0 -55 -34 -105.5
t-106 -86.5z" />
    <glyph glyph-name="less" unicode="&#x3c;" horiz-adv-x="408" 
d="M381 490v-20l-309 -160l309 -166v-52l-340 185l-13 20z" />
    <glyph glyph-name="equal" unicode="=" horiz-adv-x="462" 
d="M425 388v-22l-140 5h-144l-103 -5v22l136 -5h154zM425 235v-22l-140 5h-144l-103 -5v22l136 -5h154z" />
    <glyph glyph-name="greater" unicode="&#x3e;" horiz-adv-x="408" 
d="M368 305l13 -20l-353 -193v20l308 160l-308 166v52z" />
    <glyph glyph-name="question" unicode="?" horiz-adv-x="446" 
d="M183 173q-12 59 -13 100t11.5 70.5t31 49t52.5 43.5q40 29 61.5 60.5t21.5 77.5q0 67 -34 107t-93 40q-51 0 -89 -30.5t-38 -73.5q0 -24 13.5 -45.5t13.5 -36.5q0 -19 -13 -30t-31 -11q-21 0 -35 21.5t-14 51.5q0 23 11.5 49.5t34.5 53.5t64 45t92 18q73 0 131 -46.5
t58 -128.5q0 -62 -30.5 -100.5t-83.5 -70.5q-30 -19 -46.5 -32t-36 -38t-26.5 -60.5t-3 -83.5h-10zM199 -13q-23 0 -39 16t-16 38t16 38t39 16q21 0 37 -16t16 -38t-16 -38t-37 -16z" />
    <glyph glyph-name="at" unicode="@" horiz-adv-x="945" 
d="M800 -109q-132 -122 -312 -122q-199 0 -328.5 139.5t-129.5 348.5q0 126 62 236t167.5 175t228.5 65q190 0 309 -115t119 -286q0 -141 -72 -243t-181 -102q-44 0 -59.5 28.5t-16.5 91.5q-20 -59 -68.5 -89.5t-104.5 -30.5q-52 0 -92.5 26t-40.5 86q0 24 10 44.5t24.5 36
t39.5 30t45 23t51.5 18t49 14t48 11.5t38.5 9v36q0 95 -33.5 138t-87.5 43q-40 0 -68 -23.5t-28 -60.5q0 -15 5.5 -32.5t5.5 -27.5q0 -15 -12 -25.5t-29 -10.5q-18 0 -27.5 15t-9.5 36q0 58 51.5 99t112.5 41q189 0 189 -214v-223q0 -62 42 -62q83 0 144 98t61 215
q0 169 -116.5 281t-298.5 112q-113 0 -211 -64.5t-154.5 -171t-56.5 -227.5q0 -201 119 -338t303 -137q86 0 166 31t140 86zM447 17q50 0 95 39t45 108v111q-9 -3 -38.5 -12t-39.5 -12.5t-34.5 -12t-33.5 -14t-27 -15.5t-25 -19t-16.5 -21t-13 -26.5t-3.5 -30.5
q0 -46 25 -70.5t66 -24.5z" />
    <glyph glyph-name="A" unicode="A" horiz-adv-x="630" 
d="M513 169q3 -10 11.5 -36t11.5 -34.5t10.5 -27t13.5 -25t15.5 -16.5t21 -14t25.5 -5v-11h-213v11q46 6 52 40q6 28 -16 95l-35 106h-254q-57 -164 -52 -192q4 -47 61 -49v-11h-183v11q32 1 53.5 15.5t37.5 51.5q35 83 96 257q8 24 21 60.5t19 55t15.5 46t14 41.5t10.5 34
t9 31t6 24t4 21.5t1 16.5q0 27 -5 45q32 8 62 28zM160 264h246l-124 372q-5 -24 -16.5 -61t-22.5 -68.5t-30 -87.5t-29 -86q-12 -36 -24 -69z" />
    <glyph glyph-name="B" unicode="B" 
d="M556 191q1 -88 -62 -139.5t-178 -51.5h-273v11q25 1 42 19.5t17 57.5v545q0 42 -15 58.5t-44 17.5v11h222q113 0 181.5 -47.5t69.5 -131.5q1 -62 -40.5 -104t-108.5 -59q83 -11 135.5 -61t53.5 -126zM238 708h-63v-323l48 -4l72 -1q61 6 103.5 43t43.5 118
q1 79 -50.5 123t-153.5 44zM479 191q1 82 -55 128.5t-129 47.5h-7h-10l-64 1h-39v-347q61 -9 127 -9q74 0 125 51.5t52 127.5z" />
    <glyph glyph-name="C" unicode="C" horiz-adv-x="609" 
d="M340 -13q-137 0 -223.5 108.5t-86.5 266.5q0 153 89.5 262t212.5 109q32 0 63 -10.5t48 -20t38 -9t41 19.5l50 -267h-13q-70 275 -229 275q-95 0 -163.5 -86.5t-68.5 -231.5q0 -59 16 -119t48 -114t87.5 -88t126.5 -34q63 0 115.5 41.5t76.5 121.5l8 -2q-21 -96 -85 -159
t-151 -63z" />
    <glyph glyph-name="D" unicode="D" horiz-adv-x="649" 
d="M281 720q137 0 237.5 -105.5t100.5 -246.5q0 -152 -81 -260t-212 -108h-283v11q25 1 42 19.5t17 57.5v545q0 42 -15 58.5t-44 17.5v11h238zM324 12q99 0 158 83.5t59 220.5q0 331 -219 382q-41 10 -146 10v-680q69 -16 148 -16z" />
    <glyph glyph-name="E" unicode="E" 
d="M559 187h12l-61 -202q-42 15 -122 15h-345v11q59 2 59 75v550q0 71 -59 73v11h322q40 0 72 4.5t45 9t17 8.5l56 -187h-13q-21 61 -44 90.5t-73.5 46t-140.5 16.5h-109v-289h135q53 0 74 19t23 61h11v-172h-11q-2 45 -22.5 62.5t-74.5 17.5h-135v-374q49 -21 131 -21
q109 0 163.5 35t89.5 140z" />
    <glyph glyph-name="F" unicode="F" horiz-adv-x="550" 
d="M487 742l55 -187h-12q-22 61 -44.5 90.5t-71.5 46t-137 16.5h-102v-289h125q53 0 73 19t21 61h12v-172h-12q-2 37 -22.5 58.5t-71.5 21.5h-125v-320q0 -38 17.5 -56.5t41.5 -19.5v-11h-191v11q25 1 42 19.5t17 57.5v545q0 42 -15 58.5t-44 17.5v11h310q86 0 134 22z" />
    <glyph glyph-name="G" unicode="G" horiz-adv-x="665" 
d="M30 354q0 156 92.5 267.5t204.5 111.5q41 0 78 -11t56.5 -21t41 -9t41.5 20l41 -267h-14q-25 120 -86.5 198t-154.5 78q-94 0 -160.5 -95.5t-66.5 -234.5q0 -171 74.5 -275t181.5 -104q66 0 112.5 47.5t46.5 124.5v65q0 45 -17 60t-57 15v11h202v-11q-30 0 -44.5 -15
t-14.5 -52v-270h-12q-2 29 -18 47.5t-41 18.5q-17 0 -41.5 -16.5t-64.5 -33t-95 -16.5q-87 0 -153.5 53.5t-99 136t-32.5 177.5z" />
    <glyph glyph-name="H" unicode="H" horiz-adv-x="695" 
d="M652 709q-31 -1 -45 -16.5t-14 -57.5v-548q0 -40 17.5 -57.5t41.5 -18.5v-11h-192v11q60 2 60 77v283h-345v-284q0 -40 17.5 -57.5t41.5 -18.5v-11h-191v11q59 2 59 77v547q0 41 -15 57t-44 17v11h191v-11q-31 -1 -45 -16.5t-14 -57.5v-252h345v252q0 41 -15.5 57
t-44.5 17v11h192v-11z" />
    <glyph glyph-name="I" unicode="I" horiz-adv-x="307" 
d="M58 0v11q59 2 59 77v547q0 41 -15 57t-44 17v11h191v-11q-31 -1 -45 -16.5t-14 -57.5v-548q0 -40 17.5 -57.5t41.5 -18.5v-11h-191z" />
    <glyph glyph-name="J" unicode="J" horiz-adv-x="455" 
d="M171 -13q-78 0 -120.5 51.5t-42.5 116.5q0 37 18 59.5t44 22.5q46 0 46 -41q0 -15 -8.5 -27t-18.5 -20.5t-18.5 -25t-8.5 -38.5q0 -30 27.5 -57.5t70.5 -27.5q63 0 99.5 42.5t36.5 132.5v452q0 45 -16.5 63t-52.5 19v11h196v-10q-53 -2 -53 -71v-408q0 -56 -14.5 -100.5
t-36 -70.5t-49.5 -43.5t-52.5 -23.5t-46.5 -6z" />
    <glyph glyph-name="K" unicode="K" horiz-adv-x="620" 
d="M504 118q48 -65 71 -85.5t53 -21.5v-11h-77q-30 0 -56 22t-65 74l-183 253l-72 -88v-174q0 -40 17.5 -57.5t41.5 -18.5v-11h-191v11q59 2 59 77v547q0 41 -15 57t-44 17v11h191v-11q-31 -1 -45 -16.5t-14 -57.5v-355l254 324q39 53 31.5 78t-46.5 27v11h202v-11
q-43 -1 -81.5 -28.5t-88.5 -86.5l-191 -235l63 17z" />
    <glyph glyph-name="L" unicode="L" horiz-adv-x="552" 
d="M548 207h12l-59 -222q-45 15 -119 15h-339v11q59 2 59 77v545q0 42 -15 58.5t-44 17.5v11h192v-11q-31 -1 -45 -17.5t-14 -58.5v-603q48 -18 124 -18q57 0 90 5.5t64.5 25t53 59t40.5 105.5z" />
    <glyph glyph-name="M" unicode="M" horiz-adv-x="820" 
d="M726 91q7 -79 61 -80v-11h-191v11q27 1 42 20.5t13 55.5l-47 565q-121 -390 -151 -494q-31 -109 -24 -144q-41 -16 -63 -36l-202 679l-45 -554q-6 -90 83 -92v-11h-189v11q77 2 87 91l47 521q7 84 -78 86v11h157l188 -634l138 449q45 149 42 185h143v-11q-32 -1 -47 -20
t-13 -64q4 -81 49 -534z" />
    <glyph glyph-name="N" unicode="N" horiz-adv-x="672" 
d="M471 720h184v-11q-41 -1 -59.5 -24t-19.5 -83l-4 -484q-1 -53 26 -98q-36 -16 -61 -41l-401 655l4 -512q1 -107 90 -112v-10h-202v10q91 5 92 112l4 469q1 115 -90 118v11h137l386 -632l2 514q0 59 -22.5 82.5t-65.5 24.5v11z" />
    <glyph glyph-name="O" unicode="O" horiz-adv-x="672" 
d="M352 -13q-144 0 -233 110t-89 268q0 151 85 259.5t211 108.5q140 0 228 -107.5t88 -260.5q0 -156 -83.5 -267t-206.5 -111zM572 287q0 102 -30 197t-94 162t-147 67q-95 0 -148.5 -80t-53.5 -199q0 -100 31.5 -196t97 -163.5t149.5 -67.5q92 0 143.5 81t51.5 199z" />
    <glyph glyph-name="P" unicode="P" horiz-adv-x="572" 
d="M305 720q112 0 181 -55.5t69 -149.5q0 -91 -78 -147.5t-192 -56.5h-110v-221q0 -77 59 -79v-11h-191v11q26 1 42.5 20.5t16.5 58.5v543q0 42 -15 58.5t-44 17.5v11h262zM292 323q77 0 132.5 56t55.5 136q0 81 -54 137t-142 56h-109v-376q36 -9 117 -9z" />
    <glyph glyph-name="Q" unicode="Q" horiz-adv-x="669" 
d="M724 -112q74 0 133 54v-11q-34 -37 -72 -56t-107 -19q-48 0 -99.5 20.5t-87.5 45t-75 45t-64 20.5q-144 0 -233 110t-89 268q0 151 85 259.5t211 108.5q140 0 228 -107.5t88 -260.5q0 -144 -73 -252t-184 -124q51 -4 164.5 -52.5t174.5 -48.5zM99 434q0 -100 31.5 -196
t97 -163.5t149.5 -67.5q92 0 143.5 81t51.5 199q0 102 -30 197t-94 162t-147 67q-95 0 -148.5 -80t-53.5 -199z" />
    <glyph glyph-name="R" unicode="R" horiz-adv-x="600" 
d="M497 97q35 -51 58 -68.5t53 -17.5v-11h-71q-59 0 -111 76l-172 259h-79v-245q0 -77 59 -79v-11h-191v11q59 2 59 79v542q0 42 -15 58.5t-44 17.5v12h243q117 0 191 -54.5t74 -147.5q0 -87 -64 -135t-155 -48h-46v-7l61 -10zM175 708v-354q100 -8 127 -8q91 0 133.5 46.5
t42.5 125.5q0 82 -55.5 136t-159.5 54h-88z" />
    <glyph glyph-name="S" unicode="S" horiz-adv-x="549" 
d="M304 -13q-38 0 -77 11.5t-62 23t-43 18.5t-30.5 -2.5t-13.5 -40.5h-9l-33 284h13q33 -137 101.5 -209.5t151.5 -72.5q63 0 109.5 38.5t46.5 108.5q0 42 -23 75t-59.5 55t-81 41.5t-89 39.5t-81 43.5t-59.5 59.5t-23 81q0 74 54.5 133t141.5 59q33 0 68 -9.5t58 -19
t42.5 -15t30 1.5t13.5 32h8l22 -226h-13q-21 107 -87 165.5t-144 58.5q-58 0 -98.5 -36t-40.5 -88q0 -59 43 -100.5t104.5 -67t123 -52t104.5 -71.5t43 -109q0 -95 -59 -152.5t-152 -57.5z" />
    <glyph glyph-name="T" unicode="T" horiz-adv-x="608" 
d="M557 742l44 -218h-13q-13 52 -24.5 82t-33 55.5t-54.5 36t-83 10.5h-52v-621q0 -39 17.5 -57t41.5 -19v-11h-192v11q25 1 42.5 19t17.5 58v620h-53q-96 0 -134 -41t-61 -143h-12l44 218q48 -22 114 -22h277q70 0 114 22z" />
    <glyph glyph-name="U" unicode="U" horiz-adv-x="650" 
d="M343 -13q-121 0 -187.5 74t-66.5 222v354q0 70 -61 72v11h198v-11q-62 -2 -62 -71v-355q0 -278 198 -278q81 0 134 69.5t52 208.5v336q0 45 -23.5 67t-60.5 23v11h188v-11q-77 -2 -80 -90l-7 -336q-3 -145 -60 -220.5t-162 -75.5z" />
    <glyph glyph-name="V" unicode="V" horiz-adv-x="645" 
d="M465 720h182v-11q-32 -1 -53 -15.5t-38 -51.5q-43 -103 -95 -257q-8 -24 -21 -60.5t-19 -55t-15.5 -46t-14 -41.5t-10.5 -34t-9 -31t-6 -24t-4 -21.5t-1 -16.5q0 -28 5 -44q-32 -10 -62 -29l-187 570q-3 9 -11.5 36t-11.5 34.5t-10.5 26.5t-13.5 25.5t-15.5 16.5
t-21 13.5t-25.5 4.5v11h212v-11q-45 -6 -51 -40q-7 -25 16 -95l163 -490q9 41 98 303q10 28 26 75.5t24 71t17 53t11.5 46.5t1.5 27q-3 25 -21 36.5t-40 12.5v11z" />
    <glyph glyph-name="W" unicode="W" horiz-adv-x="971" 
d="M791 720h182v-11q-32 -1 -53 -15.5t-38 -51.5q-43 -103 -95 -257q-8 -24 -21 -60.5t-19 -55t-15.5 -46t-14 -41.5t-10.5 -34t-9 -31t-6 -24t-4 -21.5t-1 -16.5q0 -28 5 -44q-32 -10 -62 -29l-146 446l-16 -43q-89 -255 -98 -301q-2 -11 -3 -20q-3 -23 5 -50
q-15 -4 -31 -11t-24.5 -12t-8.5 -6l-184 567q-35 107 -51 125q-24 27 -65 32v11h220v-11q-46 -6 -52 -40q-6 -26 17 -95l162 -487q11 54 99 300q4 11 22 65l-33 100q-3 9 -11.5 36t-11.5 34.5t-10.5 26.5t-13.5 25.5t-15.5 16.5t-21 13.5t-25.5 4.5v11h212v-11
q-45 -6 -51 -40q-7 -25 16 -95l163 -490q9 41 98 303q10 28 26 75.5t24 71t17 53t11.5 46.5t1.5 27q-3 25 -21 36.5t-40 12.5v11z" />
    <glyph glyph-name="X" unicode="X" horiz-adv-x="644" 
d="M525 100q27 -45 53.5 -66.5t58.5 -22.5v-11h-211v11q63 5 2 107l-127 212l-127 -203q-70 -109 54 -116v-11h-220v11q44 3 82 35.5t93 120.5l111 176l-165 276q-32 53 -50 70.5t-51 19.5v11h202v-11q-66 -7 -16 -90l130 -216l123 199q63 101 -32 107v11h180v-11
q-67 -5 -133 -108l-130 -211z" />
    <glyph glyph-name="Y" unicode="Y" horiz-adv-x="607" 
d="M417 720h182v-11q-41 -5 -67 -35t-70 -113q-62 -120 -119 -235v-215q0 -55 12.5 -77t41.5 -23v-11h-181v10q54 2 54 96v213l-178 321q-36 65 -84 69v11h204v-11q-37 -4 -42.5 -24t18.5 -64l148 -278q21 42 59.5 121t48.5 98q16 32 23.5 56t7 44.5t-15 32t-42.5 14.5v11z
" />
    <glyph glyph-name="Z" unicode="Z" horiz-adv-x="575" 
d="M545 242h12l-63 -269q-39 27 -105 27h-372l426 706h-200q-76 0 -116 -41.5t-72 -127.5h-12l50 211q54 -28 129 -28h314l-421 -698q59 -9 198 -9q101 0 151 58t81 171z" />
    <glyph glyph-name="bracketleft" unicode="[" horiz-adv-x="311" 
d="M282 783v-13l-157 3q40 -265 40 -504q0 -228 -39 -501l156 3v-13h-177v1025h177z" />
    <glyph glyph-name="backslash" unicode="\" horiz-adv-x="475" 
d="M448 -159h-22l-114 233l-192 384l-136 262h22l125 -253l189 -379z" />
    <glyph glyph-name="bracketright" unicode="]" horiz-adv-x="311" 
d="M206 783v-1025h-177v13l156 -3q-38 266 -38 501q0 209 39 504l-157 -3v13h177z" />
    <glyph glyph-name="asciicircum" unicode="^" horiz-adv-x="493" 
d="M446 380h-53l-165 309l-161 -309h-19l193 353l20 -13z" />
    <glyph glyph-name="underscore" unicode="_" horiz-adv-x="497" 
d="M42 -80v22l168 -5h172l122 5v-22l-162 5h-184z" />
    <glyph glyph-name="a" unicode="a" horiz-adv-x="503" 
d="M174 -13q-53 0 -93.5 26t-40.5 86q0 24 10 44.5t24.5 36t39.5 30t45 23t52 18.5t49 14t48 11t39 9v36q0 95 -33.5 138t-87.5 43q-41 0 -68.5 -23.5t-27.5 -60.5q0 -15 5 -32.5t5 -27.5q0 -15 -11.5 -25.5t-28.5 -10.5q-18 0 -28 15t-10 36q0 58 51.5 99t112.5 41
q189 0 189 -214v-202q0 -51 19 -65.5t51 14.5v-14q-34 -45 -75 -45q-22 0 -35 9t-19 28t-7.5 36.5t-1.5 46.5q-20 -59 -68.5 -89.5t-104.5 -30.5zM206 17q50 0 95.5 39t45.5 108v111q-10 -3 -35.5 -11t-35 -11t-31.5 -11t-31.5 -12.5t-26.5 -13t-24.5 -15t-18.5 -17t-16 -21
t-8.5 -23.5t-3.5 -28q0 -46 24.5 -70.5t65.5 -24.5z" />
    <glyph glyph-name="b" unicode="b" horiz-adv-x="554" 
d="M300 513q98 0 159.5 -73.5t61.5 -193.5q0 -111 -67 -185t-153 -74q-41 0 -75 16t-55.5 32t-32.5 16q-41 0 -49 -64h-11v675q0 35 -17.5 47t-42.5 6v11l129 36v-353q20 46 61 75t92 29zM296 0q70 0 110.5 64t40.5 158q0 111 -45.5 187.5t-117.5 76.5q-46 0 -83.5 -28
t-53.5 -75v-196q0 -86 44 -136.5t105 -50.5z" />
    <glyph glyph-name="c" unicode="c" horiz-adv-x="474" 
d="M258 -13q-99 0 -162 79t-63 190q0 105 68 181t165 76q74 0 124 -44t50 -98q0 -29 -11.5 -45.5t-30.5 -16.5q-16 0 -27 10.5t-11 30.5q0 13 10 30.5t9 34.5q-2 32 -30 59t-91 27q-68 0 -113 -56.5t-45 -140.5q0 -127 55 -195t144 -68q37 0 78.5 24.5t68.5 84.5v-20
q-20 -61 -72 -102t-116 -41z" />
    <glyph glyph-name="d" unicode="d" horiz-adv-x="573" 
d="M472 87q0 -74 60 -76v-11h-135l14 98q-24 -49 -68 -80t-97 -31q-98 0 -155.5 74t-57.5 188q0 109 62 186.5t153 77.5q97 0 155 -76v225q0 68 -60 51v13l129 36v-675zM272 18q41 0 76 24.5t55 67.5v266q-21 54 -60 89t-99 35q-66 0 -103.5 -63.5t-37.5 -159.5
q0 -115 44 -187t125 -72z" />
    <glyph glyph-name="e" unicode="e" horiz-adv-x="476" 
d="M294 39q50 0 92.5 27t64.5 76v-28q-22 -57 -74.5 -92t-114.5 -35q-99 0 -164 78t-65 188t63 185t163 75q75 0 130 -48t65 -121l-357 -71q5 -102 57.5 -168t139.5 -66zM240 500q-63 0 -103.5 -61t-40.5 -142v-12l235 52q22 5 31.5 13.5t9.5 25.5q0 47 -38.5 85.5
t-93.5 38.5z" />
    <glyph glyph-name="f" unicode="f" horiz-adv-x="311" 
d="M236 762q44 0 78.5 -32.5t34.5 -82.5q0 -19 -11.5 -34.5t-31.5 -15.5q-37 0 -37 38q0 11 9 26t9 28q0 27 -17 43t-48 16q-32 0 -52 -25t-20 -59q0 -29 9 -81t9 -82l130 -1v-17l-130 6v-383q0 -53 14 -73.5t54 -21.5v-11h-198v11q61 1 61 95v383h-61v12q38 0 51 23t19 82
q21 156 128 156z" />
    <glyph glyph-name="g" unicode="g" horiz-adv-x="525" 
d="M441 514q-16 0 -26 -10.5t-10 -26.5q0 -20 23.5 -68.5t23.5 -90.5q0 -74 -54.5 -130.5t-141.5 -56.5q-81 0 -133 46q-38 -36 -38 -75q0 -67 101 -67q21 0 90 4t95 4q58 0 101.5 -30t43.5 -90q0 -66 -58.5 -110t-199.5 -44q-112 0 -168.5 30t-56.5 83q0 36 21 62t51 38
q-56 25 -56 91q0 67 66 112q-55 53 -55 136q0 76 52 134t144 58q85 0 141 -56q-4 11 -4 24q0 36 23.5 56t53.5 20q22 0 40 -13.5t18 -32.5q0 -31 -31 -31q-14 0 -28 17t-28 17zM272 144q38 0 64.5 24.5t35.5 53.5t9 58q0 86 -40 153t-103 67q-50 0 -79 -44t-29 -103
q0 -83 39 -146t103 -63zM361 -24q-23 0 -89 -4t-93 -4q-31 0 -55 7q-45 -25 -45 -88q0 -53 53 -79.5t128 -26.5q96 0 152 28.5t56 89.5q0 77 -107 77z" />
    <glyph glyph-name="h" unicode="h" horiz-adv-x="570" 
d="M479 80q0 -67 63 -69v-11h-192v11q25 1 42.5 18t17.5 51v215q0 189 -114 189q-34 0 -69 -29t-60 -89v-277q0 -76 68 -78v-11h-197v11q60 2 60 78v575q0 31 -16.5 43t-43.5 6v13l129 36v-370q29 59 71.5 90t89.5 31q151 0 151 -215v-218z" />
    <glyph glyph-name="i" unicode="i" horiz-adv-x="253" 
d="M130 609q-19 0 -33 14t-14 33q0 20 14 34.5t33 14.5q20 0 34.5 -14.5t14.5 -34.5q0 -19 -14.5 -33t-34.5 -14zM38 0v11q26 1 43 19t17 56v317q0 44 -17.5 57.5t-42.5 8.5v13l129 36v-432q0 -73 59 -75v-11h-188z" />
    <glyph glyph-name="j" unicode="j" horiz-adv-x="249" 
d="M143 609q-19 0 -33.5 14t-14.5 33q0 20 14.5 34.5t33.5 14.5t33.5 -14.5t14.5 -34.5q0 -19 -14.5 -33t-33.5 -14zM42 -231q-44 0 -74.5 34.5t-30.5 75.5q0 23 11 39t29 16q31 0 31 -32q0 -9 -7.5 -24t-7.5 -29q0 -27 16 -45.5t48 -18.5q36 0 55.5 29t19.5 70
q0 32 -11 95.5t-11 110.5v320q0 40 -15 52.5t-45 8.5v11l129 36v-513q0 -236 -137 -236z" />
    <glyph glyph-name="k" unicode="k" horiz-adv-x="528" 
d="M448 65q33 -52 85 -55v-10h-87q-25 0 -42 12.5t-37 45.5l-124 200l-75 -87v-87q0 -72 59 -74v-10h-189v10q26 1 43.5 18.5t17.5 55.5v573q0 33 -16.5 48t-44.5 10v11l130 36v-574l159 189q87 103 3 112v11h173v-11q-31 -4 -62.5 -23.5t-50.5 -38.5t-48 -54l-96 -111
l65 20z" />
    <glyph glyph-name="l" unicode="l" horiz-adv-x="271" 
d="M41 0v11q26 1 43.5 19.5t17.5 55.5v576q0 34 -17.5 46t-43.5 5v13l130 36v-676q0 -73 59 -75v-11h-189z" />
    <glyph glyph-name="m" unicode="m" horiz-adv-x="878" 
d="M788 80q0 -67 63 -69v-11h-193v11q26 1 43.5 18t17.5 51v215q0 189 -114 189q-33 0 -67 -26.5t-59 -82.5v-295q0 -67 63 -69v-11h-192v11q25 1 42.5 18t17.5 51v215q0 189 -114 189q-34 0 -69 -29t-60 -89v-286q0 -37 16 -52.5t52 -16.5v-11h-197v11q60 2 60 69v342
q0 61 -60 47v13l130 36l-12 -151q28 70 74 108t98 38q118 0 144 -130q28 63 71.5 96.5t92.5 33.5q152 0 152 -215v-218z" />
    <glyph glyph-name="n" unicode="n" horiz-adv-x="570" 
d="M479 80q0 -67 63 -69v-11h-192v11q25 1 42.5 18t17.5 51v215q0 189 -114 189q-34 0 -69 -29t-60 -89v-286q0 -37 16 -52.5t52 -16.5v-11h-197v11q60 2 60 69v342q0 61 -60 47v13l130 36l-12 -151q28 70 74 108t98 38q151 0 151 -215v-218z" />
    <glyph glyph-name="o" unicode="o" horiz-adv-x="542" 
d="M272 -13q-100 0 -169.5 77t-69.5 186q0 108 70 185.5t169 77.5q98 0 167.5 -77.5t69.5 -185.5q0 -109 -69.5 -186t-167.5 -77zM293 1q63 0 104 62t41 152q0 104 -55 194t-134 90q-63 0 -104 -61.5t-41 -151.5q0 -105 55 -195t134 -90z" />
    <glyph glyph-name="p" unicode="p" horiz-adv-x="564" 
d="M308 513q107 0 165.5 -77t58.5 -192q0 -103 -64.5 -180t-160.5 -77q-73 0 -149 69v-202q0 -34 16.5 -48t49.5 -15v-11h-190v11q55 2 55 63v563q0 56 -61 48v13l137 36l-14 -121q20 58 64.5 89t92.5 31zM301 0q76 0 116.5 61.5t40.5 165.5q0 58 -15 114t-54.5 100.5
t-96.5 44.5q-42 0 -79.5 -26.5t-54.5 -75.5v-249q16 -62 57.5 -98.5t85.5 -36.5z" />
    <glyph glyph-name="q" unicode="q" horiz-adv-x="562" 
d="M476 -135q0 -38 17 -55.5t42 -18.5v-11h-199v11q71 2 71 74v221q-22 -48 -65.5 -73.5t-87.5 -25.5q-98 0 -159.5 74.5t-61.5 189.5q0 113 63.5 187.5t151.5 74.5q38 0 74.5 -15.5t61.5 -31t35 -15.5q16 0 29.5 18t17.5 44h10v-648zM273 18q40 0 79.5 26t54.5 71v182
q0 102 -46 152.5t-112 50.5q-64 0 -102.5 -56.5t-38.5 -145.5q0 -114 42.5 -197t122.5 -83z" />
    <glyph glyph-name="r" unicode="r" horiz-adv-x="384" 
d="M310 513q25 0 42.5 -14t17.5 -36q0 -21 -10.5 -32.5t-27.5 -11.5q-16 0 -32.5 26.5t-36.5 26.5q-22 0 -47.5 -26t-48.5 -84v-282q0 -37 16 -52.5t52 -16.5v-11h-197v11q60 2 60 69v342q0 61 -60 47v13l130 36l-12 -152l2 2q55 145 152 145z" />
    <glyph glyph-name="s" unicode="s" horiz-adv-x="442" 
d="M248 -13q-29 0 -57 7t-42.5 13t-33.5 3t-38 -19l-41 186h12q22 -67 74.5 -122.5t125.5 -55.5q40 0 71.5 28t31.5 74q0 40 -31 68.5t-75.5 46.5t-88.5 37t-75 52t-31 79q0 54 43 91.5t106 37.5q21 0 53.5 -10.5t56 -10.5t43.5 21l35 -170h-12q-18 62 -71.5 110t-109.5 48
q-38 0 -67.5 -20.5t-28.5 -65.5q1 -35 33 -61.5t78 -44.5t91.5 -38.5t77.5 -57t32 -87.5q0 -63 -48.5 -101t-113.5 -38z" />
    <glyph glyph-name="t" unicode="t" horiz-adv-x="357" 
d="M334 486h-156v-345q0 -62 27.5 -91t61 -25t56.5 28v-12q-11 -18 -38 -36t-65 -18q-49 0 -80 37.5t-31 111.5v350h-91v14q47 2 80.5 29.5t48 60.5t17.5 68h14v-158h31q69 0 131 19z" />
    <glyph glyph-name="u" unicode="u" horiz-adv-x="570" 
d="M238 -13q-70 0 -106 47.5t-36 137.5v226q0 44 -16.5 61t-46.5 12v11l132 36v-346q0 -70 29.5 -109t85.5 -39q45 0 81 40t48 84v250q0 46 -16 62t-44 11v11l129 36v-412q0 -53 13.5 -73.5t45.5 -21.5v-11h-131l10 126q-19 -51 -66 -95t-112 -44z" />
    <glyph glyph-name="v" unicode="v" horiz-adv-x="501" 
d="M352 500h162v-11q-30 -2 -52.5 -22t-41.5 -66q-75 -192 -84 -215q-40 -103 -43 -134q-1 -18 3 -32q-35 -10 -60 -31q-17 52 -39 114t-37.5 103.5t-37 98.5t-27.5 73q-22 61 -41.5 85t-45.5 26v11h188v-11q-40 -1 -45.5 -27t11.5 -69q13 -43 34 -100.5t49 -129.5t36 -95
q6 24 44 123q9 24 28.5 75t32.5 85.5t17 51.5q12 47 -2.5 66t-48.5 21v10z" />
    <glyph glyph-name="w" unicode="w" horiz-adv-x="769" 
d="M620 500h162v-11q-30 -2 -52.5 -22t-41.5 -66q-75 -192 -84 -215q-40 -103 -43 -134q-1 -18 3 -32q-35 -10 -60 -31q-37 116 -117 326q-18 -45 -51 -129q-40 -103 -43 -134q-1 -18 3 -32q-33 -8 -60 -31q-47 139 -141 390q-23 61 -42.5 85t-44.5 25v11h188v-11
q-20 0 -31 -6.5t-13.5 -20.5t0.5 -29.5t10 -39.5q13 -43 35 -102t48 -126.5t36 -96.5q8 29 44 123q7 20 26 69.5t28 73.5l-16 44q-22 61 -41.5 85t-45.5 26v11h188v-11q-40 -1 -45.5 -27t11.5 -69q13 -43 34 -100.5t49 -129.5t36 -95q6 24 44 123q9 24 28.5 75t32.5 85.5
t17 51.5q12 47 -2.5 66t-48.5 21v10z" />
    <glyph glyph-name="x" unicode="x" horiz-adv-x="503" 
d="M491 489q-72 -1 -152 -118l-65 -95l89 -141q37 -58 66 -90t58 -34v-11h-190v11q22 0 31 6.5t6.5 21t-10.5 29.5t-24 41l-74 119l-64 -90q-17 -24 -27 -45.5t-12 -40t10.5 -30t39.5 -11.5v-11h-175v11q37 2 69.5 31.5t67.5 79.5l84 118l-89 143q-64 101 -119 106v11h194
v-11q-21 -1 -28 -12.5t0.5 -35.5t30.5 -60l59 -94l66 96q30 44 25 74.5t-40 31.5v11h173v-11z" />
    <glyph glyph-name="y" unicode="y" horiz-adv-x="497" 
d="M350 500h160v-11q-17 -1 -29.5 -6t-30.5 -26.5t-33 -61.5q-42 -110 -126 -371q-48 -149 -71 -189q-36 -66 -93 -66q-48 0 -76.5 30t-29.5 70q0 28 13.5 48t35.5 20q38 0 38 -34q0 -15 -14 -30t-14 -26q0 -22 14 -39t46 -17q30 0 47 18.5t33 52.5q37 73 19 125l-141 380
q-25 69 -46 95t-44 27v11h187v-11q-26 -1 -36 -11t-10 -32q0 -25 28 -101q3 -8 50 -132.5t58 -164.5q80 242 90 270q32 90 32 116q0 30 -13 42.5t-44 12.5v11z" />
    <glyph glyph-name="z" unicode="z" horiz-adv-x="448" 
d="M418 184h12l-56 -213q-42 29 -104 29h-252l303 488h-121q-63 0 -98.5 -33t-65.5 -113h-12l57 186q15 -9 25.5 -14t34.5 -9.5t59 -4.5h208l-302 -487h126q78 0 117.5 36.5t68.5 134.5z" />
    <glyph glyph-name="braceleft" unicode="{" horiz-adv-x="265" 
d="M150 -133q0 -37 8 -60.5t22.5 -32.5t26.5 -11t29 -1l1 -10q-66 -5 -96 16q-41 28 -41 99q0 22 5 122t5 119q0 42 -11.5 70.5t-29.5 40t-31 15.5t-26 4h-6v11h6q13 0 26 3.5t31 15t29.5 40t11.5 70.5q0 19 -5 127.5t-5 130.5q0 126 132 115h5l-1 -10q-15 0 -23 -0.5
t-22 -6t-21.5 -16t-13.5 -31.5t-6 -51q0 -19 5 -127t5 -131q0 -108 -102 -135q102 -24 102 -135q0 -23 -5 -122.5t-5 -118.5z" />
    <glyph glyph-name="bar" unicode="|" horiz-adv-x="210" 
d="M88 745h34l-7 -333v-343l7 -245h-34l8 324v366z" />
    <glyph glyph-name="braceright" unicode="}" horiz-adv-x="265" 
d="M252 249h6v-11h-6q-13 0 -26 -4t-31 -15.5t-29.5 -40t-11.5 -70.5q0 -19 5 -119t5 -122q0 -127 -133 -115h-4l1 10q17 -1 29 1t26.5 11t22.5 32.5t8 60.5q0 19 -5 118.5t-5 122.5q0 111 102 135q-102 27 -102 135q0 23 5 131t5 127q0 30 -6 51t-13.5 31.5t-21.5 16t-22 6
t-23 0.5l-1 10q61 4 89 -11q48 -26 48 -104q0 -22 -5 -130.5t-5 -127.5q0 -42 11.5 -70.5t29.5 -40t31 -15t26 -3.5z" />
    <glyph glyph-name="asciitilde" unicode="~" horiz-adv-x="476" 
d="M340 252q-38 0 -108.5 34t-107.5 34q-32 0 -52 -12t-43 -42l-9 7q22 29 33 41t34 24t52 12q38 0 108 -34t107 -34q34 0 55.5 10.5t40.5 38.5l9 -7q-26 -36 -53 -54t-66 -18z" />
    <glyph glyph-name="exclamdown" unicode="&#xa1;" horiz-adv-x="240" 
d="M121 513q22 0 37.5 -16t15.5 -38t-15.5 -37.5t-37.5 -15.5q-23 0 -38.5 15.5t-15.5 37.5q0 23 15.5 38.5t38.5 15.5zM114 323h12v-83q0 -133 21 -262t21 -141q0 -33 -13 -51.5t-36 -18.5q-22 0 -35.5 19t-13.5 51q0 22 11 77t22 141.5t11 184.5v83z" />
    <glyph glyph-name="cent" unicode="&#xa2;" horiz-adv-x="474" 
d="M299 41q37 0 78.5 24.5t68.5 84.5v-20q-20 -61 -72 -102t-116 -41h-2l2 -88h-22l2 89q-91 9 -148 86t-57 182q0 97 59 170.5t147 84.5l-3 96h22l-2 -94h10q74 0 124 -44t50 -98q0 -29 -11.5 -45.5t-30.5 -16.5q-16 0 -27 10.5t-11 30.5q0 13 10 30.5t9 34.5q-2 32 -30 59
t-91 27h-2l-3 -151v-263l1 -41q23 -5 45 -5zM100 304q0 -104 37 -168.5t102 -85.5l2 98v281l-2 71q-61 -8 -100 -63t-39 -133z" />
    <glyph glyph-name="sterling" unicode="&#xa3;" horiz-adv-x="539" 
d="M519 219h12l-62 -234q-45 15 -138 15h-323q76 106 111.5 177t35.5 140q0 12 -2 38l-86 -5v22l84 -3q-2 14 -15.5 76t-13.5 94q0 53 17 92t45.5 60.5t60.5 31.5t67 10q72 0 112 -44t40 -107q0 -35 -13.5 -54.5t-37.5 -19.5q-40 0 -40 40q0 13 18 37.5t18 48.5
q0 38 -25.5 62t-71.5 24q-52 0 -85 -32.5t-33 -97.5q0 -32 17 -106.5t17 -104.5v-12h108l98 5v-22l-129 5h-78q-3 -73 -36 -137t-118 -156h256q84 0 123.5 32t66.5 125z" />
    <glyph glyph-name="yen" unicode="&#xa5;" horiz-adv-x="607" 
d="M417 720h182v-11q-41 -5 -67 -35t-70 -113q-43 -82 -112 -221h55l103 5v-19l-136 4h-27l-2 -4v-74h62l103 5v-19l-136 4h-29v-131q0 -55 12.5 -77t41.5 -23v-11h-181v10q54 2 54 96v136h-53l-97 -4v19l140 -5h10v67l-6 11h-47l-97 -4v19l138 -5l-166 300q-36 65 -84 69
v11h204v-11q-37 -4 -42.5 -24t18.5 -64l148 -278q21 42 59.5 121t48.5 98q16 32 23.5 56t7 44.5t-15 32t-42.5 14.5v11z" />
    <glyph glyph-name="section" unicode="&#xa7;" horiz-adv-x="573" 
d="M465 80q59 -48 59 -119q0 -81 -63 -136.5t-159 -55.5q-34 0 -69 12.5t-56.5 25t-40.5 19.5t-28.5 -4t-11.5 -45h-10l-38 276h12q29 -124 97.5 -198t154.5 -74q56 0 104 41.5t48 109.5q0 37 -23.5 65.5t-61.5 46.5t-83.5 33.5t-91 32.5t-83.5 38t-61.5 55.5t-23.5 79.5
q0 42 24.5 83t63.5 67q-62 46 -62 117t53.5 127t133.5 56q36 0 72 -9t57.5 -18.5t39.5 -15t25.5 1.5t8.5 31h9l31 -216h-13q-23 105 -85.5 159.5t-143.5 54.5q-61 0 -97.5 -35.5t-36.5 -95.5q0 -52 43.5 -86t105.5 -54.5t124.5 -43t106 -64.5t43.5 -105q0 -100 -74 -157z
M92 339q0 -45 24.5 -78.5t67 -55t86.5 -37t96 -36t84 -41.5q41 41 41 104q0 40 -24.5 69.5t-66 49t-85.5 34.5t-95.5 35t-83.5 41q-44 -34 -44 -85z" />
    <glyph glyph-name="copyright" unicode="&#xa9;" horiz-adv-x="806" 
d="M403 -14q-155 0 -264 109t-109 264t109.5 264.5t263.5 109.5q155 0 264.5 -109.5t109.5 -264.5q0 -154 -109.5 -263.5t-264.5 -109.5zM403 0q148 0 253 105t105 254t-105 255t-253 106t-252 -106t-104 -255t104 -254t252 -105zM406 113q-94 0 -154 75t-60 180
q0 100 64.5 172t156.5 72q71 0 118.5 -42t47.5 -93q0 -27 -11.5 -43t-28.5 -16q-15 0 -25.5 10t-10.5 29q0 11 9 28.5t8 33.5q-1 30 -28 55.5t-86 25.5q-65 0 -108 -53.5t-43 -133.5q0 -120 52.5 -184.5t137.5 -64.5q35 0 74.5 23.5t64.5 79.5v-19q-18 -58 -67.5 -96.5
t-110.5 -38.5z" />
    <glyph glyph-name="ordfeminine" unicode="&#xaa;" horiz-adv-x="425" 
d="M149 306q-43 0 -76 21t-33 70q0 17 6 32.5t18.5 28t25 22.5t33 19t35.5 15t39 12.5t36 9.5t34.5 8t27.5 6v27q0 144 -98 144q-33 0 -55.5 -17.5t-22.5 -47.5q0 -12 4.5 -26t4.5 -22q0 -12 -9.5 -21t-23.5 -9q-30 0 -30 41q0 48 41.5 81t91.5 33q153 0 153 -174v-163
q0 -57 25 -57q15 0 31 16v-12q-26 -37 -60 -37q-18 0 -31 11.5t-15 30.5q-4 19 -6 56q-16 -48 -58 -73t-88 -25zM175 334q43 0 81.5 33.5t38.5 90.5v80q-6 -2 -30.5 -9t-32.5 -9.5t-28.5 -9.5t-28.5 -11.5t-23 -12t-21.5 -15t-14.5 -17.5t-11 -21.5t-3 -24.5q0 -37 20 -55.5
t53 -18.5z" />
    <glyph glyph-name="guillemotleft" unicode="&#xab;" horiz-adv-x="488" 
d="M257 450l-150 -208l150 -207h-17l-212 207l212 208h17zM460 450l-150 -208l150 -207h-17l-212 207l212 208h17z" />
    <glyph glyph-name="registered" unicode="&#xae;" horiz-adv-x="806" 
d="M403 733q155 0 264.5 -109.5t109.5 -264.5q0 -154 -109.5 -263.5t-264.5 -109.5t-264 109t-109 264t109.5 264.5t263.5 109.5zM403 0q148 0 253 105t105 254t-105 255t-253 106q-149 0 -252.5 -106t-103.5 -255t103.5 -254t252.5 -105zM508 233q29 -56 50.5 -75.5
t53.5 -21.5v-9h-50q-32 0 -54 13.5t-42 53.5l-80 153h-68v-156q0 -31 10 -42.5t32 -12.5v-9h-142v9q42 2 42 55v334q0 64 -35 66v9h167q70 0 114 -39t44 -94q0 -49 -41 -84t-96 -36v-7l44 -7zM318 590v-228q40 -4 82 -4q38 0 65 30t27 79q0 55 -31.5 89t-85.5 34h-57z" />
    <glyph glyph-name="degree" unicode="&#xb0;" horiz-adv-x="285" 
d="M142 500q-51 0 -86.5 35.5t-35.5 86.5t35.5 87t86.5 36t87 -36t36 -87t-36 -86.5t-87 -35.5zM142 517q44 0 75 31t31 74q0 44 -31 75t-75 31q-43 0 -74 -31t-31 -75t30.5 -74.5t74.5 -30.5z" />
    <glyph glyph-name="plusminus" unicode="&#xb1;" horiz-adv-x="462" 
d="M328 313l97 5v-22l-140 5h-47v-85l5 -103h-22l5 136v52h-85l-103 -5v22l136 -5h52v90l-5 97h22l-5 -140v-47h90zM174 60h154l97 5v-22l-140 5h-144l-103 -5v22z" />
    <glyph glyph-name="uni00B2" unicode="&#xb2;" horiz-adv-x="351" 
d="M325 452h8l-40 -151q-21 16 -78 16h-186l140 152q89 96 89 156q0 48 -24.5 72.5t-66.5 24.5q-29 0 -52.5 -17.5t-23.5 -41.5q0 -17 12.5 -34t12.5 -27t-7.5 -19t-19.5 -9q-15 0 -24 12.5t-9 30.5q0 44 31 80t95 36q53 0 90 -28.5t37 -81.5q0 -52 -45 -100.5t-176 -156.5
h122q48 0 73.5 18t41.5 68z" />
    <glyph glyph-name="uni00B3" unicode="&#xb3;" horiz-adv-x="353" 
d="M153 527q66 6 112 -22t46 -75q0 -60 -50.5 -93t-98.5 -32q-58 1 -89 31.5t-31 68.5q0 18 9.5 30t21.5 12q11 0 19 -7.5t8 -20.5q0 -9 -7.5 -23t-7.5 -25q0 -25 23 -40.5t54 -15.5q39 0 67.5 29t28.5 75q0 54 -47 82.5t-123 4.5l-2 9q29 9 45.5 15t40.5 17.5t37 24t23 32
t10 42.5q0 35 -20.5 56t-56.5 21q-28 0 -48.5 -14.5t-20.5 -33.5q0 -14 11 -29.5t11 -25.5q0 -13 -7.5 -21t-19.5 -8q-16 0 -25 12.5t-9 31.5q0 33 31 65.5t79 32.5q53 0 88.5 -24.5t35.5 -65.5q0 -83 -138 -116z" />
    <glyph glyph-name="periodcentered" unicode="&#xb7;" horiz-adv-x="199" 
d="M100 221q-22 0 -38 15.5t-16 38.5t16 38.5t38 15.5t37.5 -16t15.5 -38t-15.5 -38t-37.5 -16z" />
    <glyph glyph-name="uni00B9" unicode="&#xb9;" horiz-adv-x="237" 
d="M145 394q0 -32 16 -48.5t42 -17.5v-11h-174v11q59 2 59 67v242q0 57 -52 29v11l109 71v-354z" />
    <glyph glyph-name="ordmasculine" unicode="&#xba;" horiz-adv-x="453" 
d="M227 305q-81 0 -137.5 63t-56.5 151t56.5 151t137.5 63q80 0 136.5 -63t56.5 -151t-56.5 -151t-136.5 -63zM254 320q53 6 83.5 63t22.5 134q-8 84 -55 145.5t-105 56.5q-53 -5 -84 -62.5t-23 -134.5q8 -84 55 -145.5t106 -56.5z" />
    <glyph glyph-name="guillemotright" unicode="&#xbb;" horiz-adv-x="488" 
d="M45 450l212 -208l-212 -207h-17l150 207l-150 208h17zM248 450l212 -208l-212 -207h-17l150 207l-150 208h17z" />
    <glyph glyph-name="onequarter" unicode="&#xbc;" horiz-adv-x="745" 
d="M203 328v-11h-174v11q59 2 59 67v242q0 57 -52 29v11l109 71v-354q0 -32 16 -48.5t42 -17.5zM614 720l-141 -215l-199 -314l-118 -191h-23l132 202l326 518h23zM673 137h-45v-76q0 -29 10 -40t31 -12v-9h-147v8q24 2 36 13.5t12 40.5v75h-159v28l204 250h13v-247h60z
M427 168h143v176z" />
    <glyph glyph-name="onehalf" unicode="&#xbd;" horiz-adv-x="782" 
d="M203 328v-11h-174v11q59 2 59 67v242q0 57 -52 29v11l109 71v-354q0 -32 16 -48.5t42 -17.5zM595 720l-141 -215l-199 -314l-118 -191h-23l133 202l196 311l129 207h23zM717 135h8l-40 -151q-21 16 -78 16h-186l141 152q88 95 88 156q0 48 -24.5 72.5t-66.5 24.5
q-29 0 -52.5 -17.5t-23.5 -41.5q0 -16 12.5 -33t12.5 -28q0 -10 -7 -19t-19 -9q-15 0 -24.5 12.5t-9.5 30.5q0 44 31 80t96 36q53 0 89.5 -28.5t36.5 -81.5q0 -52 -45 -100.5t-176 -156.5h122q48 0 73.5 18t41.5 68z" />
    <glyph glyph-name="threequarters" unicode="&#xbe;" horiz-adv-x="765" 
d="M297 430q0 -60 -50.5 -93t-98.5 -32q-58 1 -89 31.5t-31 68.5q0 18 9.5 30t21.5 12q11 0 19 -7.5t8 -20.5q0 -9 -7.5 -23t-7.5 -25q0 -25 23 -40.5t54 -15.5q39 0 67.5 29t28.5 75q0 54 -47 82.5t-123 4.5l-2 9q29 9 45.5 15t40.5 17.5t37 24t23 32t10 42.5
q0 35 -20.5 56t-56.5 21q-28 0 -48.5 -14.5t-20.5 -33.5q0 -14 11 -29.5t11 -25.5q0 -13 -7.5 -21t-19.5 -8q-16 0 -25 12.5t-9 31.5q0 33 31 65.5t79 32.5q53 0 88.5 -24.5t35.5 -65.5q0 -83 -138 -116q66 6 112 -22t46 -75zM642 720l-141 -215l-199 -314l-118 -191h-23
l133 202l196 311l129 207h23zM692 137h-45v-76q0 -29 10 -40t31 -12v-9h-146v8q24 2 36 13.5t12 40.5v75h-159v28l204 250h12v-247h60zM447 168h143v176z" />
    <glyph glyph-name="questiondown" unicode="&#xbf;" horiz-adv-x="446" 
d="M248 513q22 0 38 -15.5t16 -38.5q0 -22 -15.5 -37.5t-38.5 -15.5q-22 0 -37.5 15.5t-15.5 37.5t15.5 38t37.5 16zM264 327q12 -59 12.5 -100t-12 -70.5t-30.5 -49t-52 -43.5q-40 -29 -61.5 -60.5t-21.5 -77.5q0 -68 33.5 -107.5t92.5 -39.5q51 0 89 30t38 74
q0 24 -13 45.5t-13 36.5q0 19 13 30t31 11q21 0 35 -21.5t14 -51.5q0 -23 -11.5 -49.5t-34.5 -53.5t-64 -45t-93 -18q-73 0 -130.5 46.5t-57.5 128.5q0 62 30 100t83 72q31 19 47.5 32t36 37.5t26.5 60t3 83.5h10z" />
    <glyph glyph-name="Agrave" unicode="&#xc0;" horiz-adv-x="630" 
d="M367 787h-12l-185 153h88zM513 169q3 -10 11.5 -36t11.5 -34.5t10.5 -27t13.5 -25t15.5 -16.5t21 -14t25.5 -5v-11h-213v11q46 6 52 40q6 28 -16 95l-35 106h-254q-57 -164 -52 -192q4 -47 61 -49v-11h-183v11q32 1 53.5 15.5t37.5 51.5q35 83 96 257q8 24 21 60.5t19 55
t15.5 46t14 41.5t10.5 34t9 31t6 24t4 21.5t1 16.5q0 27 -5 45q32 8 62 28zM160 264h246l-124 372q-5 -24 -16.5 -61t-22.5 -68.5t-30 -87.5t-29 -86q-12 -36 -24 -69z" />
    <glyph glyph-name="Aacute" unicode="&#xc1;" horiz-adv-x="630" 
d="M446 940l-184 -153h-13l109 153h88zM513 169q3 -10 11.5 -36t11.5 -34.5t10.5 -27t13.5 -25t15.5 -16.5t21 -14t25.5 -5v-11h-213v11q46 6 52 40q6 28 -16 95l-35 106h-254q-57 -164 -52 -192q4 -47 61 -49v-11h-183v11q32 1 53.5 15.5t37.5 51.5q35 83 96 257
q8 24 21 60.5t19 55t15.5 46t14 41.5t10.5 34t9 31t6 24t4 21.5t1 16.5q0 27 -5 45q32 8 62 28zM160 264h246l-124 372q-5 -24 -16.5 -61t-22.5 -68.5t-30 -87.5t-29 -86q-12 -36 -24 -69z" />
    <glyph glyph-name="Acircumflex" unicode="&#xc2;" horiz-adv-x="630" 
d="M308 898l-123 -111h-12l108 153h54l107 -153h-12zM513 169q3 -10 11.5 -36t11.5 -34.5t10.5 -27t13.5 -25t15.5 -16.5t21 -14t25.5 -5v-11h-213v11q46 6 52 40q6 28 -16 95l-35 106h-254q-57 -164 -52 -192q4 -47 61 -49v-11h-183v11q32 1 53.5 15.5t37.5 51.5
q35 83 96 257q8 24 21 60.5t19 55t15.5 46t14 41.5t10.5 34t9 31t6 24t4 21.5t1 16.5q0 27 -5 45q32 8 62 28zM160 264h246l-124 372q-5 -24 -16.5 -61t-22.5 -68.5t-30 -87.5t-29 -86q-12 -36 -24 -69z" />
    <glyph glyph-name="Atilde" unicode="&#xc3;" horiz-adv-x="630" 
d="M228 889q-28 0 -45 -34t-17 -68h-11q0 27 5.5 55.5t26.5 57t54 28.5q24 0 49.5 -25.5t50.5 -51t47 -25.5q28 0 45 34.5t17 67.5h11q0 -18 -3.5 -39.5t-12 -45.5t-26 -40t-40.5 -16q-26 0 -53 25.5t-52 51t-46 25.5zM513 169q3 -10 11.5 -36t11.5 -34.5t10.5 -27t13.5 -25
t15.5 -16.5t21 -14t25.5 -5v-11h-213v11q46 6 52 40q6 28 -16 95l-35 106h-254q-57 -164 -52 -192q4 -47 61 -49v-11h-183v11q32 1 53.5 15.5t37.5 51.5q35 83 96 257q8 24 21 60.5t19 55t15.5 46t14 41.5t10.5 34t9 31t6 24t4 21.5t1 16.5q0 27 -5 45q32 8 62 28zM160 264
h246l-124 372q-5 -24 -16.5 -61t-22.5 -68.5t-30 -87.5t-29 -86q-12 -36 -24 -69z" />
    <glyph glyph-name="Adieresis" unicode="&#xc4;" horiz-adv-x="630" 
d="M219 833q-17 0 -28.5 11.5t-11.5 28.5t11.5 29t28.5 12q16 0 28 -12t12 -29t-11.5 -28.5t-28.5 -11.5zM398 833q-18 0 -29.5 11.5t-11.5 28.5t11.5 29t29.5 12q16 0 27.5 -12t11.5 -29t-11.5 -28.5t-27.5 -11.5zM513 169q3 -10 11.5 -36t11.5 -34.5t10.5 -27t13.5 -25
t15.5 -16.5t21 -14t25.5 -5v-11h-213v11q46 6 52 40q6 28 -16 95l-35 106h-254q-57 -164 -52 -192q4 -47 61 -49v-11h-183v11q32 1 53.5 15.5t37.5 51.5q35 83 96 257q8 24 21 60.5t19 55t15.5 46t14 41.5t10.5 34t9 31t6 24t4 21.5t1 16.5q0 27 -5 45q32 8 62 28zM160 264
h246l-124 372q-5 -24 -16.5 -61t-22.5 -68.5t-30 -87.5t-29 -86q-12 -36 -24 -69z" />
    <glyph glyph-name="Aring" unicode="&#xc5;" horiz-adv-x="630" 
d="M307 790q-30 0 -51 21t-21 51q0 31 21 52.5t51 21.5q31 0 52.5 -21.5t21.5 -52.5q0 -30 -21.5 -51t-52.5 -21zM307 919q-23 0 -39 -17t-16 -40t16 -39t39 -16t40 16t17 39t-17 40t-40 17zM513 169q3 -10 11.5 -36t11.5 -34.5t10.5 -27t13.5 -25t15.5 -16.5t21 -14
t25.5 -5v-11h-213v11q46 6 52 40q6 28 -16 95l-35 106h-254q-57 -164 -52 -192q4 -47 61 -49v-11h-183v11q32 1 53.5 15.5t37.5 51.5q35 83 96 257q8 24 21 60.5t19 55t15.5 46t14 41.5t10.5 34t9 31t6 24t4 21.5t1 16.5q0 27 -5 45q32 8 62 28zM160 264h246l-124 372
q-5 -24 -16.5 -61t-22.5 -68.5t-30 -87.5t-29 -86q-12 -36 -24 -69z" />
    <glyph glyph-name="AE" unicode="&#xc6;" horiz-adv-x="886" 
d="M875 188h12l-34 -205q-44 17 -128 17h-338v11q18 2 28.5 5t22 14t13.5 30q3 27 -13 99l-20 93h-240q-48 -113 -55 -141q-26 -98 57 -100v-11h-198v11q40 1 68 25t55 89l97 225q105 243 112 288q12 69 -51 71v11h337q102 0 134 17l62 -182h-12q-13 34 -24 54t-31 41.5
t-46 32.5t-67.5 18t-97.5 7h-120l61 -289h100q72 0 94.5 19t19.5 76h12l18 -182h-12q-8 50 -33 62.5t-97 12.5h-99l80 -379q56 -16 124 -16q94 0 140 34.5t69 141.5zM183 264h233l-83 385q-5 -27 -19 -66.5t-26 -69t-36.5 -86.5t-34.5 -80q-6 -16 -19 -46.5t-15 -36.5z" />
    <glyph glyph-name="Ccedilla" unicode="&#xc7;" horiz-adv-x="609" 
d="M340 -13l-16 -30q18 -8 30.5 -14.5t28.5 -18.5t24 -29t8 -38q0 -35 -29 -61.5t-69 -26.5q-30 0 -53.5 17t-23.5 48q0 15 8 25t20 10q24 0 24 -23q0 -8 -8 -17.5t-8 -16.5q0 -13 11.5 -22t26.5 -9q30 0 47.5 18t17.5 41q0 34 -25.5 55.5t-59.5 31.5l33 60
q-132 6 -214.5 113.5t-82.5 261.5q0 153 89.5 262t212.5 109q32 0 63 -10.5t48 -20t38 -9t41 19.5l50 -267h-13q-70 275 -229 275q-95 0 -163.5 -86.5t-68.5 -231.5q0 -59 16 -119t48 -114t87.5 -88t126.5 -34q63 0 115.5 41.5t76.5 121.5l8 -2q-21 -96 -85 -159t-151 -63z
" />
    <glyph glyph-name="Egrave" unicode="&#xc8;" 
d="M359 787h-12l-185 153h88zM559 187h12l-61 -202q-42 15 -122 15h-345v11q59 2 59 75v550q0 71 -59 73v11h322q40 0 72 4.5t45 9t17 8.5l56 -187h-13q-21 61 -44 90.5t-73.5 46t-140.5 16.5h-109v-289h135q53 0 74 19t23 61h11v-172h-11q-2 45 -22.5 62.5t-74.5 17.5h-135
v-374q49 -21 131 -21q109 0 163.5 35t89.5 140z" />
    <glyph glyph-name="Eacute" unicode="&#xc9;" 
d="M438 940l-184 -153h-13l109 153h88zM559 187h12l-61 -202q-42 15 -122 15h-345v11q59 2 59 75v550q0 71 -59 73v11h322q40 0 72 4.5t45 9t17 8.5l56 -187h-13q-21 61 -44 90.5t-73.5 46t-140.5 16.5h-109v-289h135q53 0 74 19t23 61h11v-172h-11q-2 45 -22.5 62.5
t-74.5 17.5h-135v-374q49 -21 131 -21q109 0 163.5 35t89.5 140z" />
    <glyph glyph-name="Ecircumflex" unicode="&#xca;" 
d="M300 898l-123 -111h-12l108 153h54l107 -153h-12zM559 187h12l-61 -202q-42 15 -122 15h-345v11q59 2 59 75v550q0 71 -59 73v11h322q40 0 72 4.5t45 9t17 8.5l56 -187h-13q-21 61 -44 90.5t-73.5 46t-140.5 16.5h-109v-289h135q53 0 74 19t23 61h11v-172h-11
q-2 45 -22.5 62.5t-74.5 17.5h-135v-374q49 -21 131 -21q109 0 163.5 35t89.5 140z" />
    <glyph glyph-name="Edieresis" unicode="&#xcb;" 
d="M211 833q-17 0 -28.5 11.5t-11.5 28.5t11.5 29t28.5 12q16 0 28 -12t12 -29t-11.5 -28.5t-28.5 -11.5zM390 833q-18 0 -29.5 11.5t-11.5 28.5t11.5 29t29.5 12q16 0 27.5 -12t11.5 -29t-11.5 -28.5t-27.5 -11.5zM559 187h12l-61 -202q-42 15 -122 15h-345v11q59 2 59 75
v550q0 71 -59 73v11h322q40 0 72 4.5t45 9t17 8.5l56 -187h-13q-21 61 -44 90.5t-73.5 46t-140.5 16.5h-109v-289h135q53 0 74 19t23 61h11v-172h-11q-2 45 -22.5 62.5t-74.5 17.5h-135v-374q49 -21 131 -21q109 0 163.5 35t89.5 140z" />
    <glyph glyph-name="Igrave" unicode="&#xcc;" horiz-adv-x="307" 
d="M200 787l-185 153h88l109 -153h-12zM58 0v11q59 2 59 77v547q0 41 -15 57t-44 17v11h191v-11q-31 -1 -45 -16.5t-14 -57.5v-548q0 -40 17.5 -57.5t41.5 -18.5v-11h-191z" />
    <glyph glyph-name="Iacute" unicode="&#xcd;" horiz-adv-x="307" 
d="M107 787h-13l109 153h88zM58 0v11q59 2 59 77v547q0 41 -15 57t-44 17v11h191v-11q-31 -1 -45 -16.5t-14 -57.5v-548q0 -40 17.5 -57.5t41.5 -18.5v-11h-191z" />
    <glyph glyph-name="Icircumflex" unicode="&#xce;" horiz-adv-x="307" 
d="M180 940l107 -153h-12l-122 111l-123 -111h-12l108 153h54zM58 709v11h191v-11q-31 -1 -45 -16.5t-14 -57.5v-548q0 -40 17.5 -57.5t41.5 -18.5v-11h-191v11q59 2 59 77v547q0 41 -15 57t-44 17z" />
    <glyph glyph-name="Idieresis" unicode="&#xcf;" horiz-adv-x="307" 
d="M64 833q-17 0 -28.5 11.5t-11.5 28.5t11.5 29t28.5 12q16 0 28 -12t12 -29t-11.5 -28.5t-28.5 -11.5zM243 833q-18 0 -29.5 11.5t-11.5 28.5t11.5 29t29.5 12q16 0 27.5 -12t11.5 -29t-11.5 -28.5t-27.5 -11.5zM58 0v11q59 2 59 77v547q0 41 -15 57t-44 17v11h191v-11
q-31 -1 -45 -16.5t-14 -57.5v-548q0 -40 17.5 -57.5t41.5 -18.5v-11h-191z" />
    <glyph glyph-name="Eth" unicode="&#xd0;" horiz-adv-x="657" 
d="M289 720q137 0 237.5 -105.5t100.5 -246.5q0 -152 -81 -260t-213 -108h-283v11q25 1 42.5 19.5t17.5 57.5v266h-16l-109 -2v14l109 -2h16v269q0 41 -15.5 58t-44.5 18v11h239zM331 12q99 0 158.5 83.5t59.5 220.5q0 331 -219 382q-44 10 -147 10v-344h35l110 2v-14
l-110 2h-35v-326q69 -16 148 -16z" />
    <glyph glyph-name="Ntilde" unicode="&#xd1;" horiz-adv-x="672" 
d="M266 889q-28 0 -45 -34t-17 -68h-11q0 27 5.5 55.5t26.5 57t54 28.5q24 0 49.5 -25.5t50.5 -51t47 -25.5q28 0 45 34.5t17 67.5h11q0 -18 -3.5 -39.5t-12 -45.5t-26 -40t-40.5 -16q-26 0 -53 25.5t-52 51t-46 25.5zM471 720h184v-11q-41 -1 -59.5 -24t-19.5 -83l-4 -484
q-1 -53 26 -98q-36 -16 -61 -41l-401 655l4 -512q1 -107 90 -112v-10h-202v10q91 5 92 112l4 469q1 115 -90 118v11h137l386 -632l2 514q0 59 -22.5 82.5t-65.5 24.5v11z" />
    <glyph glyph-name="Ograve" unicode="&#xd2;" horiz-adv-x="672" 
d="M390 787l-185 153h88l109 -153h-12zM352 -13q-144 0 -233 110t-89 268q0 151 85 259.5t211 108.5q140 0 228 -107.5t88 -260.5q0 -156 -83.5 -267t-206.5 -111zM572 287q0 102 -30 197t-94 162t-147 67q-95 0 -148.5 -80t-53.5 -199q0 -100 31.5 -196t97 -163.5
t149.5 -67.5q92 0 143.5 81t51.5 199z" />
    <glyph glyph-name="Oacute" unicode="&#xd3;" horiz-adv-x="672" 
d="M275 787h-13l109 153h88zM352 -13q-144 0 -233 110t-89 268q0 151 85 259.5t211 108.5q140 0 228 -107.5t88 -260.5q0 -156 -83.5 -267t-206.5 -111zM572 287q0 102 -30 197t-94 162t-147 67q-95 0 -148.5 -80t-53.5 -199q0 -100 31.5 -196t97 -163.5t149.5 -67.5
q92 0 143.5 81t51.5 199z" />
    <glyph glyph-name="Ocircumflex" unicode="&#xd4;" horiz-adv-x="672" 
d="M343 898l-123 -111h-12l108 153h54l107 -153h-12zM326 733q140 0 228 -107.5t88 -260.5q0 -156 -83.5 -267t-206.5 -111q-144 0 -233 110t-89 268q0 151 85 259.5t211 108.5zM377 7q92 0 143.5 81t51.5 199q0 102 -30 197t-94 162t-147 67q-95 0 -148.5 -80t-53.5 -199
q0 -100 31.5 -196t97 -163.5t149.5 -67.5z" />
    <glyph glyph-name="Otilde" unicode="&#xd5;" horiz-adv-x="672" 
d="M190 787q0 27 5.5 55.5t26.5 57t54 28.5q24 0 49.5 -25.5t50.5 -51t47 -25.5q28 0 45 34.5t17 67.5h11q0 -18 -3.5 -39.5t-12 -45.5t-26 -40t-40.5 -16q-26 0 -53 25.5t-52 51t-46 25.5q-28 0 -45 -34t-17 -68h-11zM352 -13q-144 0 -233 110t-89 268q0 151 85 259.5
t211 108.5q140 0 228 -107.5t88 -260.5q0 -156 -83.5 -267t-206.5 -111zM572 287q0 102 -30 197t-94 162t-147 67q-95 0 -148.5 -80t-53.5 -199q0 -100 31.5 -196t97 -163.5t149.5 -67.5q92 0 143.5 81t51.5 199z" />
    <glyph glyph-name="Odieresis" unicode="&#xd6;" horiz-adv-x="672" 
d="M254 833q-17 0 -28.5 11.5t-11.5 28.5t11.5 29t28.5 12q16 0 28 -12t12 -29t-11.5 -28.5t-28.5 -11.5zM433 833q-18 0 -29.5 11.5t-11.5 28.5t11.5 29t29.5 12q16 0 27.5 -12t11.5 -29t-11.5 -28.5t-27.5 -11.5zM352 -13q-144 0 -233 110t-89 268q0 151 85 259.5
t211 108.5q140 0 228 -107.5t88 -260.5q0 -156 -83.5 -267t-206.5 -111zM572 287q0 102 -30 197t-94 162t-147 67q-95 0 -148.5 -80t-53.5 -199q0 -100 31.5 -196t97 -163.5t149.5 -67.5q92 0 143.5 81t51.5 199z" />
    <glyph glyph-name="multiply" unicode="&#xd7;" horiz-adv-x="435" 
d="M365 434l-133 -133l132 -132l-15 -16l-132 133l-133 -133l-15 16l132 132l-133 133l16 15l133 -132l133 133z" />
    <glyph glyph-name="Oslash" unicode="&#xd8;" horiz-adv-x="672" 
d="M551 629q91 -105 91 -264q0 -156 -83.5 -267t-206.5 -111q-127 0 -215 90l-57 -77h-18l65 87q-97 110 -97 278q0 151 85 259.5t211 108.5q128 0 215 -92l59 79h19zM99 434q0 -161 73 -287l325 435q-76 131 -196 131q-95 0 -148.5 -80t-53.5 -199zM377 7q92 0 143.5 81
t51.5 199q0 158 -67 281l-325 -434q80 -127 197 -127z" />
    <glyph glyph-name="Ugrave" unicode="&#xd9;" horiz-adv-x="650" 
d="M396 787l-185 153h88l109 -153h-12zM343 -13q-121 0 -187.5 74t-66.5 222v354q0 70 -61 72v11h198v-11q-62 -2 -62 -71v-355q0 -278 198 -278q81 0 134 69.5t52 208.5v336q0 45 -23.5 67t-60.5 23v11h188v-11q-77 -2 -80 -90l-7 -336q-3 -145 -60 -220.5t-162 -75.5z" />
    <glyph glyph-name="Uacute" unicode="&#xda;" horiz-adv-x="650" 
d="M303 787h-13l109 153h88zM343 -13q-121 0 -187.5 74t-66.5 222v354q0 70 -61 72v11h198v-11q-62 -2 -62 -71v-355q0 -278 198 -278q81 0 134 69.5t52 208.5v336q0 45 -23.5 67t-60.5 23v11h188v-11q-77 -2 -80 -90l-7 -336q-3 -145 -60 -220.5t-162 -75.5z" />
    <glyph glyph-name="Ucircumflex" unicode="&#xdb;" horiz-adv-x="650" 
d="M349 898l-123 -111h-12l108 153h54l107 -153h-12zM464 720h188v-11q-77 -2 -80 -90l-7 -336q-3 -145 -60 -220.5t-162 -75.5q-121 0 -187.5 74t-66.5 222v354q0 70 -61 72v11h198v-11q-62 -2 -62 -71v-355q0 -278 198 -278q81 0 134 69.5t52 208.5v336q0 45 -23.5 67
t-60.5 23v11z" />
    <glyph glyph-name="Udieresis" unicode="&#xdc;" horiz-adv-x="650" 
d="M260 833q-17 0 -28.5 11.5t-11.5 28.5t11.5 29t28.5 12q16 0 28 -12t12 -29t-11.5 -28.5t-28.5 -11.5zM439 833q-18 0 -29.5 11.5t-11.5 28.5t11.5 29t29.5 12q16 0 27.5 -12t11.5 -29t-11.5 -28.5t-27.5 -11.5zM343 -13q-121 0 -187.5 74t-66.5 222v354q0 70 -61 72v11
h198v-11q-62 -2 -62 -71v-355q0 -278 198 -278q81 0 134 69.5t52 208.5v336q0 45 -23.5 67t-60.5 23v11h188v-11q-77 -2 -80 -90l-7 -336q-3 -145 -60 -220.5t-162 -75.5z" />
    <glyph glyph-name="Yacute" unicode="&#xdd;" horiz-adv-x="607" 
d="M447 940l-184 -153h-13l109 153h88zM417 720h182v-11q-41 -5 -67 -35t-70 -113q-62 -120 -119 -235v-215q0 -55 12.5 -77t41.5 -23v-11h-181v10q54 2 54 96v213l-178 321q-36 65 -84 69v11h204v-11q-37 -4 -42.5 -24t18.5 -64l148 -278q21 42 59.5 121t48.5 98
q16 32 23.5 56t7 44.5t-15 32t-42.5 14.5v11z" />
    <glyph glyph-name="Thorn" unicode="&#xde;" horiz-adv-x="572" 
d="M305 577q112 0 181 -55.5t69 -149.5q0 -91 -78 -147.5t-192 -56.5h-110v-81q0 -40 17.5 -57.5t41.5 -18.5v-11h-191v11q59 2 59 77v547q0 41 -15 57t-44 17v11h191v-11q-31 -1 -45 -16.5t-14 -57.5v-58h130zM292 180q77 0 132.5 56t55.5 136q0 81 -54 137t-143 56h-108
v-376q41 -9 117 -9z" />
    <glyph glyph-name="germandbls" unicode="&#xdf;" horiz-adv-x="625" 
d="M421 -13q-71 0 -115 41.5t-44 101.5q0 65 48 65q36 0 36 -41q0 -22 -15.5 -41t-15.5 -35q0 -29 26.5 -54t77.5 -25q50 0 81 30t31 83q0 36 -26 65.5t-63 50.5t-74 43t-63 54t-26 72q0 33 14.5 56.5t35.5 38t41.5 29.5t35 39t14.5 58q0 64 -30 97t-85 33q-64 0 -101 -51
t-37 -145v-462q0 -45 14.5 -61.5t43.5 -17.5v-11h-187v11q60 2 60 79v397q0 70 20.5 130.5t67 102.5t110.5 42q89 0 137 -42t48 -102q0 -36 -25.5 -63.5t-55.5 -41t-55.5 -34.5t-25.5 -45q0 -35 28 -64t68 -51t80 -46t68 -60t28 -82q0 -62 -48 -103t-122 -41z" />
    <glyph glyph-name="agrave" unicode="&#xe0;" horiz-adv-x="503" 
d="M302 567l-185 153h88l109 -153h-12zM174 -13q-53 0 -93.5 26t-40.5 86q0 24 10 44.5t24.5 36t39.5 30t45 23t52 18.5t49 14t48 11t39 9v36q0 95 -33.5 138t-87.5 43q-41 0 -68.5 -23.5t-27.5 -60.5q0 -15 5 -32.5t5 -27.5q0 -15 -11.5 -25.5t-28.5 -10.5q-18 0 -28 15
t-10 36q0 58 51.5 99t112.5 41q189 0 189 -214v-202q0 -51 19 -65.5t51 14.5v-14q-34 -45 -75 -45q-22 0 -35 9t-19 28t-7.5 36.5t-1.5 46.5q-20 -59 -68.5 -89.5t-104.5 -30.5zM206 17q50 0 95.5 39t45.5 108v111q-10 -3 -35.5 -11t-35 -11t-31.5 -11t-31.5 -12.5
t-26.5 -13t-24.5 -15t-18.5 -17t-16 -21t-8.5 -23.5t-3.5 -28q0 -46 24.5 -70.5t65.5 -24.5z" />
    <glyph glyph-name="aacute" unicode="&#xe1;" horiz-adv-x="503" 
d="M187 567h-13l109 153h88zM174 -13q-53 0 -93.5 26t-40.5 86q0 24 10 44.5t24.5 36t39.5 30t45 23t52 18.5t49 14t48 11t39 9v36q0 95 -33.5 138t-87.5 43q-41 0 -68.5 -23.5t-27.5 -60.5q0 -15 5 -32.5t5 -27.5q0 -15 -11.5 -25.5t-28.5 -10.5q-18 0 -28 15t-10 36
q0 58 51.5 99t112.5 41q189 0 189 -214v-202q0 -51 19 -65.5t51 14.5v-14q-34 -45 -75 -45q-22 0 -35 9t-19 28t-7.5 36.5t-1.5 46.5q-20 -59 -68.5 -89.5t-104.5 -30.5zM206 17q50 0 95.5 39t45.5 108v111q-10 -3 -35.5 -11t-35 -11t-31.5 -11t-31.5 -12.5t-26.5 -13
t-24.5 -15t-18.5 -17t-16 -21t-8.5 -23.5t-3.5 -28q0 -46 24.5 -70.5t65.5 -24.5z" />
    <glyph glyph-name="acircumflex" unicode="&#xe2;" horiz-adv-x="503" 
d="M255 678l-123 -111h-12l108 153h54l107 -153h-12zM415 97q0 -51 19 -65.5t51 14.5v-14q-34 -45 -75 -45q-22 0 -35 9t-19 28t-7.5 36.5t-1.5 46.5q-20 -59 -68.5 -89.5t-104.5 -30.5q-53 0 -93.5 26t-40.5 86q0 24 10 44.5t24.5 36t39.5 30t45 23t52 18.5t49 14t48 11
t39 9v36q0 95 -33.5 138t-87.5 43q-41 0 -68.5 -23.5t-27.5 -60.5q0 -15 5 -32.5t5 -27.5q0 -15 -11.5 -25.5t-28.5 -10.5q-18 0 -28 15t-10 36q0 58 51.5 99t112.5 41q189 0 189 -214v-202zM347 164v111q-10 -3 -35.5 -11t-35 -11t-31.5 -11t-31.5 -12.5t-26.5 -13
t-24.5 -15t-18.5 -17t-16 -21t-8.5 -23.5t-3.5 -28q0 -46 24.5 -70.5t65.5 -24.5q50 0 95.5 39t45.5 108z" />
    <glyph glyph-name="atilde" unicode="&#xe3;" horiz-adv-x="503" 
d="M102 567q0 27 5.5 55.5t26.5 57t54 28.5q24 0 49.5 -25.5t50.5 -51t47 -25.5q28 0 45 34.5t17 67.5h11q0 -18 -3.5 -39.5t-12 -45.5t-26 -40t-40.5 -16q-26 0 -53 25.5t-52 51t-46 25.5q-28 0 -45 -34t-17 -68h-11zM174 -13q-53 0 -93.5 26t-40.5 86q0 24 10 44.5
t24.5 36t39.5 30t45 23t52 18.5t49 14t48 11t39 9v36q0 95 -33.5 138t-87.5 43q-41 0 -68.5 -23.5t-27.5 -60.5q0 -15 5 -32.5t5 -27.5q0 -15 -11.5 -25.5t-28.5 -10.5q-18 0 -28 15t-10 36q0 58 51.5 99t112.5 41q189 0 189 -214v-202q0 -51 19 -65.5t51 14.5v-14
q-34 -45 -75 -45q-22 0 -35 9t-19 28t-7.5 36.5t-1.5 46.5q-20 -59 -68.5 -89.5t-104.5 -30.5zM206 17q50 0 95.5 39t45.5 108v111q-10 -3 -35.5 -11t-35 -11t-31.5 -11t-31.5 -12.5t-26.5 -13t-24.5 -15t-18.5 -17t-16 -21t-8.5 -23.5t-3.5 -28q0 -46 24.5 -70.5
t65.5 -24.5z" />
    <glyph glyph-name="adieresis" unicode="&#xe4;" horiz-adv-x="503" 
d="M166 613q-17 0 -28.5 11.5t-11.5 28.5t11.5 29t28.5 12q16 0 28 -12t12 -29t-11.5 -28.5t-28.5 -11.5zM345 613q-18 0 -29.5 11.5t-11.5 28.5t11.5 29t29.5 12q16 0 27.5 -12t11.5 -29t-11.5 -28.5t-27.5 -11.5zM174 -13q-53 0 -93.5 26t-40.5 86q0 24 10 44.5t24.5 36
t39.5 30t45 23t52 18.5t49 14t48 11t39 9v36q0 95 -33.5 138t-87.5 43q-41 0 -68.5 -23.5t-27.5 -60.5q0 -15 5 -32.5t5 -27.5q0 -15 -11.5 -25.5t-28.5 -10.5q-18 0 -28 15t-10 36q0 58 51.5 99t112.5 41q189 0 189 -214v-202q0 -51 19 -65.5t51 14.5v-14q-34 -45 -75 -45
q-22 0 -35 9t-19 28t-7.5 36.5t-1.5 46.5q-20 -59 -68.5 -89.5t-104.5 -30.5zM206 17q50 0 95.5 39t45.5 108v111q-10 -3 -35.5 -11t-35 -11t-31.5 -11t-31.5 -12.5t-26.5 -13t-24.5 -15t-18.5 -17t-16 -21t-8.5 -23.5t-3.5 -28q0 -46 24.5 -70.5t65.5 -24.5z" />
    <glyph glyph-name="aring" unicode="&#xe5;" horiz-adv-x="503" 
d="M254 570q-30 0 -51 21t-21 51q0 31 21 52.5t51 21.5q31 0 52.5 -21.5t21.5 -52.5q0 -30 -21.5 -51t-52.5 -21zM254 587q23 0 40 16t17 39t-17 40t-40 17t-39 -17t-16 -40t16 -39t39 -16zM174 -13q-53 0 -93.5 26t-40.5 86q0 24 10 44.5t24.5 36t39.5 30t45 23t52 18.5
t49 14t48 11t39 9v36q0 95 -33.5 138t-87.5 43q-41 0 -68.5 -23.5t-27.5 -60.5q0 -15 5 -32.5t5 -27.5q0 -15 -11.5 -25.5t-28.5 -10.5q-18 0 -28 15t-10 36q0 58 51.5 99t112.5 41q189 0 189 -214v-202q0 -51 19 -65.5t51 14.5v-14q-34 -45 -75 -45q-22 0 -35 9t-19 28
t-7.5 36.5t-1.5 46.5q-20 -59 -68.5 -89.5t-104.5 -30.5zM206 17q50 0 95.5 39t45.5 108v111q-10 -3 -35.5 -11t-35 -11t-31.5 -11t-31.5 -12.5t-26.5 -13t-24.5 -15t-18.5 -17t-16 -21t-8.5 -23.5t-3.5 -28q0 -46 24.5 -70.5t65.5 -24.5z" />
    <glyph glyph-name="ae" unicode="&#xe6;" horiz-adv-x="802" 
d="M619 39q51 0 93 27t65 76v-28q-23 -57 -75.5 -92t-114.5 -35q-106 0 -174 91q-13 16 -20.5 22t-18.5 2.5t-25 -22.5q-68 -93 -175 -93q-53 0 -93.5 26t-40.5 86q0 27 12 49.5t35.5 39.5t47 29.5t59 22.5t58 15.5t57.5 13t45 9.5v43q0 94 -35.5 137.5t-85.5 43.5
q-40 0 -68 -23.5t-28 -60.5q0 -15 5.5 -32.5t5.5 -26.5q0 -15 -12.5 -26t-28.5 -11q-18 0 -27.5 15t-9.5 37q0 58 51 98.5t110 40.5q131 0 167 -112q28 53 76 82.5t110 29.5q75 0 130 -48t65 -121l-356 -70q7 -108 59.5 -171.5t136.5 -63.5zM566 500q-64 0 -104 -61
t-40 -142v-12l235 52q22 5 31 13.5t9 25.5q0 47 -38 85.5t-93 38.5zM206 18q56 0 102 37.5t46 109.5v102q-17 -5 -50 -14.5t-50 -15t-43 -15t-39.5 -19t-28.5 -23t-21 -30.5t-6 -38q0 -46 24.5 -70t65.5 -24z" />
    <glyph glyph-name="ccedilla" unicode="&#xe7;" horiz-adv-x="474" 
d="M299 41q37 0 78.5 24.5t68.5 84.5v-20q-20 -61 -72 -102t-116 -41q-11 0 -17 1l-16 -31q18 -8 30.5 -14.5t28.5 -18.5t24 -29t8 -38q0 -35 -29 -61.5t-69 -26.5q-30 0 -53.5 17t-23.5 48q0 15 8 25t20 10q24 0 24 -23q0 -8 -8 -17.5t-8 -16.5q0 -13 11.5 -22t26.5 -9
q30 0 47.5 18t17.5 41q0 34 -25.5 55.5t-59.5 31.5l34 62q-88 13 -142 89t-54 178q0 105 68 181t165 76q74 0 124 -44t50 -98q0 -29 -11.5 -45.5t-30.5 -16.5q-16 0 -27 10.5t-11 30.5q0 13 10 30.5t9 34.5q-2 32 -30 59t-91 27q-68 0 -113 -56.5t-45 -140.5q0 -127 55 -195
t144 -68z" />
    <glyph glyph-name="egrave" unicode="&#xe8;" horiz-adv-x="476" 
d="M305 567h-12l-185 153h88zM294 39q50 0 92.5 27t64.5 76v-28q-22 -57 -74.5 -92t-114.5 -35q-99 0 -164 78t-65 188t63 185t163 75q75 0 130 -48t65 -121l-357 -71q5 -102 57.5 -168t139.5 -66zM240 500q-63 0 -103.5 -61t-40.5 -142v-12l235 52q22 5 31.5 13.5t9.5 25.5
q0 47 -38.5 85.5t-93.5 38.5z" />
    <glyph glyph-name="eacute" unicode="&#xe9;" horiz-adv-x="476" 
d="M362 720l-184 -153h-13l109 153h88zM294 39q50 0 92.5 27t64.5 76v-28q-22 -57 -74.5 -92t-114.5 -35q-99 0 -164 78t-65 188t63 185t163 75q75 0 130 -48t65 -121l-357 -71q5 -102 57.5 -168t139.5 -66zM240 500q-63 0 -103.5 -61t-40.5 -142v-12l235 52q22 5 31.5 13.5
t9.5 25.5q0 47 -38.5 85.5t-93.5 38.5z" />
    <glyph glyph-name="ecircumflex" unicode="&#xea;" horiz-adv-x="476" 
d="M246 678l-123 -111h-12l108 153h54l107 -153h-12zM294 39q50 0 92.5 27t64.5 76v-28q-22 -57 -74.5 -92t-114.5 -35q-99 0 -164 78t-65 188t63 185t163 75q75 0 130 -48t65 -121l-357 -71q5 -102 57.5 -168t139.5 -66zM240 500q-63 0 -103.5 -61t-40.5 -142v-12l235 52
q22 5 31.5 13.5t9.5 25.5q0 47 -38.5 85.5t-93.5 38.5z" />
    <glyph glyph-name="edieresis" unicode="&#xeb;" horiz-adv-x="476" 
d="M157 613q-17 0 -28.5 11.5t-11.5 28.5t11.5 29t28.5 12q16 0 28 -12t12 -29t-11.5 -28.5t-28.5 -11.5zM336 613q-18 0 -29.5 11.5t-11.5 28.5t11.5 29t29.5 12q16 0 27.5 -12t11.5 -29t-11.5 -28.5t-27.5 -11.5zM294 39q50 0 92.5 27t64.5 76v-28q-22 -57 -74.5 -92
t-114.5 -35q-99 0 -164 78t-65 188t63 185t163 75q75 0 130 -48t65 -121l-357 -71q5 -102 57.5 -168t139.5 -66zM240 500q-63 0 -103.5 -61t-40.5 -142v-12l235 52q22 5 31.5 13.5t9.5 25.5q0 47 -38.5 85.5t-93.5 38.5z" />
    <glyph glyph-name="igrave" unicode="&#xec;" horiz-adv-x="253" 
d="M175 567l-185 153h88l109 -153h-12zM38 0v11q26 1 43 19t17 56v317q0 44 -17.5 57.5t-42.5 8.5v13l129 36v-432q0 -73 59 -75v-11h-188z" />
    <glyph glyph-name="iacute" unicode="&#xed;" horiz-adv-x="253" 
d="M82 567h-13l109 153h88zM38 0v11q26 1 43 19t17 56v317q0 44 -17.5 57.5t-42.5 8.5v13l129 36v-432q0 -73 59 -75v-11h-188z" />
    <glyph glyph-name="icircumflex" unicode="&#xee;" horiz-adv-x="253" 
d="M155 720l107 -153h-12l-122 111l-123 -111h-12l108 153h54zM167 86q0 -73 59 -75v-11h-188v11q26 1 43 19t17 56v317q0 44 -17.5 57.5t-42.5 8.5v13l129 36v-432z" />
    <glyph glyph-name="idieresis" unicode="&#xef;" horiz-adv-x="253" 
d="M39 613q-17 0 -29 11.5t-12 28.5t12 29t29 12q16 0 28 -12t12 -29t-11.5 -28.5t-28.5 -11.5zM218 613q-18 0 -29.5 11.5t-11.5 28.5t11.5 29t29.5 12q16 0 27.5 -12t11.5 -29t-11.5 -28.5t-27.5 -11.5zM38 0v11q26 1 43 19t17 56v317q0 44 -17.5 57.5t-42.5 8.5v13
l129 36v-432q0 -73 59 -75v-11h-188z" />
    <glyph glyph-name="eth" unicode="&#xf0;" horiz-adv-x="542" 
d="M309 657q93 -77 146 -184.5t54 -221.5q0 -107 -68 -185.5t-171 -78.5q-100 0 -168.5 78.5t-68.5 184.5q0 111 65 187t160 76q75 0 134 -52q-52 110 -124 179l-36 -15l-111 -56l-19 15l121 49l35 15q-75 69 -181 107l30 8q107 -31 191 -97l21 9l114 52l19 -14l-122 -47z
M294 1q64 0 103.5 64.5t39.5 151.5q0 66 -24 130.5t-68 108t-96 43.5q-64 0 -104.5 -63.5t-40.5 -149.5q0 -67 24 -132t68.5 -109t97.5 -44z" />
    <glyph glyph-name="ntilde" unicode="&#xf1;" horiz-adv-x="570" 
d="M212 669q-27 0 -44 -34t-17 -68h-12q0 18 3.5 39.5t12.5 45.5t27 40t43 16q24 0 50 -25.5t50.5 -51t46.5 -25.5q28 0 45 34.5t17 67.5h12q0 -18 -3.5 -39.5t-12 -45.5t-26 -40t-40.5 -16q-21 0 -42.5 16t-37 35t-35.5 35t-37 16zM479 80q0 -67 63 -69v-11h-192v11
q25 1 42.5 18t17.5 51v215q0 189 -114 189q-34 0 -69 -29t-60 -89v-286q0 -37 16 -52.5t52 -16.5v-11h-197v11q60 2 60 69v342q0 61 -60 47v13l130 36l-12 -151q28 70 74 108t98 38q151 0 151 -215v-218z" />
    <glyph glyph-name="ograve" unicode="&#xf2;" horiz-adv-x="542" 
d="M318 567l-185 153h88l109 -153h-12zM272 -13q-100 0 -169.5 77t-69.5 186q0 108 70 185.5t169 77.5q98 0 167.5 -77.5t69.5 -185.5q0 -109 -69.5 -186t-167.5 -77zM293 1q63 0 104 62t41 152q0 104 -55 194t-134 90q-63 0 -104 -61.5t-41 -151.5q0 -105 55 -195t134 -90z
" />
    <glyph glyph-name="oacute" unicode="&#xf3;" horiz-adv-x="542" 
d="M225 567h-13l109 153h88zM272 -13q-100 0 -169.5 77t-69.5 186q0 108 70 185.5t169 77.5q98 0 167.5 -77.5t69.5 -185.5q0 -109 -69.5 -186t-167.5 -77zM293 1q63 0 104 62t41 152q0 104 -55 194t-134 90q-63 0 -104 -61.5t-41 -151.5q0 -105 55 -195t134 -90z" />
    <glyph glyph-name="ocircumflex" unicode="&#xf4;" horiz-adv-x="542" 
d="M271 678l-123 -111h-12l108 153h54l107 -153h-12zM272 513q98 0 167.5 -77.5t69.5 -185.5q0 -109 -69.5 -186t-167.5 -77q-100 0 -169.5 77t-69.5 186q0 108 70 185.5t169 77.5zM293 1q63 0 104 62t41 152q0 104 -55 194t-134 90q-63 0 -104 -61.5t-41 -151.5
q0 -105 55 -195t134 -90z" />
    <glyph glyph-name="otilde" unicode="&#xf5;" horiz-adv-x="542" 
d="M118 567q0 27 5.5 55.5t26.5 57t54 28.5q24 0 49.5 -25.5t50.5 -51t47 -25.5q28 0 45 34.5t17 67.5h11q0 -18 -3.5 -39.5t-12 -45.5t-26 -40t-40.5 -16q-26 0 -53 25.5t-52 51t-46 25.5q-28 0 -45 -34t-17 -68h-11zM272 -13q-100 0 -169.5 77t-69.5 186q0 108 70 185.5
t169 77.5q98 0 167.5 -77.5t69.5 -185.5q0 -109 -69.5 -186t-167.5 -77zM293 1q63 0 104 62t41 152q0 104 -55 194t-134 90q-63 0 -104 -61.5t-41 -151.5q0 -105 55 -195t134 -90z" />
    <glyph glyph-name="odieresis" unicode="&#xf6;" horiz-adv-x="542" 
d="M182 613q-17 0 -28.5 11.5t-11.5 28.5t11.5 29t28.5 12q16 0 28 -12t12 -29t-11.5 -28.5t-28.5 -11.5zM361 613q-18 0 -29.5 11.5t-11.5 28.5t11.5 29t29.5 12q16 0 27.5 -12t11.5 -29t-11.5 -28.5t-27.5 -11.5zM272 -13q-100 0 -169.5 77t-69.5 186q0 108 70 185.5
t169 77.5q98 0 167.5 -77.5t69.5 -185.5q0 -109 -69.5 -186t-167.5 -77zM293 1q63 0 104 62t41 152q0 104 -55 194t-134 90q-63 0 -104 -61.5t-41 -151.5q0 -105 55 -195t134 -90z" />
    <glyph glyph-name="oslash" unicode="&#xf8;" horiz-adv-x="542" 
d="M439 436q70 -78 70 -186q0 -109 -69.5 -186t-167.5 -77q-90 0 -158 65l-44 -52h-19l53 63q-71 76 -71 187q0 108 70 185.5t169 77.5q92 0 157 -67l46 54h19zM104 286q0 -92 43 -173l242 286q-59 100 -140 100q-63 0 -104 -61.5t-41 -151.5zM293 1q63 0 104 62t41 152
t-41 170l-243 -286q58 -98 139 -98z" />
    <glyph glyph-name="ugrave" unicode="&#xf9;" horiz-adv-x="570" 
d="M334 567l-185 153h88l109 -153h-12zM238 -13q-70 0 -106 47.5t-36 137.5v226q0 44 -16.5 61t-46.5 12v11l132 36v-346q0 -70 29.5 -109t85.5 -39q45 0 81 40t48 84v250q0 46 -16 62t-44 11v11l129 36v-412q0 -53 13.5 -73.5t45.5 -21.5v-11h-131l10 126q-19 -51 -66 -95
t-112 -44z" />
    <glyph glyph-name="uacute" unicode="&#xfa;" horiz-adv-x="570" 
d="M241 567h-13l109 153h88zM238 -13q-70 0 -106 47.5t-36 137.5v226q0 44 -16.5 61t-46.5 12v11l132 36v-346q0 -70 29.5 -109t85.5 -39q45 0 81 40t48 84v250q0 46 -16 62t-44 11v11l129 36v-412q0 -53 13.5 -73.5t45.5 -21.5v-11h-131l10 126q-19 -51 -66 -95t-112 -44z
" />
    <glyph glyph-name="ucircumflex" unicode="&#xfb;" horiz-adv-x="570" 
d="M287 678l-123 -111h-12l108 153h54l107 -153h-12zM478 106q0 -53 13.5 -73.5t45.5 -21.5v-11h-131l10 126q-19 -51 -66 -95t-112 -44q-70 0 -106 47.5t-36 137.5v226q0 44 -16.5 61t-46.5 12v11l132 36v-346q0 -70 29.5 -109t85.5 -39q45 0 81 40t48 84v250q0 46 -16 62
t-44 11v11l129 36v-412z" />
    <glyph glyph-name="udieresis" unicode="&#xfc;" horiz-adv-x="570" 
d="M198 613q-17 0 -28.5 11.5t-11.5 28.5t11.5 29t28.5 12q16 0 28 -12t12 -29t-11.5 -28.5t-28.5 -11.5zM377 613q-18 0 -29.5 11.5t-11.5 28.5t11.5 29t29.5 12q16 0 27.5 -12t11.5 -29t-11.5 -28.5t-27.5 -11.5zM238 -13q-70 0 -106 47.5t-36 137.5v226q0 44 -16.5 61
t-46.5 12v11l132 36v-346q0 -70 29.5 -109t85.5 -39q45 0 81 40t48 84v250q0 46 -16 62t-44 11v11l129 36v-412q0 -53 13.5 -73.5t45.5 -21.5v-11h-131l10 126q-19 -51 -66 -95t-112 -44z" />
    <glyph glyph-name="yacute" unicode="&#xfd;" horiz-adv-x="497" 
d="M403 720l-184 -153h-13l109 153h88zM350 500h160v-11q-17 -1 -29.5 -6t-30.5 -26.5t-33 -61.5q-42 -110 -126 -371q-48 -149 -71 -189q-36 -66 -93 -66q-48 0 -76.5 30t-29.5 70q0 28 13.5 48t35.5 20q38 0 38 -34q0 -15 -14 -30t-14 -26q0 -22 14 -39t46 -17
q30 0 47 18.5t33 52.5q37 73 19 125l-141 380q-25 69 -46 95t-44 27v11h187v-11q-26 -1 -36 -11t-10 -32q0 -25 28 -101q3 -8 50 -132.5t58 -164.5q80 242 90 270q32 90 32 116q0 30 -13 42.5t-44 12.5v11z" />
    <glyph glyph-name="thorn" unicode="&#xfe;" horiz-adv-x="554" 
d="M298 513q106 0 164.5 -77.5t58.5 -191.5q0 -103 -64 -180t-160 -77q-75 0 -150 70v-191q0 -73 59 -75v-11h-188v11q26 1 43 19.5t17 55.5v796q0 34 -17.5 46t-42.5 5v13l129 36v-353q22 49 65 76.5t86 27.5zM290 0q76 0 116.5 61.5t40.5 165.5q0 42 -9 85t-27.5 83
t-52 65.5t-77.5 25.5q-41 0 -79 -26.5t-55 -75.5v-251q15 -61 56.5 -97t86.5 -36z" />
    <glyph glyph-name="ydieresis" unicode="&#xff;" horiz-adv-x="497" 
d="M176 613q-17 0 -28.5 11.5t-11.5 28.5t11.5 29t28.5 12q16 0 28 -12t12 -29t-11.5 -28.5t-28.5 -11.5zM355 613q-18 0 -29.5 11.5t-11.5 28.5t11.5 29t29.5 12q16 0 27.5 -12t11.5 -29t-11.5 -28.5t-27.5 -11.5zM350 500h160v-11q-17 -1 -29.5 -6t-30.5 -26.5t-33 -61.5
q-42 -110 -126 -371q-48 -149 -71 -189q-36 -66 -93 -66q-48 0 -76.5 30t-29.5 70q0 28 13.5 48t35.5 20q38 0 38 -34q0 -15 -14 -30t-14 -26q0 -22 14 -39t46 -17q30 0 47 18.5t33 52.5q37 73 19 125l-141 380q-25 69 -46 95t-44 27v11h187v-11q-26 -1 -36 -11t-10 -32
q0 -25 28 -101q3 -8 50 -132.5t58 -164.5q80 242 90 270q32 90 32 116q0 30 -13 42.5t-44 12.5v11z" />
    <glyph glyph-name="Amacron" unicode="&#x100;" horiz-adv-x="630" 
d="M447 832v-12h-279v12h279zM513 169q3 -10 11.5 -36t11.5 -34.5t10.5 -27t13.5 -25t15.5 -16.5t21 -14t25.5 -5v-11h-213v11q46 6 52 40q6 28 -16 95l-35 106h-254q-57 -164 -52 -192q4 -47 61 -49v-11h-183v11q32 1 53.5 15.5t37.5 51.5q35 83 96 257q8 24 21 60.5t19 55
t15.5 46t14 41.5t10.5 34t9 31t6 24t4 21.5t1 16.5q0 27 -5 45q32 8 62 28zM160 264h246l-124 372q-5 -24 -16.5 -61t-22.5 -68.5t-30 -87.5t-29 -86q-12 -36 -24 -69z" />
    <glyph glyph-name="amacron" unicode="&#x101;" horiz-adv-x="503" 
d="M115 600v12h279v-12h-279zM174 -13q-53 0 -93.5 26t-40.5 86q0 24 10 44.5t24.5 36t39.5 30t45 23t52 18.5t49 14t48 11t39 9v36q0 95 -33.5 138t-87.5 43q-41 0 -68.5 -23.5t-27.5 -60.5q0 -15 5 -32.5t5 -27.5q0 -15 -11.5 -25.5t-28.5 -10.5q-18 0 -28 15t-10 36
q0 58 51.5 99t112.5 41q189 0 189 -214v-202q0 -51 19 -65.5t51 14.5v-14q-34 -45 -75 -45q-22 0 -35 9t-19 28t-7.5 36.5t-1.5 46.5q-20 -59 -68.5 -89.5t-104.5 -30.5zM206 17q50 0 95.5 39t45.5 108v111q-10 -3 -35.5 -11t-35 -11t-31.5 -11t-31.5 -12.5t-26.5 -13
t-24.5 -15t-18.5 -17t-16 -21t-8.5 -23.5t-3.5 -28q0 -46 24.5 -70.5t65.5 -24.5z" />
    <glyph glyph-name="Abreve" unicode="&#x102;" horiz-adv-x="630" 
d="M308 787q-57 0 -92 44t-35 109h10q1 -51 32.5 -83t84.5 -32q54 0 85 32t32 83h11q0 -65 -35.5 -109t-92.5 -44zM513 169q3 -10 11.5 -36t11.5 -34.5t10.5 -27t13.5 -25t15.5 -16.5t21 -14t25.5 -5v-11h-213v11q46 6 52 40q6 28 -16 95l-35 106h-254q-57 -164 -52 -192
q4 -47 61 -49v-11h-183v11q32 1 53.5 15.5t37.5 51.5q35 83 96 257q8 24 21 60.5t19 55t15.5 46t14 41.5t10.5 34t9 31t6 24t4 21.5t1 16.5q0 27 -5 45q32 8 62 28zM160 264h246l-124 372q-5 -24 -16.5 -61t-22.5 -68.5t-30 -87.5t-29 -86q-12 -36 -24 -69z" />
    <glyph glyph-name="abreve" unicode="&#x103;" horiz-adv-x="503" 
d="M255 567q-57 0 -92 44t-35 109h10q1 -51 32.5 -83t84.5 -32q54 0 85 32t32 83h11q0 -65 -35.5 -109t-92.5 -44zM174 -13q-53 0 -93.5 26t-40.5 86q0 24 10 44.5t24.5 36t39.5 30t45 23t52 18.5t49 14t48 11t39 9v36q0 95 -33.5 138t-87.5 43q-41 0 -68.5 -23.5
t-27.5 -60.5q0 -15 5 -32.5t5 -27.5q0 -15 -11.5 -25.5t-28.5 -10.5q-18 0 -28 15t-10 36q0 58 51.5 99t112.5 41q189 0 189 -214v-202q0 -51 19 -65.5t51 14.5v-14q-34 -45 -75 -45q-22 0 -35 9t-19 28t-7.5 36.5t-1.5 46.5q-20 -59 -68.5 -89.5t-104.5 -30.5zM206 17
q50 0 95.5 39t45.5 108v111q-10 -3 -35.5 -11t-35 -11t-31.5 -11t-31.5 -12.5t-26.5 -13t-24.5 -15t-18.5 -17t-16 -21t-8.5 -23.5t-3.5 -28q0 -46 24.5 -70.5t65.5 -24.5z" />
    <glyph glyph-name="Aogonek" unicode="&#x104;" horiz-adv-x="630" 
d="M515 0q-75 -66 -75 -131q0 -26 16 -47.5t50 -21.5q48 0 72 42v-12q-8 -26 -34.5 -47.5t-61.5 -21.5q-34 0 -59 24.5t-25 64.5q0 80 104 150h-93v11q46 6 52 40q6 28 -16 95l-35 106h-254q-57 -164 -52 -192q4 -47 61 -49v-11h-183v11q32 1 53.5 15.5t37.5 51.5
q35 83 96 257q8 24 21 60.5t19 55t15.5 46t14 41.5t10.5 34t9 31t6 24t4 21.5t1 16.5q0 27 -5 45q32 8 62 28l187 -569q3 -10 11.5 -36t11.5 -34.5t10.5 -27t13.5 -25t15.5 -16.5t21 -14t25.5 -5v-11h-107zM160 264h246l-124 372q-5 -24 -16.5 -61t-22.5 -68.5t-30 -87.5
t-29 -86q-12 -36 -24 -69z" />
    <glyph glyph-name="aogonek" unicode="&#x105;" horiz-adv-x="503" 
d="M415 97q0 -51 19 -65.5t51 14.5v-14q-34 -45 -75 -45q-15 0 -27 5q-58 -58 -58 -115q0 -26 16 -47.5t50 -21.5q48 0 72 42v-12q-8 -26 -34.5 -47.5t-61.5 -21.5q-34 0 -59 24.5t-25 64.5q0 77 90 140q-26 22 -26 109q-20 -59 -68.5 -89.5t-104.5 -30.5q-53 0 -93.5 26
t-40.5 86q0 24 10 44.5t24.5 36t39.5 30t45 23t52 18.5t49 14t48 11t39 9v36q0 95 -33.5 138t-87.5 43q-41 0 -68.5 -23.5t-27.5 -60.5q0 -15 5 -32.5t5 -27.5q0 -15 -11.5 -25.5t-28.5 -10.5q-18 0 -28 15t-10 36q0 58 51.5 99t112.5 41q189 0 189 -214v-202zM347 164v111
q-10 -3 -35.5 -11t-35 -11t-31.5 -11t-31.5 -12.5t-26.5 -13t-24.5 -15t-18.5 -17t-16 -21t-8.5 -23.5t-3.5 -28q0 -46 24.5 -70.5t65.5 -24.5q50 0 95.5 39t45.5 108z" />
    <glyph glyph-name="Cacute" unicode="&#x106;" horiz-adv-x="609" 
d="M265 787h-13l109 153h88zM340 -13q-137 0 -223.5 108.5t-86.5 266.5q0 153 89.5 262t212.5 109q32 0 63 -10.5t48 -20t38 -9t41 19.5l50 -267h-13q-70 275 -229 275q-95 0 -163.5 -86.5t-68.5 -231.5q0 -59 16 -119t48 -114t87.5 -88t126.5 -34q63 0 115.5 41.5
t76.5 121.5l8 -2q-21 -96 -85 -159t-151 -63z" />
    <glyph glyph-name="cacute" unicode="&#x107;" horiz-adv-x="474" 
d="M207 567h-13l109 153h88zM258 -13q-99 0 -162 79t-63 190q0 105 68 181t165 76q74 0 124 -44t50 -98q0 -29 -11.5 -45.5t-30.5 -16.5q-16 0 -27 10.5t-11 30.5q0 13 10 30.5t9 34.5q-2 32 -30 59t-91 27q-68 0 -113 -56.5t-45 -140.5q0 -127 55 -195t144 -68
q37 0 78.5 24.5t68.5 84.5v-20q-20 -61 -72 -102t-116 -41z" />
    <glyph glyph-name="Ccircumflex" unicode="&#x108;" horiz-adv-x="609" 
d="M333 898l-123 -111h-12l108 153h54l107 -153h-12zM568 211l8 -2q-21 -96 -85 -159t-151 -63q-137 0 -223.5 108.5t-86.5 266.5q0 153 89.5 262t212.5 109q32 0 63 -10.5t48 -20t38 -9t41 19.5l50 -267h-13q-70 275 -229 275q-95 0 -163.5 -86.5t-68.5 -231.5
q0 -59 16 -119t48 -114t87.5 -88t126.5 -34q63 0 115.5 41.5t76.5 121.5z" />
    <glyph glyph-name="ccircumflex" unicode="&#x109;" horiz-adv-x="474" 
d="M253 678l-123 -111h-12l108 153h54l107 -153h-12zM299 41q37 0 78.5 24.5t68.5 84.5v-20q-20 -61 -72 -102t-116 -41q-99 0 -162 79t-63 190q0 105 68 181t165 76q74 0 124 -44t50 -98q0 -29 -11.5 -45.5t-30.5 -16.5q-16 0 -27 10.5t-11 30.5q0 13 10 30.5t9 34.5
q-2 32 -30 59t-91 27q-68 0 -113 -56.5t-45 -140.5q0 -127 55 -195t144 -68z" />
    <glyph glyph-name="Cdotaccent" unicode="&#x10a;" horiz-adv-x="609" 
d="M333 829q-19 0 -33.5 14t-14.5 33t14.5 34t33.5 15t33.5 -14.5t14.5 -34.5q0 -19 -14.5 -33t-33.5 -14zM340 -13q-137 0 -223.5 108.5t-86.5 266.5q0 153 89.5 262t212.5 109q32 0 63 -10.5t48 -20t38 -9t41 19.5l50 -267h-13q-70 275 -229 275q-95 0 -163.5 -86.5
t-68.5 -231.5q0 -59 16 -119t48 -114t87.5 -88t126.5 -34q63 0 115.5 41.5t76.5 121.5l8 -2q-21 -96 -85 -159t-151 -63z" />
    <glyph glyph-name="cdotaccent" unicode="&#x10b;" horiz-adv-x="474" 
d="M253 609q-19 0 -33.5 14t-14.5 33t14.5 34t33.5 15t33.5 -14.5t14.5 -34.5q0 -19 -14.5 -33t-33.5 -14zM258 -13q-99 0 -162 79t-63 190q0 105 68 181t165 76q74 0 124 -44t50 -98q0 -29 -11.5 -45.5t-30.5 -16.5q-16 0 -27 10.5t-11 30.5q0 13 10 30.5t9 34.5
q-2 32 -30 59t-91 27q-68 0 -113 -56.5t-45 -140.5q0 -127 55 -195t144 -68q37 0 78.5 24.5t68.5 84.5v-20q-20 -61 -72 -102t-116 -41z" />
    <glyph glyph-name="Ccaron" unicode="&#x10c;" horiz-adv-x="609" 
d="M306 787l-108 153h12l123 -111l122 111h12l-107 -153h-54zM568 211l8 -2q-21 -96 -85 -159t-151 -63q-137 0 -223.5 108.5t-86.5 266.5q0 153 89.5 262t212.5 109q32 0 63 -10.5t48 -20t38 -9t41 19.5l50 -267h-13q-70 275 -229 275q-95 0 -163.5 -86.5t-68.5 -231.5
q0 -59 16 -119t48 -114t87.5 -88t126.5 -34q63 0 115.5 41.5t76.5 121.5z" />
    <glyph glyph-name="ccaron" unicode="&#x10d;" horiz-adv-x="474" 
d="M226 567l-108 153h12l123 -111l122 111h12l-107 -153h-54zM299 41q37 0 78.5 24.5t68.5 84.5v-20q-20 -61 -72 -102t-116 -41q-99 0 -162 79t-63 190q0 105 68 181t165 76q74 0 124 -44t50 -98q0 -29 -11.5 -45.5t-30.5 -16.5q-16 0 -27 10.5t-11 30.5q0 13 10 30.5
t9 34.5q-2 32 -30 59t-91 27q-68 0 -113 -56.5t-45 -140.5q0 -127 55 -195t144 -68z" />
    <glyph glyph-name="Dcaron" unicode="&#x10e;" horiz-adv-x="649" 
d="M306 787l-108 153h12l123 -111l122 111h12l-107 -153h-54zM281 720q137 0 237.5 -105.5t100.5 -246.5q0 -152 -81 -260t-212 -108h-283v11q25 1 42 19.5t17 57.5v545q0 42 -15 58.5t-44 17.5v11h238zM324 12q99 0 158 83.5t59 220.5q0 331 -219 382q-41 10 -146 10v-680
q69 -16 148 -16z" />
    <glyph glyph-name="dcaron" unicode="&#x10f;" horiz-adv-x="633" 
d="M472 87q0 -74 60 -76v-11h-135l14 98q-24 -49 -68 -80t-97 -31q-98 0 -155.5 74t-57.5 188q0 109 62 186.5t153 77.5q97 0 155 -76v225q0 68 -60 51v13l129 36v-675zM604 733q28 0 43.5 -19.5t15.5 -47.5q0 -55 -34 -105.5t-106 -86.5v11q53 30 83.5 74t31.5 95h-4
q-8 -32 -39 -32q-17 0 -32 15t-15 41q0 24 16 39.5t40 15.5zM272 18q41 0 76 24.5t55 67.5v266q-21 54 -60 89t-99 35q-66 0 -103.5 -63.5t-37.5 -159.5q0 -115 44 -187t125 -72z" />
    <glyph glyph-name="Dcroat" unicode="&#x110;" horiz-adv-x="649" 
d="M281 720q137 0 237.5 -105.5t100.5 -246.5q0 -152 -81 -260t-212 -108h-283v11q25 1 42 19.5t17 57.5v266h-14l-109 -2v14l109 -2h14v269q0 42 -15 58.5t-44 17.5v11h238zM324 12q99 0 158 83.5t59 220.5q0 331 -219 382q-41 10 -146 10v-344h35l110 2v-14l-110 2h-35
v-326q69 -16 148 -16z" />
    <glyph glyph-name="dcroat" unicode="&#x111;" horiz-adv-x="573" 
d="M489 587h-17v-500q0 -74 60 -76v-11h-135l14 98q-24 -49 -68 -80t-97 -31q-98 0 -155.5 74t-57.5 188q0 109 62 186.5t153 77.5q97 0 155 -76v150h-37l-109 -2v14l109 -2h37v65q0 68 -60 51v13l129 36v-165h17l110 2v-14zM272 18q41 0 76 24.5t55 67.5v266q-21 54 -60 89
t-99 35q-66 0 -103.5 -63.5t-37.5 -159.5q0 -115 44 -187t125 -72z" />
    <glyph glyph-name="Emacron" unicode="&#x112;" 
d="M439 832v-12h-279v12h279zM559 187h12l-61 -202q-42 15 -122 15h-345v11q59 2 59 75v550q0 71 -59 73v11h322q40 0 72 4.5t45 9t17 8.5l56 -187h-13q-21 61 -44 90.5t-73.5 46t-140.5 16.5h-109v-289h135q53 0 74 19t23 61h11v-172h-11q-2 45 -22.5 62.5t-74.5 17.5h-135
v-374q49 -21 131 -21q109 0 163.5 35t89.5 140z" />
    <glyph glyph-name="emacron" unicode="&#x113;" horiz-adv-x="476" 
d="M385 612v-12h-279v12h279zM294 39q50 0 92.5 27t64.5 76v-28q-22 -57 -74.5 -92t-114.5 -35q-99 0 -164 78t-65 188t63 185t163 75q75 0 130 -48t65 -121l-357 -71q5 -102 57.5 -168t139.5 -66zM240 500q-63 0 -103.5 -61t-40.5 -142v-12l235 52q22 5 31.5 13.5t9.5 25.5
q0 47 -38.5 85.5t-93.5 38.5z" />
    <glyph glyph-name="Ebreve" unicode="&#x114;" 
d="M300 787q-57 0 -92 44t-35 109h10q1 -51 32.5 -83t84.5 -32q54 0 85 32t32 83h11q0 -65 -35.5 -109t-92.5 -44zM559 187h12l-61 -202q-42 15 -122 15h-345v11q59 2 59 75v550q0 71 -59 73v11h322q40 0 72 4.5t45 9t17 8.5l56 -187h-13q-21 61 -44 90.5t-73.5 46
t-140.5 16.5h-109v-289h135q53 0 74 19t23 61h11v-172h-11q-2 45 -22.5 62.5t-74.5 17.5h-135v-374q49 -21 131 -21q109 0 163.5 35t89.5 140z" />
    <glyph glyph-name="ebreve" unicode="&#x115;" horiz-adv-x="476" 
d="M246 567q-57 0 -92 44t-35 109h10q1 -51 32.5 -83t84.5 -32q54 0 85 32t32 83h11q0 -65 -35.5 -109t-92.5 -44zM294 39q50 0 92.5 27t64.5 76v-28q-22 -57 -74.5 -92t-114.5 -35q-99 0 -164 78t-65 188t63 185t163 75q75 0 130 -48t65 -121l-357 -71q5 -102 57.5 -168
t139.5 -66zM240 500q-63 0 -103.5 -61t-40.5 -142v-12l235 52q22 5 31.5 13.5t9.5 25.5q0 47 -38.5 85.5t-93.5 38.5z" />
    <glyph glyph-name="Edotaccent" unicode="&#x116;" 
d="M300 829q-19 0 -33.5 14t-14.5 33t14.5 34t33.5 15t33.5 -14.5t14.5 -34.5q0 -19 -14.5 -33t-33.5 -14zM559 187h12l-61 -202q-42 15 -122 15h-345v11q59 2 59 75v550q0 71 -59 73v11h322q40 0 72 4.5t45 9t17 8.5l56 -187h-13q-21 61 -44 90.5t-73.5 46t-140.5 16.5
h-109v-289h135q53 0 74 19t23 61h11v-172h-11q-2 45 -22.5 62.5t-74.5 17.5h-135v-374q49 -21 131 -21q109 0 163.5 35t89.5 140z" />
    <glyph glyph-name="edotaccent" unicode="&#x117;" horiz-adv-x="518" 
d="M261 576q-23 0 -38.5 16t-15.5 38t15.5 38t38.5 16q22 0 37.5 -16t15.5 -38t-15.5 -38t-37.5 -16zM294 39q50 0 92.5 27t64.5 76v-28q-22 -57 -74.5 -92t-114.5 -35q-99 0 -164 78t-65 188t63 185t163 75q75 0 130 -48t65 -121l-357 -71q5 -102 57.5 -168t139.5 -66z
M240 500q-63 0 -103.5 -61t-40.5 -142v-12l235 52q22 5 31.5 13.5t9.5 25.5q0 47 -38.5 85.5t-93.5 38.5z" />
    <glyph glyph-name="Eogonek" unicode="&#x118;" 
d="M385 0q-66 -63 -66 -123q0 -26 16 -47.5t50 -21.5q48 0 72 42v-12q-8 -26 -34.5 -47.5t-61.5 -21.5q-34 0 -59 24.5t-25 64.5q0 77 93 142h-327v11q59 2 59 75v550q0 71 -59 73v11h322q40 0 72 4.5t45 9t17 8.5l56 -187h-13q-21 61 -44 90.5t-73.5 46t-140.5 16.5h-109
v-289h135q53 0 74 19t23 61h11v-172h-11q-2 45 -22.5 62.5t-74.5 17.5h-135v-374q49 -21 131 -21q109 0 163.5 35t89.5 140h12l-61 -202q-42 15 -122 15h-3z" />
    <glyph glyph-name="eogonek" unicode="&#x119;" horiz-adv-x="476" 
d="M294 39q50 0 92.5 27t64.5 76v-28q-18 -45 -54.5 -76.5t-82.5 -43.5q-60 -60 -60 -117q0 -26 16 -47.5t50 -21.5q48 0 72 42v-12q-8 -26 -34.5 -47.5t-61.5 -21.5q-34 0 -59 24.5t-25 64.5q0 71 77 131q-18 -2 -27 -2q-99 0 -164 78t-65 188t63 185t163 75q75 0 130 -48
t65 -121l-357 -71q5 -102 57.5 -168t139.5 -66zM240 500q-63 0 -103.5 -61t-40.5 -142v-12l235 52q22 5 31.5 13.5t9.5 25.5q0 47 -38.5 85.5t-93.5 38.5z" />
    <glyph glyph-name="Ecaron" unicode="&#x11a;" 
d="M273 787l-108 153h12l123 -111l122 111h12l-107 -153h-54zM559 187h12l-61 -202q-42 15 -122 15h-345v11q59 2 59 75v550q0 71 -59 73v11h322q40 0 72 4.5t45 9t17 8.5l56 -187h-13q-21 61 -44 90.5t-73.5 46t-140.5 16.5h-109v-289h135q53 0 74 19t23 61h11v-172h-11
q-2 45 -22.5 62.5t-74.5 17.5h-135v-374q49 -21 131 -21q109 0 163.5 35t89.5 140z" />
    <glyph glyph-name="ecaron" unicode="&#x11b;" horiz-adv-x="476" 
d="M219 567l-108 153h12l123 -111l122 111h12l-107 -153h-54zM294 39q50 0 92.5 27t64.5 76v-28q-22 -57 -74.5 -92t-114.5 -35q-99 0 -164 78t-65 188t63 185t163 75q75 0 130 -48t65 -121l-357 -71q5 -102 57.5 -168t139.5 -66zM240 500q-63 0 -103.5 -61t-40.5 -142v-12
l235 52q22 5 31.5 13.5t9.5 25.5q0 47 -38.5 85.5t-93.5 38.5z" />
    <glyph glyph-name="Gcircumflex" unicode="&#x11c;" horiz-adv-x="665" 
d="M343 898l-123 -111h-12l108 153h54l107 -153h-12zM444 335h202v-11q-30 0 -44.5 -15t-14.5 -52v-270h-12q-2 29 -18 47.5t-41 18.5q-17 0 -41.5 -16.5t-64.5 -33t-95 -16.5q-87 0 -153.5 53.5t-99 136t-32.5 177.5q0 156 92.5 267.5t204.5 111.5q41 0 78 -11t56.5 -21
t41 -9t41.5 20l41 -267h-14q-25 120 -86.5 198t-154.5 78q-94 0 -160.5 -95.5t-66.5 -234.5q0 -171 74.5 -275t181.5 -104q66 0 112.5 47.5t46.5 124.5v65q0 45 -17 60t-57 15v11z" />
    <glyph glyph-name="gcircumflex" unicode="&#x11d;" horiz-adv-x="533" 
d="M265 678l-122 -111h-13l108 153h54l108 -153h-13zM535 490q-3 -29 -26 -50t-59 -17q-20 4 -32 10q34 -51 34 -115q0 -74 -54.5 -130.5t-141.5 -56.5q-81 0 -133 46q-38 -36 -38 -75q0 -67 101 -67q21 0 90 4t95 4q58 0 101.5 -30t43.5 -90q0 -66 -58.5 -110t-199.5 -44
q-112 0 -168.5 30t-56.5 83q0 31 23.5 57t58.5 39q-66 23 -66 95q0 67 66 112q-55 53 -55 136q0 76 52 134t144 58q93 0 148 -63q18 -11 45 -16q19 -3 30.5 6.5t13.5 22.5q2 16 -18 30t-18 32q3 30 40 28q19 -2 30 -21t8 -42zM272 144q38 0 64.5 24.5t35.5 53.5t9 58
q0 86 -40 153t-103 67q-50 0 -79 -44t-29 -103q0 -83 39 -146t103 -63zM361 -24q-23 0 -89 -4t-93 -4q-21 0 -39 3q-61 -21 -61 -84q0 -53 53 -79.5t128 -26.5q96 0 152 28.5t56 89.5q0 77 -107 77z" />
    <glyph glyph-name="Gbreve" unicode="&#x11e;" horiz-adv-x="665" 
d="M343 787q-57 0 -92 44t-35 109h10q1 -51 32.5 -83t84.5 -32q54 0 85 32t32 83h11q0 -65 -35.5 -109t-92.5 -44zM30 354q0 156 92.5 267.5t204.5 111.5q41 0 78 -11t56.5 -21t41 -9t41.5 20l41 -267h-14q-25 120 -86.5 198t-154.5 78q-94 0 -160.5 -95.5t-66.5 -234.5
q0 -171 74.5 -275t181.5 -104q66 0 112.5 47.5t46.5 124.5v65q0 45 -17 60t-57 15v11h202v-11q-30 0 -44.5 -15t-14.5 -52v-270h-12q-2 29 -18 47.5t-41 18.5q-17 0 -41.5 -16.5t-64.5 -33t-95 -16.5q-87 0 -153.5 53.5t-99 136t-32.5 177.5z" />
    <glyph glyph-name="gbreve" unicode="&#x11f;" horiz-adv-x="525" 
d="M261 567q-57 0 -92 44t-35 109h10q1 -51 32.5 -83t84.5 -32q54 0 85 32t32 83h11q0 -65 -35.5 -109t-92.5 -44zM441 514q-16 0 -26 -10.5t-10 -26.5q0 -20 23.5 -68.5t23.5 -90.5q0 -74 -54.5 -130.5t-141.5 -56.5q-81 0 -133 46q-38 -36 -38 -75q0 -67 101 -67
q21 0 90 4t95 4q58 0 101.5 -30t43.5 -90q0 -66 -58.5 -110t-199.5 -44q-112 0 -168.5 30t-56.5 83q0 36 21 62t51 38q-56 25 -56 91q0 67 66 112q-55 53 -55 136q0 76 52 134t144 58q85 0 141 -56q-4 11 -4 24q0 36 23.5 56t53.5 20q22 0 40 -13.5t18 -32.5q0 -31 -31 -31
q-14 0 -28 17t-28 17zM272 144q38 0 64.5 24.5t35.5 53.5t9 58q0 86 -40 153t-103 67q-50 0 -79 -44t-29 -103q0 -83 39 -146t103 -63zM361 -24q-23 0 -89 -4t-93 -4q-31 0 -55 7q-45 -25 -45 -88q0 -53 53 -79.5t128 -26.5q96 0 152 28.5t56 89.5q0 77 -107 77z" />
    <glyph glyph-name="Gdotaccent" unicode="&#x120;" horiz-adv-x="665" 
d="M343 829q-19 0 -33.5 14t-14.5 33t14.5 34t33.5 15t33.5 -14.5t14.5 -34.5q0 -19 -14.5 -33t-33.5 -14zM30 354q0 156 92.5 267.5t204.5 111.5q41 0 78 -11t56.5 -21t41 -9t41.5 20l41 -267h-14q-25 120 -86.5 198t-154.5 78q-94 0 -160.5 -95.5t-66.5 -234.5
q0 -171 74.5 -275t181.5 -104q66 0 112.5 47.5t46.5 124.5v65q0 45 -17 60t-57 15v11h202v-11q-30 0 -44.5 -15t-14.5 -52v-270h-12q-2 29 -18 47.5t-41 18.5q-17 0 -41.5 -16.5t-64.5 -33t-95 -16.5q-87 0 -153.5 53.5t-99 136t-32.5 177.5z" />
    <glyph glyph-name="gdotaccent" unicode="&#x121;" horiz-adv-x="525" 
d="M261 609q-19 0 -33.5 14t-14.5 33t14.5 34t33.5 15t33.5 -14.5t14.5 -34.5q0 -19 -14.5 -33t-33.5 -14zM441 514q-16 0 -26 -10.5t-10 -26.5q0 -20 23.5 -68.5t23.5 -90.5q0 -74 -54.5 -130.5t-141.5 -56.5q-81 0 -133 46q-38 -36 -38 -75q0 -67 101 -67q21 0 90 4t95 4
q58 0 101.5 -30t43.5 -90q0 -66 -58.5 -110t-199.5 -44q-112 0 -168.5 30t-56.5 83q0 36 21 62t51 38q-56 25 -56 91q0 67 66 112q-55 53 -55 136q0 76 52 134t144 58q85 0 141 -56q-4 11 -4 24q0 36 23.5 56t53.5 20q22 0 40 -13.5t18 -32.5q0 -31 -31 -31q-14 0 -28 17
t-28 17zM272 144q38 0 64.5 24.5t35.5 53.5t9 58q0 86 -40 153t-103 67q-50 0 -79 -44t-29 -103q0 -83 39 -146t103 -63zM361 -24q-23 0 -89 -4t-93 -4q-31 0 -55 7q-45 -25 -45 -88q0 -53 53 -79.5t128 -26.5q96 0 152 28.5t56 89.5q0 77 -107 77z" />
    <glyph glyph-name="uni0122" unicode="&#x122;" horiz-adv-x="665" 
d="M30 354q0 156 92.5 267.5t204.5 111.5q41 0 78 -11t56.5 -21t41 -9t41.5 20l41 -267h-14q-25 120 -86.5 198t-154.5 78q-94 0 -160.5 -95.5t-66.5 -234.5q0 -171 74.5 -275t181.5 -104q66 0 112.5 47.5t46.5 124.5v65q0 45 -17 60t-57 15v11h202v-11q-30 0 -44.5 -15
t-14.5 -52v-270h-12q-2 29 -18 47.5t-41 18.5q-17 0 -41.5 -16.5t-64.5 -33t-95 -16.5q-87 0 -153.5 53.5t-99 136t-32.5 177.5zM347 -54q26 0 42 -19t16 -48q0 -53 -34 -102.5t-105 -82.5v12q53 28 83.5 70.5t31.5 92.5q-1 5 -5 1q-9 -30 -38 -30q-17 0 -32 14t-15 39
q0 24 16 38.5t40 14.5z" />
    <glyph glyph-name="uni0123" unicode="&#x123;" horiz-adv-x="525" 
d="M261 556q-26 0 -42 19t-16 47q0 53 34 102.5t105 82.5v-11q-53 -28 -83.5 -70.5t-31.5 -92.5q0 -3 1 -4q2 -2 4 3q9 30 38 30q17 0 32 -14t15 -39q0 -24 -15.5 -38.5t-40.5 -14.5zM441 514q-16 0 -26 -10.5t-10 -26.5q0 -20 23.5 -68.5t23.5 -90.5q0 -74 -54.5 -130.5
t-141.5 -56.5q-81 0 -133 46q-38 -36 -38 -75q0 -67 101 -67q21 0 90 4t95 4q58 0 101.5 -30t43.5 -90q0 -66 -58.5 -110t-199.5 -44q-112 0 -168.5 30t-56.5 83q0 36 21 62t51 38q-56 25 -56 91q0 67 66 112q-55 53 -55 136q0 76 52 134t144 58q85 0 141 -56q-4 11 -4 24
q0 36 23.5 56t53.5 20q22 0 40 -13.5t18 -32.5q0 -31 -31 -31q-14 0 -28 17t-28 17zM272 144q38 0 64.5 24.5t35.5 53.5t9 58q0 86 -40 153t-103 67q-50 0 -79 -44t-29 -103q0 -83 39 -146t103 -63zM361 -24q-23 0 -89 -4t-93 -4q-31 0 -55 7q-45 -25 -45 -88
q0 -53 53 -79.5t128 -26.5q96 0 152 28.5t56 89.5q0 77 -107 77z" />
    <glyph glyph-name="Hcircumflex" unicode="&#x124;" horiz-adv-x="695" 
d="M347 898l-123 -111h-12l108 153h54l107 -153h-12zM652 709q-31 -1 -45 -16.5t-14 -57.5v-548q0 -40 17.5 -57.5t41.5 -18.5v-11h-192v11q60 2 60 77v283h-345v-284q0 -40 17.5 -57.5t41.5 -18.5v-11h-191v11q59 2 59 77v547q0 41 -15 57t-44 17v11h191v-11
q-31 -1 -45 -16.5t-14 -57.5v-252h345v252q0 41 -15.5 57t-44.5 17v11h192v-11z" />
    <glyph glyph-name="hcircumflex" unicode="&#x125;" horiz-adv-x="570" 
d="M281 785l-122 111l-123 -111h-12l108 153h54l107 -153h-12zM479 80q0 -67 63 -69v-11h-192v11q25 1 42.5 18t17.5 51v215q0 189 -114 189q-34 0 -69 -29t-60 -89v-277q0 -76 68 -78v-11h-197v11q60 2 60 78v575q0 31 -16.5 43t-43.5 6v13l129 36v-370q29 59 71.5 90
t89.5 31q151 0 151 -215v-218z" />
    <glyph glyph-name="Hbar" unicode="&#x126;" horiz-adv-x="695" 
d="M671 533h-78v-446q0 -40 17.5 -57.5t41.5 -18.5v-11h-192v11q60 2 60 77v283h-345v-284q0 -40 17.5 -57.5t41.5 -18.5v-11h-191v11q59 2 59 77v445h-79v12h79v90q0 41 -15 57t-44 17v11h191v-11q-31 -1 -45 -16.5t-14 -57.5v-90h345v90q0 41 -15.5 57t-44.5 17v11h192
v-11q-31 -1 -45 -16.5t-14 -57.5v-90h78v-12zM520 383v150h-345v-150h345z" />
    <glyph glyph-name="hbar" unicode="&#x127;" horiz-adv-x="570" 
d="M479 80q0 -67 63 -69v-11h-192v11q25 1 42.5 18t17.5 51v215q0 189 -114 189q-34 0 -69 -29t-60 -89v-277q0 -76 68 -78v-11h-197v11q60 2 60 78v498h-6l-109 -2v14l109 -2h6v67q0 31 -16.5 43t-43.5 6v13l129 36v-165h48l110 2v-14l-110 2h-48v-195q29 59 71.5 90
t89.5 31q151 0 151 -215v-218z" />
    <glyph glyph-name="Itilde" unicode="&#x128;" horiz-adv-x="307" 
d="M-1 787q0 18 4 39.5t12.5 45.5t27 40t43.5 16q24 0 49.5 -25.5t50.5 -51t47 -25.5q28 0 45 34.5t17 67.5h11q0 -18 -3.5 -39.5t-12 -45.5t-26 -40t-40.5 -16q-26 0 -53 25.5t-52 51t-46 25.5q-28 0 -45 -34t-17 -68h-12zM58 0v11q59 2 59 77v547q0 41 -15 57t-44 17v11
h191v-11q-31 -1 -45 -16.5t-14 -57.5v-548q0 -40 17.5 -57.5t41.5 -18.5v-11h-191z" />
    <glyph glyph-name="itilde" unicode="&#x129;" horiz-adv-x="253" 
d="M-26 567q0 18 4 39.5t12.5 45.5t27 40t43.5 16q24 0 49.5 -25.5t50.5 -51t47 -25.5q28 0 45 34.5t17 67.5h11q0 -18 -3.5 -39.5t-12 -45.5t-26 -40t-40.5 -16q-26 0 -53 25.5t-52 51t-46 25.5q-28 0 -45 -34t-17 -68h-12zM38 0v11q26 1 43 19t17 56v317q0 44 -17.5 57.5
t-42.5 8.5v13l129 36v-432q0 -73 59 -75v-11h-188z" />
    <glyph glyph-name="Imacron" unicode="&#x12a;" horiz-adv-x="307" 
d="M13 820v12h279v-12h-279zM58 0v11q59 2 59 77v547q0 41 -15 57t-44 17v11h191v-11q-31 -1 -45 -16.5t-14 -57.5v-548q0 -40 17.5 -57.5t41.5 -18.5v-11h-191z" />
    <glyph glyph-name="imacron" unicode="&#x12b;" horiz-adv-x="253" 
d="M-12 600v12h279v-12h-279zM38 0v11q26 1 43 19t17 56v317q0 44 -17.5 57.5t-42.5 8.5v13l129 36v-432q0 -73 59 -75v-11h-188z" />
    <glyph glyph-name="Iogonek" unicode="&#x12e;" horiz-adv-x="307" 
d="M249 709q-31 -1 -45 -16.5t-14 -57.5v-548q0 -40 17.5 -57.5t41.5 -18.5v-11h-72q-66 -63 -66 -123q0 -26 16 -47.5t50 -21.5q48 0 72 42v-12q-8 -26 -34.5 -47.5t-61.5 -21.5q-34 0 -59 24.5t-25 64.5q0 77 93 142h-104v11q59 2 59 77v547q0 41 -15 57t-44 17v11h191
v-11z" />
    <glyph glyph-name="iogonek" unicode="&#x12f;" horiz-adv-x="273" 
d="M130 609q-19 0 -33 14t-14 33q0 20 14 34.5t33 14.5q20 0 34.5 -14.5t14.5 -34.5q0 -19 -14.5 -33t-34.5 -14zM173 -192q49 0 73 42v-12q-9 -26 -35.5 -47.5t-60.5 -21.5q-35 0 -60 24.5t-25 64.5q0 77 93 142h-120v11q26 1 43 19t17 56v317q0 44 -17.5 57.5t-42.5 8.5
v13l129 36v-432q0 -73 59 -75v-11h-53q-66 -63 -66 -123q0 -26 16 -47.5t50 -21.5z" />
    <glyph glyph-name="Idotaccent" unicode="&#x130;" horiz-adv-x="307" 
d="M153 829q-19 0 -33.5 14t-14.5 33t14.5 34t33.5 15t33.5 -14.5t14.5 -34.5q0 -19 -14.5 -33t-33.5 -14zM58 0v11q59 2 59 77v547q0 41 -15 57t-44 17v11h191v-11q-31 -1 -45 -16.5t-14 -57.5v-548q0 -40 17.5 -57.5t41.5 -18.5v-11h-191z" />
    <glyph glyph-name="dotlessi" unicode="&#x131;" horiz-adv-x="253" 
d="M38 0v11q26 1 43 19t17 56v317q0 44 -17.5 57.5t-42.5 8.5v13l129 36v-432q0 -73 59 -75v-11h-188z" />
    <glyph glyph-name="Jcircumflex" unicode="&#x134;" horiz-adv-x="455" 
d="M359 940l107 -153h-12l-122 111l-123 -111h-12l108 153h54zM227 709v11h196v-10q-53 -2 -53 -71v-408q0 -56 -14.5 -100.5t-36 -70.5t-49.5 -43.5t-52.5 -23.5t-46.5 -6q-78 0 -120.5 51.5t-42.5 116.5q0 37 18 59.5t44 22.5q46 0 46 -41q0 -15 -8.5 -27t-18.5 -20.5
t-18.5 -25t-8.5 -38.5q0 -30 27.5 -57.5t70.5 -27.5q63 0 99.5 42.5t36.5 132.5v452q0 45 -16.5 63t-52.5 19z" />
    <glyph glyph-name="jcircumflex" unicode="&#x135;" horiz-adv-x="237" 
d="M161 720l107 -153h-12l-122 111l-123 -111h-12l108 153h54zM50 467v15l129 36v-513q0 -236 -138 -236q-44 0 -74 34.5t-30 75.5q0 23 11 39t29 16q31 0 31 -32q0 -9 -7.5 -24t-7.5 -29q0 -27 16 -45.5t48 -18.5q36 0 55.5 29t19.5 70q0 32 -11 95.5t-11 110.5v320
q0 73 -60 57z" />
    <glyph glyph-name="uni0136" unicode="&#x136;" horiz-adv-x="620" 
d="M504 118q48 -65 71 -85.5t53 -21.5v-11h-77q-30 0 -56 22t-65 74l-183 253l-72 -88v-174q0 -40 17.5 -57.5t41.5 -18.5v-11h-191v11q59 2 59 77v547q0 41 -15 57t-44 17v11h191v-11q-31 -1 -45 -16.5t-14 -57.5v-355l254 324q39 53 31.5 78t-46.5 27v11h202v-11
q-43 -1 -81.5 -28.5t-88.5 -86.5l-191 -235l63 17zM322 -54q26 0 42 -19t16 -48q0 -53 -34 -102.5t-105 -82.5v12q53 28 83.5 70.5t31.5 92.5q-1 5 -5 1q-9 -30 -38 -30q-17 0 -32 14t-15 39q0 24 16 38.5t40 14.5z" />
    <glyph glyph-name="uni0137" unicode="&#x137;" horiz-adv-x="528" 
d="M448 65q33 -52 85 -55v-10h-87q-25 0 -42 12.5t-37 45.5l-124 200l-75 -87v-87q0 -72 59 -74v-10h-189v10q26 1 43.5 18.5t17.5 55.5v573q0 33 -16.5 48t-44.5 10v11l130 36v-574l159 189q87 103 3 112v11h173v-11q-31 -4 -62.5 -23.5t-50.5 -38.5t-48 -54l-96 -111
l65 20zM277 -54q26 0 42 -19t16 -48q0 -53 -34 -102.5t-105 -82.5v12q53 28 83.5 70.5t31.5 92.5q-1 5 -5 1q-9 -30 -38 -30q-17 0 -32 14t-15 39q0 24 16 38.5t40 14.5z" />
    <glyph glyph-name="Lacute" unicode="&#x139;" horiz-adv-x="552" 
d="M313 940l-184 -153h-13l109 153h88zM548 207h12l-59 -222q-45 15 -119 15h-339v11q59 2 59 77v545q0 42 -15 58.5t-44 17.5v11h192v-11q-31 -1 -45 -17.5t-14 -58.5v-603q48 -18 124 -18q57 0 90 5.5t64.5 25t53 59t40.5 105.5z" />
    <glyph glyph-name="lacute" unicode="&#x13a;" horiz-adv-x="271" 
d="M90 787h-13l109 153h88zM41 0v11q26 1 43.5 19.5t17.5 55.5v576q0 34 -17.5 46t-43.5 5v13l130 36v-676q0 -73 59 -75v-11h-189z" />
    <glyph glyph-name="uni013B" unicode="&#x13b;" horiz-adv-x="552" 
d="M548 207h12l-59 -222q-45 15 -119 15h-339v11q59 2 59 77v545q0 42 -15 58.5t-44 17.5v11h192v-11q-31 -1 -45 -17.5t-14 -58.5v-603q48 -18 124 -18q57 0 90 5.5t64.5 25t53 59t40.5 105.5zM289 -54q26 0 42 -19t16 -48q0 -53 -34 -102.5t-105 -82.5v12q53 28 83.5 70.5
t31.5 92.5q-1 5 -5 1q-9 -30 -38 -30q-17 0 -32 14t-15 39q0 24 16 38.5t40 14.5z" />
    <glyph glyph-name="uni013C" unicode="&#x13c;" horiz-adv-x="271" 
d="M41 0v11q26 1 43.5 19.5t17.5 55.5v576q0 34 -17.5 46t-43.5 5v13l130 36v-676q0 -73 59 -75v-11h-189zM140 -54q26 0 42 -19t16 -48q0 -53 -34 -102.5t-105 -82.5v12q53 28 83.5 70.5t31.5 92.5q-1 5 -5 1q-9 -30 -38 -30q-17 0 -32 14t-15 39q0 24 16 38.5t40 14.5z
" />
    <glyph glyph-name="Lcaron" unicode="&#x13d;" horiz-adv-x="552" 
d="M503 665q0 -55 -34.5 -105.5t-105.5 -86.5v12q53 29 83.5 73t31.5 95l-4 1q-8 -33 -39 -33q-17 0 -32 15.5t-15 40.5q0 24 16 39.5t40 15.5q28 0 43.5 -19.5t15.5 -47.5zM548 207h12l-59 -222q-45 15 -119 15h-339v11q59 2 59 77v545q0 42 -15 58.5t-44 17.5v11h192v-11
q-31 -1 -45 -17.5t-14 -58.5v-603q48 -18 124 -18q57 0 90 5.5t64.5 25t53 59t40.5 105.5z" />
    <glyph glyph-name="lcaron" unicode="&#x13e;" horiz-adv-x="299" 
d="M41 0v11q26 1 43.5 19.5t17.5 55.5v576q0 34 -17.5 46t-43.5 5v13l130 36v-676q0 -73 59 -75v-11h-189zM227 474v11q53 30 83.5 74t31.5 95h-4q-9 -32 -40 -32q-16 0 -31 15.5t-15 40.5q0 24 16 39.5t39 15.5q28 0 43.5 -19.5t15.5 -47.5q0 -121 -139 -192z" />
    <glyph glyph-name="Ldot" unicode="&#x13f;" horiz-adv-x="633" 
d="M548 207h12l-59 -222q-45 15 -119 15h-339v11q59 2 59 77v545q0 42 -15 58.5t-44 17.5v11h192v-11q-31 -1 -45 -17.5t-14 -58.5v-603q48 -18 124 -18q57 0 90 5.5t64.5 25t53 59t40.5 105.5zM453 266q-23 0 -38.5 16t-15.5 38t15.5 38t38.5 16q22 0 37.5 -16t15.5 -38
t-15.5 -38t-37.5 -16z" />
    <glyph glyph-name="ldot" unicode="&#x140;" horiz-adv-x="419" 
d="M41 0v11q26 1 43.5 19.5t17.5 55.5v576q0 34 -17.5 46t-43.5 5v13l130 36v-676q0 -73 59 -75v-11h-189zM324 268q-22 0 -38 16t-16 38t16 38t38 16t37.5 -16t15.5 -38t-15.5 -38t-37.5 -16z" />
    <glyph glyph-name="Lslash" unicode="&#x141;" horiz-adv-x="558" 
d="M553 207h13l-59 -222q-45 15 -119 15h-340v11q60 2 60 77v241l-19 -9l-90 -46v19l91 43l18 9v288q0 41 -15.5 58t-44.5 18v11h192v-11q-30 -1 -44.5 -17.5t-14.5 -58.5v-252l43 21l204 104v-25l-247 -116v-335q48 -18 125 -18q57 0 90 5.5t64.5 25t52.5 59t40 105.5z" />
    <glyph glyph-name="lslash" unicode="&#x142;" horiz-adv-x="313" 
d="M215 440l-25 -19v-335q0 -73 58 -75v-11h-188v11q26 1 43.5 19.5t17.5 55.5v282l-18 -14l-82 -67v24l83 59l17 13v279q0 34 -18 46t-43 5v13l130 36v-326l24 19l78 69v-28z" />
    <glyph glyph-name="Nacute" unicode="&#x143;" horiz-adv-x="672" 
d="M484 940l-184 -153h-13l109 153h88zM471 720h184v-11q-41 -1 -59.5 -24t-19.5 -83l-4 -484q-1 -53 26 -98q-36 -16 -61 -41l-401 655l4 -512q1 -107 90 -112v-10h-202v10q91 5 92 112l4 469q1 115 -90 118v11h137l386 -632l2 514q0 59 -22.5 82.5t-65.5 24.5v11z" />
    <glyph glyph-name="nacute" unicode="&#x144;" horiz-adv-x="570" 
d="M431 720l-185 -153h-12l108 153h89zM479 80q0 -67 63 -69v-11h-192v11q25 1 42.5 18t17.5 51v215q0 189 -114 189q-34 0 -69 -29t-60 -89v-286q0 -37 16 -52.5t52 -16.5v-11h-197v11q60 2 60 69v342q0 61 -60 47v13l130 36l-12 -151q28 70 74 108t98 38q151 0 151 -215
v-218z" />
    <glyph glyph-name="uni0145" unicode="&#x145;" horiz-adv-x="672" 
d="M471 720h184v-11q-41 -1 -59.5 -24t-19.5 -83l-4 -484q-1 -53 26 -98q-36 -16 -61 -41l-401 655l4 -512q1 -107 90 -112v-10h-202v10q91 5 92 112l4 469q1 115 -90 118v11h137l386 -632l2 514q0 59 -22.5 82.5t-65.5 24.5v11zM350 -54q26 0 42 -19t16 -48
q0 -53 -34 -102.5t-105 -82.5v12q53 28 83.5 70.5t31.5 92.5q-1 5 -5 1q-9 -30 -38 -30q-17 0 -32 14t-15 39q0 24 16 38.5t40 14.5z" />
    <glyph glyph-name="uni0146" unicode="&#x146;" horiz-adv-x="570" 
d="M479 80q0 -67 63 -69v-11h-192v11q25 1 42.5 18t17.5 51v215q0 189 -114 189q-34 0 -69 -29t-60 -89v-286q0 -37 16 -52.5t52 -16.5v-11h-197v11q60 2 60 69v342q0 61 -60 47v13l130 36l-12 -151q28 70 74 108t98 38q151 0 151 -215v-218zM296 -54q26 0 42 -19t16 -48
q0 -53 -34 -102.5t-104 -82.5v12q53 28 83.5 70.5t31.5 92.5q-1 5 -5 1q-9 -30 -39 -30q-16 0 -31 14t-15 39q0 24 15.5 38.5t39.5 14.5z" />
    <glyph glyph-name="Ncaron" unicode="&#x147;" horiz-adv-x="672" 
d="M319 787l-108 153h12l123 -111l122 111h12l-107 -153h-54zM471 720h184v-11q-41 -1 -59.5 -24t-19.5 -83l-4 -484q-1 -53 26 -98q-36 -16 -61 -41l-401 655l4 -512q1 -107 90 -112v-10h-202v10q91 5 92 112l4 469q1 115 -90 118v11h137l386 -632l2 514q0 59 -22.5 82.5
t-65.5 24.5v11z" />
    <glyph glyph-name="ncaron" unicode="&#x148;" horiz-adv-x="570" 
d="M265 567l-108 153h13l122 -111l122 111h13l-108 -153h-54zM479 80q0 -67 63 -69v-11h-192v11q25 1 42.5 18t17.5 51v215q0 189 -114 189q-34 0 -69 -29t-60 -89v-286q0 -37 16 -52.5t52 -16.5v-11h-197v11q60 2 60 69v342q0 61 -60 47v13l130 36l-12 -151q28 70 74 108
t98 38q151 0 151 -215v-218z" />
    <glyph glyph-name="napostrophe" unicode="&#x149;" horiz-adv-x="673" 
d="M53 687q28 0 43.5 -19.5t15.5 -47.5q0 -55 -34.5 -105.5t-105.5 -86.5v12q53 29 83.5 73t31.5 95l-4 1q-8 -33 -39 -33q-16 0 -31.5 15t-15.5 41q0 24 16 39.5t40 15.5zM582 80q0 -67 63 -69v-11h-192v11q25 1 42.5 18t17.5 51v215q0 189 -114 189q-34 0 -69 -29t-60 -89
v-286q0 -37 16 -52.5t52 -16.5v-11h-197v11q60 2 60 69v342q0 61 -60 47v13l130 36l-12 -151q28 70 74 108t98 38q151 0 151 -215v-218z" />
    <glyph glyph-name="Eng" unicode="&#x14a;" horiz-adv-x="668" 
d="M473 720h178v-11q-28 -1 -52 -30t-24 -85l-3 -470q0 -48 11 -98t11 -99q0 -64 -38.5 -111t-97.5 -47q-46 0 -76.5 33t-30.5 76q0 26 11.5 41t29.5 15q29 0 29 -31q0 -9 -7.5 -24.5t-7.5 -28.5q0 -27 16 -45.5t47 -18.5q36 0 60.5 32t24.5 75q0 59 -41 125l-377 615
l4 -510q0 -36 9.5 -60t25 -34.5t28.5 -14t27 -3.5v-11h-202v11q91 3 92 112l4 476q1 51 -22.5 80t-67.5 30v11h137l386 -632l2 506q0 56 -28.5 85t-57.5 30v11z" />
    <glyph glyph-name="eng" unicode="&#x14b;" horiz-adv-x="537" 
d="M328 513q151 0 151 -215v-293q0 -236 -137 -236q-44 0 -74 34.5t-30 75.5q0 23 10.5 39t28.5 16q31 0 31 -32q0 -9 -7.5 -24t-7.5 -29q0 -27 16 -45.5t48 -18.5q36 0 55.5 29t19.5 70q0 32 -11 95.5t-11 110.5v205q0 189 -114 189q-34 0 -69 -29t-60 -89v-286
q0 -37 16 -52.5t52 -16.5v-11h-197v11q60 2 60 69v342q0 61 -60 47v13l130 36l-12 -151q28 70 74 108t98 38z" />
    <glyph glyph-name="Omacron" unicode="&#x14c;" horiz-adv-x="672" 
d="M203 820v12h279v-12h-279zM352 -13q-144 0 -233 110t-89 268q0 151 85 259.5t211 108.5q140 0 228 -107.5t88 -260.5q0 -156 -83.5 -267t-206.5 -111zM572 287q0 102 -30 197t-94 162t-147 67q-95 0 -148.5 -80t-53.5 -199q0 -100 31.5 -196t97 -163.5t149.5 -67.5
q92 0 143.5 81t51.5 199z" />
    <glyph glyph-name="omacron" unicode="&#x14d;" horiz-adv-x="542" 
d="M131 600v12h279v-12h-279zM272 -13q-100 0 -169.5 77t-69.5 186q0 108 70 185.5t169 77.5q98 0 167.5 -77.5t69.5 -185.5q0 -109 -69.5 -186t-167.5 -77zM293 1q63 0 104 62t41 152q0 104 -55 194t-134 90q-63 0 -104 -61.5t-41 -151.5q0 -105 55 -195t134 -90z" />
    <glyph glyph-name="Obreve" unicode="&#x14e;" horiz-adv-x="672" 
d="M343 787q-57 0 -92 44t-35 109h10q1 -51 32.5 -83t84.5 -32q54 0 85 32t32 83h11q0 -65 -35.5 -109t-92.5 -44zM352 -13q-144 0 -233 110t-89 268q0 151 85 259.5t211 108.5q140 0 228 -107.5t88 -260.5q0 -156 -83.5 -267t-206.5 -111zM572 287q0 102 -30 197t-94 162
t-147 67q-95 0 -148.5 -80t-53.5 -199q0 -100 31.5 -196t97 -163.5t149.5 -67.5q92 0 143.5 81t51.5 199z" />
    <glyph glyph-name="obreve" unicode="&#x14f;" horiz-adv-x="542" 
d="M271 567q-57 0 -92 44t-35 109h10q1 -51 32.5 -83t84.5 -32q54 0 85 32t32 83h11q0 -65 -35.5 -109t-92.5 -44zM272 -13q-100 0 -169.5 77t-69.5 186q0 108 70 185.5t169 77.5q98 0 167.5 -77.5t69.5 -185.5q0 -109 -69.5 -186t-167.5 -77zM293 1q63 0 104 62t41 152
q0 104 -55 194t-134 90q-63 0 -104 -61.5t-41 -151.5q0 -105 55 -195t134 -90z" />
    <glyph glyph-name="Ohungarumlaut" unicode="&#x150;" horiz-adv-x="672" 
d="M192 787l108 153h80l-177 -153h-11zM350 787l125 153h82l-195 -153h-12zM352 -13q-144 0 -233 110t-89 268q0 151 85 259.5t211 108.5q140 0 228 -107.5t88 -260.5q0 -156 -83.5 -267t-206.5 -111zM572 287q0 102 -30 197t-94 162t-147 67q-95 0 -148.5 -80t-53.5 -199
q0 -100 31.5 -196t97 -163.5t149.5 -67.5q92 0 143.5 81t51.5 199z" />
    <glyph glyph-name="ohungarumlaut" unicode="&#x151;" horiz-adv-x="542" 
d="M120 567l108 153h80l-177 -153h-11zM278 567l125 153h82l-195 -153h-12zM272 -13q-100 0 -169.5 77t-69.5 186q0 108 70 185.5t169 77.5q98 0 167.5 -77.5t69.5 -185.5q0 -109 -69.5 -186t-167.5 -77zM293 1q63 0 104 62t41 152q0 104 -55 194t-134 90q-63 0 -104 -61.5
t-41 -151.5q0 -105 55 -195t134 -90z" />
    <glyph glyph-name="OE" unicode="&#x152;" horiz-adv-x="998" 
d="M968 187h12l-61 -202q-42 15 -123 15h-284q-25 0 -78 -6.5t-85 -6.5q-144 0 -231.5 109.5t-87.5 268.5q0 152 88.5 260t220.5 108q29 0 90 -6.5t103 -6.5h242q103 0 134 22l56 -187h-13q-22 61 -45 90.5t-73 46t-140 16.5h-109v-289h134q53 0 74.5 19t23.5 61h11v-172
h-11q-2 46 -22.5 63t-75.5 17h-134v-375q51 -20 130 -20q110 0 164.5 35t89.5 140zM99 427q0 -114 29 -206.5t94 -153.5t158 -61q28 0 48 3.5t34.5 8t23.5 18.5t14.5 25t7.5 38.5t2.5 48t0.5 63.5v338q0 97 -47.5 133.5t-132.5 36.5q-95 0 -163.5 -86.5t-68.5 -205.5z" />
    <glyph glyph-name="oe" unicode="&#x153;" horiz-adv-x="888" 
d="M705 39q51 0 93.5 27t64.5 76v-28q-22 -57 -75 -92t-115 -35q-64 0 -116 34.5t-81 93.5q-32 -58 -86 -93t-118 -35q-100 0 -169.5 77t-69.5 186q0 108 70 185.5t169 77.5q63 0 116.5 -34t85.5 -92q29 58 80 92t116 34q76 0 131 -48t65 -121l-357 -71q5 -102 57.5 -168
t138.5 -66zM652 500q-63 0 -103.5 -61t-40.5 -142v-12l235 52q22 5 31.5 13.5t9.5 25.5q0 47 -38.5 85.5t-93.5 38.5zM293 1q63 0 104 62t41 152q0 104 -55 194t-134 90q-63 0 -104 -61.5t-41 -151.5q0 -105 55 -195t134 -90z" />
    <glyph glyph-name="Racute" unicode="&#x154;" horiz-adv-x="600" 
d="M437 940l-184 -153h-13l109 153h88zM497 97q35 -51 58 -68.5t53 -17.5v-11h-71q-59 0 -111 76l-172 259h-79v-245q0 -77 59 -79v-11h-191v11q59 2 59 79v542q0 42 -15 58.5t-44 17.5v12h243q117 0 191 -54.5t74 -147.5q0 -87 -64 -135t-155 -48h-46v-7l61 -10zM175 708
v-354q100 -8 127 -8q91 0 133.5 46.5t42.5 125.5q0 82 -55.5 136t-159.5 54h-88z" />
    <glyph glyph-name="racute" unicode="&#x155;" horiz-adv-x="384" 
d="M353 720l-184 -153h-13l109 153h88zM310 513q25 0 42.5 -14t17.5 -36q0 -21 -10.5 -32.5t-27.5 -11.5q-16 0 -32.5 26.5t-36.5 26.5q-22 0 -47.5 -26t-48.5 -84v-282q0 -37 16 -52.5t52 -16.5v-11h-197v11q60 2 60 69v342q0 61 -60 47v13l130 36l-12 -152l2 2
q55 145 152 145z" />
    <glyph glyph-name="uni0156" unicode="&#x156;" horiz-adv-x="600" 
d="M497 97q35 -51 58 -68.5t53 -17.5v-11h-71q-59 0 -111 76l-172 259h-79v-245q0 -77 59 -79v-11h-191v11q59 2 59 79v542q0 42 -15 58.5t-44 17.5v12h243q117 0 191 -54.5t74 -147.5q0 -87 -64 -135t-155 -48h-46v-7l61 -10zM175 708v-354q100 -8 127 -8q91 0 133.5 46.5
t42.5 125.5q0 82 -55.5 136t-159.5 54h-88zM303 -54q26 0 42 -19t16 -48q0 -53 -34 -102.5t-105 -82.5v12q53 28 83.5 70.5t31.5 92.5q-1 5 -5 1q-9 -30 -38 -30q-17 0 -32 14t-15 39q0 24 16 38.5t40 14.5z" />
    <glyph glyph-name="uni0157" unicode="&#x157;" horiz-adv-x="384" 
d="M310 513q25 0 42.5 -14t17.5 -36q0 -21 -10.5 -32.5t-27.5 -11.5q-16 0 -32.5 26.5t-36.5 26.5q-22 0 -47.5 -26t-48.5 -84v-282q0 -37 16 -52.5t52 -16.5v-11h-197v11q60 2 60 69v342q0 61 -60 47v13l130 36l-12 -152l2 2q55 145 152 145zM159 -54q26 0 42 -19t16 -48
q0 -53 -34 -102.5t-105 -82.5v12q53 28 83.5 70.5t31.5 92.5q-1 5 -5 1q-9 -30 -38 -30q-17 0 -32 14t-15 39q0 24 16 38.5t40 14.5z" />
    <glyph glyph-name="Rcaron" unicode="&#x158;" horiz-adv-x="600" 
d="M272 787l-108 153h12l123 -111l122 111h12l-107 -153h-54zM497 97q35 -51 58 -68.5t53 -17.5v-11h-71q-59 0 -111 76l-172 259h-79v-245q0 -77 59 -79v-11h-191v11q59 2 59 79v542q0 42 -15 58.5t-44 17.5v12h243q117 0 191 -54.5t74 -147.5q0 -87 -64 -135t-155 -48h-46
v-7l61 -10zM175 708v-354q100 -8 127 -8q91 0 133.5 46.5t42.5 125.5q0 82 -55.5 136t-159.5 54h-88z" />
    <glyph glyph-name="rcaron" unicode="&#x159;" horiz-adv-x="384" 
d="M188 567l-108 153h12l123 -111l122 111h12l-107 -153h-54zM310 513q25 0 42.5 -14t17.5 -36q0 -21 -10.5 -32.5t-27.5 -11.5q-16 0 -32.5 26.5t-36.5 26.5q-22 0 -47.5 -26t-48.5 -84v-282q0 -37 16 -52.5t52 -16.5v-11h-197v11q60 2 60 69v342q0 61 -60 47v13l130 36
l-12 -152l2 2q55 145 152 145z" />
    <glyph glyph-name="Sacute" unicode="&#x15a;" horiz-adv-x="549" 
d="M229 787h-13l109 153h88zM304 -13q-38 0 -77 11.5t-62 23t-43 18.5t-30.5 -2.5t-13.5 -40.5h-9l-33 284h13q33 -137 101.5 -209.5t151.5 -72.5q63 0 109.5 38.5t46.5 108.5q0 42 -23 75t-59.5 55t-81 41.5t-89 39.5t-81 43.5t-59.5 59.5t-23 81q0 74 54.5 133t141.5 59
q33 0 68 -9.5t58 -19t42.5 -15t30 1.5t13.5 32h8l22 -226h-13q-21 107 -87 165.5t-144 58.5q-58 0 -98.5 -36t-40.5 -88q0 -59 43 -100.5t104.5 -67t123 -52t104.5 -71.5t43 -109q0 -95 -59 -152.5t-152 -57.5z" />
    <glyph glyph-name="sacute" unicode="&#x15b;" horiz-adv-x="442" 
d="M181 567h-13l109 153h88zM248 -13q-29 0 -57 7t-42.5 13t-33.5 3t-38 -19l-41 186h12q22 -67 74.5 -122.5t125.5 -55.5q40 0 71.5 28t31.5 74q0 40 -31 68.5t-75.5 46.5t-88.5 37t-75 52t-31 79q0 54 43 91.5t106 37.5q21 0 53.5 -10.5t56 -10.5t43.5 21l35 -170h-12
q-18 62 -71.5 110t-109.5 48q-38 0 -67.5 -20.5t-28.5 -65.5q1 -35 33 -61.5t78 -44.5t91.5 -38.5t77.5 -57t32 -87.5q0 -63 -48.5 -101t-113.5 -38z" />
    <glyph glyph-name="Scircumflex" unicode="&#x15c;" horiz-adv-x="549" 
d="M275 898l-123 -111h-12l108 153h54l107 -153h-12zM97 597q0 -59 43 -100.5t104.5 -67t123 -52t104.5 -71.5t43 -109q0 -95 -59 -152.5t-152 -57.5q-38 0 -77 11.5t-62 23t-43 18.5t-30.5 -2.5t-13.5 -40.5h-9l-33 284h13q33 -137 101.5 -209.5t151.5 -72.5
q63 0 109.5 38.5t46.5 108.5q0 42 -23 75t-59.5 55t-81 41.5t-89 39.5t-81 43.5t-59.5 59.5t-23 81q0 74 54.5 133t141.5 59q33 0 68 -9.5t58 -19t42.5 -15t30 1.5t13.5 32h8l22 -226h-13q-21 107 -87 165.5t-144 58.5q-58 0 -98.5 -36t-40.5 -88z" />
    <glyph glyph-name="scircumflex" unicode="&#x15d;" horiz-adv-x="432" 
d="M216 678l-122 -111h-13l108 153h54l108 -153h-13zM98 415q1 -35 33 -61.5t78 -44.5t91.5 -38.5t77.5 -57t32 -87.5q0 -63 -48.5 -101t-113.5 -38q-29 0 -57 7t-42.5 13t-33.5 3t-38 -19l-41 186h12q22 -67 74.5 -122.5t125.5 -55.5q40 0 71.5 28t31.5 74q0 40 -31 68.5
t-75.5 46.5t-88.5 37t-75 52t-31 79q0 54 43 91.5t106 37.5q21 0 53.5 -10.5t56 -10.5t43.5 21l35 -170h-12q-18 62 -71.5 110t-109.5 48q-38 0 -67.5 -20.5t-28.5 -65.5z" />
    <glyph glyph-name="Scedilla" unicode="&#x15e;" horiz-adv-x="549" 
d="M515 197q0 -94 -57.5 -151t-149.5 -59l-16 -30q18 -8 30.5 -14.5t28.5 -18.5t24 -29t8 -38q0 -35 -29 -61.5t-69 -26.5q-30 0 -53.5 17t-23.5 48q0 15 8 25t20 10q24 0 24 -23q0 -8 -8 -17.5t-8 -16.5q0 -13 11.5 -22t26.5 -9q30 0 47.5 18t17.5 41q0 34 -25.5 55.5
t-59.5 31.5l33 60q-37 1 -74 13t-59 23.5t-41.5 17.5t-29.5 -4t-13 -40h-9l-33 284h13q33 -137 101.5 -209.5t150.5 -72.5l3 5l12 -1l-2 -4q60 4 102 42t42 105q0 42 -23 75t-59.5 55t-81 41.5t-89 39.5t-81 43.5t-59.5 59.5t-23 81q0 74 54.5 133t141.5 59q33 0 68 -9.5
t58 -19t42.5 -15t30 1.5t13.5 32h8l22 -226h-13q-21 107 -87 165.5t-144 58.5q-58 0 -98.5 -36t-40.5 -88q0 -59 43 -100.5t104.5 -67t123 -52t104.5 -71.5t43 -109z" />
    <glyph glyph-name="scedilla" unicode="&#x15f;" horiz-adv-x="432" 
d="M248 -13h-12l-15 -30q18 -8 30.5 -14.5t28 -18.5t23.5 -29t8 -38q0 -35 -29 -61.5t-69 -26.5q-30 0 -53.5 17t-23.5 48q0 15 8 25t21 10q23 0 23 -23q0 -8 -8 -17.5t-8 -16.5q0 -13 11.5 -22t26.5 -9q30 0 48 18t18 41q0 61 -86 87l33 61q-24 3 -55 13.5t-49.5 9.5
t-41.5 -20l-41 186h12q21 -63 68.5 -116.5t113.5 -60.5l2 4l12 -1l-2 -4h6q40 0 71.5 28t31.5 74q0 40 -31 68.5t-75.5 46.5t-88.5 37t-75 52t-31 79q0 54 43 91.5t106 37.5q21 0 53.5 -10.5t56 -10.5t43.5 21l35 -170h-12q-18 62 -71.5 110t-109.5 48q-38 0 -67.5 -20.5
t-28.5 -65.5q1 -35 33 -61.5t78 -44.5t91.5 -38.5t77.5 -57t32 -87.5q0 -63 -48.5 -101t-113.5 -38z" />
    <glyph glyph-name="Scaron" unicode="&#x160;" horiz-adv-x="549" 
d="M248 787l-108 153h12l123 -111l122 111h12l-107 -153h-54zM97 597q0 -59 43 -100.5t104.5 -67t123 -52t104.5 -71.5t43 -109q0 -95 -59 -152.5t-152 -57.5q-38 0 -77 11.5t-62 23t-43 18.5t-30.5 -2.5t-13.5 -40.5h-9l-33 284h13q33 -137 101.5 -209.5t151.5 -72.5
q63 0 109.5 38.5t46.5 108.5q0 42 -23 75t-59.5 55t-81 41.5t-89 39.5t-81 43.5t-59.5 59.5t-23 81q0 74 54.5 133t141.5 59q33 0 68 -9.5t58 -19t42.5 -15t30 1.5t13.5 32h8l22 -226h-13q-21 107 -87 165.5t-144 58.5q-58 0 -98.5 -36t-40.5 -88z" />
    <glyph glyph-name="scaron" unicode="&#x161;" horiz-adv-x="442" 
d="M200 567l-108 153h12l123 -111l122 111h12l-107 -153h-54zM98 415q1 -35 33 -61.5t78 -44.5t91.5 -38.5t77.5 -57t32 -87.5q0 -63 -48.5 -101t-113.5 -38q-29 0 -57 7t-42.5 13t-33.5 3t-38 -19l-41 186h12q22 -67 74.5 -122.5t125.5 -55.5q40 0 71.5 28t31.5 74
q0 40 -31 68.5t-75.5 46.5t-88.5 37t-75 52t-31 79q0 54 43 91.5t106 37.5q21 0 53.5 -10.5t56 -10.5t43.5 21l35 -170h-12q-18 62 -71.5 110t-109.5 48q-38 0 -67.5 -20.5t-28.5 -65.5z" />
    <glyph glyph-name="uni0162" unicode="&#x162;" horiz-adv-x="608" 
d="M557 742l44 -218h-13q-13 52 -24.5 82t-33 55.5t-54.5 36t-83 10.5h-52v-621q0 -39 17.5 -57t41.5 -19v-11h-76l-22 -43q18 -8 30.5 -14.5t28.5 -18.5t24 -29t8 -38q0 -35 -29 -61.5t-69 -26.5q-30 0 -53.5 17t-23.5 48q0 15 8 25t20 10q24 0 24 -23q0 -8 -8 -17.5
t-8 -16.5q0 -13 11.5 -22t26.5 -9q30 0 47.5 18t17.5 41q0 34 -25.5 55.5t-59.5 31.5l40 73h-104v11q25 1 42.5 19t17.5 58v620h-53q-96 0 -134 -41t-61 -143h-12l44 218q48 -22 114 -22h277q70 0 114 22z" />
    <glyph glyph-name="uni0163" unicode="&#x163;" horiz-adv-x="357" 
d="M334 486h-156v-345q0 -62 27.5 -91t61 -25t56.5 28v-12q-11 -18 -38 -36t-65 -18q-11 0 -16 1l-16 -31q18 -8 30.5 -14.5t28.5 -18.5t24 -29t8 -38q0 -35 -29 -61.5t-69 -26.5q-30 0 -53.5 17t-23.5 48q0 15 8 25t20 10q24 0 24 -23q0 -8 -8 -17.5t-8 -16.5
q0 -13 11.5 -22t26.5 -9q30 0 47.5 18t17.5 41q0 34 -25.5 55.5t-59.5 31.5l35 63q-38 10 -61 46.5t-23 99.5v350h-91v14q47 2 80.5 29.5t48 60.5t17.5 68h14v-158h31q69 0 131 19z" />
    <glyph glyph-name="Tcaron" unicode="&#x164;" horiz-adv-x="608" 
d="M277 787l-108 153h12l123 -111l122 111h12l-107 -153h-54zM557 742l44 -218h-13q-13 52 -24.5 82t-33 55.5t-54.5 36t-83 10.5h-52v-621q0 -39 17.5 -57t41.5 -19v-11h-192v11q25 1 42.5 19t17.5 58v620h-53q-96 0 -134 -41t-61 -143h-12l44 218q48 -22 114 -22h277
q70 0 114 22z" />
    <glyph glyph-name="tcaron" unicode="&#x165;" horiz-adv-x="467" 
d="M438 733q28 0 43.5 -19.5t15.5 -47.5q0 -121 -139 -192v11q53 30 83.5 74t31.5 95h-4q-9 -32 -40 -32q-16 0 -31 15.5t-15 40.5q0 24 16 39.5t39 15.5zM178 500h31q69 0 131 19l-6 -33h-156v-345q0 -62 27.5 -91t61 -25t56.5 28v-12q-11 -18 -38 -36t-65 -18
q-49 0 -80 37.5t-31 111.5v350h-91v14q47 2 80.5 29.5t48 60.5t17.5 68h14v-158z" />
    <glyph glyph-name="Tbar" unicode="&#x166;" horiz-adv-x="608" 
d="M557 742l44 -218h-13q-13 52 -24.5 82t-33 55.5t-54.5 36t-83 10.5h-52v-344h24l110 2v-14l-110 2h-24v-267q0 -39 17.5 -57t41.5 -19v-11h-192v11q25 1 42.5 19t17.5 58v266h-26l-109 -2v14l109 -2h26v344h-53q-96 0 -134 -41t-61 -143h-12l44 218q48 -22 114 -22h277
q70 0 114 22z" />
    <glyph glyph-name="tbar" unicode="&#x167;" horiz-adv-x="357" 
d="M241 277h-63v-136q0 -62 27.5 -91t61 -25t56.5 28v-12q-11 -18 -38 -36t-65 -18q-49 0 -80 37.5t-31 111.5v141l-100 -2v14l100 -2v199h-91v14q47 2 80.5 29.5t48 60.5t17.5 68h14v-158h31q69 0 131 19l-6 -33h-156v-199h63l110 2v-14z" />
    <glyph glyph-name="Utilde" unicode="&#x168;" horiz-adv-x="650" 
d="M196 787q0 27 5.5 55.5t26.5 57t54 28.5q24 0 49.5 -25.5t50.5 -51t47 -25.5q28 0 45 34.5t17 67.5h11q0 -18 -3.5 -39.5t-12 -45.5t-26 -40t-40.5 -16q-26 0 -53 25.5t-52 51t-46 25.5q-28 0 -45 -34t-17 -68h-11zM343 -13q-121 0 -187.5 74t-66.5 222v354q0 70 -61 72
v11h198v-11q-62 -2 -62 -71v-355q0 -278 198 -278q81 0 134 69.5t52 208.5v336q0 45 -23.5 67t-60.5 23v11h188v-11q-77 -2 -80 -90l-7 -336q-3 -145 -60 -220.5t-162 -75.5z" />
    <glyph glyph-name="utilde" unicode="&#x169;" horiz-adv-x="570" 
d="M134 567q0 27 5.5 55.5t26.5 57t54 28.5q24 0 49.5 -25.5t50.5 -51t47 -25.5q28 0 45 34.5t17 67.5h11q0 -18 -3.5 -39.5t-12 -45.5t-26 -40t-40.5 -16q-26 0 -53 25.5t-52 51t-46 25.5q-28 0 -45 -34t-17 -68h-11zM238 -13q-70 0 -106 47.5t-36 137.5v226q0 44 -16.5 61
t-46.5 12v11l132 36v-346q0 -70 29.5 -109t85.5 -39q45 0 81 40t48 84v250q0 46 -16 62t-44 11v11l129 36v-412q0 -53 13.5 -73.5t45.5 -21.5v-11h-131l10 126q-19 -51 -66 -95t-112 -44z" />
    <glyph glyph-name="Umacron" unicode="&#x16a;" horiz-adv-x="650" 
d="M209 820v12h279v-12h-279zM343 -13q-121 0 -187.5 74t-66.5 222v354q0 70 -61 72v11h198v-11q-62 -2 -62 -71v-355q0 -278 198 -278q81 0 134 69.5t52 208.5v336q0 45 -23.5 67t-60.5 23v11h188v-11q-77 -2 -80 -90l-7 -336q-3 -145 -60 -220.5t-162 -75.5z" />
    <glyph glyph-name="umacron" unicode="&#x16b;" horiz-adv-x="570" 
d="M147 600v12h279v-12h-279zM238 -13q-70 0 -106 47.5t-36 137.5v226q0 44 -16.5 61t-46.5 12v11l132 36v-346q0 -70 29.5 -109t85.5 -39q45 0 81 40t48 84v250q0 46 -16 62t-44 11v11l129 36v-412q0 -53 13.5 -73.5t45.5 -21.5v-11h-131l10 126q-19 -51 -66 -95t-112 -44z
" />
    <glyph glyph-name="Ubreve" unicode="&#x16c;" horiz-adv-x="650" 
d="M349 787q-57 0 -92 44t-35 109h10q1 -51 32.5 -83t84.5 -32q54 0 85 32t32 83h11q0 -65 -35.5 -109t-92.5 -44zM343 -13q-121 0 -187.5 74t-66.5 222v354q0 70 -61 72v11h198v-11q-62 -2 -62 -71v-355q0 -278 198 -278q81 0 134 69.5t52 208.5v336q0 45 -23.5 67
t-60.5 23v11h188v-11q-77 -2 -80 -90l-7 -336q-3 -145 -60 -220.5t-162 -75.5z" />
    <glyph glyph-name="ubreve" unicode="&#x16d;" horiz-adv-x="570" 
d="M287 567q-57 0 -92 44t-35 109h10q1 -51 32.5 -83t84.5 -32q54 0 85 32t32 83h11q0 -65 -35.5 -109t-92.5 -44zM238 -13q-70 0 -106 47.5t-36 137.5v226q0 44 -16.5 61t-46.5 12v11l132 36v-346q0 -70 29.5 -109t85.5 -39q45 0 81 40t48 84v250q0 46 -16 62t-44 11v11
l129 36v-412q0 -53 13.5 -73.5t45.5 -21.5v-11h-131l10 126q-19 -51 -66 -95t-112 -44z" />
    <glyph glyph-name="Uring" unicode="&#x16e;" horiz-adv-x="650" 
d="M348 790q-30 0 -51 21t-21 51q0 31 21 52.5t51 21.5q31 0 52.5 -21.5t21.5 -52.5q0 -30 -21.5 -51t-52.5 -21zM348 807q23 0 40 16t17 39t-17 40t-40 17t-39 -17t-16 -40t16 -39t39 -16zM343 -13q-121 0 -187.5 74t-66.5 222v354q0 70 -61 72v11h198v-11q-62 -2 -62 -71
v-355q0 -278 198 -278q81 0 134 69.5t52 208.5v336q0 45 -23.5 67t-60.5 23v11h188v-11q-77 -2 -80 -90l-7 -336q-3 -145 -60 -220.5t-162 -75.5z" />
    <glyph glyph-name="uring" unicode="&#x16f;" horiz-adv-x="570" 
d="M286 570q-30 0 -51 21t-21 51q0 31 21 52.5t51 21.5q31 0 52.5 -21.5t21.5 -52.5q0 -30 -21.5 -51t-52.5 -21zM286 587q23 0 40 16t17 39t-17 40t-40 17t-39 -17t-16 -40t16 -39t39 -16zM238 -13q-70 0 -106 47.5t-36 137.5v226q0 44 -16.5 61t-46.5 12v11l132 36v-346
q0 -70 29.5 -109t85.5 -39q45 0 81 40t48 84v250q0 46 -16 62t-44 11v11l129 36v-412q0 -53 13.5 -73.5t45.5 -21.5v-11h-131l10 126q-19 -51 -66 -95t-112 -44z" />
    <glyph glyph-name="Uhungarumlaut" unicode="&#x170;" horiz-adv-x="650" 
d="M198 787l108 153h80l-177 -153h-11zM356 787l125 153h82l-195 -153h-12zM343 -13q-121 0 -187.5 74t-66.5 222v354q0 70 -61 72v11h198v-11q-62 -2 -62 -71v-355q0 -278 198 -278q81 0 134 69.5t52 208.5v336q0 45 -23.5 67t-60.5 23v11h188v-11q-77 -2 -80 -90l-7 -336
q-3 -145 -60 -220.5t-162 -75.5z" />
    <glyph glyph-name="uhungarumlaut" unicode="&#x171;" horiz-adv-x="570" 
d="M136 567l108 153h80l-177 -153h-11zM294 567l125 153h82l-195 -153h-12zM238 -13q-70 0 -106 47.5t-36 137.5v226q0 44 -16.5 61t-46.5 12v11l132 36v-346q0 -70 29.5 -109t85.5 -39q45 0 81 40t48 84v250q0 46 -16 62t-44 11v11l129 36v-412q0 -53 13.5 -73.5
t45.5 -21.5v-11h-131l10 126q-19 -51 -66 -95t-112 -44z" />
    <glyph glyph-name="Uogonek" unicode="&#x172;" horiz-adv-x="650" 
d="M464 720h188v-11q-77 -2 -80 -90l-7 -336q-3 -140 -56 -215.5t-152 -80.5q-53 -56 -53 -110q0 -26 16 -47.5t50 -21.5q48 0 72 42v-12q-8 -26 -34.5 -47.5t-61.5 -21.5q-34 0 -59 24.5t-25 64.5q0 71 75 129q-118 2 -183 76t-65 220v354q0 70 -61 72v11h198v-11
q-62 -2 -62 -71v-355q0 -278 198 -278l9 6l10 -1q-1 0 -2.5 -2t-2.5 -2q76 6 124.5 75t47.5 202v336q0 45 -23.5 67t-60.5 23v11z" />
    <glyph glyph-name="uogonek" unicode="&#x173;" horiz-adv-x="570" 
d="M451 0q-66 -63 -66 -123q0 -26 16 -47.5t50 -21.5q48 0 72 42v-12q-8 -26 -34.5 -47.5t-61.5 -21.5q-34 0 -59 24.5t-25 64.5q0 77 93 142h-30l10 126q-19 -51 -66 -95t-112 -44q-70 0 -106 47.5t-36 137.5v226q0 44 -16.5 61t-46.5 12v11l132 36v-346q0 -70 29.5 -109
t85.5 -39q45 0 81 40t48 84v250q0 46 -16 62t-44 11v11l129 36v-412q0 -53 13.5 -73.5t45.5 -21.5v-11h-86z" />
    <glyph glyph-name="Wcircumflex" unicode="&#x174;" horiz-adv-x="971" 
d="M508 898l-123 -111h-12l108 153h54l107 -153h-12zM791 720h182v-11q-32 -1 -53 -15.5t-38 -51.5q-43 -103 -95 -257q-8 -24 -21 -60.5t-19 -55t-15.5 -46t-14 -41.5t-10.5 -34t-9 -31t-6 -24t-4 -21.5t-1 -16.5q0 -28 5 -44q-32 -10 -62 -29l-146 446l-16 -43
q-89 -255 -98 -301q-2 -11 -3 -20q-3 -23 5 -50q-15 -4 -31 -11t-24.5 -12t-8.5 -6l-184 567q-35 107 -51 125q-24 27 -65 32v11h220v-11q-46 -6 -52 -40q-6 -26 17 -95l162 -487q11 54 99 300q4 11 22 65l-33 100q-3 9 -11.5 36t-11.5 34.5t-10.5 26.5t-13.5 25.5
t-15.5 16.5t-21 13.5t-25.5 4.5v11h212v-11q-45 -6 -51 -40q-7 -25 16 -95l163 -490q9 41 98 303q10 28 26 75.5t24 71t17 53t11.5 46.5t1.5 27q-3 25 -21 36.5t-40 12.5v11z" />
    <glyph glyph-name="wcircumflex" unicode="&#x175;" horiz-adv-x="769" 
d="M388 678l-123 -111h-12l108 153h54l107 -153h-12zM620 500h162v-11q-30 -2 -52.5 -22t-41.5 -66q-75 -192 -84 -215q-40 -103 -43 -134q-1 -18 3 -32q-35 -10 -60 -31q-37 116 -117 326q-18 -45 -51 -129q-40 -103 -43 -134q-1 -18 3 -32q-33 -8 -60 -31
q-47 139 -141 390q-23 61 -42.5 85t-44.5 25v11h188v-11q-20 0 -31 -6.5t-13.5 -20.5t0.5 -29.5t10 -39.5q13 -43 35 -102t48 -126.5t36 -96.5q8 29 44 123q7 20 26 69.5t28 73.5l-16 44q-22 61 -41.5 85t-45.5 26v11h188v-11q-40 -1 -45.5 -27t11.5 -69q13 -43 34 -100.5
t49 -129.5t36 -95q6 24 44 123q9 24 28.5 75t32.5 85.5t17 51.5q12 47 -2.5 66t-48.5 21v10z" />
    <glyph glyph-name="Ycircumflex" unicode="&#x176;" horiz-adv-x="607" 
d="M309 898l-123 -111h-12l108 153h54l107 -153h-12zM417 720h182v-11q-41 -5 -67 -35t-70 -113q-62 -120 -119 -235v-215q0 -55 12.5 -77t41.5 -23v-11h-181v10q54 2 54 96v213l-178 321q-36 65 -84 69v11h204v-11q-37 -4 -42.5 -24t18.5 -64l148 -278q21 42 59.5 121
t48.5 98q16 32 23.5 56t7 44.5t-15 32t-42.5 14.5v11z" />
    <glyph glyph-name="ycircumflex" unicode="&#x177;" horiz-adv-x="497" 
d="M265 678l-123 -111h-12l108 153h54l107 -153h-12zM350 500h160v-11q-17 -1 -29.5 -6t-30.5 -26.5t-33 -61.5q-42 -110 -126 -371q-48 -149 -71 -189q-36 -66 -93 -66q-48 0 -76.5 30t-29.5 70q0 28 13.5 48t35.5 20q38 0 38 -34q0 -15 -14 -30t-14 -26q0 -22 14 -39
t46 -17q30 0 47 18.5t33 52.5q37 73 19 125l-141 380q-25 69 -46 95t-44 27v11h187v-11q-26 -1 -36 -11t-10 -32q0 -25 28 -101q3 -8 50 -132.5t58 -164.5q80 242 90 270q32 90 32 116q0 30 -13 42.5t-44 12.5v11z" />
    <glyph glyph-name="Ydieresis" unicode="&#x178;" horiz-adv-x="607" 
d="M220 833q-17 0 -28.5 11.5t-11.5 28.5t11.5 29t28.5 12q16 0 28 -12t12 -29t-11.5 -28.5t-28.5 -11.5zM399 833q-18 0 -29.5 11.5t-11.5 28.5t11.5 29t29.5 12q16 0 27.5 -12t11.5 -29t-11.5 -28.5t-27.5 -11.5zM417 720h182v-11q-41 -5 -67 -35t-70 -113
q-62 -120 -119 -235v-215q0 -55 12.5 -77t41.5 -23v-11h-181v10q54 2 54 96v213l-178 321q-36 65 -84 69v11h204v-11q-37 -4 -42.5 -24t18.5 -64l148 -278q21 42 59.5 121t48.5 98q16 32 23.5 56t7 44.5t-15 32t-42.5 14.5v11z" />
    <glyph glyph-name="Zacute" unicode="&#x179;" horiz-adv-x="575" 
d="M436 940l-184 -153h-13l109 153h88zM545 242h12l-63 -269q-39 27 -105 27h-372l426 706h-200q-76 0 -116 -41.5t-72 -127.5h-12l50 211q54 -28 129 -28h314l-421 -698q59 -9 198 -9q101 0 151 58t81 171z" />
    <glyph glyph-name="zacute" unicode="&#x17a;" horiz-adv-x="448" 
d="M376 720l-184 -153h-13l109 153h88zM418 184h12l-56 -213q-42 29 -104 29h-252l303 488h-121q-63 0 -98.5 -33t-65.5 -113h-12l57 186q15 -9 25.5 -14t34.5 -9.5t59 -4.5h208l-302 -487h126q78 0 117.5 36.5t68.5 134.5z" />
    <glyph glyph-name="Zdotaccent" unicode="&#x17b;" horiz-adv-x="575" 
d="M298 829q-19 0 -33.5 14t-14.5 33t14.5 34t33.5 15t33.5 -14.5t14.5 -34.5q0 -19 -14.5 -33t-33.5 -14zM545 242h12l-63 -269q-39 27 -105 27h-372l426 706h-200q-76 0 -116 -41.5t-72 -127.5h-12l50 211q54 -28 129 -28h314l-421 -698q59 -9 198 -9q101 0 151 58t81 171
z" />
    <glyph glyph-name="zdotaccent" unicode="&#x17c;" horiz-adv-x="448" 
d="M238 609q-19 0 -33.5 14t-14.5 33t14.5 34t33.5 15t33.5 -14.5t14.5 -34.5q0 -19 -14.5 -33t-33.5 -14zM418 184h12l-56 -213q-42 29 -104 29h-252l303 488h-121q-63 0 -98.5 -33t-65.5 -113h-12l57 186q15 -9 25.5 -14t34.5 -9.5t59 -4.5h208l-302 -487h126
q78 0 117.5 36.5t68.5 134.5z" />
    <glyph glyph-name="Zcaron" unicode="&#x17d;" horiz-adv-x="575" 
d="M271 787l-108 153h12l123 -111l122 111h12l-107 -153h-54zM545 242h12l-63 -269q-39 27 -105 27h-372l426 706h-200q-76 0 -116 -41.5t-72 -127.5h-12l50 211q54 -28 129 -28h314l-421 -698q59 -9 198 -9q101 0 151 58t81 171z" />
    <glyph glyph-name="zcaron" unicode="&#x17e;" horiz-adv-x="448" 
d="M211 567l-108 153h12l123 -111l122 111h12l-107 -153h-54zM418 184h12l-56 -213q-42 29 -104 29h-252l303 488h-121q-63 0 -98.5 -33t-65.5 -113h-12l57 186q15 -9 25.5 -14t34.5 -9.5t59 -4.5h208l-302 -487h126q78 0 117.5 36.5t68.5 134.5z" />
    <glyph glyph-name="uni0218" unicode="&#x218;" horiz-adv-x="549" 
d="M304 -13q-38 0 -77 11.5t-62 23t-43 18.5t-30.5 -2.5t-13.5 -40.5h-9l-33 284h13q33 -137 101.5 -209.5t151.5 -72.5q63 0 109.5 38.5t46.5 108.5q0 42 -23 75t-59.5 55t-81 41.5t-89 39.5t-81 43.5t-59.5 59.5t-23 81q0 74 54.5 133t141.5 59q33 0 68 -9.5t58 -19
t42.5 -15t30 1.5t13.5 32h8l22 -226h-13q-21 107 -87 165.5t-144 58.5q-58 0 -98.5 -36t-40.5 -88q0 -59 43 -100.5t104.5 -67t123 -52t104.5 -71.5t43 -109q0 -95 -59 -152.5t-152 -57.5zM298 -54q26 0 42 -19t16 -48q0 -53 -34 -102.5t-105 -82.5v12q53 28 83.5 70.5
t31.5 92.5q-1 5 -5 1q-9 -30 -38 -30q-17 0 -32 14t-15 39q0 24 16 38.5t40 14.5z" />
    <glyph glyph-name="uni0219" unicode="&#x219;" horiz-adv-x="432" 
d="M248 -13q-29 0 -57 7t-42.5 13t-33.5 3t-38 -19l-41 186h12q22 -67 74.5 -122.5t125.5 -55.5q40 0 71.5 28t31.5 74q0 40 -31 68.5t-75.5 46.5t-88.5 37t-75 52t-31 79q0 54 43 91.5t106 37.5q21 0 53.5 -10.5t56 -10.5t43.5 21l35 -170h-12q-18 62 -71.5 110t-109.5 48
q-38 0 -67.5 -20.5t-28.5 -65.5q1 -35 33 -61.5t78 -44.5t91.5 -38.5t77.5 -57t32 -87.5q0 -63 -48.5 -101t-113.5 -38zM226 -54q26 0 42 -19t16 -48q0 -53 -34 -102.5t-104 -82.5v12q53 28 83.5 70.5t31.5 92.5q-1 5 -5 1q-9 -30 -39 -30q-16 0 -31 14t-15 39
q0 24 15.5 38.5t39.5 14.5z" />
    <glyph glyph-name="uni021A" unicode="&#x21a;" horiz-adv-x="608" 
d="M557 742l44 -218h-13q-13 52 -24.5 82t-33 55.5t-54.5 36t-83 10.5h-52v-621q0 -39 17.5 -57t41.5 -19v-11h-192v11q25 1 42.5 19t17.5 58v620h-53q-96 0 -134 -41t-61 -143h-12l44 218q48 -22 114 -22h277q70 0 114 22zM308 -54q26 0 42 -19t16 -48q0 -53 -34 -102.5
t-105 -82.5v12q53 28 83.5 70.5t31.5 92.5q-1 5 -5 1q-9 -30 -38 -30q-17 0 -32 14t-15 39q0 24 16 38.5t40 14.5z" />
    <glyph glyph-name="uni021B" unicode="&#x21b;" horiz-adv-x="357" 
d="M334 486h-156v-345q0 -62 27.5 -91t61 -25t56.5 28v-12q-11 -18 -38 -36t-65 -18q-49 0 -80 37.5t-31 111.5v350h-91v14q47 2 80.5 29.5t48 60.5t17.5 68h14v-158h31q69 0 131 19zM193 -54q26 0 42 -19t16 -48q0 -53 -34 -102.5t-104 -82.5v12q53 28 83.5 70.5t31.5 92.5
q-1 5 -5 1q-9 -30 -39 -30q-16 0 -31 14t-15 39q0 24 15.5 38.5t39.5 14.5z" />
    <glyph glyph-name="uni0237" unicode="&#x237;" horiz-adv-x="237" 
d="M41 -231q-44 0 -74 34.5t-30 75.5q0 23 11 39t29 16q31 0 31 -32q0 -9 -7.5 -24t-7.5 -29q0 -27 16 -45.5t48 -18.5q36 0 55.5 29t19.5 70q0 32 -11 95.5t-11 110.5v320q0 73 -60 57v15l129 36v-513q0 -236 -138 -236z" />
    <glyph glyph-name="uni02BC" unicode="&#x2bc;" horiz-adv-x="217" 
d="M25 474v11q53 30 83.5 74t31.5 95h-4q-8 -32 -39 -32q-17 0 -32 15t-15 41q0 24 16 39.5t40 15.5q28 0 43.5 -19.5t15.5 -47.5q0 -55 -34 -105.5t-106 -86.5z" />
    <glyph glyph-name="gravecomb" unicode="&#x300;" horiz-adv-x="0" 
d="M-35 567l-185 153h88l109 -153h-12z" />
    <glyph glyph-name="acutecomb" unicode="&#x301;" horiz-adv-x="0" 
d="M-188 567h-13l109 153h88z" />
    <glyph glyph-name="uni0302" unicode="&#x302;" horiz-adv-x="0" 
d="M-29 567h-12l-122 111l-123 -111h-12l108 153h54z" />
    <glyph glyph-name="tildecomb" unicode="&#x303;" horiz-adv-x="0" 
d="M-326 567q0 27 5.5 55.5t26.5 57t54 28.5q24 0 49.5 -25.5t50.5 -51t47 -25.5q28 0 45 34.5t17 67.5h11q0 -18 -3.5 -39.5t-12 -45.5t-26 -40t-40.5 -16q-26 0 -53 25.5t-52 51t-46 25.5q-28 0 -45 -34t-17 -68h-11z" />
    <glyph glyph-name="uni0304" unicode="&#x304;" horiz-adv-x="0" 
d="M-289 600v12h279v-12h-279z" />
    <glyph glyph-name="uni0306" unicode="&#x306;" horiz-adv-x="0" 
d="M-155 567q-57 0 -92 44t-35 109h10q1 -51 32.5 -83t84.5 -32q54 0 85 32t32 83h11q0 -65 -35.5 -109t-92.5 -44z" />
    <glyph glyph-name="uni0307" unicode="&#x307;" horiz-adv-x="0" 
d="M-86 609q-19 0 -33.5 14t-14.5 33t14.5 34t33.5 15t33.5 -14.5t14.5 -34.5q0 -19 -14.5 -33t-33.5 -14z" />
    <glyph glyph-name="uni0308" unicode="&#x308;" horiz-adv-x="0" 
d="M-259 613q-17 0 -28.5 11.5t-11.5 28.5t11.5 29t28.5 12q16 0 28 -12t12 -29t-11.5 -28.5t-28.5 -11.5zM-80 613q-18 0 -29.5 11.5t-11.5 28.5t11.5 29t29.5 12q16 0 27.5 -12t11.5 -29t-11.5 -28.5t-27.5 -11.5z" />
    <glyph glyph-name="uni030A" unicode="&#x30a;" horiz-adv-x="0" 
d="M-101 570q-30 0 -51 21t-21 51q0 31 21 52.5t51 21.5q31 0 52.5 -21.5t21.5 -52.5q0 -30 -21.5 -51t-52.5 -21zM-101 587q23 0 40 16t17 39t-17 40t-40 17t-39 -17t-16 -40t16 -39t39 -16z" />
    <glyph glyph-name="uni030B" unicode="&#x30b;" horiz-adv-x="0" 
d="M-322 567l108 153h80l-177 -153h-11zM-164 567l125 153h82l-195 -153h-12z" />
    <glyph glyph-name="uni030C" unicode="&#x30c;" horiz-adv-x="0" 
d="M-41 720h12l-107 -153h-54l-108 153h12l123 -111z" />
    <glyph glyph-name="uni0312" unicode="&#x312;" horiz-adv-x="0" 
d="M-91 556q-26 0 -42 19t-16 47q0 53 34 102.5t105 82.5v-11q-53 -28 -83.5 -70.5t-31.5 -92.5q0 -3 1 -4q2 -2 4 3q9 30 38 30q17 0 32 -14t15 -39q0 -24 -15.5 -38.5t-40.5 -14.5z" />
    <glyph glyph-name="uni0326" unicode="&#x326;" horiz-adv-x="0" 
d="M-116 -54q26 0 42 -19t16 -48q0 -53 -34 -102.5t-105 -82.5v12q53 28 83.5 70.5t31.5 92.5q-1 5 -5 1q-9 -30 -38 -30q-17 0 -32 14t-15 39q0 24 16 38.5t40 14.5z" />
    <glyph glyph-name="uni0327" unicode="&#x327;" horiz-adv-x="0" 
d="M-121 -231q-30 0 -53.5 17t-23.5 48q0 15 8 25t20 10q24 0 24 -23q0 -8 -8 -17.5t-8 -16.5q0 -13 11.5 -22t26.5 -9q30 0 47.5 18t17.5 41q0 34 -25.5 55.5t-59.5 31.5l42 77l12 -1l-24 -46q18 -8 30.5 -14.5t28.5 -18.5t24 -29t8 -38q0 -35 -29 -61.5t-69 -26.5z" />
    <glyph glyph-name="uni0328" unicode="&#x328;" horiz-adv-x="0" 
d="M-110 -231q-34 0 -59 24.5t-25 64.5q0 82 109 153l10 -1q-77 -67 -77 -133q0 -26 16 -47.5t50 -21.5q48 0 72 42v-12q-8 -26 -34.5 -47.5t-61.5 -21.5z" />
    <glyph glyph-name="uni0335" unicode="&#x335;" horiz-adv-x="0" 
d="M-367 352v14l109 -2h123l110 2v-14l-110 2h-123z" />
    <glyph glyph-name="uni0336" unicode="&#x336;" horiz-adv-x="0" 
d="M-658 533v12h648v-12h-648z" />
    <glyph glyph-name="uni0337" unicode="&#x337;" horiz-adv-x="0" 
d="M-286 287v24l82 59l110 85l78 69v-28l-77 -56l-112 -86z" />
    <glyph glyph-name="uni0338" unicode="&#x338;" horiz-adv-x="0" 
d="M-466 0l424 500h19l-424 -500h-19z" />
    <glyph glyph-name="uni0401" unicode="&#x401;" 
d="M211 833q-17 0 -28.5 11.5t-11.5 28.5t11.5 29t28.5 12q16 0 28 -12t12 -29t-11.5 -28.5t-28.5 -11.5zM390 833q-18 0 -29.5 11.5t-11.5 28.5t11.5 29t29.5 12q16 0 27.5 -12t11.5 -29t-11.5 -28.5t-27.5 -11.5zM559 187h12l-61 -202q-42 15 -122 15h-345v11q59 2 59 75
v550q0 71 -59 73v11h322q40 0 72 4.5t45 9t17 8.5l56 -187h-13q-21 61 -44 90.5t-73.5 46t-140.5 16.5h-109v-289h135q53 0 74 19t23 61h11v-172h-11q-2 45 -22.5 62.5t-74.5 17.5h-135v-374q49 -21 131 -21q109 0 163.5 35t89.5 140z" />
    <glyph glyph-name="uni0404" unicode="&#x404;" horiz-adv-x="609" 
d="M568 211l8 -2q-21 -96 -85 -159t-151 -63q-137 0 -223.5 108.5t-86.5 266.5q0 153 89.5 262t212.5 109q32 0 63 -10.5t48 -20t38 -9t41 19.5l50 -267h-13q-70 275 -229 275q-95 0 -163.5 -86.5t-68.5 -231.5v-4h209q53 0 74 19t23 61h11v-172h-11q-2 45 -22.5 62.5
t-74.5 17.5h-209q2 -58 19.5 -115.5t49.5 -108.5t86.5 -83t122.5 -32q63 0 115.5 41.5t76.5 121.5z" />
    <glyph glyph-name="uni0406" unicode="&#x406;" horiz-adv-x="307" 
d="M58 0v11q59 2 59 77v547q0 41 -15 57t-44 17v11h191v-11q-31 -1 -45 -16.5t-14 -57.5v-548q0 -40 17.5 -57.5t41.5 -18.5v-11h-191z" />
    <glyph glyph-name="uni0407" unicode="&#x407;" horiz-adv-x="307" 
d="M64 833q-17 0 -28.5 11.5t-11.5 28.5t11.5 29t28.5 12q16 0 28 -12t12 -29t-11.5 -28.5t-28.5 -11.5zM243 833q-18 0 -29.5 11.5t-11.5 28.5t11.5 29t29.5 12q16 0 27.5 -12t11.5 -29t-11.5 -28.5t-27.5 -11.5zM58 0v11q59 2 59 77v547q0 41 -15 57t-44 17v11h191v-11
q-31 -1 -45 -16.5t-14 -57.5v-548q0 -40 17.5 -57.5t41.5 -18.5v-11h-191z" />
    <glyph glyph-name="uni0410" unicode="&#x410;" horiz-adv-x="630" 
d="M513 169q3 -10 11.5 -36t11.5 -34.5t10.5 -27t13.5 -25t15.5 -16.5t21 -14t25.5 -5v-11h-213v11q46 6 52 40q6 28 -16 95l-35 106h-254q-57 -164 -52 -192q4 -47 61 -49v-11h-183v11q32 1 53.5 15.5t37.5 51.5q35 83 96 257q8 24 21 60.5t19 55t15.5 46t14 41.5t10.5 34
t9 31t6 24t4 21.5t1 16.5q0 27 -5 45q32 8 62 28zM160 264h246l-124 372q-5 -24 -16.5 -61t-22.5 -68.5t-30 -87.5t-29 -86q-12 -36 -24 -69z" />
    <glyph glyph-name="uni0411" unicode="&#x411;" horiz-adv-x="583" 
d="M556 191q1 -88 -62 -139.5t-178 -51.5h-273v11q25 1 42 19.5t17 57.5v545q0 42 -15 58.5t-44 17.5v11h337q70 0 114 22l43 -216h-13q-12 51 -23.5 80.5t-33 55t-54.5 36t-83 10.5h-155v-327l155 -1q97 -1 161 -52.5t65 -136.5zM479 191q1 82 -55 128.5t-129 47.5l-120 1
v-347q61 -9 127 -9q74 0 125 51.5t52 127.5z" />
    <glyph glyph-name="uni0412" unicode="&#x412;" 
d="M556 191q1 -88 -62 -139.5t-178 -51.5h-273v11q25 1 42 19.5t17 57.5v545q0 42 -15 58.5t-44 17.5v11h222q113 0 181.5 -47.5t69.5 -131.5q1 -62 -40.5 -104t-108.5 -59q83 -11 135.5 -61t53.5 -126zM238 708h-63v-323l48 -4l72 -1q61 6 103.5 43t43.5 118
q1 79 -50.5 123t-153.5 44zM479 191q1 82 -55 128.5t-129 47.5h-7h-10l-64 1h-39v-347q61 -9 127 -9q74 0 125 51.5t52 127.5z" />
    <glyph glyph-name="uni0413" unicode="&#x413;" horiz-adv-x="527" 
d="M476 742l44 -218h-13q-13 52 -24.5 82t-33 56t-54.5 36.5t-83 10.5h-78q-31 -1 -45 -16.5t-14 -57.5v-548q0 -40 17.5 -57.5t41.5 -18.5v-11h-191v11q59 2 59 77v547q0 41 -15 57t-44 17v11h319q70 0 114 22z" />
    <glyph glyph-name="uni0414" unicode="&#x414;" horiz-adv-x="662" 
d="M552 83q0 -70 88 -72v-231h-12q0 49 -4 83.5t-15.5 66.5t-34.5 49.5t-58 20.5h-408q-67 -5 -93 -63t-26 -157h-12v233h56q102 42 162.5 175.5t60.5 301.5q0 113 -23 165.5t-91 53.5v11h470v-11q-31 -1 -45.5 -16.5t-14.5 -62.5v-547zM479 76v559q0 48 -16.5 61t-69.5 13
h-39q-23 0 -38.5 -3t-25 -13t-14.5 -19t-6.5 -32.5t-1.5 -40.5t1 -55.5t1 -66.5q0 -265 -146 -466h301q23 0 38.5 15.5t15.5 47.5z" />
    <glyph glyph-name="uni0415" unicode="&#x415;" 
d="M559 187h12l-61 -202q-42 15 -122 15h-345v11q59 2 59 75v550q0 71 -59 73v11h322q40 0 72 4.5t45 9t17 8.5l56 -187h-13q-21 61 -44 90.5t-73.5 46t-140.5 16.5h-109v-289h135q53 0 74 19t23 61h11v-172h-11q-2 45 -22.5 62.5t-74.5 17.5h-135v-374q49 -21 131 -21
q109 0 163.5 35t89.5 140z" />
    <glyph glyph-name="uni0416" unicode="&#x416;" horiz-adv-x="912" 
d="M796 118q42 -63 67.5 -84.5t56.5 -22.5v-11h-77q-31 0 -59 23t-62 73l-164 254q-34 -19 -65 -20v-243q0 -40 17.5 -57.5t41.5 -18.5v-11h-191v11q59 2 59 77v242q-32 1 -66 20l-164 -254q-34 -51 -61.5 -73.5t-58.5 -22.5h-78v11q32 1 57 22.5t67 84.5l167 258l55 -15
q-35 26 -69.5 76.5t-56 94t-47 76.5t-47.5 33q-9 0 -25.5 -7t-33.5 -7q-24 0 -40 16t-16 37q0 22 16 37.5t46 15.5q41 0 75.5 -39t61 -95.5t54.5 -113.5t70 -98.5t94 -44.5v293q0 41 -15 57t-44 17v11h191v-11q-31 -1 -45 -16.5t-14 -57.5v-293q52 3 94 44.5t70.5 98.5
t55 113.5t60.5 95.5t74 39q30 0 46.5 -15.5t16.5 -37.5q0 -20 -16 -36.5t-40 -16.5q-17 0 -34 7t-26 7q-23 0 -48.5 -33t-46.5 -76t-55 -93.5t-69 -76.5l55 14z" />
    <glyph glyph-name="uni0417" unicode="&#x417;" horiz-adv-x="565" 
d="M291 390q110 -2 178.5 -54.5t68.5 -137.5q0 -52 -27.5 -94t-71.5 -66.5t-94.5 -37.5t-101.5 -13q-109 0 -162 46.5t-53 102.5q0 34 16 55t37 21q20 0 32.5 -12t12.5 -33q0 -13 -12 -36t-12 -42q0 -34 35.5 -62t106.5 -28q92 0 150.5 55.5t58.5 143.5q0 96 -75 144.5
t-213 23.5l-3 8q59 13 102.5 28t86 39t65 59t22.5 79q0 61 -38.5 101.5t-108.5 40.5q-69 0 -133 -64.5t-92 -196.5h-11l52 273h8q0 -23 9.5 -31.5t28.5 -4t40.5 12t53 15.5t58.5 8q90 0 150 -39.5t60 -112.5q0 -60 -61.5 -111t-162.5 -76v-4z" />
    <glyph glyph-name="uni0418" unicode="&#x418;" horiz-adv-x="695" 
d="M652 709q-31 -1 -45 -16.5t-14 -57.5v-548q0 -40 17.5 -57.5t41.5 -18.5v-11h-192v11q60 2 60 77v527l-344 -546q8 -56 58 -58v-11h-191v11q59 2 59 77v547q0 41 -15 57t-44 17v11h191v-11q-31 -1 -45 -16.5t-14 -57.5v-542l345 546q-1 39 -16 54t-44 16v11h192v-11z" />
    <glyph glyph-name="uni0419" unicode="&#x419;" horiz-adv-x="695" 
d="M346 805q-72 0 -114 26.5t-42 63.5q0 25 13.5 35.5t28.5 10.5q13 0 23.5 -8t10.5 -24q0 -12 -8 -25t-8 -20q0 -20 25.5 -34t70.5 -14q94 0 94 48q0 7 -7.5 20t-7.5 25q0 16 10.5 24t23.5 8q14 0 27.5 -10.5t13.5 -35.5q0 -37 -42 -63.5t-112 -26.5zM652 709
q-31 -1 -45 -16.5t-14 -57.5v-548q0 -40 17.5 -57.5t41.5 -18.5v-11h-192v11q60 2 60 77v527l-344 -546q8 -56 58 -58v-11h-191v11q59 2 59 77v547q0 41 -15 57t-44 17v11h191v-11q-31 -1 -45 -16.5t-14 -57.5v-542l345 546q-1 39 -16 54t-44 16v11h192v-11z" />
    <glyph glyph-name="uni041A" unicode="&#x41a;" horiz-adv-x="613" 
d="M498 118q49 -65 71.5 -85.5t51.5 -21.5v-11h-77q-30 0 -56 22t-65 74l-183 253q-32 -18 -65 -19v-243q0 -40 17.5 -57.5t41.5 -18.5v-11h-191v11q59 2 59 77v547q0 41 -15 57t-44 17v11h191v-11q-31 -1 -45 -16.5t-14 -57.5v-293q52 3 97 44.5t77 98.5t62 113.5
t66.5 95.5t76.5 39q30 0 46 -15.5t16 -37.5q0 -21 -16 -37t-40 -16q-17 0 -33.5 7t-25.5 7q-23 0 -51 -33t-52.5 -75.5t-62.5 -93t-74 -76.5l50 13z" />
    <glyph glyph-name="uni041B" unicode="&#x41b;" horiz-adv-x="677" 
d="M-11 41q0 24 18 41.5t43 17.5q26 0 48.5 -16.5t37.5 -16.5q37 0 64.5 67.5t38.5 171.5t5 216q-6 108 -26.5 147t-84.5 40v11h502v-11q-29 -1 -44.5 -21t-15.5 -72v-528q0 -75 60 -77v-11h-192v11q59 2 59 78v555q0 36 -13.5 50t-40.5 14h-110q-64 0 -75.5 -27.5
t-5.5 -124.5q1 -22 2 -34q26 -537 -196 -537q-34 0 -54 15.5t-20 40.5z" />
    <glyph glyph-name="uni041C" unicode="&#x41c;" horiz-adv-x="820" 
d="M726 91q7 -79 61 -80v-11h-191v11q27 1 42 20.5t13 55.5l-47 565q-121 -390 -151 -494q-31 -109 -24 -144q-41 -16 -63 -36l-202 679l-45 -554q-6 -90 83 -92v-11h-189v11q77 2 87 91l47 521q7 84 -78 86v11h157l188 -634l138 449q45 149 42 185h143v-11q-32 -1 -47 -20
t-13 -64q4 -81 49 -534z" />
    <glyph glyph-name="uni041D" unicode="&#x41d;" horiz-adv-x="695" 
d="M652 709q-31 -1 -45 -16.5t-14 -57.5v-548q0 -40 17.5 -57.5t41.5 -18.5v-11h-192v11q60 2 60 77v283h-345v-284q0 -40 17.5 -57.5t41.5 -18.5v-11h-191v11q59 2 59 77v547q0 41 -15 57t-44 17v11h191v-11q-31 -1 -45 -16.5t-14 -57.5v-252h345v252q0 41 -15.5 57
t-44.5 17v11h192v-11z" />
    <glyph glyph-name="uni041E" unicode="&#x41e;" horiz-adv-x="672" 
d="M352 -13q-144 0 -233 110t-89 268q0 151 85 259.5t211 108.5q140 0 228 -107.5t88 -260.5q0 -156 -83.5 -267t-206.5 -111zM572 287q0 102 -30 197t-94 162t-147 67q-95 0 -148.5 -80t-53.5 -199q0 -100 31.5 -196t97 -163.5t149.5 -67.5q92 0 143.5 81t51.5 199z" />
    <glyph glyph-name="uni041F" unicode="&#x41f;" horiz-adv-x="685" 
d="M642 709q-31 -1 -45 -16.5t-14 -57.5v-548q0 -40 17.5 -57.5t41.5 -18.5v-11h-192v11q60 2 60 77v547q0 41 -15.5 56.5t-44.5 15.5h-216q-31 0 -45 -15t-14 -57v-548q0 -40 17.5 -57.5t41.5 -18.5v-11h-191v11q59 2 59 77v547q0 41 -15 57t-44 17v11h599v-11z" />
    <glyph glyph-name="uni0420" unicode="&#x420;" horiz-adv-x="572" 
d="M305 720q112 0 181 -55.5t69 -149.5q0 -91 -78 -147.5t-192 -56.5h-110v-221q0 -77 59 -79v-11h-191v11q26 1 42.5 20.5t16.5 58.5v543q0 42 -15 58.5t-44 17.5v11h262zM292 323q77 0 132.5 56t55.5 136q0 81 -54 137t-142 56h-109v-376q36 -9 117 -9z" />
    <glyph glyph-name="uni0421" unicode="&#x421;" horiz-adv-x="609" 
d="M340 -13q-137 0 -223.5 108.5t-86.5 266.5q0 153 89.5 262t212.5 109q32 0 63 -10.5t48 -20t38 -9t41 19.5l50 -267h-13q-70 275 -229 275q-95 0 -163.5 -86.5t-68.5 -231.5q0 -59 16 -119t48 -114t87.5 -88t126.5 -34q63 0 115.5 41.5t76.5 121.5l8 -2q-21 -96 -85 -159
t-151 -63z" />
    <glyph glyph-name="uni0422" unicode="&#x422;" horiz-adv-x="608" 
d="M557 742l44 -218h-13q-13 52 -24.5 82t-33 55.5t-54.5 36t-83 10.5h-52v-621q0 -39 17.5 -57t41.5 -19v-11h-192v11q25 1 42.5 19t17.5 58v620h-53q-96 0 -134 -41t-61 -143h-12l44 218q48 -22 114 -22h277q70 0 114 22z" />
    <glyph glyph-name="uni0423" unicode="&#x423;" horiz-adv-x="597" 
d="M423 720h187v-11q-48 -2 -74.5 -34t-65.5 -144l-139 -389q-28 -81 -80.5 -125.5t-110.5 -44.5q-38 0 -60 17.5t-22 40.5q0 24 16 39t46 15q24 0 55.5 -22t48.5 -22q24 0 52.5 36.5t50.5 97.5l9 25l-205 368q-48 86 -73 112.5t-58 29.5v11h206v-11q-34 -3 -39 -25.5
t27 -85.5l173 -309l86 244q27 75 30 113t-11 49.5t-49 13.5v11z" />
    <glyph glyph-name="uni0424" unicode="&#x424;" horiz-adv-x="778" 
d="M748 389q0 -124 -93.5 -208.5t-228.5 -84.5v-9q0 -40 17.5 -57.5t41.5 -18.5v-11h-192v11q60 2 60 77v9q-145 10 -234 91.5t-89 200.5q0 120 92.5 201t230.5 83v4q0 41 -15.5 57t-44.5 17v11h192v-11q-31 -1 -45 -16.5t-14 -57.5v-5q144 -8 233 -87.5t89 -195.5zM106 427
q0 -58 13.5 -110.5t41.5 -98t77.5 -74.5t114.5 -34v549h-7q-108 0 -174 -62.5t-66 -169.5zM672 346q0 80 -23.5 146t-80.5 113t-142 53v-549h14q105 0 168.5 64.5t63.5 172.5z" />
    <glyph glyph-name="uni0425" unicode="&#x425;" horiz-adv-x="644" 
d="M525 100q27 -45 53.5 -66.5t58.5 -22.5v-11h-211v11q63 5 2 107l-127 212l-127 -203q-70 -109 54 -116v-11h-220v11q44 3 82 35.5t93 120.5l111 176l-165 276q-32 53 -50 70.5t-51 19.5v11h202v-11q-66 -7 -16 -90l130 -216l123 199q63 101 -32 107v11h180v-11
q-67 -5 -133 -108l-130 -211z" />
    <glyph glyph-name="uni0426" unicode="&#x426;" horiz-adv-x="686" 
d="M583 87q0 -42 20.5 -58.5t59.5 -17.5v-231h-12q0 112 -32 166t-104 54h-472v11q59 2 59 77v547q0 41 -15 57t-44 17v11h191v-11q-31 -1 -45 -16.5t-14 -57.5v-548q0 -40 17.5 -57t41.5 -17h216q60 0 60 75v547q0 41 -15.5 57t-44.5 17v11h192v-11q-31 -1 -45 -16.5
t-14 -57.5v-548z" />
    <glyph glyph-name="uni0427" unicode="&#x427;" horiz-adv-x="637" 
d="M594 709q-31 -1 -45 -16.5t-14 -57.5v-548q0 -40 17.5 -57.5t41.5 -18.5v-11h-192v11q60 2 60 77v279q-95 -71 -203 -71q-31 0 -60.5 9.5t-59 30.5t-47.5 64t-18 102v114q0 53 -14 72.5t-46 20.5v11h195v-11q-30 -1 -46 -21t-16 -72v-123q0 -41 10 -72.5t25 -50t36.5 -30
t42 -15.5t43.5 -4q85 0 158 62v252q0 41 -15.5 57t-44.5 17v11h192v-11z" />
    <glyph glyph-name="uni0428" unicode="&#x428;" horiz-adv-x="971" 
d="M929 709q-31 -1 -45 -16.5t-14 -57.5v-548q0 -74 59 -76v-11h-886v11q59 2 59 77v547q0 41 -15 57t-44 17v11h191v-11q-31 -1 -45 -16.5t-14 -57.5v-548q0 -40 17.5 -57t41.5 -17h156q59 0 59 75v547q0 41 -15 57t-44 17v11h192v-11q-31 -1 -45 -16.5t-14 -57.5v-548
q0 -74 59 -74h155q59 0 59 75v547q0 41 -15 57t-44 17v11h192v-11z" />
    <glyph glyph-name="uni0429" unicode="&#x429;" horiz-adv-x="968" 
d="M929 11h15v-231h-12q0 113 -30.5 166.5t-98.5 53.5h-760v11q59 2 59 77v547q0 41 -15 57t-44 17v11h191v-11q-31 -1 -45 -16.5t-14 -57.5v-548q0 -40 17.5 -57t41.5 -17h156q59 0 59 75v547q0 41 -15 57t-44 17v11h192v-11q-31 -1 -45 -16.5t-14 -57.5v-548q0 -74 59 -74
h155q59 0 59 75v547q0 41 -15 57t-44 17v11h192v-11q-31 -1 -45 -16.5t-14 -57.5v-548q0 -74 59 -76z" />
    <glyph glyph-name="uni042A" unicode="&#x42a;" horiz-adv-x="765" 
d="M463 409q113 0 191 -56.5t78 -147.5q0 -94 -69 -149.5t-180 -55.5h-263v11q29 1 44 17.5t15 58.5v543q0 69 -49 78h-15q-50 0 -83.5 -10.5t-55 -36t-33 -56t-23.5 -81.5h-12l44 218q48 -22 114 -22h245v-11q-58 -2 -58 -79v-221h110zM461 12q89 0 142.5 56t53.5 137
q0 80 -55 136t-132 56q-73 0 -117 -8v-377h108z" />
    <glyph glyph-name="uni042B" unicode="&#x42b;" horiz-adv-x="879" 
d="M285 409q114 0 192 -56.5t78 -147.5q0 -94 -69 -149.5t-181 -55.5h-262v11q29 1 44 17.5t15 58.5v543q0 39 -16.5 58.5t-42.5 20.5v11h191v-11q-59 -2 -59 -79v-221h110zM821 709q-31 -1 -45 -16.5t-14 -57.5v-548q0 -40 17.5 -57.5t41.5 -18.5v-11h-191v11q59 2 59 77
v547q0 41 -15 57t-44 17v11h191v-11zM284 12q88 0 142 56t54 137q0 80 -55.5 136t-132.5 56q-69 0 -117 -8v-377h109z" />
    <glyph glyph-name="uni042C" unicode="&#x42c;" horiz-adv-x="572" 
d="M285 409q114 0 192 -56.5t78 -147.5q0 -94 -69 -149.5t-181 -55.5h-262v11q29 1 44 17.5t15 58.5v543q0 39 -16.5 58.5t-42.5 20.5v11h191v-11q-59 -2 -59 -79v-221h110zM284 12q88 0 142 56t54 137q0 80 -55.5 136t-132.5 56q-69 0 -117 -8v-377h109z" />
    <glyph glyph-name="uni042D" unicode="&#x42d;" horiz-adv-x="619" 
d="M296 733q123 0 208.5 -103.5t85.5 -258.5q0 -160 -96.5 -272t-225.5 -112q-109 0 -172.5 56.5t-63.5 127.5q0 37 18 59t42 22q20 0 33 -14t13 -35q0 -20 -18 -45.5t-18 -48.5q0 -43 46 -75.5t120 -32.5q106 0 175.5 91t69.5 244q0 30 -1 44h-190q-74 0 -98 -16.5
t-25 -74.5h-10v194h10q1 -60 24.5 -75.5t98.5 -15.5h189q-12 157 -81 241.5t-151 84.5q-144 0 -221 -271h-11l52 268q24 -18 50 -18q16 0 61 18t86 18z" />
    <glyph glyph-name="uni042E" unicode="&#x42e;" horiz-adv-x="987" 
d="M642 733q139 0 227.5 -107.5t88.5 -260.5q0 -156 -84 -267t-206 -111q-143 0 -232 108t-91 264h-155v-272q0 -40 17.5 -57.5t41.5 -18.5v-11h-191v11q59 2 59 77v547q0 41 -15 57t-44 17v11h191v-11q-31 -1 -45 -16.5t-14 -57.5v-260q68 -5 155 -5q2 150 86.5 256.5
t210.5 106.5zM693 7q92 0 143 81t51 199q0 102 -30 197t-93.5 162t-146.5 67q-95 0 -148.5 -80t-53.5 -199q0 -100 31.5 -196t97 -163.5t149.5 -67.5z" />
    <glyph glyph-name="uni042F" unicode="&#x42f;" horiz-adv-x="601" 
d="M558 708q-29 -1 -44 -17.5t-15 -58.5v-542q0 -77 59 -79v-11h-191v11q58 2 58 79v245h-78l-173 -259q-27 -40 -52.5 -58t-57.5 -18h-72v11q30 0 53 17.5t58 68.5l150 221l62 10v7h-46q-91 0 -155 48t-64 135q0 93 74 147.5t191 54.5h243v-12zM299 346q30 0 126 8v354h-87
q-104 0 -159.5 -54t-55.5 -136q0 -79 42.5 -125.5t133.5 -46.5z" />
    <glyph glyph-name="uni0430" unicode="&#x430;" horiz-adv-x="503" 
d="M174 -13q-53 0 -93.5 26t-40.5 86q0 24 10 44.5t24.5 36t39.5 30t45 23t52 18.5t49 14t48 11t39 9v36q0 95 -33.5 138t-87.5 43q-41 0 -68.5 -23.5t-27.5 -60.5q0 -15 5 -32.5t5 -27.5q0 -15 -11.5 -25.5t-28.5 -10.5q-18 0 -28 15t-10 36q0 58 51.5 99t112.5 41
q189 0 189 -214v-202q0 -51 19 -65.5t51 14.5v-14q-34 -45 -75 -45q-22 0 -35 9t-19 28t-7.5 36.5t-1.5 46.5q-20 -59 -68.5 -89.5t-104.5 -30.5zM206 17q50 0 95.5 39t45.5 108v111q-10 -3 -35.5 -11t-35 -11t-31.5 -11t-31.5 -12.5t-26.5 -13t-24.5 -15t-18.5 -17t-16 -21
t-8.5 -23.5t-3.5 -28q0 -46 24.5 -70.5t65.5 -24.5z" />
    <glyph glyph-name="uni0431" unicode="&#x431;" horiz-adv-x="550" 
d="M279 500q98 0 168 -73.5t70 -178.5q0 -109 -70 -185t-168 -76q-109 0 -178.5 88.5t-69.5 242.5q0 179 65.5 276t205.5 85q107 -9 156 2t73 66l7 -3q-27 -64 -56 -91.5t-73 -32.5t-111 2q-130 10 -191 -57t-47 -219q31 71 90.5 112.5t128.5 41.5zM300 1q63 0 104 61
t41 151q0 101 -55 186.5t-133 85.5q-63 0 -104.5 -57.5t-41.5 -143.5q0 -105 55 -194t134 -89z" />
    <glyph glyph-name="uni0432" unicode="&#x432;" horiz-adv-x="514" 
d="M337 262q62 -9 103 -43.5t41 -85.5q0 -60 -49 -96.5t-127 -36.5h-267v11q31 1 45.5 18t14.5 60v329q0 41 -13.5 55.5t-46.5 15.5v11h245q64 0 115 -32t51 -92q0 -40 -31.5 -70t-80.5 -44zM220 488h-53v-219q46 -4 90 -4q57 0 88 29t31 82q0 57 -36 84.5t-120 27.5z
M282 12q52 0 88.5 34.5t36.5 86.5q0 51 -38 85.5t-105 34.5h-97v-233q42 -8 115 -8z" />
    <glyph glyph-name="uni0433" unicode="&#x433;" horiz-adv-x="444" 
d="M396 519l36 -186h-13q-18 83 -52.5 119t-116.5 36h-81l-2 -395q0 -49 12.5 -64.5t47.5 -16.5v-12h-189v11q31 1 45.5 18.5t14.5 63.5v326q0 39 -14.5 54t-45.5 16v11h220q103 0 138 19z" />
    <glyph glyph-name="uni0434" unicode="&#x434;" horiz-adv-x="567" 
d="M-3 -155v167h63q55 50 98 138t43 196q0 85 -16 114t-64 29v11h393v-11q-31 -1 -46 -21t-15 -72v-291q0 -53 22.5 -73t68.5 -21v-166h-9q-2 155 -105 155h-300q-66 0 -94 -37.5t-29 -117.5h-10zM118 13h215q25 0 38 12.5t13 44.5v368q0 50 -47 50h-73q-10 0 -18 -1.5
t-13.5 -5t-9 -7.5t-6 -12t-3.5 -14.5t-1 -19v-22.5t0.5 -27.5t0.5 -30.5q0 -141 -96 -335z" />
    <glyph glyph-name="uni0435" unicode="&#x435;" horiz-adv-x="476" 
d="M294 39q50 0 92.5 27t64.5 76v-28q-22 -57 -74.5 -92t-114.5 -35q-99 0 -164 78t-65 188t63 185t163 75q75 0 130 -48t65 -121l-357 -71q5 -102 57.5 -168t139.5 -66zM240 500q-63 0 -103.5 -61t-40.5 -142v-12l235 52q22 5 31.5 13.5t9.5 25.5q0 47 -38.5 85.5
t-93.5 38.5z" />
    <glyph glyph-name="uni0436" unicode="&#x436;" horiz-adv-x="758" 
d="M678 65q33 -52 85 -55v-10h-87q-25 0 -42 12.5t-37 45.5l-122 197q-28 -17 -61 -23v-152q0 -67 58 -69v-11h-185v11q57 2 57 69v153q-33 4 -61 23l-122 -198q-20 -33 -37 -45.5t-42 -12.5h-87v10q53 3 85 55l137 217l52 -16q-40 32 -73 91q-28 53 -43.5 72.5t-29.5 19.5
q-10 0 -23.5 -6t-24.5 -6q-17 0 -29 11.5t-12 27.5t12.5 26.5t34.5 10.5q39 0 65.5 -33t62.5 -109q53 -114 135 -127v179q0 33 -16 49t-41 17v11h185v-11q-58 -2 -58 -66v-179q81 13 136 127q19 39 30 59.5t27 42.5t32.5 31t37.5 9q22 0 35 -10.5t13 -26.5t-12.5 -27.5
t-29.5 -11.5q-11 0 -24.5 6t-23.5 6q-14 0 -29 -19t-44 -73q-33 -61 -72 -91l51 16z" />
    <glyph glyph-name="uni0437" unicode="&#x437;" horiz-adv-x="438" 
d="M225 265q82 2 136 -33.5t54 -92.5q0 -51 -34 -87t-82.5 -51t-106.5 -14q-92 1 -135 38t-43 83q0 29 16 48t35 19q40 0 40 -40q0 -13 -11.5 -32t-11.5 -33q0 -71 110 -71q65 0 104.5 35.5t39.5 93.5q0 60 -34.5 92t-97.5 32q-37 0 -74 -10l-3 8q28 8 37 11t34.5 11
t35 13.5t29 15t28 19t19 22.5t14.5 28.5t4 33.5q0 41 -26 68.5t-79 27.5q-59 0 -103 -43t-63 -130h-10l30 186q21 -14 44 -14t57.5 7t60.5 7q67 0 112 -28.5t45 -83.5q0 -48 -46.5 -82t-124.5 -52v-2z" />
    <glyph glyph-name="uni0438" unicode="&#x438;" horiz-adv-x="578" 
d="M541 489q-58 -2 -58 -66v-343q0 -67 58 -69v-11h-185v11q57 2 57 69v326l-248 -332q3 -61 58 -63v-11h-185v11q57 2 57 69v343q0 33 -16 49t-41 17v11h185v-11q-58 -2 -58 -66v-327l248 333q-3 58 -57 60v11h185v-11z" />
    <glyph glyph-name="uni0439" unicode="&#x439;" horiz-adv-x="578" 
d="M290 585q-72 0 -114 26.5t-42 63.5q0 25 13.5 35.5t28.5 10.5q13 0 23.5 -8t10.5 -24q0 -12 -8 -25t-8 -20q0 -20 25.5 -34t70.5 -14q94 0 94 48q0 7 -7.5 20t-7.5 25q0 16 10.5 24t23.5 8q14 0 27.5 -10.5t13.5 -35.5q0 -37 -42 -63.5t-112 -26.5zM541 489
q-58 -2 -58 -66v-343q0 -67 58 -69v-11h-185v11q57 2 57 69v326l-248 -332q3 -61 58 -63v-11h-185v11q57 2 57 69v343q0 33 -16 49t-41 17v11h185v-11q-58 -2 -58 -66v-327l248 333q-3 58 -57 60v11h185v-11z" />
    <glyph glyph-name="uni043A" unicode="&#x43a;" horiz-adv-x="515" 
d="M435 65q33 -52 85 -55v-10h-86q-26 0 -43 12.5t-37 45.5l-122 197q-31 -24 -67 -27v-148q0 -67 58 -69v-11h-185v11q57 2 57 69v343q0 33 -16 49t-41 17v11h185v-11q-58 -2 -58 -66v-184q38 4 70.5 34t56 69.5t47.5 78.5t56.5 65.5t70.5 26.5q22 0 35 -11.5t13 -27.5
t-12 -27.5t-29 -11.5q-11 0 -25.5 6.5t-26.5 6.5q-31 0 -58.5 -30.5t-59 -79t-57.5 -72.5l52 16z" />
    <glyph glyph-name="uni043B" unicode="&#x43b;" horiz-adv-x="535" 
d="M497 489q-58 -2 -58 -70v-336q0 -70 58 -72v-11h-185v11q57 4 57 72v340q0 33 -16 49t-41 16h-67q-14 0 -22.5 -2.5t-13.5 -9t-6.5 -14t-1 -23t1.5 -30t2.5 -40t1.5 -49.5q0 -333 -142 -333q-32 0 -50 13.5t-18 35.5q0 20 15.5 34t34.5 14q16 0 35.5 -13.5t33.5 -13.5
q35 0 57 72t22 188q0 104 -17.5 138.5t-71.5 34.5v10h391v-11z" />
    <glyph glyph-name="uni043C" unicode="&#x43c;" horiz-adv-x="633" 
d="M552 73q5 -61 53 -62v-11h-177v11q54 1 51 59l-25 373q-70 -217 -109 -358q-13 -53 -10 -72q-12 -3 -20.5 -6.5t-23 -12t-21.5 -12.5l-135 461l-30 -356q-3 -43 14 -58.5t54 -17.5v-11h-165v11q75 2 82 75l30 328q7 73 -65 75v11h138l129 -448l103 340q22 73 21 108h135
v-11q-27 -1 -43 -18.5t-14 -41.5q8 -122 28 -356z" />
    <glyph glyph-name="uni043D" unicode="&#x43d;" horiz-adv-x="577" 
d="M540 489q-58 -2 -58 -66v-343q0 -67 58 -69v-11h-185v11q57 2 57 69v170h-247v-170q0 -67 58 -69v-11h-185v11q57 2 57 69v343q0 33 -16 49t-41 17v11h185v-11q-58 -2 -58 -66v-160h247v160q0 33 -16 49t-41 17v11h185v-11z" />
    <glyph glyph-name="uni043E" unicode="&#x43e;" horiz-adv-x="542" 
d="M272 -13q-100 0 -169.5 77t-69.5 186q0 108 70 185.5t169 77.5q98 0 167.5 -77.5t69.5 -185.5q0 -109 -69.5 -186t-167.5 -77zM293 1q63 0 104 62t41 152q0 104 -55 194t-134 90q-63 0 -104 -61.5t-41 -151.5q0 -105 55 -195t134 -90z" />
    <glyph glyph-name="uni043F" unicode="&#x43f;" horiz-adv-x="578" 
d="M540 489q-58 -2 -58 -66v-344q0 -34 16.5 -50.5t41.5 -17.5v-11h-185v11q57 4 57 68v344q0 33 -16 48.5t-41 15.5h-132q-26 0 -42 -15.5t-16 -48.5v-344q0 -34 16.5 -50.5t41.5 -17.5v-11h-185v11q25 2 41 19t16 49v344q0 64 -57 66v11h502v-11z" />
    <glyph glyph-name="uni0440" unicode="&#x440;" horiz-adv-x="564" 
d="M308 513q107 0 165.5 -77t58.5 -192q0 -103 -64.5 -180t-160.5 -77q-73 0 -149 69v-202q0 -34 16.5 -48t49.5 -15v-11h-190v11q55 2 55 63v563q0 56 -61 48v13l137 36l-14 -121q20 58 64.5 89t92.5 31zM301 0q76 0 116.5 61.5t40.5 165.5q0 58 -15 114t-54.5 100.5
t-96.5 44.5q-42 0 -79.5 -26.5t-54.5 -75.5v-249q16 -62 57.5 -98.5t85.5 -36.5z" />
    <glyph glyph-name="uni0441" unicode="&#x441;" horiz-adv-x="474" 
d="M258 -13q-99 0 -162 79t-63 190q0 105 68 181t165 76q74 0 124 -44t50 -98q0 -29 -11.5 -45.5t-30.5 -16.5q-16 0 -27 10.5t-11 30.5q0 13 10 30.5t9 34.5q-2 32 -30 59t-91 27q-68 0 -113 -56.5t-45 -140.5q0 -127 55 -195t144 -68q37 0 78.5 24.5t68.5 84.5v-20
q-20 -61 -72 -102t-116 -41z" />
    <glyph glyph-name="uni0442" unicode="&#x442;" horiz-adv-x="514" 
d="M464 517l37 -184h-12q-22 84 -55 119.5t-114 35.5h-28v-405q0 -70 58 -72v-11h-186v11q58 4 58 72v405h-28q-81 0 -114.5 -35.5t-54.5 -119.5h-12l37 184q45 -17 137 -17h140q92 0 137 17z" />
    <glyph glyph-name="uni0443" unicode="&#x443;" horiz-adv-x="497" 
d="M350 500h160v-11q-17 -1 -29.5 -6t-30.5 -26.5t-33 -61.5q-42 -110 -126 -371q-48 -149 -71 -189q-36 -66 -93 -66q-48 0 -76.5 30t-29.5 70q0 28 13.5 48t35.5 20q38 0 38 -34q0 -15 -14 -30t-14 -26q0 -22 14 -39t46 -17q30 0 47 18.5t33 52.5q37 73 19 125l-141 380
q-25 69 -46 95t-44 27v11h187v-11q-26 -1 -36 -11t-10 -32q0 -25 28 -101q3 -8 50 -132.5t58 -164.5q80 242 90 270q32 90 32 116q0 30 -13 42.5t-44 12.5v11z" />
    <glyph glyph-name="uni0444" unicode="&#x444;" horiz-adv-x="844" 
d="M598 513q100 0 157 -77.5t57 -191.5q0 -102 -63 -179.5t-152 -77.5q-68 0 -141 68v-189q0 -73 59 -75v-11h-189v11q26 1 43.5 19.5t17.5 55.5v218q-22 -48 -60.5 -72.5t-80.5 -24.5q-99 0 -156 78t-57 192q0 102 62.5 179t151.5 77q68 0 140 -67v216q0 34 -17.5 46
t-43.5 5v13l130 36v-350q21 50 60 75.5t82 25.5zM263 15q39 0 73 24.5t51 70.5v264q-16 58 -53.5 92t-79.5 34q-69 0 -108 -62t-39 -165q0 -58 14.5 -114t51.5 -100t90 -44zM591 0q69 0 108 62t39 165q0 57 -14.5 113.5t-52 101t-89.5 44.5q-40 0 -74.5 -25.5t-51.5 -73.5
v-256q16 -61 54 -96t81 -35z" />
    <glyph glyph-name="uni0445" unicode="&#x445;" horiz-adv-x="503" 
d="M491 489q-72 -1 -152 -118l-65 -95l89 -141q37 -58 66 -90t58 -34v-11h-190v11q22 0 31 6.5t6.5 21t-10.5 29.5t-24 41l-74 119l-64 -90q-17 -24 -27 -45.5t-12 -40t10.5 -30t39.5 -11.5v-11h-175v11q37 2 69.5 31.5t67.5 79.5l84 118l-89 143q-64 101 -119 106v11h194
v-11q-21 -1 -28 -12.5t0.5 -35.5t30.5 -60l59 -94l66 96q30 44 25 74.5t-40 31.5v11h173v-11z" />
    <glyph glyph-name="uni0446" unicode="&#x446;" horiz-adv-x="578" 
d="M540 11h24v-166h-10q0 88 -26.5 121.5t-116.5 33.5h-373v11q57 2 57 67v343q0 33 -16 50t-41 18v11h185v-11q-25 -1 -41.5 -17.5t-16.5 -50.5v-344q0 -33 16 -48.5t42 -15.5h132q25 0 41 16t16 49v343q0 64 -57 68v11h185v-11q-25 -1 -41.5 -17.5t-16.5 -50.5v-344
q0 -64 58 -66z" />
    <glyph glyph-name="uni0447" unicode="&#x447;" horiz-adv-x="562" 
d="M524 489q-57 -2 -57 -66v-343q0 -67 57 -69v-11h-185v11q58 2 58 69v143q-70 -49 -143 -49q-78 0 -125.5 50t-47.5 143v54q0 65 -63 68v11h192v-11q-60 -4 -60 -68v-58q0 -81 43.5 -121.5t97.5 -40.5q60 0 106 35v187q0 64 -58 66v11h185v-11z" />
    <glyph glyph-name="uni0448" unicode="&#x448;" horiz-adv-x="771" 
d="M733 489q-58 -4 -58 -71v-336q0 -69 58 -71v-11h-695v12q25 0 41 16.5t16 49.5v340q0 67 -57 71v11h185v-11q-58 -4 -58 -71v-340q0 -65 58 -65h70q25 0 41.5 16t16.5 49v340q0 67 -58 71v11h185v-11q-58 -4 -58 -71v-340q0 -65 58 -65h70q25 0 41.5 16t16.5 49v340
q0 67 -58 71v11h185v-11z" />
    <glyph glyph-name="uni0449" unicode="&#x449;" horiz-adv-x="771" 
d="M733 11h16v-161h-12q0 88 -26 119t-116 31h-557v12q25 0 41 16.5t16 49.5v340q0 67 -57 71v11h185v-11q-58 -4 -58 -71v-340q0 -65 58 -65h70q25 0 41.5 16t16.5 49v340q0 67 -58 71v11h185v-11q-58 -4 -58 -71v-340q0 -65 58 -65h70q25 0 41.5 16t16.5 49v340
q0 67 -58 71v11h185v-11q-58 -4 -58 -71v-336q0 -69 58 -71z" />
    <glyph glyph-name="uni044A" unicode="&#x44a;" horiz-adv-x="624" 
d="M412 282q74 0 126.5 -38t52.5 -102q0 -66 -48.5 -104t-126.5 -38h-268v11q30 1 45.5 18.5t15.5 59.5v399h-22q-81 0 -114.5 -36t-52.5 -119h-12l35 186q36 -19 138 -19h159v-11q-33 -1 -47.5 -16t-14.5 -55v-136h134zM393 12q56 0 91.5 35.5t35.5 94.5q0 56 -38.5 92
t-106.5 36h-97v-250q42 -8 115 -8z" />
    <glyph glyph-name="uni044B" unicode="&#x44b;" horiz-adv-x="762" 
d="M301 282q75 0 127.5 -38t52.5 -102q0 -66 -48.5 -104t-127.5 -38h-267v11q30 1 45 18.5t15 59.5v329q0 40 -14.5 55t-45.5 16v11h191v-11q-33 -1 -47.5 -16t-14.5 -55v-136h134zM725 489q-58 -2 -58 -66v-343q0 -35 16.5 -51.5t41.5 -17.5v-11h-185v11q25 1 41.5 17.5
t16.5 51.5v343q0 33 -16.5 49t-41.5 17v11h185v-11zM282 12q56 0 92 35.5t36 94.5q0 56 -39 92t-107 36h-97v-250q42 -8 115 -8z" />
    <glyph glyph-name="uni044C" unicode="&#x44c;" horiz-adv-x="514" 
d="M301 282q75 0 127.5 -38t52.5 -102q0 -66 -48.5 -104t-127.5 -38h-267v11q30 1 45 18.5t15 59.5v329q0 40 -14.5 55t-45.5 16v11h191v-11q-33 -1 -47.5 -16t-14.5 -55v-136h134zM282 12q56 0 92 35.5t36 94.5q0 56 -39 92t-107 36h-97v-250q42 -8 115 -8z" />
    <glyph glyph-name="uni044D" unicode="&#x44d;" horiz-adv-x="486" 
d="M228 513q93 0 159.5 -77.5t66.5 -185.5q0 -107 -71 -185t-167 -78q-51 0 -90.5 15.5t-60 39.5t-30.5 47.5t-10 43.5q0 24 12.5 39t28.5 15q17 0 29 -10t12 -28q0 -11 -10 -30.5t-10 -33.5q0 -30 34.5 -58t98.5 -28q70 0 116.5 62.5t46.5 158.5q0 22 -1 33h-92
q-66 0 -87 -14.5t-23 -58.5h-10v159h10q1 -46 22 -59.5t88 -13.5h91q-7 105 -48.5 170t-112.5 65q-56 0 -103 -40.5t-64 -117.5h-12l28 166q14 -15 31 -17t33 3t43 11.5t52 6.5z" />
    <glyph glyph-name="uni044E" unicode="&#x44e;" horiz-adv-x="800" 
d="M530 513q98 0 167.5 -77.5t69.5 -185.5q0 -109 -69.5 -186t-167.5 -77q-100 0 -169.5 77t-69.5 186h-126v-170q0 -67 58 -69v-11h-185v11q57 2 57 69v343q0 33 -16 49t-41 17v11h185v-11q-58 -2 -58 -66v-160h126q5 104 74 177t165 73zM551 1q63 0 104 62t41 152
q0 104 -55 194t-134 90q-63 0 -104 -61.5t-41 -151.5q0 -105 55 -195t134 -90z" />
    <glyph glyph-name="uni044F" unicode="&#x44f;" horiz-adv-x="497" 
d="M459 489q-58 -2 -58 -67v-339q0 -68 58 -72v-11h-185v11q57 2 57 72v151h-60l-115 -169q-24 -34 -45.5 -49.5t-51.5 -15.5h-62v11q20 0 37.5 11.5t26.5 22t24 30.5l100 144l58 9v6h-39q-58 0 -105.5 36t-47.5 96q0 63 51 98.5t127 35.5h230v-11zM236 243q41 0 95 4v241
h-70q-69 0 -108 -32.5t-39 -89.5q0 -67 36 -95t86 -28z" />
    <glyph glyph-name="uni0451" unicode="&#x451;" horiz-adv-x="476" 
d="M157 613q-17 0 -28.5 11.5t-11.5 28.5t11.5 29t28.5 12q16 0 28 -12t12 -29t-11.5 -28.5t-28.5 -11.5zM336 613q-18 0 -29.5 11.5t-11.5 28.5t11.5 29t29.5 12q16 0 27.5 -12t11.5 -29t-11.5 -28.5t-27.5 -11.5zM294 39q50 0 92.5 27t64.5 76v-28q-22 -57 -74.5 -92
t-114.5 -35q-99 0 -164 78t-65 188t63 185t163 75q75 0 130 -48t65 -121l-357 -71q5 -102 57.5 -168t139.5 -66zM240 500q-63 0 -103.5 -61t-40.5 -142v-12l235 52q22 5 31.5 13.5t9.5 25.5q0 47 -38.5 85.5t-93.5 38.5z" />
    <glyph glyph-name="uni0454" unicode="&#x454;" horiz-adv-x="474" 
d="M299 41q37 0 78.5 24.5t68.5 84.5v-20q-20 -61 -72 -102t-116 -41q-99 0 -162 79t-63 190q0 105 68.5 181t165.5 76q74 0 124 -44t50 -98q0 -29 -11.5 -45.5t-30.5 -16.5q-15 0 -25 10.5t-10 30.5q0 12 9.5 30t8.5 35q-1 32 -30 59t-93 27q-69 0 -114 -56.5t-45 -140.5
q0 -22 1 -33h80q67 0 87 13t21 60h10v-159h-10q-2 45 -22 59t-86 14h-79q10 -105 63.5 -161t133.5 -56z" />
    <glyph glyph-name="uni0456" unicode="&#x456;" horiz-adv-x="253" 
d="M130 609q-19 0 -33 14t-14 33q0 20 14 34.5t33 14.5q20 0 34.5 -14.5t14.5 -34.5q0 -19 -14.5 -33t-34.5 -14zM38 0v11q26 1 43 19t17 56v317q0 44 -17.5 57.5t-42.5 8.5v13l129 36v-432q0 -73 59 -75v-11h-188z" />
    <glyph glyph-name="uni0457" unicode="&#x457;" horiz-adv-x="253" 
d="M39 613q-17 0 -29 11.5t-12 28.5t12 29t29 12q16 0 28 -12t12 -29t-11.5 -28.5t-28.5 -11.5zM218 613q-18 0 -29.5 11.5t-11.5 28.5t11.5 29t29.5 12q16 0 27.5 -12t11.5 -29t-11.5 -28.5t-27.5 -11.5zM38 0v11q26 1 43 19t17 56v317q0 44 -17.5 57.5t-42.5 8.5v13
l129 36v-432q0 -73 59 -75v-11h-188z" />
    <glyph glyph-name="uni0490" unicode="&#x490;" horiz-adv-x="527" 
d="M507 905h13l-44 -218q-44 22 -114 22h-128q-31 -1 -45 -16.5t-14 -57.5v-548q0 -40 17.5 -57.5t41.5 -18.5v-11h-191v11q59 2 59 77v547q0 41 -15 57t-44 17v11h269q50 0 83 10.5t54.5 36.5t33 56t24.5 82z" />
    <glyph glyph-name="uni0491" unicode="&#x491;" horiz-adv-x="444" 
d="M419 655h13l-36 -185q-39 18 -138 18h-89l-2 -395q0 -49 12.5 -64.5t47.5 -16.5v-12h-189v11q31 1 45.5 18.5t14.5 63.5v326q0 39 -14.5 54t-45.5 16v11h212q82 0 116.5 36t52.5 119z" />
    <glyph glyph-name="Wgrave" unicode="&#x1e80;" horiz-adv-x="971" 
d="M558 787h-12l-185 153h88zM791 720h182v-11q-32 -1 -53 -15.5t-38 -51.5q-43 -103 -95 -257q-8 -24 -21 -60.5t-19 -55t-15.5 -46t-14 -41.5t-10.5 -34t-9 -31t-6 -24t-4 -21.5t-1 -16.5q0 -28 5 -44q-32 -10 -62 -29l-146 446l-16 -43q-89 -255 -98 -301q-2 -11 -3 -20
q-3 -23 5 -50q-15 -4 -31 -11t-24.5 -12t-8.5 -6l-184 567q-35 107 -51 125q-24 27 -65 32v11h220v-11q-46 -6 -52 -40q-6 -26 17 -95l162 -487q11 54 99 300q4 11 22 65l-33 100q-3 9 -11.5 36t-11.5 34.5t-10.5 26.5t-13.5 25.5t-15.5 16.5t-21 13.5t-25.5 4.5v11h212v-11
q-45 -6 -51 -40q-7 -25 16 -95l163 -490q9 41 98 303q10 28 26 75.5t24 71t17 53t11.5 46.5t1.5 27q-3 25 -21 36.5t-40 12.5v11z" />
    <glyph glyph-name="wgrave" unicode="&#x1e81;" horiz-adv-x="769" 
d="M447 567h-12l-185 153h88zM620 500h162v-11q-30 -2 -52.5 -22t-41.5 -66q-75 -192 -84 -215q-40 -103 -43 -134q-1 -18 3 -32q-35 -10 -60 -31q-37 116 -117 326q-18 -45 -51 -129q-40 -103 -43 -134q-1 -18 3 -32q-33 -8 -60 -31q-47 139 -141 390q-23 61 -42.5 85
t-44.5 25v11h188v-11q-20 0 -31 -6.5t-13.5 -20.5t0.5 -29.5t10 -39.5q13 -43 35 -102t48 -126.5t36 -96.5q8 29 44 123q7 20 26 69.5t28 73.5l-16 44q-22 61 -41.5 85t-45.5 26v11h188v-11q-40 -1 -45.5 -27t11.5 -69q13 -43 34 -100.5t49 -129.5t36 -95q6 24 44 123
q9 24 28.5 75t32.5 85.5t17 51.5q12 47 -2.5 66t-48.5 21v10z" />
    <glyph glyph-name="Wacute" unicode="&#x1e82;" horiz-adv-x="971" 
d="M637 940l-184 -153h-13l109 153h88zM791 720h182v-11q-32 -1 -53 -15.5t-38 -51.5q-43 -103 -95 -257q-8 -24 -21 -60.5t-19 -55t-15.5 -46t-14 -41.5t-10.5 -34t-9 -31t-6 -24t-4 -21.5t-1 -16.5q0 -28 5 -44q-32 -10 -62 -29l-146 446l-16 -43q-89 -255 -98 -301
q-2 -11 -3 -20q-3 -23 5 -50q-15 -4 -31 -11t-24.5 -12t-8.5 -6l-184 567q-35 107 -51 125q-24 27 -65 32v11h220v-11q-46 -6 -52 -40q-6 -26 17 -95l162 -487q11 54 99 300q4 11 22 65l-33 100q-3 9 -11.5 36t-11.5 34.5t-10.5 26.5t-13.5 25.5t-15.5 16.5t-21 13.5
t-25.5 4.5v11h212v-11q-45 -6 -51 -40q-7 -25 16 -95l163 -490q9 41 98 303q10 28 26 75.5t24 71t17 53t11.5 46.5t1.5 27q-3 25 -21 36.5t-40 12.5v11z" />
    <glyph glyph-name="wacute" unicode="&#x1e83;" horiz-adv-x="769" 
d="M526 720l-184 -153h-13l109 153h88zM620 500h162v-11q-30 -2 -52.5 -22t-41.5 -66q-75 -192 -84 -215q-40 -103 -43 -134q-1 -18 3 -32q-35 -10 -60 -31q-37 116 -117 326q-18 -45 -51 -129q-40 -103 -43 -134q-1 -18 3 -32q-33 -8 -60 -31q-47 139 -141 390
q-23 61 -42.5 85t-44.5 25v11h188v-11q-20 0 -31 -6.5t-13.5 -20.5t0.5 -29.5t10 -39.5q13 -43 35 -102t48 -126.5t36 -96.5q8 29 44 123q7 20 26 69.5t28 73.5l-16 44q-22 61 -41.5 85t-45.5 26v11h188v-11q-40 -1 -45.5 -27t11.5 -69q13 -43 34 -100.5t49 -129.5t36 -95
q6 24 44 123q9 24 28.5 75t32.5 85.5t17 51.5q12 47 -2.5 66t-48.5 21v10z" />
    <glyph glyph-name="Wdieresis" unicode="&#x1e84;" horiz-adv-x="971" 
d="M410 833q-17 0 -28.5 11.5t-11.5 28.5t11.5 29t28.5 12q16 0 28 -12t12 -29t-11.5 -28.5t-28.5 -11.5zM589 833q-18 0 -29.5 11.5t-11.5 28.5t11.5 29t29.5 12q16 0 27.5 -12t11.5 -29t-11.5 -28.5t-27.5 -11.5zM791 720h182v-11q-32 -1 -53 -15.5t-38 -51.5
q-43 -103 -95 -257q-8 -24 -21 -60.5t-19 -55t-15.5 -46t-14 -41.5t-10.5 -34t-9 -31t-6 -24t-4 -21.5t-1 -16.5q0 -28 5 -44q-32 -10 -62 -29l-146 446l-16 -43q-89 -255 -98 -301q-2 -11 -3 -20q-3 -23 5 -50q-15 -4 -31 -11t-24.5 -12t-8.5 -6l-184 567q-35 107 -51 125
q-24 27 -65 32v11h220v-11q-46 -6 -52 -40q-6 -26 17 -95l162 -487q11 54 99 300q4 11 22 65l-33 100q-3 9 -11.5 36t-11.5 34.5t-10.5 26.5t-13.5 25.5t-15.5 16.5t-21 13.5t-25.5 4.5v11h212v-11q-45 -6 -51 -40q-7 -25 16 -95l163 -490q9 41 98 303q10 28 26 75.5t24 71
t17 53t11.5 46.5t1.5 27q-3 25 -21 36.5t-40 12.5v11z" />
    <glyph glyph-name="wdieresis" unicode="&#x1e85;" horiz-adv-x="769" 
d="M299 613q-17 0 -28.5 11.5t-11.5 28.5t11.5 29t28.5 12q16 0 28 -12t12 -29t-11.5 -28.5t-28.5 -11.5zM478 613q-18 0 -29.5 11.5t-11.5 28.5t11.5 29t29.5 12q16 0 27.5 -12t11.5 -29t-11.5 -28.5t-27.5 -11.5zM620 500h162v-11q-30 -2 -52.5 -22t-41.5 -66
q-75 -192 -84 -215q-40 -103 -43 -134q-1 -18 3 -32q-35 -10 -60 -31q-37 116 -117 326q-18 -45 -51 -129q-40 -103 -43 -134q-1 -18 3 -32q-33 -8 -60 -31q-47 139 -141 390q-23 61 -42.5 85t-44.5 25v11h188v-11q-20 0 -31 -6.5t-13.5 -20.5t0.5 -29.5t10 -39.5
q13 -43 35 -102t48 -126.5t36 -96.5q8 29 44 123q7 20 26 69.5t28 73.5l-16 44q-22 61 -41.5 85t-45.5 26v11h188v-11q-40 -1 -45.5 -27t11.5 -69q13 -43 34 -100.5t49 -129.5t36 -95q6 24 44 123q9 24 28.5 75t32.5 85.5t17 51.5q12 47 -2.5 66t-48.5 21v10z" />
    <glyph glyph-name="uni1E9E" unicode="&#x1e9e;" horiz-adv-x="657" 
d="M286 405q140 34 238.5 -24t98.5 -171q0 -73 -38.5 -126t-88.5 -75t-100 -22q-46 0 -81 14.5t-53 37t-26.5 44.5t-8.5 43q0 29 15.5 46.5t34.5 17.5q16 0 27 -10.5t11 -29.5q0 -11 -8.5 -31t-8.5 -42q0 -34 30 -56t68 -22q66 0 106.5 55.5t40.5 142.5q0 67 -36 118.5
t-101.5 70.5t-155.5 -10l-6 8l220 270q-89 66 -183 66q-110 0 -110 -134v-586h-128v11q59 2 59 77v438q0 59 16.5 101.5t44.5 64t58.5 31.5t64.5 10q32 0 86.5 -8t93.5 -8t70 17l7 -9l-260 -317z" />
    <glyph glyph-name="Ygrave" unicode="&#x1ef2;" horiz-adv-x="607" 
d="M368 787h-12l-185 153h88zM417 720h182v-11q-41 -5 -67 -35t-70 -113q-62 -120 -119 -235v-215q0 -55 12.5 -77t41.5 -23v-11h-181v10q54 2 54 96v213l-178 321q-36 65 -84 69v11h204v-11q-37 -4 -42.5 -24t18.5 -64l148 -278q21 42 59.5 121t48.5 98q16 32 23.5 56
t7 44.5t-15 32t-42.5 14.5v11z" />
    <glyph glyph-name="ygrave" unicode="&#x1ef3;" horiz-adv-x="497" 
d="M324 567h-12l-185 153h88zM350 500h160v-11q-17 -1 -29.5 -6t-30.5 -26.5t-33 -61.5q-42 -110 -126 -371q-48 -149 -71 -189q-36 -66 -93 -66q-48 0 -76.5 30t-29.5 70q0 28 13.5 48t35.5 20q38 0 38 -34q0 -15 -14 -30t-14 -26q0 -22 14 -39t46 -17q30 0 47 18.5
t33 52.5q37 73 19 125l-141 380q-25 69 -46 95t-44 27v11h187v-11q-26 -1 -36 -11t-10 -32q0 -25 28 -101q3 -8 50 -132.5t58 -164.5q80 242 90 270q32 90 32 116q0 30 -13 42.5t-44 12.5v11z" />
    <glyph glyph-name="endash" unicode="&#x2013;" horiz-adv-x="537" 
d="M38 290v22l167 -5h172l122 5v-22l-162 5h-184z" />
    <glyph glyph-name="emdash" unicode="&#x2014;" horiz-adv-x="912" 
d="M38 290v22l303 -5h312l222 5v-22l-294 5h-333z" />
    <glyph glyph-name="uni2015" unicode="&#x2015;" horiz-adv-x="912" 
d="M38 290v22l303 -5h312l222 5v-22l-294 5h-333z" />
    <glyph glyph-name="quoteleft" unicode="&#x2018;" horiz-adv-x="231" 
d="M199 733v-11q-53 -30 -83.5 -74t-31.5 -95h4q8 32 39 32q17 0 32 -15.5t15 -40.5q0 -24 -16 -39.5t-40 -15.5q-28 0 -43.5 19.5t-15.5 47.5q0 55 34 105.5t106 86.5z" />
    <glyph glyph-name="quoteright" unicode="&#x2019;" horiz-adv-x="231" 
d="M32 474v11q53 30 83.5 74t31.5 95h-4q-8 -32 -39 -32q-16 0 -31.5 15t-15.5 41q0 24 16 39.5t40 15.5q28 0 43.5 -19.5t15.5 -47.5q0 -55 -34 -105.5t-106 -86.5z" />
    <glyph glyph-name="quotesinglbase" unicode="&#x201a;" horiz-adv-x="231" 
d="M32 -161v11q53 30 83.5 74t31.5 95l-4 1q-8 -33 -39 -33q-16 0 -31.5 15.5t-15.5 40.5q0 24 16 39.5t40 15.5q28 0 43.5 -19.5t15.5 -47.5q0 -55 -34 -105.5t-106 -86.5z" />
    <glyph glyph-name="quotedblleft" unicode="&#x201c;" horiz-adv-x="396" 
d="M199 733v-11q-53 -30 -83.5 -74t-31.5 -95h4q8 32 39 32q17 0 32 -15.5t15 -40.5q0 -24 -16 -39.5t-40 -15.5q-28 0 -43.5 19.5t-15.5 47.5q0 55 34 105.5t106 86.5zM364 733v-11q-53 -30 -83.5 -74t-31.5 -95h4q8 32 39 32q16 0 31.5 -15.5t15.5 -40.5q0 -24 -16 -39.5
t-40 -15.5q-28 0 -43.5 19.5t-15.5 47.5q0 55 34 105.5t106 86.5z" />
    <glyph glyph-name="quotedblright" unicode="&#x201d;" horiz-adv-x="396" 
d="M32 474v11q53 30 83.5 74t31.5 95h-4q-8 -32 -39 -32q-16 0 -31.5 15t-15.5 41q0 24 16 39.5t40 15.5q28 0 43.5 -19.5t15.5 -47.5q0 -55 -34 -105.5t-106 -86.5zM197 474v11q53 30 83.5 74t31.5 95h-4q-8 -32 -39 -32q-17 0 -32 15t-15 41q0 24 16 39.5t40 15.5
q28 0 43.5 -19.5t15.5 -47.5q0 -55 -34 -105.5t-106 -86.5z" />
    <glyph glyph-name="quotedblbase" unicode="&#x201e;" horiz-adv-x="396" 
d="M32 -161v11q53 30 83.5 74t31.5 95l-4 1q-8 -33 -39 -33q-16 0 -31.5 15.5t-15.5 40.5q0 24 16 39.5t40 15.5q28 0 43.5 -19.5t15.5 -47.5q0 -55 -34 -105.5t-106 -86.5zM197 -161v11q53 30 83.5 74t31.5 95l-4 1q-8 -33 -39 -33q-17 0 -32 15.5t-15 40.5q0 24 16 39.5
t40 15.5q28 0 43.5 -19.5t15.5 -47.5q0 -55 -34 -105.5t-106 -86.5z" />
    <glyph glyph-name="dagger" unicode="&#x2020;" horiz-adv-x="581" 
d="M539 539h10v-170h-10q-1 31 -17.5 48.5t-61.5 17.5h-146v-573q0 -72 66 -72v-10h-178v10q65 0 65 73v572h-144q-46 0 -63 -17.5t-18 -48.5h-9v170h9q1 -31 18 -48t64 -17h143v157q0 46 -17 62.5t-48 16.5v10h178v-10q-31 0 -48.5 -16.5t-17.5 -62.5v-157h146
q45 0 61.5 17t17.5 48z" />
    <glyph glyph-name="daggerdbl" unicode="&#x2021;" horiz-adv-x="581" 
d="M460 435h-146v-293h146q45 0 61.5 17.5t17.5 48.5h10v-170h-10q-1 31 -17.5 48t-61.5 17h-146v-241q0 -72 66 -72v-10h-178v10q65 0 65 73v240h-144q-46 0 -63 -17t-18 -48h-9v170h9q1 -31 18 -48.5t64 -17.5h143v293h-144q-46 0 -63 -17.5t-18 -48.5h-9v170h9
q1 -31 18 -48t64 -17h143v157q0 46 -17 62.5t-48 16.5v10h178v-10q-31 0 -48.5 -16.5t-17.5 -62.5v-157h146q45 0 61.5 17t17.5 48h10v-170h-10q-1 31 -17.5 48.5t-61.5 17.5z" />
    <glyph glyph-name="bullet" unicode="&#x2022;" horiz-adv-x="335" 
d="M168 216q-34 0 -58.5 24t-24.5 59q0 34 24.5 58t58.5 24t58 -24t24 -58q0 -35 -24 -59t-58 -24z" />
    <glyph glyph-name="ellipsis" unicode="&#x2026;" horiz-adv-x="641" 
d="M100 -13q-22 0 -38 15.5t-16 38.5t16 38.5t38 15.5t37.5 -16t15.5 -38t-15.5 -38t-37.5 -16zM321 -13q-23 0 -38.5 15.5t-15.5 38.5t15.5 38.5t38.5 15.5q22 0 37.5 -16t15.5 -38t-15.5 -38t-37.5 -16zM542 -13q-22 0 -38 15.5t-16 38.5t16 38.5t38 15.5t37.5 -16
t15.5 -38t-15.5 -38t-37.5 -16z" />
    <glyph glyph-name="perthousand" unicode="&#x2030;" horiz-adv-x="1177" 
d="M191 342q-63 0 -109.5 56t-46.5 140t46.5 139.5t109.5 55.5t110 -56t47 -139q0 -84 -47 -140t-110 -56zM191 354q45 0 72.5 51.5t27.5 132.5t-27.5 132t-72.5 51t-72.5 -51.5t-27.5 -131.5t27.5 -132t72.5 -52zM150 0l133 202l196 311l129 207h23l-141 -215l-199 -314
l-118 -191h-23zM606 -13q-63 0 -109.5 56t-46.5 140t46.5 139.5t109.5 55.5t110 -56t47 -139q0 -84 -47 -140t-110 -56zM985 -13q-63 0 -109.5 56t-46.5 140t46.5 139.5t109.5 55.5t110 -56t47 -139q0 -84 -47 -140t-110 -56zM606 -1q45 0 72.5 51.5t27.5 132.5t-27.5 132
t-72.5 51t-72.5 -51.5t-27.5 -131.5t27.5 -132t72.5 -52zM985 -1q45 0 72.5 51.5t27.5 132.5t-27.5 132t-72.5 51t-72.5 -51.5t-27.5 -131.5t27.5 -132t72.5 -52z" />
    <glyph glyph-name="guilsinglleft" unicode="&#x2039;" horiz-adv-x="285" 
d="M257 450l-150 -208l150 -207h-17l-212 207l212 208h17z" />
    <glyph glyph-name="guilsinglright" unicode="&#x203a;" horiz-adv-x="285" 
d="M45 450l212 -208l-212 -207h-17l150 207l-150 208h17z" />
    <glyph glyph-name="fraction" unicode="&#x2044;" horiz-adv-x="482" 
d="M0 0l133 202l196 311l129 207h23l-141 -215l-199 -314l-118 -191h-23z" />
    <glyph glyph-name="Euro" unicode="&#x20ac;" horiz-adv-x="615" 
d="M574 211l9 -2q-21 -96 -85 -159t-151 -63q-128 0 -212.5 95t-96.5 239l-88 -4v21l87 -3q-1 9 -1 27q0 16 2 46l-88 -4v21l90 -3q18 133 102.5 222t195.5 89q32 0 63 -10.5t48 -20t38 -9t42 19.5l49 -267h-12q-72 275 -230 275q-92 0 -159.5 -81.5t-72.5 -219.5h186l117 5
l-9 -21l-148 5h-146v-6q0 -30 5 -70h144l117 5l-9 -21l-148 5h-102q9 -53 29.5 -99.5t53 -87t81 -64t107.5 -23.5q64 0 116 41.5t76 121.5z" />
    <glyph glyph-name="minus" unicode="&#x2212;" horiz-adv-x="462" 
d="M425 318v-22l-140 5h-144l-103 -5v22l136 -5h154z" />
    <glyph glyph-name="g_j" horiz-adv-x="816" 
d="M678 609q-19 0 -33.5 14t-14.5 33q0 20 14.5 34.5t33.5 14.5t33.5 -14.5t14.5 -34.5q0 -19 -14.5 -33t-33.5 -14zM470 557q22 0 40 -13.5t18 -32.5q0 -31 -31 -31q-14 0 -28 17t-28 17q-16 0 -26 -10.5t-10 -26.5q0 -20 23.5 -68.5t23.5 -90.5q0 -74 -54.5 -130.5
t-141.5 -56.5q-81 0 -133 46q-38 -36 -38 -75q0 -67 101 -67q21 0 90 4t95 4q58 0 101.5 -30t43.5 -90q0 -66 -58.5 -110t-199.5 -44q-112 0 -168.5 30t-56.5 83q0 36 21 62t51 38q-56 25 -56 91q0 67 66 112q-55 53 -55 136q0 76 52 134t144 58q85 0 141 -56q-4 11 -4 24
q0 36 23.5 56t53.5 20zM722 142q0 -68 23.5 -150t23.5 -107q0 -46 -29.5 -81t-75.5 -35q-54 0 -82 32.5t-28 75.5q0 22 10 37.5t28 15.5q30 0 30 -30q0 -8 -8.5 -22.5t-7.5 -28.5q0 -25 17.5 -44.5t48.5 -19.5q34 0 54 22t20 55q0 28 -33 88t-42 94q-18 62 -18 149v210
q0 43 -14.5 57.5t-46.5 6.5v15l130 36v-376zM272 144q38 0 64.5 24.5t35.5 53.5t9 58q0 86 -40 153t-103 67q-50 0 -79 -44t-29 -103q0 -83 39 -146t103 -63zM361 -24q-23 0 -89 -4t-93 -4q-31 0 -55 7q-45 -25 -45 -88q0 -53 53 -79.5t128 -26.5q96 0 152 28.5t56 89.5
q0 77 -107 77z" />
    <glyph glyph-name="AE.ss02" horiz-adv-x="889" 
d="M877 189h12l-39 -206q-57 17 -127 17h-343v11q24 1 41.5 22.5t17.5 63.5q0 25 -8 62l-20 93h-243q-59 -138 -59 -181q0 -30 16 -44.5t39 -15.5v-11h-182v11q67 2 96 73l114 266q68 159 88 212t23 81q-10 24 -52 26v11q10 0 19.5 1t17.5 4t14.5 5t13.5 7t11 7.5t10 8.5
l8.5 8.5t8 9t6.5 7.5q29 -12 90.5 -15t200.5 -3q92 0 151 28l-13 -187h-12q5 89 -32.5 117.5t-168.5 28.5h-185l62 -288h124q53 0 74 19t21 61h12l5 -172h-12q-3 48 -23 64t-76 16h-123l82 -379q68 -16 127 -16q99 0 144 33.5t69 143.5zM173 264h235l-83 387
q-10 -42 -117 -304q-5 -14 -17.5 -42.5t-17.5 -40.5z" />
    <glyph glyph-name="B.ss02" 
d="M370 377q81 -10 133.5 -60.5t52.5 -125.5q0 -88 -62.5 -139.5t-180.5 -51.5h-270v11q59 2 59 79v501q0 45 -13.5 62t-45.5 9v11l112 36q119 38 198.5 17t120 -71.5t40.5 -113.5q0 -56 -38.5 -101t-105.5 -63zM439 541q0 68 -41 111t-95.5 54.5t-106.5 -0.5l-21 -4v-316
q42 -6 104 -6q60 0 110 39.5t50 121.5zM301 12q75 0 126.5 52.5t51.5 126.5q0 80 -56 128.5t-144 48.5h-104v-346q77 -10 126 -10z" />
    <glyph glyph-name="C.ss02" horiz-adv-x="618" 
d="M343 -13q-140 0 -226.5 108t-86.5 264q0 154 85 264t211 110q43 0 82.5 -13t62 -27t43.5 -22.5t36 0t28 39.5h7l-50 -264h-13q21 124 -41.5 199.5t-154.5 75.5q-55 0 -99 -28.5t-70 -74.5t-39.5 -99.5t-13.5 -109.5q0 -62 14.5 -122.5t43.5 -115.5t81 -89t120 -34
q71 0 126 40.5t79 123.5l8 -3q-16 -88 -82 -155t-151 -67z" />
    <glyph glyph-name="Cacute.ss02" horiz-adv-x="618" 
d="M276 787h-13l109 153h88zM343 -13q-140 0 -226.5 108t-86.5 264q0 154 85 264t211 110q43 0 82.5 -13t62 -27t43.5 -22.5t36 0t28 39.5h7l-50 -264h-13q21 124 -41.5 199.5t-154.5 75.5q-55 0 -99 -28.5t-70 -74.5t-39.5 -99.5t-13.5 -109.5q0 -62 14.5 -122.5
t43.5 -115.5t81 -89t120 -34q71 0 126 40.5t79 123.5l8 -3q-16 -88 -82 -155t-151 -67z" />
    <glyph glyph-name="Ccaron.ss02" horiz-adv-x="618" 
d="M317 787l-108 153h12l123 -111l122 111h12l-107 -153h-54zM363 48q71 0 126 40.5t79 123.5l8 -3q-16 -88 -82 -155t-151 -67q-140 0 -226.5 108t-86.5 264q0 154 85 264t211 110q43 0 82.5 -13t62 -27t43.5 -22.5t36 0t28 39.5h7l-50 -264h-13q21 124 -41.5 199.5
t-154.5 75.5q-55 0 -99 -28.5t-70 -74.5t-39.5 -99.5t-13.5 -109.5q0 -62 14.5 -122.5t43.5 -115.5t81 -89t120 -34z" />
    <glyph glyph-name="Ccircumflex.ss02" horiz-adv-x="618" 
d="M344 898l-123 -111h-12l108 153h54l107 -153h-12zM363 48q71 0 126 40.5t79 123.5l8 -3q-16 -88 -82 -155t-151 -67q-140 0 -226.5 108t-86.5 264q0 154 85 264t211 110q43 0 82.5 -13t62 -27t43.5 -22.5t36 0t28 39.5h7l-50 -264h-13q21 124 -41.5 199.5t-154.5 75.5
q-55 0 -99 -28.5t-70 -74.5t-39.5 -99.5t-13.5 -109.5q0 -62 14.5 -122.5t43.5 -115.5t81 -89t120 -34z" />
    <glyph glyph-name="Cdotaccent.ss02" horiz-adv-x="618" 
d="M344 829q-19 0 -33.5 14t-14.5 33t14.5 34t33.5 15t33.5 -14.5t14.5 -34.5q0 -19 -14.5 -33t-33.5 -14zM343 -13q-140 0 -226.5 108t-86.5 264q0 154 85 264t211 110q43 0 82.5 -13t62 -27t43.5 -22.5t36 0t28 39.5h7l-50 -264h-13q21 124 -41.5 199.5t-154.5 75.5
q-55 0 -99 -28.5t-70 -74.5t-39.5 -99.5t-13.5 -109.5q0 -62 14.5 -122.5t43.5 -115.5t81 -89t120 -34q71 0 126 40.5t79 123.5l8 -3q-16 -88 -82 -155t-151 -67z" />
    <glyph glyph-name="D.ss02" horiz-adv-x="655" 
d="M43 0v11q59 2 59 81v460q0 78 -10 96q-13 23 -49 14v11l74 24q105 35 194 35q138 0 226 -98.5t88 -232.5q0 -114 -45.5 -203t-141.5 -143.5t-232 -54.5h-163zM175 13h22q159 0 254.5 98t95.5 277q0 169 -98 262.5t-252 56.5l-22 -4v-690z" />
    <glyph glyph-name="Eth.ss02" horiz-adv-x="655" 
d="M311 732q138 0 226 -98.5t88 -232.5q0 -114 -45.5 -203t-141.5 -143.5t-232 -54.5h-163v11q59 2 59 81v262h-7l-109 -2v14l109 -2h7v188q0 78 -10 96q-13 23 -49 14v11l74 24q105 35 194 35zM197 13q159 0 254.5 98t95.5 277q0 169 -98 262.5t-252 56.5l-22 -4v-339h43
l110 2v-14l-110 2h-43v-341h22z" />
    <glyph glyph-name="Dcaron.ss02" horiz-adv-x="655" 
d="M314 787l-108 153h12l123 -111l122 111h12l-107 -153h-54zM311 732q138 0 226 -98.5t88 -232.5q0 -114 -45.5 -203t-141.5 -143.5t-232 -54.5h-163v11q59 2 59 81v460q0 78 -10 96q-13 23 -49 14v11l74 24q105 35 194 35zM197 13q159 0 254.5 98t95.5 277
q0 169 -98 262.5t-252 56.5l-22 -4v-690h22z" />
    <glyph glyph-name="Dcroat.ss02" horiz-adv-x="655" 
d="M311 732q138 0 226 -98.5t88 -232.5q0 -114 -45.5 -203t-141.5 -143.5t-232 -54.5h-163v11q59 2 59 81v262h-7l-109 -2v14l109 -2h7v188q0 78 -10 96q-13 23 -49 14v11l74 24q105 35 194 35zM197 13q159 0 254.5 98t95.5 277q0 169 -98 262.5t-252 56.5l-22 -4v-339h43
l110 2v-14l-110 2h-43v-341h22z" />
    <glyph glyph-name="E.ss02" 
d="M559 187h12l-61 -202q-45 15 -122 15h-345v11q59 2 59 75v514q0 44 -16.5 56t-42.5 6v11q71 23 112 62q37 -10 89 -12.5t173 -2.5q90 0 139 29l-34 -194h-12q6 48 2.5 81.5t-39 52t-110.5 18.5h-188v-288h135q53 0 74 19t23 61h11v-172h-11q-2 48 -22 64t-75 16h-135
v-374q49 -21 131 -21q109 0 163.5 35t89.5 140z" />
    <glyph glyph-name="Eacute.ss02" 
d="M450 940l-184 -153h-13l109 153h88zM559 187h12l-61 -202q-45 15 -122 15h-345v11q59 2 59 75v514q0 44 -16.5 56t-42.5 6v11q71 23 112 62q37 -10 89 -12.5t173 -2.5q90 0 139 29l-34 -194h-12q6 48 2.5 81.5t-39 52t-110.5 18.5h-188v-288h135q53 0 74 19t23 61h11
v-172h-11q-2 48 -22 64t-75 16h-135v-374q49 -21 131 -21q109 0 163.5 35t89.5 140z" />
    <glyph glyph-name="Ebreve.ss02" 
d="M334 787q-57 0 -92 44t-35 109h10q1 -51 32.5 -83t84.5 -32q54 0 85 32t32 83h11q0 -65 -35.5 -109t-92.5 -44zM559 187h12l-61 -202q-45 15 -122 15h-345v11q59 2 59 75v514q0 44 -16.5 56t-42.5 6v11q71 23 112 62q37 -10 89 -12.5t173 -2.5q90 0 139 29l-34 -194h-12
q6 48 2.5 81.5t-39 52t-110.5 18.5h-188v-288h135q53 0 74 19t23 61h11v-172h-11q-2 48 -22 64t-75 16h-135v-374q49 -21 131 -21q109 0 163.5 35t89.5 140z" />
    <glyph glyph-name="Ecaron.ss02" 
d="M307 787l-108 153h12l123 -111l122 111h12l-107 -153h-54zM559 187h12l-61 -202q-45 15 -122 15h-345v11q59 2 59 75v514q0 44 -16.5 56t-42.5 6v11q71 23 112 62q37 -10 89 -12.5t173 -2.5q90 0 139 29l-34 -194h-12q6 48 2.5 81.5t-39 52t-110.5 18.5h-188v-288h135
q53 0 74 19t23 61h11v-172h-11q-2 48 -22 64t-75 16h-135v-374q49 -21 131 -21q109 0 163.5 35t89.5 140z" />
    <glyph glyph-name="Ecircumflex.ss02" 
d="M334 898l-123 -111h-12l108 153h54l107 -153h-12zM559 187h12l-61 -202q-45 15 -122 15h-345v11q59 2 59 75v514q0 44 -16.5 56t-42.5 6v11q71 23 112 62q37 -10 89 -12.5t173 -2.5q90 0 139 29l-34 -194h-12q6 48 2.5 81.5t-39 52t-110.5 18.5h-188v-288h135q53 0 74 19
t23 61h11v-172h-11q-2 48 -22 64t-75 16h-135v-374q49 -21 131 -21q109 0 163.5 35t89.5 140z" />
    <glyph glyph-name="Edieresis.ss02" 
d="M245 833q-17 0 -28.5 11.5t-11.5 28.5t11.5 29t28.5 12q16 0 28 -12t12 -29t-11.5 -28.5t-28.5 -11.5zM424 833q-18 0 -29.5 11.5t-11.5 28.5t11.5 29t29.5 12q16 0 27.5 -12t11.5 -29t-11.5 -28.5t-27.5 -11.5zM559 187h12l-61 -202q-45 15 -122 15h-345v11q59 2 59 75
v514q0 44 -16.5 56t-42.5 6v11q71 23 112 62q37 -10 89 -12.5t173 -2.5q90 0 139 29l-34 -194h-12q6 48 2.5 81.5t-39 52t-110.5 18.5h-188v-288h135q53 0 74 19t23 61h11v-172h-11q-2 48 -22 64t-75 16h-135v-374q49 -21 131 -21q109 0 163.5 35t89.5 140z" />
    <glyph glyph-name="Edotaccent.ss02" 
d="M334 829q-19 0 -33.5 14t-14.5 33t14.5 34t33.5 15t33.5 -14.5t14.5 -34.5q0 -19 -14.5 -33t-33.5 -14zM559 187h12l-61 -202q-45 15 -122 15h-345v11q59 2 59 75v514q0 44 -16.5 56t-42.5 6v11q71 23 112 62q37 -10 89 -12.5t173 -2.5q90 0 139 29l-34 -194h-12
q6 48 2.5 81.5t-39 52t-110.5 18.5h-188v-288h135q53 0 74 19t23 61h11v-172h-11q-2 48 -22 64t-75 16h-135v-374q49 -21 131 -21q109 0 163.5 35t89.5 140z" />
    <glyph glyph-name="Egrave.ss02" 
d="M393 787h-12l-185 153h88zM559 187h12l-61 -202q-45 15 -122 15h-345v11q59 2 59 75v514q0 44 -16.5 56t-42.5 6v11q71 23 112 62q37 -10 89 -12.5t173 -2.5q90 0 139 29l-34 -194h-12q6 48 2.5 81.5t-39 52t-110.5 18.5h-188v-288h135q53 0 74 19t23 61h11v-172h-11
q-2 48 -22 64t-75 16h-135v-374q49 -21 131 -21q109 0 163.5 35t89.5 140z" />
    <glyph glyph-name="Emacron.ss02" 
d="M473 832v-12h-279v12h279zM559 187h12l-61 -202q-45 15 -122 15h-345v11q59 2 59 75v514q0 44 -16.5 56t-42.5 6v11q71 23 112 62q37 -10 89 -12.5t173 -2.5q90 0 139 29l-34 -194h-12q6 48 2.5 81.5t-39 52t-110.5 18.5h-188v-288h135q53 0 74 19t23 61h11v-172h-11
q-2 48 -22 64t-75 16h-135v-374q49 -21 131 -21q109 0 163.5 35t89.5 140z" />
    <glyph glyph-name="Eogonek.ss02" 
d="M400 0q-66 -63 -66 -123q0 -26 16 -47.5t50 -21.5q48 0 72 42v-12q-8 -26 -34.5 -47.5t-61.5 -21.5q-34 0 -59 24.5t-25 64.5q0 77 93 142h-342v11q59 2 59 75v514q0 44 -16.5 56t-42.5 6v11q71 23 112 62q37 -10 89 -12.5t173 -2.5q90 0 139 29l-34 -194h-12
q6 48 2.5 81.5t-39 52t-110.5 18.5h-188v-288h135q53 0 74 19t23 61h11v-172h-11q-2 48 -22 64t-75 16h-135v-374q49 -21 131 -21q109 0 163.5 35t89.5 140h12l-61 -202q-40 14 -110 15z" />
    <glyph glyph-name="F.ss02" horiz-adv-x="543" 
d="M384 720q102 0 152 28l-34 -193h-12q5 46 2.5 79.5t-37 53t-107.5 19.5h-173v-288h122q53 0 74.5 19t22.5 61h12v-172h-12q-3 80 -97 80h-122v-318q0 -37 14 -57t37 -21v-11h-183v11q59 2 59 78v512q0 43 -16 54.5t-43 6.5v11q68 22 112 62q13 -4 32 -7t34 -4.5t43 -2.5
t39.5 -1h43.5h37z" />
    <glyph glyph-name="G.ss02" horiz-adv-x="643" 
d="M294 -13q-85 0 -146.5 52.5t-89.5 132.5t-28 175q0 158 92.5 272t220.5 114q42 0 80.5 -13t59.5 -27t40 -22.5t31.5 0t24.5 39.5h8l-49 -262h-14q20 112 -36.5 192.5t-143.5 80.5q-106 0 -174.5 -99t-68.5 -239q0 -166 69 -267.5t172 -101.5q66 0 111 45t45 117v73
q0 45 -16.5 60t-57.5 15v11h202v-11q-32 0 -46 -15t-14 -52v-270h-12q-5 29 -20.5 47.5t-38.5 18.5q-17 0 -41.5 -16.5t-64.5 -33t-95 -16.5z" />
    <glyph glyph-name="Gbreve.ss02" horiz-adv-x="643" 
d="M327 787q-57 0 -92 44t-35 109h10q1 -51 32.5 -83t84.5 -32q54 0 85 32t32 83h11q0 -65 -35.5 -109t-92.5 -44zM294 -13q-85 0 -146.5 52.5t-89.5 132.5t-28 175q0 158 92.5 272t220.5 114q42 0 80.5 -13t59.5 -27t40 -22.5t31.5 0t24.5 39.5h8l-49 -262h-14
q20 112 -36.5 192.5t-143.5 80.5q-106 0 -174.5 -99t-68.5 -239q0 -166 69 -267.5t172 -101.5q66 0 111 45t45 117v73q0 45 -16.5 60t-57.5 15v11h202v-11q-32 0 -46 -15t-14 -52v-270h-12q-5 29 -20.5 47.5t-38.5 18.5q-17 0 -41.5 -16.5t-64.5 -33t-95 -16.5z" />
    <glyph glyph-name="Gcircumflex.ss02" horiz-adv-x="643" 
d="M327 898l-123 -111h-12l108 153h54l107 -153h-12zM424 335h202v-11q-32 0 -46 -15t-14 -52v-270h-12q-5 29 -20.5 47.5t-38.5 18.5q-17 0 -41.5 -16.5t-64.5 -33t-95 -16.5q-85 0 -146.5 52.5t-89.5 132.5t-28 175q0 158 92.5 272t220.5 114q42 0 80.5 -13t59.5 -27
t40 -22.5t31.5 0t24.5 39.5h8l-49 -262h-14q20 112 -36.5 192.5t-143.5 80.5q-106 0 -174.5 -99t-68.5 -239q0 -166 69 -267.5t172 -101.5q66 0 111 45t45 117v73q0 45 -16.5 60t-57.5 15v11z" />
    <glyph glyph-name="uni0122.ss02" horiz-adv-x="643" 
d="M294 -13q-85 0 -146.5 52.5t-89.5 132.5t-28 175q0 158 92.5 272t220.5 114q42 0 80.5 -13t59.5 -27t40 -22.5t31.5 0t24.5 39.5h8l-49 -262h-14q20 112 -36.5 192.5t-143.5 80.5q-106 0 -174.5 -99t-68.5 -239q0 -166 69 -267.5t172 -101.5q66 0 111 45t45 117v73
q0 45 -16.5 60t-57.5 15v11h202v-11q-32 0 -46 -15t-14 -52v-270h-12q-5 29 -20.5 47.5t-38.5 18.5q-17 0 -41.5 -16.5t-64.5 -33t-95 -16.5zM327 -54q26 0 42 -19t16 -48q0 -53 -34 -102.5t-105 -82.5v12q53 28 83.5 70.5t31.5 92.5q-1 5 -5 1q-9 -30 -38 -30q-17 0 -32 14
t-15 39q0 24 16 38.5t40 14.5z" />
    <glyph glyph-name="K.ss02" horiz-adv-x="620" 
d="M441 198q93 -135 125 -171q35 -39 68 -57v-10l-46 18q-112 45 -209 184l-130 191l-74 -92v-174q0 -40 17.5 -57.5t41.5 -18.5v-11h-191v11q59 2 59 77v547q0 41 -15 57t-44 17v11h191v-11q-31 -1 -45 -16.5t-14 -57.5v-355l254 324q39 53 31.5 78t-46.5 27v11h202v-11
q-43 -1 -81.5 -28.5t-88.5 -86.5l-188 -230l60 14z" />
    <glyph glyph-name="uni0136.ss02" horiz-adv-x="620" 
d="M441 198q93 -135 125 -171q35 -39 68 -57v-10l-46 18q-112 45 -209 184l-130 191l-74 -92v-174q0 -40 17.5 -57.5t41.5 -18.5v-11h-191v11q59 2 59 77v547q0 41 -15 57t-44 17v11h191v-11q-31 -1 -45 -16.5t-14 -57.5v-355l254 324q39 53 31.5 78t-46.5 27v11h202v-11
q-43 -1 -81.5 -28.5t-88.5 -86.5l-188 -230l60 14zM322 -54q26 0 42 -19t16 -48q0 -53 -34 -102.5t-105 -82.5v12q53 28 83.5 70.5t31.5 92.5q-1 5 -5 1q-9 -30 -38 -30q-17 0 -32 14t-15 39q0 24 16 38.5t40 14.5z" />
    <glyph glyph-name="M.ss02" horiz-adv-x="820" 
d="M721 91q7 -77 61 -80v-11h-191v11q28 1 42.5 20.5t11.5 55.5l-47 558q-146 -480 -148 -487q-31 -108 -24 -144q-41 -15 -63 -36l-205 659l-44 -534q-4 -48 20 -69.5t63 -22.5v-11h-189v11q78 2 86 91l44 489q5 47 -15.5 64t-59.5 9v11q79 18 145 61l203 -651l136 446
q39 125 23 165l142 38v-11q-25 -9 -34 -29t-6 -69q4 -81 49 -534z" />
    <glyph glyph-name="N.ss02" horiz-adv-x="672" 
d="M471 720h184v-11q-41 -1 -59.5 -24t-19.5 -83l-5 -484q0 -56 27 -98q-31 -11 -61 -41l-401 655l4 -512q1 -107 90 -112v-10h-202v10q91 5 92 112l4 462q1 55 -21.5 72t-68.5 8v11q82 24 126 63l397 -650l2 514q0 59 -22.5 82.5t-65.5 24.5v11z" />
    <glyph glyph-name="Nacute.ss02" horiz-adv-x="672" 
d="M457 940l-184 -153h-13l109 153h88zM471 720h184v-11q-41 -1 -59.5 -24t-19.5 -83l-5 -484q0 -56 27 -98q-31 -11 -61 -41l-401 655l4 -512q1 -107 90 -112v-10h-202v10q91 5 92 112l4 462q1 55 -21.5 72t-68.5 8v11q82 24 126 63l397 -650l2 514q0 59 -22.5 82.5
t-65.5 24.5v11z" />
    <glyph glyph-name="Ncaron.ss02" horiz-adv-x="672" 
d="M314 787l-108 153h12l123 -111l122 111h12l-107 -153h-54zM471 720h184v-11q-41 -1 -59.5 -24t-19.5 -83l-5 -484q0 -56 27 -98q-31 -11 -61 -41l-401 655l4 -512q1 -107 90 -112v-10h-202v10q91 5 92 112l4 462q1 55 -21.5 72t-68.5 8v11q82 24 126 63l397 -650l2 514
q0 59 -22.5 82.5t-65.5 24.5v11z" />
    <glyph glyph-name="uni0145.ss02" horiz-adv-x="672" 
d="M471 720h184v-11q-41 -1 -59.5 -24t-19.5 -83l-5 -484q0 -56 27 -98q-31 -11 -61 -41l-401 655l4 -512q1 -107 90 -112v-10h-202v10q91 5 92 112l4 462q1 55 -21.5 72t-68.5 8v11q82 24 126 63l397 -650l2 514q0 59 -22.5 82.5t-65.5 24.5v11zM342 -54q26 0 42 -19
t16 -48q0 -53 -34 -102.5t-105 -82.5v12q53 28 83.5 70.5t31.5 92.5q-1 5 -5 1q-9 -30 -38 -30q-17 0 -32 14t-15 39q0 24 16 38.5t40 14.5z" />
    <glyph glyph-name="Eng.ss02" horiz-adv-x="672" 
d="M484 -231q-48 0 -79 34t-31 76q0 23 10.5 39t28.5 16q31 0 31 -32q0 -9 -7.5 -24t-7.5 -29q0 -25 16.5 -44t47.5 -19q35 0 54 26t21 55q1 36 -10.5 66.5t-43.5 82.5l-378 617l4 -511q1 -107 90 -112v-10h-202v10q91 5 92 112l4 463q0 53 -21.5 70.5t-68.5 8.5v11
q84 23 126 63l397 -650l2 514q0 59 -22.5 82.5t-65.5 24.5v11h184v-11q-42 -1 -60.5 -24t-19.5 -83l-4 -484q0 -42 20 -99.5t20 -101.5q0 -57 -37 -102.5t-90 -45.5z" />
    <glyph glyph-name="Ntilde.ss02" horiz-adv-x="672" 
d="M261 889q-28 0 -45 -34t-17 -68h-11q0 27 5.5 55.5t26.5 57t54 28.5q24 0 49.5 -25.5t50.5 -51t47 -25.5q28 0 45 34.5t17 67.5h11q0 -18 -3.5 -39.5t-12 -45.5t-26 -40t-40.5 -16q-26 0 -53 25.5t-52 51t-46 25.5zM471 720h184v-11q-41 -1 -59.5 -24t-19.5 -83l-5 -484
q0 -56 27 -98q-31 -11 -61 -41l-401 655l4 -512q1 -107 90 -112v-10h-202v10q91 5 92 112l4 462q1 55 -21.5 72t-68.5 8v11q82 24 126 63l397 -650l2 514q0 59 -22.5 82.5t-65.5 24.5v11z" />
    <glyph glyph-name="OE.ss02" horiz-adv-x="998" 
d="M534 0q-28 0 -88.5 -6.5t-96.5 -6.5q-144 0 -231.5 109.5t-87.5 268.5q0 152 88.5 260t220.5 108q34 0 83 -6.5t67 -6.5q39 0 75 15q37 -10 89.5 -12.5t172.5 -2.5q90 0 139 29l-34 -194h-12q6 48 2.5 81.5t-39 52t-110.5 18.5h-188v-288h135q53 0 74 19t23 61h11v-172
h-11q-2 48 -22 64t-75 16h-135v-375q52 -20 131 -20q109 0 163.5 35t89.5 140h12l-61 -202q-50 15 -122 15h-263zM99 432q0 -118 29.5 -212.5t94.5 -155t157 -60.5q28 0 47 3t33.5 8t23.5 17.5t14.5 23.5t8 35.5t3.5 44.5t1 58v355q0 97 -47.5 133.5t-132.5 36.5
q-95 0 -163.5 -86t-68.5 -201z" />
    <glyph glyph-name="P.ss02" horiz-adv-x="571" 
d="M303 733q105 0 177.5 -54t72.5 -152q0 -110 -81 -160.5t-214 -50.5h-83v-226q0 -77 59 -79v-11h-191v11q59 2 59 79v501q0 46 -12.5 62.5t-46.5 8.5v11l121 39q63 21 139 21zM260 328q42 0 79.5 10.5t70 32t52 61t19.5 91.5q0 105 -81.5 160.5t-204.5 23.5l-20 -5v-363
q37 -11 85 -11z" />
    <glyph glyph-name="R.ss02" horiz-adv-x="614" 
d="M43 0v11q59 2 59 79v501q0 45 -14 62t-45 9v11l96 32q91 27 167 27q105 0 176 -56.5t71 -148.5q0 -89 -74.5 -140.5t-183.5 -51.5v-5l70 -13l80 -119q50 -76 70.5 -105t55 -68t64.5 -55v-10l-46 18q-120 51 -205 175l-121 182h-88v-245q0 -77 59 -79v-11h-191zM175 349
q50 -2 92 -2q100 0 157 48t57 134q0 77 -49 134t-145 57q-43 0 -112 -18v-353z" />
    <glyph glyph-name="Racute.ss02" horiz-adv-x="614" 
d="M229 787h-13l109 153h88zM43 0v11q59 2 59 79v501q0 45 -14 62t-45 9v11l96 32q91 27 167 27q105 0 176 -56.5t71 -148.5q0 -89 -74.5 -140.5t-183.5 -51.5v-5l70 -13l80 -119q50 -76 70.5 -105t55 -68t64.5 -55v-10l-46 18q-120 51 -205 175l-121 182h-88v-245
q0 -77 59 -79v-11h-191zM175 349q50 -2 92 -2q100 0 157 48t57 134q0 77 -49 134t-145 57q-43 0 -112 -18v-353z" />
    <glyph glyph-name="Rcaron.ss02" horiz-adv-x="614" 
d="M270 787l-108 153h12l123 -111l122 111h12l-107 -153h-54zM445 198q50 -76 70.5 -105t55 -68t64.5 -55v-10l-46 18q-120 51 -205 175l-121 182h-88v-245q0 -77 59 -79v-11h-191v11q59 2 59 79v501q0 45 -14 62t-45 9v11l96 32q91 27 167 27q105 0 176 -56.5t71 -148.5
q0 -89 -74.5 -140.5t-183.5 -51.5v-5l70 -13zM175 349q50 -2 92 -2q100 0 157 48t57 134q0 77 -49 134t-145 57q-43 0 -112 -18v-353z" />
    <glyph glyph-name="uni0156.ss02" horiz-adv-x="614" 
d="M43 0v11q59 2 59 79v501q0 45 -14 62t-45 9v11l96 32q91 27 167 27q105 0 176 -56.5t71 -148.5q0 -89 -74.5 -140.5t-183.5 -51.5v-5l70 -13l80 -119q50 -76 70.5 -105t55 -68t64.5 -55v-10l-46 18q-120 51 -205 175l-121 182h-88v-245q0 -77 59 -79v-11h-191zM175 349
q50 -2 92 -2q100 0 157 48t57 134q0 77 -49 134t-145 57q-43 0 -112 -18v-353zM301 -54q26 0 42 -19t16 -48q0 -53 -34 -102.5t-105 -82.5v12q53 28 83.5 70.5t31.5 92.5q-1 5 -5 1q-9 -30 -38 -30q-17 0 -32 14t-15 39q0 24 16 38.5t40 14.5z" />
    <glyph glyph-name="S.ss02" horiz-adv-x="554" 
d="M301 -13q-45 0 -86 12.5t-64.5 25.5t-45 21t-39 -2.5t-36.5 -43.5h-9l56 275h13q-16 -128 43.5 -202t167.5 -74q24 0 50 8.5t52 25.5t42.5 48.5t16.5 72.5q0 54 -43 93t-104 64.5t-122 52t-104 71t-43 105.5q0 84 57.5 138.5t152.5 54.5q39 0 77 -11.5t61 -23.5t43.5 -19
t35.5 2t28 39h7l-44 -224h-12q2 106 -49 165.5t-146 59.5q-74 0 -115.5 -36t-41.5 -90q0 -50 31 -88t77.5 -59t101 -45t101 -47t77.5 -65t31 -98q0 -93 -61 -149.5t-157 -56.5z" />
    <glyph glyph-name="Sacute.ss02" horiz-adv-x="554" 
d="M213 787h-13l109 153h88zM301 -13q-45 0 -86 12.5t-64.5 25.5t-45 21t-39 -2.5t-36.5 -43.5h-9l56 275h13q-16 -128 43.5 -202t167.5 -74q24 0 50 8.5t52 25.5t42.5 48.5t16.5 72.5q0 54 -43 93t-104 64.5t-122 52t-104 71t-43 105.5q0 84 57.5 138.5t152.5 54.5
q39 0 77 -11.5t61 -23.5t43.5 -19t35.5 2t28 39h7l-44 -224h-12q2 106 -49 165.5t-146 59.5q-74 0 -115.5 -36t-41.5 -90q0 -50 31 -88t77.5 -59t101 -45t101 -47t77.5 -65t31 -98q0 -93 -61 -149.5t-157 -56.5z" />
    <glyph glyph-name="Scaron.ss02" horiz-adv-x="554" 
d="M254 787l-108 153h12l123 -111l122 111h12l-107 -153h-54zM100 595q0 -50 31 -88t77.5 -59t101 -45t101 -47t77.5 -65t31 -98q0 -93 -61 -149.5t-157 -56.5q-45 0 -86 12.5t-64.5 25.5t-45 21t-39 -2.5t-36.5 -43.5h-9l56 275h13q-16 -128 43.5 -202t167.5 -74
q24 0 50 8.5t52 25.5t42.5 48.5t16.5 72.5q0 54 -43 93t-104 64.5t-122 52t-104 71t-43 105.5q0 84 57.5 138.5t152.5 54.5q39 0 77 -11.5t61 -23.5t43.5 -19t35.5 2t28 39h7l-44 -224h-12q2 106 -49 165.5t-146 59.5q-74 0 -115.5 -36t-41.5 -90z" />
    <glyph glyph-name="Scedilla.ss02" horiz-adv-x="554" 
d="M301 -13h-6l-16 -30q18 -8 30.5 -14.5t28.5 -18.5t24 -29t8 -38q0 -35 -29 -61.5t-69 -26.5q-30 0 -53.5 17t-23.5 48q0 15 8 25t20 10q24 0 24 -23q0 -8 -8 -17.5t-8 -16.5q0 -13 11.5 -22t26.5 -9q30 0 47.5 18t17.5 41q0 34 -25.5 55.5t-59.5 31.5l33 61q-40 2 -78 15
t-59.5 25t-42.5 18.5t-37.5 -4t-34.5 -42.5h-9l56 275h13q-15 -124 40.5 -197.5t157.5 -78.5l3 5l12 -1l-2 -4q24 0 50 8.5t52 25.5t42.5 48.5t16.5 72.5q0 54 -43 93t-104 64.5t-122 52t-104 71t-43 105.5q0 84 57.5 138.5t152.5 54.5q39 0 77 -11.5t61 -23.5t43.5 -19
t35.5 2t28 39h7l-44 -224h-12q2 106 -49 165.5t-146 59.5q-74 0 -115.5 -36t-41.5 -90q0 -50 31 -88t77.5 -59t101 -45t101 -47t77.5 -65t31 -98q0 -93 -61 -149.5t-157 -56.5z" />
    <glyph glyph-name="Scircumflex.ss02" horiz-adv-x="554" 
d="M281 898l-123 -111h-12l108 153h54l107 -153h-12zM100 595q0 -50 31 -88t77.5 -59t101 -45t101 -47t77.5 -65t31 -98q0 -93 -61 -149.5t-157 -56.5q-45 0 -86 12.5t-64.5 25.5t-45 21t-39 -2.5t-36.5 -43.5h-9l56 275h13q-16 -128 43.5 -202t167.5 -74q24 0 50 8.5
t52 25.5t42.5 48.5t16.5 72.5q0 54 -43 93t-104 64.5t-122 52t-104 71t-43 105.5q0 84 57.5 138.5t152.5 54.5q39 0 77 -11.5t61 -23.5t43.5 -19t35.5 2t28 39h7l-44 -224h-12q2 106 -49 165.5t-146 59.5q-74 0 -115.5 -36t-41.5 -90z" />
    <glyph glyph-name="uni0218.ss02" horiz-adv-x="554" 
d="M301 -13q-45 0 -86 12.5t-64.5 25.5t-45 21t-39 -2.5t-36.5 -43.5h-9l56 275h13q-16 -128 43.5 -202t167.5 -74q24 0 50 8.5t52 25.5t42.5 48.5t16.5 72.5q0 54 -43 93t-104 64.5t-122 52t-104 71t-43 105.5q0 84 57.5 138.5t152.5 54.5q39 0 77 -11.5t61 -23.5t43.5 -19
t35.5 2t28 39h7l-44 -224h-12q2 106 -49 165.5t-146 59.5q-74 0 -115.5 -36t-41.5 -90q0 -50 31 -88t77.5 -59t101 -45t101 -47t77.5 -65t31 -98q0 -93 -61 -149.5t-157 -56.5zM286 -54q26 0 42 -19t16 -48q0 -53 -34 -102.5t-105 -82.5v12q53 28 83.5 70.5t31.5 92.5
q-1 5 -5 1q-9 -30 -38 -30q-17 0 -32 14t-15 39q0 24 16 38.5t40 14.5z" />
    <glyph glyph-name="T.ss02" horiz-adv-x="591" 
d="M427 720q99 0 158 22l-44 -218h-12q11 62 7 103t-41 61t-118 20h-44v-621q0 -39 17 -57t42 -19v-11h-192v11q59 2 59 77v620h-44q-96 0 -134 -41t-61 -143h-12l44 218q48 -22 111 -22h264z" />
    <glyph glyph-name="Tbar.ss02" horiz-adv-x="591" 
d="M427 720q99 0 158 22l-44 -218h-12q11 62 7 103t-41 61t-118 20h-44v-344h23l110 2v-14l-110 2h-23v-267q0 -39 17 -57t42 -19v-11h-192v11q59 2 59 77v266h-26l-109 -2v14l109 -2h26v344h-44q-96 0 -134 -41t-61 -143h-12l44 218q48 -22 111 -22h264z" />
    <glyph glyph-name="Tcaron.ss02" horiz-adv-x="591" 
d="M268 787l-108 153h12l123 -111l122 111h12l-107 -153h-54zM427 720q99 0 158 22l-44 -218h-12q11 62 7 103t-41 61t-118 20h-44v-621q0 -39 17 -57t42 -19v-11h-192v11q59 2 59 77v620h-44q-96 0 -134 -41t-61 -143h-12l44 218q48 -22 111 -22h264z" />
    <glyph glyph-name="uni0162.ss02" horiz-adv-x="591" 
d="M427 720q99 0 158 22l-44 -218h-12q11 62 7 103t-41 61t-118 20h-44v-621q0 -39 17 -57t42 -19v-11h-77l-22 -43q18 -8 30.5 -14.5t28.5 -18.5t24 -29t8 -38q0 -35 -29 -61.5t-69 -26.5q-30 0 -53.5 17t-23.5 48q0 15 8 25t20 10q24 0 24 -23q0 -8 -8 -17.5t-8 -16.5
q0 -13 11.5 -22t26.5 -9q30 0 47.5 18t17.5 41q0 34 -25.5 55.5t-59.5 31.5l40 73h-103v11q59 2 59 77v620h-44q-96 0 -134 -41t-61 -143h-12l44 218q48 -22 111 -22h264z" />
    <glyph glyph-name="uni021A.ss02" horiz-adv-x="591" 
d="M427 720q99 0 158 22l-44 -218h-12q11 62 7 103t-41 61t-118 20h-44v-621q0 -39 17 -57t42 -19v-11h-192v11q59 2 59 77v620h-44q-96 0 -134 -41t-61 -143h-12l44 218q48 -22 111 -22h264zM300 -54q26 0 42 -19t16 -48q0 -53 -34 -102.5t-105 -82.5v12q53 28 83.5 70.5
t31.5 92.5q-1 5 -5 1q-9 -30 -38 -30q-17 0 -32 14t-15 39q0 24 16 38.5t40 14.5z" />
    <glyph glyph-name="K.ss03" horiz-adv-x="620" 
d="M441 198q93 -135 125 -171q35 -39 68 -57v-10l-46 18q-112 45 -209 184l-130 191l-74 -92v-174q0 -40 17.5 -57.5t41.5 -18.5v-11h-191v11q59 2 59 77v547q0 41 -15 57t-44 17v11h191v-11q-31 -1 -45 -16.5t-14 -57.5v-355l254 324q39 53 31.5 78t-46.5 27v11h202v-11
q-43 -1 -81.5 -28.5t-88.5 -86.5l-188 -230l60 14z" />
    <glyph glyph-name="uni0136.ss03" horiz-adv-x="620" 
d="M441 198q93 -135 125 -171q35 -39 68 -57v-10l-46 18q-112 45 -209 184l-130 191l-74 -92v-174q0 -40 17.5 -57.5t41.5 -18.5v-11h-191v11q59 2 59 77v547q0 41 -15 57t-44 17v11h191v-11q-31 -1 -45 -16.5t-14 -57.5v-355l254 324q39 53 31.5 78t-46.5 27v11h202v-11
q-43 -1 -81.5 -28.5t-88.5 -86.5l-188 -230l60 14zM322 -54q26 0 42 -19t16 -48q0 -53 -34 -102.5t-105 -82.5v12q53 28 83.5 70.5t31.5 92.5q-1 5 -5 1q-9 -30 -38 -30q-17 0 -32 14t-15 39q0 24 16 38.5t40 14.5z" />
    <glyph glyph-name="R.ss03" horiz-adv-x="605" 
d="M430 198q66 -100 108 -152t86 -76v-10l-46 18q-115 47 -207 182l-118 175h-78v-245q0 -77 59 -79v-11h-191v11q59 2 59 79v542q0 42 -15 58.5t-44 17.5v12h243q119 0 193 -54t74 -148q0 -87 -64.5 -135t-156.5 -48h-49v-5l67 -13zM175 708v-354q100 -8 127 -8
q93 0 135.5 46.5t42.5 125.5q0 82 -55.5 136t-161.5 54h-88z" />
    <glyph glyph-name="Racute.ss03" horiz-adv-x="605" 
d="M437 940l-184 -153h-13l109 153h88zM430 198q66 -100 108 -152t86 -76v-10l-46 18q-115 47 -207 182l-118 175h-78v-245q0 -77 59 -79v-11h-191v11q59 2 59 79v542q0 42 -15 58.5t-44 17.5v12h243q119 0 193 -54t74 -148q0 -87 -64.5 -135t-156.5 -48h-49v-5l67 -13z
M175 708v-354q100 -8 127 -8q93 0 135.5 46.5t42.5 125.5q0 82 -55.5 136t-161.5 54h-88z" />
    <glyph glyph-name="Rcaron.ss03" horiz-adv-x="605" 
d="M272 787l-108 153h12l123 -111l122 111h12l-107 -153h-54zM430 198q66 -100 108 -152t86 -76v-10l-46 18q-115 47 -207 182l-118 175h-78v-245q0 -77 59 -79v-11h-191v11q59 2 59 79v542q0 42 -15 58.5t-44 17.5v12h243q119 0 193 -54t74 -148q0 -87 -64.5 -135
t-156.5 -48h-49v-5l67 -13zM175 708v-354q100 -8 127 -8q93 0 135.5 46.5t42.5 125.5q0 82 -55.5 136t-161.5 54h-88z" />
    <glyph glyph-name="uni0156.ss03" horiz-adv-x="605" 
d="M430 198q66 -100 108 -152t86 -76v-10l-46 18q-115 47 -207 182l-118 175h-78v-245q0 -77 59 -79v-11h-191v11q59 2 59 79v542q0 42 -15 58.5t-44 17.5v12h243q119 0 193 -54t74 -148q0 -87 -64.5 -135t-156.5 -48h-49v-5l67 -13zM175 708v-354q100 -8 127 -8
q93 0 135.5 46.5t42.5 125.5q0 82 -55.5 136t-161.5 54h-88zM303 -54q26 0 42 -19t16 -48q0 -53 -34 -102.5t-105 -82.5v12q113 60 115 163q1 4 -1 4t-3 -3q-9 -30 -39 -30q-17 0 -32 14t-15 39q0 24 16 38.5t40 14.5z" />
    <glyph glyph-name="i.loclTRK" horiz-adv-x="253" 
d="M128 609q-19 0 -33.5 14t-14.5 33t14.5 34t33.5 15t33.5 -14.5t14.5 -34.5q0 -19 -14.5 -33t-33.5 -14zM38 0v11q26 1 43 19t17 56v317q0 44 -17.5 57.5t-42.5 8.5v13l129 36v-432q0 -73 59 -75v-11h-188z" />
    <glyph glyph-name="a.ss01" horiz-adv-x="515" 
d="M185 -13q-64 0 -108 33t-44 93q0 131 294 170l-5 31q-17 102 -44 145t-77 43q-45 0 -72.5 -18t-27.5 -51q0 -18 10.5 -40t11.5 -32q2 -15 -8.5 -27.5t-25.5 -12.5q-21 0 -33 19.5t-12 45.5q0 55 46.5 91t114.5 36q90 0 130.5 -51.5t58.5 -167.5l30 -193q11 -73 40 -73
q21 0 37 18l1 -16q-29 -43 -68 -43q-46 0 -64 49q-6 22 -16 75q-13 -55 -63.5 -89.5t-105.5 -34.5zM211 18q50 0 92.5 32.5t42.5 91.5q0 34 -17 130q-43 -10 -67 -16.5t-58 -19.5t-52.5 -26.5t-32 -35t-13.5 -47.5q0 -50 29.5 -79.5t75.5 -29.5z" />
    <glyph glyph-name="aacute.ss01" horiz-adv-x="515" 
d="M136 567h-13l109 153h88zM185 -13q-64 0 -108 33t-44 93q0 131 294 170l-5 31q-17 102 -44 145t-77 43q-45 0 -72.5 -18t-27.5 -51q0 -18 10.5 -40t11.5 -32q2 -15 -8.5 -27.5t-25.5 -12.5q-21 0 -33 19.5t-12 45.5q0 55 46.5 91t114.5 36q90 0 130.5 -51.5t58.5 -167.5
l30 -193q11 -73 40 -73q21 0 37 18l1 -16q-29 -43 -68 -43q-46 0 -64 49q-6 22 -16 75q-13 -55 -63.5 -89.5t-105.5 -34.5zM211 18q50 0 92.5 32.5t42.5 91.5q0 34 -17 130q-43 -10 -67 -16.5t-58 -19.5t-52.5 -26.5t-32 -35t-13.5 -47.5q0 -50 29.5 -79.5t75.5 -29.5z" />
    <glyph glyph-name="abreve.ss01" horiz-adv-x="515" 
d="M204 567q-57 0 -92 44t-35 109h10q1 -51 32.5 -83t84.5 -32q54 0 85 32t32 83h11q0 -65 -35.5 -109t-92.5 -44zM185 -13q-64 0 -108 33t-44 93q0 131 294 170l-5 31q-17 102 -44 145t-77 43q-45 0 -72.5 -18t-27.5 -51q0 -18 10.5 -40t11.5 -32q2 -15 -8.5 -27.5
t-25.5 -12.5q-21 0 -33 19.5t-12 45.5q0 55 46.5 91t114.5 36q90 0 130.5 -51.5t58.5 -167.5l30 -193q11 -73 40 -73q21 0 37 18l1 -16q-29 -43 -68 -43q-46 0 -64 49q-6 22 -16 75q-13 -55 -63.5 -89.5t-105.5 -34.5zM211 18q50 0 92.5 32.5t42.5 91.5q0 34 -17 130
q-43 -10 -67 -16.5t-58 -19.5t-52.5 -26.5t-32 -35t-13.5 -47.5q0 -50 29.5 -79.5t75.5 -29.5z" />
    <glyph glyph-name="acircumflex.ss01" horiz-adv-x="515" 
d="M204 678l-123 -111h-12l108 153h54l107 -153h-12zM501 46l1 -16q-29 -43 -68 -43q-46 0 -64 49q-6 22 -16 75q-13 -55 -63.5 -89.5t-105.5 -34.5q-64 0 -108 33t-44 93q0 131 294 170l-5 31q-17 102 -44 145t-77 43q-45 0 -72.5 -18t-27.5 -51q0 -18 10.5 -40t11.5 -32
q2 -15 -8.5 -27.5t-25.5 -12.5q-21 0 -33 19.5t-12 45.5q0 55 46.5 91t114.5 36q90 0 130.5 -51.5t58.5 -167.5l30 -193q11 -73 40 -73q21 0 37 18zM211 18q50 0 92.5 32.5t42.5 91.5q0 34 -17 130q-43 -10 -67 -16.5t-58 -19.5t-52.5 -26.5t-32 -35t-13.5 -47.5
q0 -50 29.5 -79.5t75.5 -29.5z" />
    <glyph glyph-name="adieresis.ss01" horiz-adv-x="515" 
d="M115 613q-17 0 -28.5 11.5t-11.5 28.5t11.5 29t28.5 12q16 0 28 -12t12 -29t-11.5 -28.5t-28.5 -11.5zM294 613q-18 0 -29.5 11.5t-11.5 28.5t11.5 29t29.5 12q16 0 27.5 -12t11.5 -29t-11.5 -28.5t-27.5 -11.5zM185 -13q-64 0 -108 33t-44 93q0 131 294 170l-5 31
q-17 102 -44 145t-77 43q-45 0 -72.5 -18t-27.5 -51q0 -18 10.5 -40t11.5 -32q2 -15 -8.5 -27.5t-25.5 -12.5q-21 0 -33 19.5t-12 45.5q0 55 46.5 91t114.5 36q90 0 130.5 -51.5t58.5 -167.5l30 -193q11 -73 40 -73q21 0 37 18l1 -16q-29 -43 -68 -43q-46 0 -64 49
q-6 22 -16 75q-13 -55 -63.5 -89.5t-105.5 -34.5zM211 18q50 0 92.5 32.5t42.5 91.5q0 34 -17 130q-43 -10 -67 -16.5t-58 -19.5t-52.5 -26.5t-32 -35t-13.5 -47.5q0 -50 29.5 -79.5t75.5 -29.5z" />
    <glyph glyph-name="agrave.ss01" horiz-adv-x="515" 
d="M251 567l-185 153h88l109 -153h-12zM185 -13q-64 0 -108 33t-44 93q0 131 294 170l-5 31q-17 102 -44 145t-77 43q-45 0 -72.5 -18t-27.5 -51q0 -18 10.5 -40t11.5 -32q2 -15 -8.5 -27.5t-25.5 -12.5q-21 0 -33 19.5t-12 45.5q0 55 46.5 91t114.5 36q90 0 130.5 -51.5
t58.5 -167.5l30 -193q11 -73 40 -73q21 0 37 18l1 -16q-29 -43 -68 -43q-46 0 -64 49q-6 22 -16 75q-13 -55 -63.5 -89.5t-105.5 -34.5zM211 18q50 0 92.5 32.5t42.5 91.5q0 34 -17 130q-43 -10 -67 -16.5t-58 -19.5t-52.5 -26.5t-32 -35t-13.5 -47.5q0 -50 29.5 -79.5
t75.5 -29.5z" />
    <glyph glyph-name="amacron.ss01" horiz-adv-x="515" 
d="M64 600v12h279v-12h-279zM185 -13q-64 0 -108 33t-44 93q0 131 294 170l-5 31q-17 102 -44 145t-77 43q-45 0 -72.5 -18t-27.5 -51q0 -18 10.5 -40t11.5 -32q2 -15 -8.5 -27.5t-25.5 -12.5q-21 0 -33 19.5t-12 45.5q0 55 46.5 91t114.5 36q90 0 130.5 -51.5t58.5 -167.5
l30 -193q11 -73 40 -73q21 0 37 18l1 -16q-29 -43 -68 -43q-46 0 -64 49q-6 22 -16 75q-13 -55 -63.5 -89.5t-105.5 -34.5zM211 18q50 0 92.5 32.5t42.5 91.5q0 34 -17 130q-43 -10 -67 -16.5t-58 -19.5t-52.5 -26.5t-32 -35t-13.5 -47.5q0 -50 29.5 -79.5t75.5 -29.5z" />
    <glyph glyph-name="aogonek.ss01" horiz-adv-x="515" 
d="M432 -192q48 0 72 42v-12q-8 -26 -34.5 -47.5t-61.5 -21.5q-34 0 -59 24.5t-25 64.5q0 74 82 134q-24 12 -36 44q-6 22 -16 75q-13 -55 -63.5 -89.5t-105.5 -34.5q-64 0 -108 33t-44 93q0 131 294 170l-5 31q-17 102 -44 145t-77 43q-45 0 -72.5 -18t-27.5 -51
q0 -18 10.5 -40t11.5 -32q2 -15 -8.5 -27.5t-25.5 -12.5q-21 0 -33 19.5t-12 45.5q0 55 46.5 91t114.5 36q90 0 130.5 -51.5t58.5 -167.5l30 -193q11 -73 40 -73q21 0 37 18l1 -16q-29 -43 -68 -43q-10 0 -14 1q-54 -57 -54 -111q0 -26 16 -47.5t50 -21.5zM211 18
q50 0 92.5 32.5t42.5 91.5q0 34 -17 130q-43 -10 -67 -16.5t-58 -19.5t-52.5 -26.5t-32 -35t-13.5 -47.5q0 -50 29.5 -79.5t75.5 -29.5z" />
    <glyph glyph-name="aring.ss01" horiz-adv-x="515" 
d="M203 570q-30 0 -51 21t-21 51q0 31 21 52.5t51 21.5q31 0 52.5 -21.5t21.5 -52.5q0 -30 -21.5 -51t-52.5 -21zM203 587q23 0 40 16t17 39t-17 40t-40 17t-39 -17t-16 -40t16 -39t39 -16zM185 -13q-64 0 -108 33t-44 93q0 131 294 170l-5 31q-17 102 -44 145t-77 43
q-45 0 -72.5 -18t-27.5 -51q0 -18 10.5 -40t11.5 -32q2 -15 -8.5 -27.5t-25.5 -12.5q-21 0 -33 19.5t-12 45.5q0 55 46.5 91t114.5 36q90 0 130.5 -51.5t58.5 -167.5l30 -193q11 -73 40 -73q21 0 37 18l1 -16q-29 -43 -68 -43q-46 0 -64 49q-6 22 -16 75
q-13 -55 -63.5 -89.5t-105.5 -34.5zM211 18q50 0 92.5 32.5t42.5 91.5q0 34 -17 130q-43 -10 -67 -16.5t-58 -19.5t-52.5 -26.5t-32 -35t-13.5 -47.5q0 -50 29.5 -79.5t75.5 -29.5z" />
    <glyph glyph-name="atilde.ss01" horiz-adv-x="515" 
d="M51 567q0 27 5.5 55.5t26.5 57t54 28.5q24 0 49.5 -25.5t50.5 -51t47 -25.5q28 0 45 34.5t17 67.5h11q0 -18 -3.5 -39.5t-12 -45.5t-26 -40t-40.5 -16q-26 0 -53 25.5t-52 51t-46 25.5q-28 0 -45 -34t-17 -68h-11zM185 -13q-64 0 -108 33t-44 93q0 131 294 170l-5 31
q-17 102 -44 145t-77 43q-45 0 -72.5 -18t-27.5 -51q0 -18 10.5 -40t11.5 -32q2 -15 -8.5 -27.5t-25.5 -12.5q-21 0 -33 19.5t-12 45.5q0 55 46.5 91t114.5 36q90 0 130.5 -51.5t58.5 -167.5l30 -193q11 -73 40 -73q21 0 37 18l1 -16q-29 -43 -68 -43q-46 0 -64 49
q-6 22 -16 75q-13 -55 -63.5 -89.5t-105.5 -34.5zM211 18q50 0 92.5 32.5t42.5 91.5q0 34 -17 130q-43 -10 -67 -16.5t-58 -19.5t-52.5 -26.5t-32 -35t-13.5 -47.5q0 -50 29.5 -79.5t75.5 -29.5z" />
    </font>
</defs>
</svg>
