<?xml version="1.0" standalone="no"?>
<!DOCTYPE svg PUBLIC "-//W3C//DTD SVG 1.1//EN" "http://www.w3.org/Graphics/SVG/1.1/DTD/svg11.dtd" >
<svg xmlns="http://www.w3.org/2000/svg" xmlns:xlink="http://www.w3.org/1999/xlink" version="1.1">
<metadata>
Created by FontForge 20170731 at Thu Jul 25 22:13:27 2019
 By Aleksey,,,
Copyright (c) 2019 by Jan Estrada-Osmycki. All rights reserved.
</metadata>
<defs>
<font id="WulkanDisplay-Italic" horiz-adv-x="0" >
  <font-face 
    font-family="Wulkan Display"
    font-weight="400"
    font-style="italic"
    font-stretch="normal"
    units-per-em="1000"
    panose-1="0 0 0 0 0 0 0 0 0 0"
    ascent="800"
    descent="-200"
    x-height="513"
    cap-height="720"
    bbox="-608 -301 1133.55 951"
    underline-thickness="50"
    underline-position="-250"
    slope="-13.5"
    unicode-range="U+0020-2212"
  />
<missing-glyph horiz-adv-x="436" 
 />
    <glyph glyph-name=".notdef" horiz-adv-x="436" 
 />
    <glyph glyph-name=".null" 
 />
    <glyph glyph-name="nonmarkingreturn" horiz-adv-x="333" 
 />
    <glyph glyph-name="space" unicode=" " horiz-adv-x="224" 
 />
    <glyph glyph-name="exclam" unicode="!" horiz-adv-x="213" 
d="M86 189l20 81q30 129 40 258.5t14 144.5q14 60 53 60q27 0 37 -22.5t2 -58.5q-2 -10 -53 -131.5t-81 -252.5l-20 -82zM56 -13q-20 0 -35 14.5t-15 35.5q0 20 15 34t35 14t34.5 -14t14.5 -34q0 -21 -14.5 -35.5t-34.5 -14.5z" />
    <glyph glyph-name="quotedbl" unicode="&#x22;" horiz-adv-x="290" 
d="M121 442q17 75 22.5 152t8.5 91q9 45 37 45q29 0 29 -37q0 -27 -35.5 -107.5t-51.5 -145.5zM250 442q17 75 22.5 152t8.5 91q9 45 37 45q29 0 29 -37q0 -27 -35.5 -107.5t-51.5 -145.5z" />
    <glyph glyph-name="numbersign" unicode="#" horiz-adv-x="575" 
d="M601 473l-137 1l-92 -226l145 2l-10 -15l-140 1l-93 -236h-19l98 236h-181l-92 -236h-20l98 236l-142 -1l10 15l137 -2l92 226l-145 -1l12 16l138 -3l92 234h20l-98 -234h180l92 234h21l-98 -234l144 3zM449 474h-180l-92 -226h181z" />
    <glyph glyph-name="dollar" unicode="$" horiz-adv-x="549" 
d="M563 723h8l-33 -226h-12q4 86 -32.5 144.5t-100.5 74.5l-50 -197l-27 -113q7 -5 32.5 -20t35 -20.5t30.5 -20t30 -23t23.5 -23.5t20.5 -28t11.5 -29.5t5.5 -34.5q0 -90 -71.5 -155t-166.5 -65q-28 0 -48 4l-16 -70h-18l18 73q-28 6 -57.5 18t-46 19.5t-32.5 10.5t-27 -8
t-20 -37h-9l36 284h11q-1 -114 38 -183t110 -90l44 177l37 154q-38 22 -61 37.5t-50 40.5t-39.5 54.5t-12.5 64.5q0 78 70.5 137.5t159.5 59.5q5 0 13.5 -0.5t12.5 -0.5l17 72h18l-19 -75q32 -6 74.5 -24t55.5 -18q23 0 37 36zM331 521l46 198q-18 2 -29 2q-65 0 -117.5 -41
t-51.5 -104q0 -51 33 -89t93 -75zM445 166q0 28 -11 51.5t-35.5 45t-44.5 35t-56 34.5l-36 -149l-40 -179q25 -5 49 -5q67 0 120.5 47t53.5 120z" />
    <glyph glyph-name="percent" unicode="%" horiz-adv-x="805" 
d="M216 342q-63 0 -96 56t-13 140q20 83 80 139t123 56t96 -55.5t13 -139.5t-80 -140t-123 -56zM218 354q45 0 85.5 52t59.5 132q20 80 4.5 131.5t-60.5 51.5t-85 -51.5t-60 -131.5q-19 -80 -3.5 -132t59.5 -52zM115 0l177 202l438 518h24l-188 -215l-268 -314l-160 -191
h-23zM548 -13q-63 0 -96 56t-13 140q20 83 80 139t123 56t96 -55.5t13 -139.5t-80 -140t-123 -56zM551 -1q45 0 85 52t60 132q20 79 4 131t-61 52t-85 -51.5t-60 -131.5q-19 -79 -3.5 -131.5t60.5 -52.5z" />
    <glyph glyph-name="ampersand" unicode="&#x26;" horiz-adv-x="853" 
d="M849 730q104 0 104 -110q0 -49 -38 -90.5t-120 -41.5q-46 0 -114 6t-73 6q42 -17 65.5 -65.5t23.5 -96.5q0 -108 -55 -190t-136 -121.5t-170 -39.5q-137 0 -227 64.5t-90 180.5q0 81 54.5 142t127.5 75q-54 56 -54 120q0 69 48 116.5t120 47.5q56 0 91.5 -28.5
t35.5 -83.5q0 -31 -17 -49t-38 -18q-39 0 -39 32q0 14 11.5 19t25 4.5t25 9t11.5 31.5q0 30 -19.5 47.5t-54.5 17.5q-65 0 -113 -45.5t-48 -126.5q0 -52 33 -91q6 1 17 1q24 0 47 -4.5t38 -13t14 -18.5q-2 -16 -33 -16q-50 0 -94 42q-57 -10 -94 -56t-37 -120
q0 -94 74.5 -155t205.5 -61t222 84t91 222q0 52 -26.5 98t-70.5 46q-62 0 -96.5 -33.5t-35.5 -73.5q-1 -14 5.5 -24t13.5 -10q11 0 30 21.5t37 21.5q17 0 27 -10.5t10 -28.5q0 -23 -16.5 -38.5t-39.5 -15.5q-34 0 -56 28t-22 68q0 56 43.5 97.5t106.5 45.5q39 2 104.5 -3.5
t91.5 -5.5q79 0 117 29.5t38 81.5q0 29 -17.5 49.5t-44.5 20.5q-18 0 -26.5 -12t-3.5 -33q4 -18 -6.5 -31.5t-26.5 -13.5t-24.5 11t-7.5 26q1 29 23.5 45.5t51.5 16.5z" />
    <glyph glyph-name="quotesingle" unicode="'" horiz-adv-x="161" 
d="M121 442q17 75 22.5 152t8.5 91q9 45 37 45q29 0 29 -37q0 -27 -35.5 -107.5t-51.5 -145.5z" />
    <glyph glyph-name="parenleft" unicode="(" horiz-adv-x="300" 
d="M176 -230q-75 46 -115.5 124.5t-43.5 172t21 201.5q40 165 136.5 298t241.5 198l2 -7q-227 -123 -318 -487q-91 -359 82 -493z" />
    <glyph glyph-name="parenright" unicode=")" horiz-adv-x="300" 
d="M-107 -230l-2 7q237 134 319 493q84 363 -85 487l6 7q76 -44 117 -123t43 -172.5t-21 -200.5q-39 -165 -135.5 -297t-241.5 -201z" />
    <glyph glyph-name="asterisk" unicode="*" horiz-adv-x="388" 
d="M444 608q3 -9 -2 -18t-17 -13t-52.5 -8t-89.5 -18l-2 -1l1 -1q32 -41 62.5 -68t37.5 -36q15 -22 -4 -37q-20 -14 -36 8q-7 10 -23 47t-45 80l-1 1v-1q-29 -43 -45.5 -80.5t-22.5 -46.5q-7 -10 -18 -12t-18 4q-20 14 -4 37q7 9 37.5 36t62.5 68l1 2l-4 1q-49 14 -90 17.5
t-53 7.5q-25 8 -18 32q3 9 12.5 14t21.5 1q11 -4 45.5 -25t83.5 -38l5 -2v4q-2 51 -11 90.5t-9 52.5q0 12 7 19.5t17 7.5t17.5 -7.5t7.5 -19.5q0 -13 -9 -52.5t-11 -90.5v-4l2 1q48 18 83 38.5t47 24.5q27 8 34 -15z" />
    <glyph glyph-name="plus" unicode="+" horiz-adv-x="463" 
d="M344 312l98 5l-6 -21l-139 5h-50l-19 -82l-20 -104h-23l37 134l12 52h-81l-104 -5l6 21l135 -5h47l22 91l19 99h22l-38 -139l-12 -51h94z" />
    <glyph glyph-name="comma" unicode="," horiz-adv-x="212" 
d="M-59 -148l3 11q57 23 95.5 64t45.5 89l-2 1q-9 -31 -36 -31q-17 0 -30.5 13.5t-13.5 34.5q0 22 15.5 37t38.5 15q24 0 37.5 -16.5t13.5 -39.5q0 -45 -44.5 -98.5t-122.5 -79.5z" />
    <glyph glyph-name="hyphen" unicode="-" horiz-adv-x="355" 
d="M48 290l5 22l100 -5h104l75 5l-5 -22l-97 5h-111z" />
    <glyph glyph-name="period" unicode="." horiz-adv-x="199" 
d="M49 -13q-20 0 -35 14.5t-15 35.5q0 20 15 34t35 14t34 -14t14 -34q0 -21 -14 -35.5t-34 -14.5z" />
    <glyph glyph-name="slash" unicode="/" horiz-adv-x="492" 
d="M-98 -159l188 247l281 379l186 253h23l-199 -262l-285 -384l-171 -233h-23z" />
    <glyph glyph-name="zero" unicode="0" horiz-adv-x="512" 
d="M193 -13q-74 0 -121 55t-47 138q0 78 42 155.5t111 127.5t141 50q79 0 124 -51.5t45 -134.5q0 -81 -39.5 -159.5t-109 -129.5t-146.5 -51zM196 -1q61 0 114 60.5t80.5 143t27.5 157.5q0 69 -28 105t-73 36q-62 0 -115 -60t-80.5 -142.5t-27.5 -157.5q0 -69 28.5 -105.5
t73.5 -36.5z" />
    <glyph glyph-name="one" unicode="1" horiz-adv-x="298" 
d="M80 397l3 14l167 105l-102 -420q-12 -49 3.5 -66.5t47.5 -18.5l-4 -11h-209l3 11q35 1 58.5 18.5t35.5 66.5l59 245q13 52 0 66.5t-62 -10.5z" />
    <glyph glyph-name="two" unicode="2" horiz-adv-x="477" 
d="M437 179h12l-107 -193q-29 14 -135 14h-260l248 189q84 65 128 117t44 107q0 40 -22.5 64t-58.5 24q-65 0 -108 -36t-43 -76q0 -13 5.5 -29t5.5 -24q0 -18 -13 -30t-30 -12q-37 0 -37 43q0 59 71.5 117.5t157.5 58.5q65 0 102 -31t37 -77q0 -33 -21.5 -68.5t-54.5 -66.5
t-85 -67.5t-101.5 -66.5t-114.5 -69q-9 -5 -14 -8h216q62 0 97.5 24t80.5 96z" />
    <glyph glyph-name="three" unicode="3" horiz-adv-x="474" 
d="M216 161q82 0 124.5 -39.5t42.5 -100.5q0 -97 -91 -170.5t-194 -73.5q-86 0 -125 36t-39 83q0 41 22.5 66t48.5 25q32 0 32 -30q0 -19 -19 -49t-19 -50q0 -32 27.5 -50.5t70.5 -18.5q82 0 145 69.5t63 156.5q0 60 -34 96t-99 36q-38 0 -79 -11l-2 8q127 43 204.5 109
t77.5 154q0 45 -26.5 69.5t-73.5 24.5q-54 0 -93.5 -31t-39.5 -75q0 -7 3 -19t3 -20q0 -22 -14 -37.5t-35 -15.5q-32 0 -32 49q0 57 65.5 109t151.5 52q67 0 110 -33t43 -88q0 -78 -78 -136.5t-195 -95.5v-3q27 4 54 4z" />
    <glyph glyph-name="four" unicode="4" horiz-adv-x="512" 
d="M453 489l-106 -439h108l-36 -50h-84l-53 -220h-65l53 220h-333l523 518l-6 -28zM7 50h275l86 355z" />
    <glyph glyph-name="five" unicode="5" horiz-adv-x="467" 
d="M451 439h-254l-130 -253q68 52 158 52q82 0 127 -44.5t45 -115.5q0 -119 -98.5 -214t-219.5 -95q-74 0 -111 35t-37 83q0 37 17.5 61.5t41.5 24.5q32 0 32 -28q0 -18 -18.5 -44t-18.5 -48q0 -28 26 -49.5t73 -21.5q96 0 171 81t75 180q0 67 -40 104t-97 37
q-90 0 -154 -44h-7l170 360h169q48 0 80 13.5t52 48.5h11z" />
    <glyph glyph-name="six" unicode="6" horiz-adv-x="502" 
d="M534 725q-133 -23 -254.5 -139.5t-160.5 -269.5q40 87 96 122t109 35q66 0 107.5 -51t41.5 -126q0 -119 -84.5 -214t-197.5 -95q-76 0 -118 56t-42 146q0 128 72 250t188.5 201.5t243.5 92.5zM292 449q-53 0 -99 -49t-70.5 -116.5t-24.5 -130.5q0 -71 31.5 -112t77.5 -41
q51 0 95.5 49t69 119t24.5 136q0 67 -27.5 106t-76.5 39z" />
    <glyph glyph-name="seven" unicode="7" horiz-adv-x="469" 
d="M247 500h274q-112 -153 -168.5 -233.5t-139 -217.5t-143.5 -269h-91q228 373 483 658h-229q-80 0 -115.5 -24t-81.5 -106h-12l107 220q12 -11 17.5 -14.5t31 -8.5t67.5 -5z" />
    <glyph glyph-name="eight" unicode="8" horiz-adv-x="507" 
d="M531 609q0 -132 -203 -215q30 -23 46.5 -38t37.5 -38.5t30.5 -49t9.5 -55.5q0 -93 -81 -159.5t-182 -66.5q-75 0 -124.5 35t-49.5 100q0 78 61.5 139t159.5 103q-48 37 -74.5 72.5t-26.5 81.5q0 82 76.5 148.5t167.5 66.5q70 0 111 -36t41 -88zM318 401q161 86 161 212
q0 47 -27.5 77.5t-76.5 30.5q-68 0 -121.5 -48t-53.5 -112q0 -33 19.5 -64t39 -48t59.5 -48zM387 181q0 11 -2.5 22.5t-5 20.5t-10 20t-12 17.5t-15.5 17.5t-16 15.5t-19 16t-18.5 14.5t-21 15t-20.5 15q-173 -87 -173 -238q0 -56 32.5 -87t86.5 -31q73 0 133.5 55.5
t60.5 126.5z" />
    <glyph glyph-name="nine" unicode="9" horiz-adv-x="502" 
d="M311 513q76 0 118 -55.5t42 -146.5q0 -128 -72 -250t-188.5 -201.5t-243.5 -92.5v8q134 23 255.5 139.5t160.5 269.5q-21 -46 -48.5 -78.5t-56 -48.5t-52.5 -23t-48 -7q-66 0 -107.5 51t-41.5 126q0 119 84.5 214t197.5 95zM210 51q53 0 99 49t70.5 116.5t24.5 130.5
q0 71 -31.5 112t-77.5 41q-51 0 -95.5 -49t-69 -119t-24.5 -136q0 -67 27.5 -106t76.5 -39z" />
    <glyph glyph-name="colon" unicode=":" horiz-adv-x="199" 
d="M149 406q-20 0 -34.5 14.5t-14.5 34.5t14.5 34t34.5 14t34.5 -14t14.5 -34t-14.5 -34.5t-34.5 -14.5zM49 -13q-20 0 -35 14.5t-15 35.5q0 20 15 34t35 14t34 -14t14 -34q0 -21 -14 -35.5t-34 -14.5z" />
    <glyph glyph-name="semicolon" unicode=";" horiz-adv-x="214" 
d="M162 406q-20 0 -34.5 14.5t-14.5 34.5t14.5 34t34.5 14t34.5 -14t14.5 -34t-14.5 -34.5t-34.5 -14.5zM-59 -148l3 11q57 23 95.5 64t45.5 89l-2 1q-9 -31 -36 -31q-17 0 -30.5 13.5t-13.5 34.5q0 22 15.5 37t38.5 15q24 0 37.5 -16.5t13.5 -39.5q0 -45 -44.5 -98.5
t-122.5 -79.5z" />
    <glyph glyph-name="less" unicode="&#x3c;" horiz-adv-x="408" 
d="M431 490l-4 -20l-347 -160l268 -166l-13 -52l-295 185l-9 20z" />
    <glyph glyph-name="equal" unicode="=" horiz-adv-x="469" 
d="M463 388l-11 -22l-137 5h-145l-105 -5l11 22l133 -5h154zM428 235l-11 -22l-138 5h-144l-105 -5l11 22l133 -5h154z" />
    <glyph glyph-name="greater" unicode="&#x3e;" horiz-adv-x="409" 
d="M388 305l9 -20l-400 -193l5 20l347 160l-268 166l13 52z" />
    <glyph glyph-name="question" unicode="?" horiz-adv-x="447" 
d="M163 192q1 59 13.5 102t35.5 69.5t44.5 41t53.5 27.5q114 46 114 152q0 62 -37.5 99t-95.5 37q-48 0 -82 -27.5t-34 -70.5q0 -13 6 -29t6 -24q0 -21 -12 -33t-29 -12q-22 0 -34.5 17t-12.5 43q0 60 56 104.5t128 44.5q82 0 141 -51.5t59 -127.5q0 -117 -137 -171
q-8 -3 -30.5 -11.5t-31.5 -13t-28 -15t-28.5 -22t-22 -29.5t-20 -43t-12.5 -57h-10zM148 -13q-20 0 -35 14.5t-15 35.5q0 20 15 34t35 14t34.5 -14t14.5 -34q0 -21 -14.5 -35.5t-34.5 -14.5z" />
    <glyph glyph-name="at" unicode="@" horiz-adv-x="953" 
d="M606 -13q-44 0 -61.5 35t-1.5 78l29 79l-5 1q-45 -86 -98.5 -139.5t-107.5 -53.5q-49 0 -75.5 37t-26.5 98q0 88 46.5 180t120 152t146.5 60q64 0 88 -74l72 65h8q-23 -56 -46.5 -125.5t-52 -161t-35.5 -114.5q-13 -36 2 -61t54 -25q99 0 174.5 93.5t78.5 215.5
q5 166 -114 279.5t-296 113.5q-113 0 -209 -64.5t-152.5 -170.5t-60.5 -228q-8 -202 112.5 -338.5t309.5 -136.5q178 0 305 117l7 -8q-132 -122 -312 -122q-134 0 -241 63.5t-165 175.5t-53 249q7 194 140.5 335t318.5 141q187 0 308 -118t115 -287q-4 -146 -99 -243.5
t-223 -97.5zM321 131q0 -39 17.5 -67t53.5 -28q51 0 116.5 77t104.5 195q18 53 22 95t-10 70.5t-50 28.5q-49 0 -108.5 -56t-102.5 -144.5t-43 -170.5z" />
    <glyph glyph-name="A" unicode="A" horiz-adv-x="638" 
d="M502 161q3 -32 5 -50t7 -39.5t12 -32.5t18.5 -19t27.5 -9l-2 -11h-205l2 11q48 6 62 40q11 26 4 95l-9 106h-254q-36 -61 -53 -90t-32 -61.5t-15 -47.5q0 -40 51 -42l-3 -11h-182l2 11q33 2 56.5 15t46.5 45q16 22 72 114.5t89 149.5q19 33 57.5 97t55.5 94t39 72
t29.5 68.5t6.5 46.5q29 8 60 24zM177 264h245l-33 371q-14 -31 -39.5 -76t-68.5 -118t-63 -108z" />
    <glyph glyph-name="B" unicode="B" horiz-adv-x="587" 
d="M390 378q69 -9 109.5 -50t40.5 -107q0 -98 -83.5 -159.5t-207.5 -61.5h-263l3 11q61 4 79 77l130 545q18 73 -42 76l3 11h204q103 0 160.5 -39t57.5 -111q0 -71 -54 -121.5t-137 -70.5zM348 708h-65l-77 -323q43 -4 45 -4l71 -1q85 8 138.5 64.5t53.5 136.5
q0 127 -166 127zM243 12q90 0 158 62.5t68 149.5q-1 68 -44 105t-106 38h-10h-11l-66 1h-30l-83 -347q61 -9 124 -9z" />
    <glyph glyph-name="C" unicode="C" horiz-adv-x="617" 
d="M282 -13q-106 0 -167.5 81.5t-62.5 202.5q0 114 54.5 221t146.5 174t194 67q42 0 85 -20t57 -20q23 0 48 20l-15 -262h-11q-2 124 -42 197t-121 73q-87 0 -162 -61.5t-117 -154.5t-42 -189q1 -114 49.5 -192t154.5 -78q63 0 126 42t107 123l8 -2q-44 -96 -123.5 -159
t-166.5 -63z" />
    <glyph glyph-name="D" unicode="D" horiz-adv-x="661" 
d="M396 720q117 0 188 -83.5t72 -222.5q0 -104 -54.5 -200t-145.5 -155t-191 -59h-279l3 11q25 1 46.5 19.5t30.5 57.5l131 545q18 73 -41 76l3 11h237zM267 13q91 0 166 63t115 160t39 202q0 113 -35.5 176.5t-119.5 84.5q-36 9 -146 9l-164 -682q59 -13 145 -13z" />
    <glyph glyph-name="E" unicode="E" horiz-adv-x="586" 
d="M612 740l11 -185h-12q-6 68 -22 97.5t-57.5 42.5t-132.5 13h-117l-69 -289h135q51 0 76.5 19t36.5 59h12l-42 -172h-11q9 47 -7 64.5t-69 17.5h-134l-90 -375q46 -20 126 -20q108 0 169.5 35t120.5 140h13l-105 -199q-43 12 -120 12h-338l3 11q31 2 49 19t27 56l132 550
q9 39 -1 55t-40 18l3 11h314q92 0 139 20z" />
    <glyph glyph-name="F" unicode="F" horiz-adv-x="548" 
d="M599 740l12 -185h-12q-4 46 -12.5 71.5t-31 46t-62 28t-105.5 7.5h-106l-69 -289h127q51 0 75.5 19t35.5 60h11l-41 -172h-12q17 81 -72 81h-127l-76 -320q-9 -36 4 -55t39 -21l-3 -11h-188l3 11q60 5 77 77l131 545q9 38 -0.5 56.5t-40.5 19.5l3 11h300q87 0 140 20z
" />
    <glyph glyph-name="G" unicode="G" horiz-adv-x="657" 
d="M250 -13q-91 0 -145 77.5t-56 191.5q-1 112 52.5 223t144 182.5t188.5 71.5q53 0 102 -20.5t61 -20.5q23 0 47 20l-22 -267h-13q4 75 -12 135t-57.5 100.5t-105.5 40.5q-85 0 -158.5 -70t-113.5 -174.5t-39 -209.5q0 -113 49.5 -184t120.5 -71q67 0 125.5 47.5
t76.5 124.5l16 65q10 42 -2 58.5t-54 16.5l3 11h196l-2 -11q-59 0 -76 -67l-65 -270h-12q5 26 -5.5 46t-34.5 20q-17 0 -45 -16.5t-70 -33t-94 -16.5z" />
    <glyph glyph-name="H" unicode="H" horiz-adv-x="694" 
d="M573 720h187l-2 -11q-34 -1 -51 -16t-27 -58l-132 -548q-18 -72 42 -76l-2 -11h-187l2 11q59 2 78 77l68 283h-346l-68 -284q-17 -73 41 -76l-2 -11h-188l3 11q61 2 78 77l132 547q9 37 -1 54.5t-42 19.5l3 11h187l-2 -11q-33 -1 -50 -16t-28 -58l-60 -252h346l60 252
q9 38 -0.5 55.5t-40.5 18.5z" />
    <glyph glyph-name="I" unicode="I" horiz-adv-x="304" 
d="M-2 0l3 11q60 4 77 77l132 547q9 37 -1 54.5t-41 19.5l3 11h188l-3 -11q-31 -1 -49 -16.5t-28 -57.5l-132 -548q-9 -36 3.5 -55t38.5 -21l-3 -11h-188z" />
    <glyph glyph-name="J" unicode="J" horiz-adv-x="454" 
d="M124 -13q-67 0 -103 40t-36 94q-1 43 23.5 77.5t57.5 34.5q36 0 37 -31q0 -17 -12.5 -32.5t-27.5 -25.5t-27.5 -27.5t-12.5 -39.5q0 -28 26.5 -52.5t65.5 -24.5q62 0 102.5 41.5t63.5 133.5l108 452q13 42 3 61.5t-51 20.5l2 11h190l-2 -10q-31 -1 -46.5 -16.5
t-24.5 -54.5l-97 -407q-17 -70 -46.5 -121t-64.5 -76.5t-66.5 -36.5t-61.5 -11z" />
    <glyph glyph-name="K" unicode="K" horiz-adv-x="627" 
d="M720 709q-43 -1 -89.5 -29t-109.5 -87l-245 -233l59 10l128 -252q33 -62 53.5 -84t50.5 -23l-2 -11h-66q-30 0 -52.5 23t-48.5 73l-129 257l-92 -88l-43 -178q-17 -72 41 -76l-2 -11h-187l3 11q60 2 77 77l132 547q9 37 -1 54.5t-41 19.5l3 11h186l-2 -11
q-31 -1 -49 -16.5t-29 -57.5l-83 -349l322 318q67 64 45 93q-10 11 -31 12l3 11h202z" />
    <glyph glyph-name="L" unicode="L" horiz-adv-x="551" 
d="M534 207h13l-112 -220q-46 13 -116 13h-333l2 11q60 2 78 77l131 545q19 73 -41 76l3 11h186l-3 -11q-31 -1 -49 -17.5t-28 -58.5l-145 -603q44 -18 120 -18q57 0 90.5 5.5t69.5 25.5t66.5 58.5t67.5 105.5z" />
    <glyph glyph-name="M" unicode="M" horiz-adv-x="826" 
d="M713 720h141l-3 -11q-33 -1 -53.5 -20t-26.5 -64l-80 -534q-11 -77 43 -80l-3 -11h-187l3 11q28 1 48 20.5t25 55.5l90 570l-156 -283q-23 -43 -49 -90t-40.5 -73.5t-30.5 -56t-24 -45t-16 -32t-11 -27t-5.5 -20t-2.5 -19.5q-38 -12 -66 -28l-40 681l-181 -561
q-15 -45 2 -67.5t60 -24.5l-3 -11h-190l3 11q79 2 109 91l171 521q29 84 -53 86l2 11h145l40 -645q32 57 90 162.5t79 143.5q136 249 156 296q11 27 14 43z" />
    <glyph glyph-name="N" unicode="N" horiz-adv-x="667" 
d="M576 720h184l-2 -11q-42 -1 -66 -24t-39 -83l-120 -484q-13 -52 2 -98q-37 -18 -64 -41l-244 654l-119 -511q-25 -106 63 -112l-2 -10h-203l2 10q93 5 120 112l116 469q28 115 -61 118l3 11h125l240 -636l125 518q13 56 -1.5 80.5t-60.5 26.5z" />
    <glyph glyph-name="O" unicode="O" horiz-adv-x="688" 
d="M296 -13q-118 0 -183 72t-65 191q0 115 53.5 226t149 184t203.5 73q114 0 177.5 -70.5t63.5 -186.5q0 -84 -32.5 -171.5t-85.5 -157.5t-128 -115t-153 -45zM323 7q87 0 156 67t103.5 166t34.5 207q0 116 -48 191t-143 75q-89 0 -159.5 -65t-106 -162.5t-35.5 -204.5
q0 -116 50 -195t148 -79z" />
    <glyph glyph-name="P" unicode="P" horiz-adv-x="569" 
d="M612 560q1 -108 -96.5 -178.5t-225.5 -70.5h-102l-53 -221q-20 -76 39 -79l-2 -11h-186l3 11q60 3 78 79l130 543q18 73 -41 76l3 11h249q95 0 149 -42.5t55 -117.5zM285 323q102 0 178 72.5t76 164.5q0 66 -40.5 107t-115.5 41h-100l-90 -378q35 -7 92 -7z" />
    <glyph glyph-name="Q" unicode="Q" horiz-adv-x="694" 
d="M603 -112q73 0 146 54l-3 -11q-42 -37 -85 -56t-112 -19q-48 0 -94.5 20.5t-77 45t-64.5 45t-59 20.5l10 2q-103 10 -159.5 80.5t-56.5 180.5q0 115 53.5 226t149 184t203.5 73q114 0 177.5 -70.5t63.5 -186.5q0 -111 -52 -222.5t-143.5 -187t-193.5 -79.5q42 -7 140 -53
t157 -46zM125 281q0 -116 50 -195t148 -79q87 0 156 67t103.5 166t34.5 207q0 116 -48 191t-143 75q-89 0 -159.5 -65t-106 -162.5t-35.5 -204.5z" />
    <glyph glyph-name="R" unicode="R" horiz-adv-x="590" 
d="M450 97q22 -50 43.5 -68t51.5 -18l-2 -11h-69q-32 0 -53.5 18t-38.5 58l-110 259h-79l-59 -245q-16 -76 40 -79l-3 -11h-185l3 11q59 2 78 79l130 542q9 37 -0.5 56t-40.5 20l3 12h210q94 0 155 -47.5t61 -126.5q0 -88 -80 -149.5t-180 -61.5h-21l-2 -7l51 -10zM282 708
l-85 -355q77 -7 98 -7q93 0 154 60t61 144q0 70 -42.5 114t-121.5 44h-64z" />
    <glyph glyph-name="S" unicode="S" horiz-adv-x="549" 
d="M11 -3l36 284h11q-1 -139 56 -210.5t157 -71.5q67 0 120.5 47t53.5 120q0 46 -33 83t-80.5 64t-94.5 55.5t-80 71t-33 96.5q0 78 70.5 137.5t159.5 59.5q49 0 105 -23t67 -23q23 0 37 36h8l-33 -226h-12q4 101 -45.5 162.5t-132.5 61.5q-65 0 -117.5 -41t-51.5 -104
q0 -49 33.5 -89t81.5 -68.5t95.5 -56.5t81.5 -67.5t34 -87.5q0 -90 -71.5 -155t-166.5 -65q-42 0 -82.5 11.5t-63.5 23t-43.5 18t-33.5 -2.5t-24 -40h-9z" />
    <glyph glyph-name="T" unicode="T" horiz-adv-x="607" 
d="M555 720q71 0 119 21l-9 -217h-11q0 52 -4.5 82t-20 55.5t-46 36t-80.5 10.5h-57l-148 -621q-9 -36 2.5 -55t37.5 -21l-3 -11h-186l3 11q60 2 78 77l149 620h-54q-50 0 -86 -10.5t-63.5 -36t-46.5 -56t-43 -81.5h-13l96 217q51 -21 109 -21h277z" />
    <glyph glyph-name="U" unicode="U" horiz-adv-x="647" 
d="M281 -13q-121 0 -170.5 75t-14.5 221l85 354q18 69 -44 72l2 11h191l-2 -11q-63 -2 -79 -71l-85 -355q-33 -134 2.5 -206t137.5 -72q79 0 143 64t98 202l83 348q21 87 -62 90l2 11h188l-2 -11q-79 -2 -101 -90l-91 -348q-75 -284 -281 -284z" />
    <glyph glyph-name="V" unicode="V" horiz-adv-x="641" 
d="M571 720h182l-2 -11q-32 -2 -55.5 -15t-47.5 -45q-34 -47 -161 -264q-21 -37 -57.5 -98t-55 -93t-39.5 -72.5t-29 -67t-7 -46.5q-32 -10 -60 -25l-52 576q-3 32 -5 50t-7 39.5t-12 32.5t-18.5 19t-27.5 9l3 11h205l-3 -11q-48 -6 -62 -40q-11 -25 -4 -95l44 -490
q17 37 172 303q15 26 44.5 75.5t42.5 72t29.5 54t23.5 49.5t7 30q0 39 -51 41z" />
    <glyph glyph-name="W" unicode="W" horiz-adv-x="960" 
d="M891 720h182l-3 -11q-32 -1 -56.5 -15.5t-49.5 -51.5q-69 -103 -157 -257q-20 -34 -56.5 -96t-53.5 -92t-38 -71t-29.5 -68t-8.5 -47q-33 -10 -62 -26l-40 445q-4 -7 -13 -22.5t-13 -22.5q-16 -28 -55.5 -93t-55 -91.5t-38 -69.5t-30.5 -69.5t-7 -47.5q-31 -9 -61 -25
l-51 563q-9 108 -20 125q-17 27 -58 32l3 11h213l-3 -11q-47 -6 -61 -40q-14 -28 -7 -95l46 -486q23 52 171 299l38 66l-9 99q-1 10 -2.5 28.5t-2 27.5t-2.5 23.5t-4 21.5t-5.5 17.5t-8 16t-11 11t-15.5 8t-20 3.5l3 11h207l-4 -11q-44 -6 -61 -40q-12 -25 -6 -95l46 -490
q22 50 170 303q15 26 44.5 75.5t42.5 72t29.5 54t23.5 49.5t7 30q0 39 -51 41z" />
    <glyph glyph-name="X" unicode="X" horiz-adv-x="642" 
d="M542 720h181l-3 -11q-71 -5 -159 -108l-183 -214l105 -287q17 -45 38.5 -66.5t52.5 -22.5l-3 -11h-199l2 11q63 7 27 107l-78 216l-177 -206q-92 -108 26 -117l-2 -11h-221l3 11q45 3 91 35.5t121 120.5l154 181l-98 271q-18 52 -33 70t-47 20l2 11h192l-3 -11
q-67 -10 -38 -90l80 -219l173 202q84 98 -6 107z" />
    <glyph glyph-name="Y" unicode="Y" horiz-adv-x="607" 
d="M527 720h183l-3 -11q-43 -4 -74 -32.5t-98 -115.5q-32 -41 -177 -239l-52 -211q-13 -45 -7.5 -72t37.5 -28l-2 -11h-176l3 10q54 2 76 96l52 217l-99 317q-12 36 -28 51.5t-40 17.5l3 11h193l-2 -11q-53 -4 -53 -46q0 -19 8 -42l83 -282q25 34 84.5 115.5t78.5 107.5
q55 75 55 110q0 33 -47 37z" />
    <glyph glyph-name="Z" unicode="Z" horiz-adv-x="592" 
d="M270 13q54 0 95 14.5t74 47.5t57 70t54 97h12l-122 -269q-35 27 -100 27h-371l583 706h-199q-78 0 -125 -39.5t-98 -129.5h-12l98 211q45 -28 120 -28h314l-576 -698q57 -9 196 -9z" />
    <glyph glyph-name="bracketleft" unicode="[" horiz-adv-x="281" 
d="M383 783l-3 -13l-132 3q-34 -304 -82 -504q-64 -267 -160 -501l134 3l-4 -13h-152l247 1025h152z" />
    <glyph glyph-name="backslash" unicode="\" horiz-adv-x="491" 
d="M392 -159h-23l-58 233l-100 384l-73 262h23l64 -253l98 -379z" />
    <glyph glyph-name="bracketright" unicode="]" horiz-adv-x="281" 
d="M306 783l-247 -1025h-152l3 13l133 -3q20 243 81 501q53 217 161 504l-134 -3l3 13h152z" />
    <glyph glyph-name="asciicircum" unicode="^" horiz-adv-x="493" 
d="M478 384h-53l-97 302l-237 -303h-20l281 347l17 -14z" />
    <glyph glyph-name="underscore" unicode="_" horiz-adv-x="497" 
d="M-58 -80l7 22l165 -5h173l124 5l-7 -22l-161 5h-183z" />
    <glyph glyph-name="a" unicode="a" horiz-adv-x="508" 
d="M373 32q15 0 44.5 33t59.5 83l6 -3q-41 -72 -85 -115t-71 -43q-64 0 -23 110l29 82l-3 1q-45 -86 -99.5 -139.5t-108.5 -53.5q-47 0 -73.5 37t-26.5 98q0 88 46.5 179.5t120 151.5t145.5 60q63 0 88 -73l71 64h8q-23 -55 -47 -127.5t-52 -163t-40 -125.5q-18 -56 11 -56z
M154 36q50 0 116 77.5t105 194.5q18 54 22 96.5t-10.5 69.5t-49.5 27q-49 0 -108.5 -55.5t-102.5 -144t-43 -170.5q0 -39 17.5 -67t53.5 -28z" />
    <glyph glyph-name="b" unicode="b" horiz-adv-x="507" 
d="M374 515q53 0 82 -40.5t29 -105.5q0 -81 -45 -170t-119 -150.5t-148 -61.5q-86 0 -140 85l172 566q16 44 8 64t-48 14l3 10l136 36l-137 -444q42 84 96.5 140.5t110.5 56.5zM167 -1q60 0 120 65.5t96 153.5t36 159q0 103 -75 103q-50 0 -107.5 -73t-94 -166.5
t-36.5 -156.5q0 -85 61 -85z" />
    <glyph glyph-name="c" unicode="c" horiz-adv-x="431" 
d="M161 -13q-59 0 -95.5 45t-36.5 116q0 89 38.5 173t106.5 138t145 54q51 0 80 -31.5t30 -79.5q1 -35 -15 -62.5t-39 -27.5q-15 0 -25 9.5t-10 26.5q0 22 28.5 46t28.5 48q-1 25 -18.5 42t-51.5 17q-54 -1 -108 -51t-88.5 -127.5t-34.5 -154.5q0 -63 29.5 -98t79.5 -35
q32 0 71 25.5t73 79.5l6 -3q-27 -60 -80.5 -105t-113.5 -45z" />
    <glyph glyph-name="d" unicode="d" horiz-adv-x="528" 
d="M509 504q-84 -231 -143 -419q-16 -54 14 -54q14 0 42 28.5t68 92.5l8 -4q-51 -85 -97 -123t-73 -38q-63 0 -23 107l33 85l-5 1q-45 -86 -98.5 -139.5t-107.5 -53.5q-48 0 -76 38.5t-28 99.5q0 92 42.5 182.5t112 148t141.5 57.5q37 0 65 -21.5t41 -58.5l6 20l57 172
q22 58 15 78.5t-59 12.5l3 10l148 36zM158 32q49 0 115 78t105 195q27 83 11.5 139.5t-65.5 56.5q-47 0 -102.5 -53.5t-94.5 -142.5t-39 -178q0 -39 17.5 -67t52.5 -28z" />
    <glyph glyph-name="e" unicode="e" horiz-adv-x="423" 
d="M229 262l-128 -36q-10 -43 -10 -76q0 -57 22.5 -91.5t67.5 -34.5q46 0 91 33.5t81 89.5l7 -4q-36 -64 -91.5 -112t-116.5 -48q-57 0 -91 46.5t-34 113.5q0 85 38 170.5t102.5 142t133.5 56.5q48 0 83 -28t35 -74q0 -51 -49.5 -86.5t-140.5 -61.5zM302 501
q-51 0 -112.5 -84t-86.5 -183q49 16 81.5 28t70.5 30.5t60 37t37 44.5t15 56q0 34 -18.5 52.5t-46.5 18.5z" />
    <glyph glyph-name="f" unicode="f" horiz-adv-x="304" 
d="M363 767q40 0 68 -33t28 -74q0 -26 -11.5 -42t-29.5 -16q-38 0 -38 35q0 11 16.5 30t16.5 35q0 21 -15.5 37t-41.5 16q-18 0 -32 -4.5t-24 -17t-17 -24.5t-13.5 -37.5t-11 -45.5t-12.5 -58.5t-15 -67.5h109l-4 -15l-108 2l-2 -8q-11 -45 -60 -238t-60 -236
q-24 -98 -76.5 -168t-125.5 -70q-38 0 -65 27.5t-27 60.5q0 27 13 46t33 19q35 0 35 -33q0 -13 -14.5 -30t-14.5 -33q0 -18 14.5 -30t36.5 -12q18 0 33.5 8t27.5 25t20.5 34.5t17 46.5t14 49.5t13 55t12.5 53.5q78 312 110 434l-66 1l5 11h64q1 5 7 27q29 115 70.5 177.5
t119.5 62.5z" />
    <glyph glyph-name="g" unicode="g" horiz-adv-x="448" 
d="M462 540q21 -1 31.5 -11.5t10.5 -26.5q0 -18 -10.5 -29t-29.5 -10q-12 1 -25 13.5t-21 12.5q-23 1 -41 -40q21 -36 21 -86q1 -80 -53 -148t-135 -68q-50 0 -83 31q-30 -9 -46 -22.5t-15 -30.5q1 -18 17.5 -31t61.5 -32l143 -61q53 -23 75 -47t23 -58q2 -53 -50.5 -90
t-137.5 -37q-118 0 -179.5 36.5t-62.5 85.5q-1 42 32.5 74.5t88.5 44.5q-34 16 -47.5 32.5t-13.5 44.5q-1 34 29.5 60.5t75.5 35.5q-40 42 -42 114q-1 81 51.5 148.5t133.5 67.5q71 0 107 -55q13 39 38.5 61.5t52.5 20.5zM194 160q51 0 102 83t51 168q0 39 -14.5 63.5
t-44.5 24.5q-59 0 -107.5 -81t-48.5 -162q0 -96 62 -96zM257 -66l-147 61q-12 5 -21 9q-44 -15 -64.5 -44.5t-19.5 -61.5q2 -55 51.5 -86.5t145.5 -31.5q55 0 91 20t38 59q2 45 -74 75z" />
    <glyph glyph-name="h" unicode="h" horiz-adv-x="528" 
d="M315 -14q-19 0 -28.5 11t-9 33.5t12.5 54.5l85 239q56 151 -15 151q-14 0 -33.5 -12t-49 -45.5t-61.5 -84.5t-73.5 -137.5t-83.5 -195.5h-59l199 642q16 50 8.5 65.5t-48.5 11.5l3 9l139 34l-175 -562l3 -2q85 172 150 243.5t123 71.5q29 0 45.5 -14.5t20 -49.5
t-17.5 -93l-89 -258q-9 -24 -11 -38t1.5 -20.5t14.5 -6.5q33 0 117 124l7 -2q-40 -70 -88 -119.5t-87 -49.5z" />
    <glyph glyph-name="i" unicode="i" horiz-adv-x="301" 
d="M272 610q-18 0 -32 13.5t-14 31.5q0 19 14 33t32 14q19 0 32.5 -14t13.5 -33q0 -18 -13.5 -31.5t-32.5 -13.5zM39 346q117 167 190 167q14 0 20.5 -7.5t5.5 -23.5t-5.5 -31.5t-12.5 -40.5l-107 -321q-11 -30 -11 -44.5t16 -14.5q21 0 54 35.5t67 92.5l6 -4
q-48 -87 -94.5 -126.5t-76.5 -39.5q-56 0 -25 95l103 315q18 53 18 60q-1 10 -12 10q-36 0 -129 -126z" />
    <glyph glyph-name="j" unicode="j" horiz-adv-x="271" 
d="M259 610q-18 0 -32 13.5t-14 31.5q0 19 14 33t32 14q19 0 32.5 -14t13.5 -33q0 -18 -13.5 -31.5t-32.5 -13.5zM-74 -231q-37 0 -58.5 26t-21.5 60q1 32 15.5 54.5t35.5 22.5q11 0 17.5 -5.5t5.5 -15.5q0 -14 -14.5 -35t-15.5 -44q0 -50 52 -50q37 0 64 30.5t37 71.5
q7 28 16 92.5t23 113.5l92 318q15 54 8 62q-3 3 -10 3q-37 0 -119 -130l-7 4q50 88 98.5 128t80.5 40q24 0 25 -27.5t-13 -73.5l-114 -409q-35 -124 -83.5 -180t-113.5 -56z" />
    <glyph glyph-name="k" unicode="k" horiz-adv-x="499" 
d="M468 513q24 0 36.5 -13.5t10.5 -33.5q-2 -17 -16 -29t-35 -12q-18 0 -35 10.5t-25 10.5q-14 0 -36.5 -24.5t-45.5 -56.5t-59.5 -65.5t-74.5 -47.5q76 10 114 -5.5t35 -70.5l-4 -82q-2 -55 9 -64q4 -4 11 -4q36 0 92 99l8 -4q-78 -135 -137 -135q-51 0 -46 75l6 92
q4 59 -25 79t-107 7l-75 -239h-63l197 625q5 15 7.5 23.5t5 20.5t2.5 18t-1 13.5t-5.5 10.5t-11.5 5.5t-17.5 2t-24.5 -2.5l3 10l148 36l-161 -512q46 8 84.5 38t64.5 67t50.5 73t55 60.5t65.5 24.5z" />
    <glyph glyph-name="l" unicode="l" horiz-adv-x="254" 
d="M60 -17q-29 0 -39 25.5t3 69.5l174 547q21 55 13.5 77.5t-58.5 13.5l3 10l147 36l-211 -665q-24 -75 9 -75q37 0 113 116l7 -3q-93 -152 -161 -152z" />
    <glyph glyph-name="m" unicode="m" horiz-adv-x="852" 
d="M44 0q130 404 133 413q19 60 -6 60q-40 0 -124 -128l-7 4q62 94 104.5 129t76.5 35q53 0 28 -85q-4 -13 -98 -287l3 -1q55 121 98.5 198.5t78.5 114t60 48.5t54 12q25 0 43 -16t23.5 -50.5t-13.5 -90.5l-74 -215l3 -1q55 121 98.5 198.5t78.5 114t60 48.5t55 12
q25 0 42 -16t21.5 -50.5t-13.5 -90.5l-80 -243q-22 -65 -14 -78q4 -5 13 -5q17 0 51.5 38t67.5 91l7 -4q-39 -66 -87.5 -117t-85.5 -51q-59 0 -26 98l78 229q56 166 -15 166q-93 0 -299 -480h-69l109 314q59 166 -15 166q-20 0 -45 -22t-60.5 -73.5t-84.5 -148.5t-109 -236
h-61z" />
    <glyph glyph-name="n" unicode="n" horiz-adv-x="571" 
d="M360 -14q-27 0 -33 27t10 72l78 222q32 87 29.5 130t-45.5 43q-98 0 -302 -480h-54q123 380 129 402q6 19 8.5 30t4 22.5t-1.5 16.5t-10 5q-17 0 -55 -37.5t-71 -91.5l-7 4q54 89 100.5 125.5t78.5 36.5q51 0 24 -88q-13 -42 -50.5 -149t-47.5 -135l3 -1q54 121 98 198.5
t78.5 114t59.5 48.5t55 12q26 0 44 -16.5t24 -52.5t-15 -95l-81 -236q-21 -61 -20 -73q1 -14 15 -14q16 0 51 36.5t68 87.5l6 -4q-38 -62 -87 -111t-84 -49z" />
    <glyph glyph-name="o" unicode="o" horiz-adv-x="472" 
d="M176 -13q-67 0 -105 51t-38 131q0 79 35 158.5t97 132.5t130 53q67 0 105.5 -51t38.5 -131q0 -79 -35.5 -158.5t-97 -132.5t-130.5 -53zM152 5q56 0 113 64.5t91 152t34 157.5q0 53 -19 84.5t-55 31.5q-55 0 -111 -65.5t-89.5 -153.5t-33.5 -157q0 -52 18 -83t52 -31z
" />
    <glyph glyph-name="p" unicode="p" horiz-adv-x="491" 
d="M289 513q73 0 121 -47t48 -136q0 -87 -42 -167t-111.5 -128t-146.5 -48q-46 0 -82 14l-43 -134q-13 -44 -1 -59t61 -17l-3 -11h-203l3 10q31 3 47.5 16.5t27.5 46.5l201 626q-27 -9 -101 -45l4 16q110 39 176 90h5l-11 -33q29 6 50 6zM142 1q66 0 124.5 47.5t92 122.5
t33.5 153q0 83 -37.5 131t-118.5 42l-156 -484q33 -12 62 -12z" />
    <glyph glyph-name="q" unicode="q" horiz-adv-x="480" 
d="M292 -140q-14 -37 -4.5 -52t50.5 -17l-3 -11h-200l3 10q36 3 57.5 18.5t33.5 50.5l110 320l-4 1q-44 -85 -99.5 -139.5t-109.5 -54.5q-48 0 -75.5 37.5t-27.5 98.5q0 91 42.5 182.5t112.5 150.5t143 59q78 0 102 -76l73 67h8zM158 38q50 0 108 68.5t95 156t37 146.5
q0 43 -19.5 68t-55.5 25q-48 0 -103.5 -55t-94 -143t-38.5 -173q0 -38 17.5 -65.5t53.5 -27.5z" />
    <glyph glyph-name="r" unicode="r" horiz-adv-x="435" 
d="M33 0q9 29 40 123t55 168.5t32 101.5q22 74 11 83q-2 2 -6 2q-31 0 -118 -130l-7 3q106 169 177 169q55 0 11 -125l-78 -223l4 -1q38 90 72 155.5t59 100.5t49 55.5t39.5 25.5t33.5 5q30 0 47.5 -17t18.5 -42q0 -25 -14 -43.5t-35 -18.5q-33 0 -33 28q-1 8 4.5 19t5.5 16
q0 23 -28 23q-43 0 -114.5 -117t-163.5 -361h-62z" />
    <glyph glyph-name="s" unicode="s" horiz-adv-x="387" 
d="M126 -13q-57 0 -93 31t-34 80q2 18 15 33.5t31 15.5q17 0 28 -12.5t9 -30.5q-2 -15 -9.5 -28.5t-8.5 -26.5q-1 -23 18.5 -37t52.5 -14q39 0 72.5 30t34.5 72q2 33 -19.5 72t-48 70t-47.5 72t-19 77q4 52 50.5 87t106.5 35q54 0 88.5 -33t32.5 -72q-1 -19 -12.5 -34.5
t-29.5 -15.5q-17 0 -26.5 10t-8.5 28q1 13 12.5 27.5t11.5 25.5q1 23 -19 39t-50 16q-39 0 -69 -24t-32 -64q-2 -36 34 -88.5t72 -106t33 -92.5q-3 -56 -52 -99t-124 -43z" />
    <glyph glyph-name="t" unicode="t" horiz-adv-x="339" 
d="M249 486l-127 -386q-24 -71 4 -71q43 0 130 129l8 -2q-54 -90 -101.5 -129t-79.5 -39q-27 0 -36.5 24.5t4.5 70.5l131 403h-93l3 14h94l43 131l73 17l-49 -148q68 2 129 19l-14 -33h-119z" />
    <glyph glyph-name="u" unicode="u" horiz-adv-x="571" 
d="M211 514q28 0 34 -26.5t-11 -71.5l-78 -223q-21 -59 -27 -96t4 -56.5t39 -19.5q98 0 302 479h54q-123 -380 -129 -402q-6 -19 -8.5 -30t-4 -22.5t1.5 -16.5t10 -5q17 0 55 37.5t72 91.5l6 -4q-55 -89 -101 -125.5t-78 -36.5q-51 0 -24 89q1 5 99 283l-3 1
q-55 -121 -98.5 -198.5t-78.5 -114t-60 -48.5t-55 -12q-26 0 -43.5 16.5t-23.5 52.5t15 95l80 236q21 61 20 73q-1 14 -14 14q-16 0 -51.5 -37t-67.5 -87l-7 4q38 62 87 111t84 49z" />
    <glyph glyph-name="v" unicode="v" horiz-adv-x="518" 
d="M447 513q22 0 34.5 -27t12.5 -71q0 -98 -32 -195.5t-93.5 -165t-134.5 -67.5q-55 0 -87 36t-31 99q2 114 199 326h-148q-121 0 -121 -80q0 -30 20 -30q4 0 15 11t25 11q11 0 19 -9t8 -19q0 -15 -11.5 -26t-30.5 -11q-23 0 -38 20.5t-15 52.5q0 132 170 132h108q33 0 40 9
l5 -3l-32 -60q-54 -61 -82 -96.5t-53.5 -88t-25.5 -98.5q0 -55 27 -85.5t78 -30.5q72 0 135 94t63 186q0 31 -10 56t-21.5 38t-21.5 28t-10 28q0 16 10.5 26t28.5 10z" />
    <glyph glyph-name="w" unicode="w" horiz-adv-x="748" 
d="M680 513q44 0 44 -108q0 -92 -32.5 -188t-93 -163t-129.5 -67t-97 83q-35 -41 -70.5 -62t-61.5 -21q-56 0 -87 39t-28 103q3 67 51.5 139.5t146.5 179.5h-165q-113 0 -113 -90q0 -15 7.5 -22t14.5 -7q5 0 15 10t24 10q12 0 19.5 -8.5t7.5 -19.5q0 -14 -11 -25t-29 -11
q-24 0 -40.5 20.5t-16.5 56.5q0 63 45 100.5t126 37.5h117q30 0 38 10l5 -4l-33 -60q-154 -179 -154 -293q0 -104 101 -104q41 0 88 33q-12 42 -12 100q0 73 19.5 148.5t55 129t76.5 53.5q31 0 48 -27t17 -74q0 -80 -46.5 -163t-112.5 -143q36 -57 106 -57q46 0 89.5 47.5
t68 111t24.5 116.5q0 39 -15 67t-30 47.5t-15 37.5q0 17 10 27t28 10zM381 269q-2 -98 29 -154q52 49 89.5 115.5t40.5 118.5q3 47 -13.5 78t-42.5 31q-32 0 -67 -62t-36 -127z" />
    <glyph glyph-name="x" unicode="x" horiz-adv-x="477" 
d="M505 462q1 -26 -12.5 -43t-35.5 -17q-14 0 -21.5 9t-8.5 19t-5.5 19t-14.5 9q-42 0 -140 -187l19 -130q6 -40 10 -58t13.5 -30.5t24.5 -12.5q21 0 43.5 33t36.5 98l6 -2q-13 -74 -47.5 -128.5t-73.5 -54.5q-28 0 -43 22t-22 69l-22 146q-62 -124 -102.5 -180t-81.5 -56
q-25 0 -40 16.5t-15 41.5q0 23 13 38t31 15q16 0 25.5 -8t11.5 -17.5t7.5 -17.5t15.5 -8q32 0 133 193l-22 145q-7 45 -14 63.5t-23 18.5q-26 0 -49 -33t-38 -86l-7 1q14 50 33.5 85.5t38.5 51t33.5 21.5t26.5 6q23 0 35.5 -17.5t18.5 -62.5l22 -148q61 123 102.5 175.5
t79.5 52.5q25 0 41 -14t17 -37z" />
    <glyph glyph-name="y" unicode="y" horiz-adv-x="464" 
d="M459 448q0 -101 -83.5 -222t-206.5 -227q-21 -42 -40 -73.5t-51.5 -73.5t-72.5 -65.5t-83 -23.5q-36 0 -58 14.5t-22 34.5q0 16 11.5 29t29.5 13q12 0 20 -10t12.5 -22t17 -22t33.5 -10q59 2 107 96t71.5 219t23.5 241q0 117 -28 117q-37 0 -106 -123l-8 4q53 99 89 134
t65 35q55 0 55 -138q0 -161 -58 -355q106 95 170 190t64 154q0 25 -15 54t-15 47q0 22 12.5 35t28.5 13t26.5 -17.5t10.5 -47.5z" />
    <glyph glyph-name="z" unicode="z" horiz-adv-x="453" 
d="M452 513q21 0 30 -13q-14 -39 -71 -75q-193 -182 -329 -292q38 17 77.5 4.5t66.5 -35t57 -44t49 -21.5q23 0 37 17.5t14 43.5q0 13 -5 21t-15.5 11t-17.5 4t-21 0t-16 -1q-15 0 -23.5 8.5t-8.5 22.5q0 17 14 27t34 10q28 0 49.5 -26.5t21.5 -68.5q0 -55 -33.5 -86.5
t-72.5 -31.5q-26 0 -57.5 26.5t-70.5 53.5t-83 27q-41 0 -51 -18q-4 -7 -5 -14t-1 -18t-1 -17q-4 -41 -29 -41q-20 0 -20 27q0 53 88 110q224 206 319 283q-21 -12 -53 -5t-56.5 20t-61 26t-66.5 13q-26 0 -43.5 -14t-17.5 -32q0 -17 12.5 -29t34.5 -12q16 0 25.5 -8
t9.5 -22q0 -13 -11.5 -20t-26.5 -7q-29 0 -44.5 20t-15.5 53q0 53 39 88t87 35q37 0 107 -31t94 -31q28 0 43 28q3 5 8.5 17t9.5 17z" />
    <glyph glyph-name="braceleft" unicode="{" horiz-adv-x="267" 
d="M194 636q11 47 35.5 75t49 33.5t48 8t33.5 -1.5l-4 -10q-18 0 -29 -2t-28.5 -10.5t-31 -32t-22.5 -60.5q-5 -20 -26 -128t-26 -130q-15 -61 -54.5 -92.5t-85.5 -42.5q101 -26 75 -135q-5 -22 -34 -121.5t-34 -119.5q-10 -31 -7 -51.5t7 -31.5t16.5 -16t21.5 -6t23 0
l-2 -10q-69 -5 -94 17q-33 29 -16 98q6 24 35 125t33 116q11 36 6.5 60t-11 38t-20.5 21t-23 9t-18 2h-6l2 11h6q12 0 26 3.5t35 15t39.5 40t28.5 70.5q5 21 26.5 130t25.5 128z" />
    <glyph glyph-name="bar" unicode="|" horiz-adv-x="211" 
d="M211 762h35l-87 -329l-83 -343l-53 -249h-34l85 320l89 366z" />
    <glyph glyph-name="braceright" unicode="}" horiz-adv-x="265" 
d="M183 378q-10 -36 -5.5 -60t11 -37.5t21 -20.5t23.5 -9t18 -2h6l-3 -11h-6q-12 0 -26 -4t-35 -15.5t-39.5 -40t-28.5 -70.5q-4 -15 -23.5 -116t-25.5 -125q-11 -47 -35.5 -75t-49.5 -33.5t-48.5 -8t-31.5 1.5l3 10q17 -1 29.5 1t29.5 11t30.5 32.5t22.5 60.5q4 17 23 117
t25 124q26 109 140 135q-101 26 -75 135q5 22 36 130t36 128q6 25 7 44t-4 30t-10 18t-16.5 9.5t-18 3t-18.5 0.5l1 10q61 4 86 -10q43 -26 24 -105q-6 -24 -37.5 -133.5t-35.5 -124.5z" />
    <glyph glyph-name="asciitilde" unicode="~" horiz-adv-x="470" 
d="M344 252q-38 0 -107 34t-106 34q-32 0 -52 -11.5t-45 -42.5l-9 7q25 29 36 41t35 24t53 12q38 0 106.5 -34t105.5 -34q34 0 55.5 10.5t42.5 38.5l8 -7q-55 -72 -123 -72z" />
    <glyph glyph-name="exclamdown" unicode="&#xa1;" horiz-adv-x="213" 
d="M157 513q20 0 34.5 -14.5t14.5 -35.5q0 -20 -14.5 -34t-34.5 -14t-34.5 14.5t-14.5 33.5q0 21 14.5 35.5t34.5 14.5zM126 312l-19 -82q-30 -129 -40 -258.5t-14 -144.5q-14 -60 -53 -60q-27 0 -37 22t-2 59q2 10 52.5 132t81.5 252l20 83z" />
    <glyph glyph-name="cent" unicode="&#xa2;" horiz-adv-x="431" 
d="M429 402q1 -35 -15 -62.5t-39 -27.5q-15 0 -25 9.5t-10 26.5q0 22 28.5 46t28.5 48q-1 25 -18.5 42t-51.5 17q-8 0 -20 -2l-39 -150l-64 -264l-11 -49q4 -1 12 -1q32 0 71 25.5t73 79.5l6 -3q-24 -54 -71 -97t-101 -51l-20 -95h-21l24 93h-5q-59 0 -95.5 45t-36.5 116
q0 129 77.5 239t185.5 124l20 91l21 -1l-23 -88h9q51 0 80 -31.5t30 -79.5zM273 422l16 72q-75 -27 -134 -124.5t-59 -201.5q0 -54 22.5 -88t60.5 -42l27 102z" />
    <glyph glyph-name="sterling" unicode="&#xa3;" horiz-adv-x="537" 
d="M429 548q3 13 26 37.5t29 48.5q9 38 -11 62t-66 24q-53 0 -93.5 -32t-55.5 -98q-8 -33 -7.5 -107t-6.5 -104l-3 -12h114l99 5l-7 -22l-127 5h-82q-20 -73 -66.5 -137.5t-152.5 -155.5h256q84 0 130.5 32t95.5 125h12l-114 -234q-41 15 -135 15h-324q102 108 153.5 178.5
t66.5 138.5q5 20 6 38l-85 -5l6 22l81 -3q1 12 1.5 75t7.5 95q23 101 89.5 147.5t142.5 46.5q72 0 102 -44t16 -107q-7 -35 -25 -54.5t-42 -19.5q-39 0 -31 40z" />
    <glyph glyph-name="yen" unicode="&#xa5;" horiz-adv-x="607" 
d="M527 720h183l-3 -11q-43 -4 -74 -32.5t-98 -115.5q-47 -62 -173 -233h60l104 4l-7 -19l-134 4h-29l-18 -77h62l104 4l-7 -19l-134 4h-28l-29 -118q-13 -45 -7.5 -72t37.5 -28l-2 -11h-176l3 10q54 2 76 96l29 123h-57l-99 -4l7 19l138 -4h14l19 77h-57l-99 -4l7 19
l138 -4h10l-97 312q-12 36 -28 51.5t-40 17.5l3 11h193l-2 -11q-53 -4 -53 -46q0 -19 8 -42l83 -282q25 34 84.5 115.5t78.5 107.5q55 75 55 110q0 33 -47 37z" />
    <glyph glyph-name="section" unicode="&#xa7;" horiz-adv-x="568" 
d="M567 723h9l-21 -216h-11q1 105 -49 159.5t-131 54.5q-69 0 -119.5 -45.5t-50.5 -108.5q0 -42 35.5 -72t86.5 -49.5t102 -39.5t86.5 -53.5t35.5 -80.5q0 -55 -34 -109t-88 -88q39 -37 39 -88q0 -85 -82.5 -151.5t-181.5 -66.5q-40 0 -75 14.5t-59.5 29.5t-36.5 15
q-23 0 -39 -51h-10l28 276h13q-1 -124 50.5 -198t140.5 -74q68 0 127 53t59 113q0 43 -35.5 74.5t-86 52t-101.5 42.5t-86.5 57t-35.5 84q0 51 37 101t90 79q-41 36 -41 83q0 81 73.5 147t160.5 66q55 0 110.5 -22.5t61.5 -22.5q19 0 29 35zM484 219q0 43 -34.5 75.5
t-78 49.5t-101 40.5t-87.5 45.5q-74 -44 -74 -123q0 -46 34.5 -80t78.5 -51.5t101 -42.5t86 -50q34 26 54.5 62.5t20.5 73.5z" />
    <glyph glyph-name="copyright" unicode="&#xa9;" horiz-adv-x="836" 
d="M444 -14q-154 0 -263.5 109t-109.5 264t109.5 264.5t263.5 109.5t264 -109.5t110 -264.5q0 -154 -109.5 -263.5t-264.5 -109.5zM444 0q148 0 253 105t105 254t-105 255t-253 106t-252 -106t-104 -255t104 -254t252 -105zM377 113q-56 0 -90.5 42.5t-35.5 110.5
q0 84 36.5 163.5t101.5 131t138 51.5q48 0 75.5 -30t28.5 -76q1 -33 -14 -59t-38 -26q-13 0 -22.5 9t-9.5 25q0 21 26.5 44t26.5 46t-17 39.5t-49 15.5q-79 -1 -149 -101.5t-70 -213.5q0 -61 28 -94t75 -33q31 0 68 24.5t69 75.5l6 -3q-26 -58 -76.5 -100t-107.5 -42z" />
    <glyph glyph-name="ordfeminine" unicode="&#xaa;" horiz-adv-x="436" 
d="M388 342q12 0 37.5 27.5t48.5 66.5l6 -2q-32 -58 -71 -93.5t-63 -35.5q-50 0 -18 90l24 67h-3q-35 -68 -83 -112.5t-92 -44.5q-40 0 -62 30t-22 80q0 111 82 214.5t173 103.5q55 0 79 -60l62 53h6q-29 -70 -113 -338q-15 -46 9 -46zM199 347q42 0 99.5 62.5t87.5 156.5
q14 43 15.5 78.5t-12 57t-42.5 21.5q-39 0 -87 -45t-82 -116.5t-34 -137.5q0 -32 13 -54.5t42 -22.5z" />
    <glyph glyph-name="guillemotleft" unicode="&#xab;" horiz-adv-x="458" 
d="M308 450l-201 -209l100 -206h-17l-162 207l263 208h17zM481 450l-201 -209l100 -206h-17l-162 207l263 208h17z" />
    <glyph glyph-name="registered" unicode="&#xae;" horiz-adv-x="836" 
d="M444 733q154 0 264 -109.5t110 -264.5q0 -154 -109.5 -263.5t-264.5 -109.5q-154 0 -263.5 109t-109.5 264t109.5 264.5t263.5 109.5zM444 0q148 0 253 105t105 254t-105 255t-253 106t-252 -106t-104 -255t104 -254t252 -105zM497 599q71 0 113 -35.5t32 -93.5
q-11 -58 -61 -90.5t-112 -32.5h-27l-1 -5l33 -6l64 -143q14 -33 28.5 -44.5t34.5 -11.5l-2 -10h-46q-38 0 -60 52l-72 168h-51l-38 -158q-13 -50 26 -52l-3 -10h-122l3 10q39 2 51 52l83 351q12 48 -26 49l3 10h150zM595 470q9 52 -20.5 86t-92.5 34h-54l-55 -229
q45 -5 78 -5q63 0 99 32t45 82z" />
    <glyph glyph-name="degree" unicode="&#xb0;" horiz-adv-x="287" 
d="M232 500q-51 0 -86.5 35.5t-35.5 86.5t35.5 87t86.5 36t87 -36t36 -87t-36 -86.5t-87 -35.5zM232 517q44 0 75 31t31 74q0 44 -31 75t-75 31q-43 0 -74 -31t-31 -75t30.5 -74.5t74.5 -30.5z" />
    <glyph glyph-name="plusminus" unicode="&#xb1;" horiz-adv-x="464" 
d="M344 312l98 5l-6 -21l-139 5h-50l-19 -82l-20 -104h-23l37 134l12 52h-81l-104 -5l6 21l135 -5h47l22 91l19 99h22l-38 -139l-12 -51h94zM129 60h154l99 5l-7 -22l-138 5h-145l-104 -5l7 22z" />
    <glyph glyph-name="uni00B2" unicode="&#xb2;" horiz-adv-x="344" 
d="M229 366q49 0 78.5 18t57.5 68h8l-76 -151q-18 16 -74 16h-186l166 152q47 44 66.5 63t40.5 52.5t21 62.5q0 75 -71 75q-34 0 -62 -21.5t-28 -48.5q0 -10 6.5 -24.5t4.5 -24.5q-1 -11 -10.5 -20t-22.5 -9q-25 0 -25 30q0 50 47 89.5t106 39.5q45 0 74 -21.5t29 -62.5
q0 -19 -5 -36.5t-19.5 -36.5t-28 -33.5t-42 -37.5t-49 -39t-62.5 -47.5l-70 -52.5h126z" />
    <glyph glyph-name="uni00B3" unicode="&#xb3;" horiz-adv-x="338" 
d="M379 658q0 -49 -48 -82t-120 -49q7 1 22 1q51 0 83 -22.5t32 -58.5q0 -63 -57 -102.5t-119 -39.5q-51 0 -77 24t-26 57q0 26 13 43.5t30 17.5q25 0 21 -26q-2 -10 -15 -27t-13 -34q0 -20 19 -32.5t46 -12.5q49 0 86 37t37 90q0 32 -23 53.5t-64 21.5q-30 0 -63 -10l-2 8
q41 12 68.5 22.5t59 28.5t48 43t16.5 57q0 26 -19.5 41.5t-50.5 15.5q-29 0 -52 -17t-23 -40q0 -9 6.5 -21.5t5.5 -21.5q-2 -14 -12.5 -22.5t-23.5 -8.5q-26 0 -26 32q0 40 40.5 74.5t86.5 34.5q48 0 81 -20t33 -55z" />
    <glyph glyph-name="periodcentered" unicode="&#xb7;" horiz-adv-x="199" 
d="M105 221q-20 0 -35 14.5t-15 35.5q0 20 15 34t35 14t34 -14t14 -34q0 -21 -14 -35.5t-34 -14.5z" />
    <glyph glyph-name="uni00B9" unicode="&#xb9;" horiz-adv-x="237" 
d="M178 391q-16 -61 46 -63l-2 -11h-173l2 11q56 2 72 67l57 240q7 28 -5 35t-39 -6l3 13l124 71z" />
    <glyph glyph-name="ordmasculine" unicode="&#xba;" horiz-adv-x="408" 
d="M221 306q-56 0 -88.5 43t-32.5 110q0 100 65.5 187t152.5 87q55 0 87 -43t32 -108q0 -101 -65 -188.5t-151 -87.5zM204 321q45 0 90.5 52t72.5 122t27 126q0 44 -15.5 71t-43.5 27q-45 0 -90.5 -52t-73 -122.5t-27.5 -126.5q0 -44 15.5 -70.5t44.5 -26.5z" />
    <glyph glyph-name="guillemotright" unicode="&#xbb;" horiz-adv-x="458" 
d="M91 450l162 -207l-263 -208h-17l201 210l-100 205h17zM264 450l162 -207l-263 -208h-17l201 210l-100 205h17z" />
    <glyph glyph-name="onequarter" unicode="&#xbc;" horiz-adv-x="735" 
d="M227 328l-2 -11h-173l2 11q56 2 72 67l57 240q7 28 -5 35t-39 -6l3 13l124 71l-85 -357q-16 -61 46 -63zM718 720l-188 -215l-268 -314l-159 -191h-24l177 202l438 518h24zM674 415l-59 -247h60l-22 -31h-46l-18 -76q-7 -29 1 -40t29 -12l-2 -9h-145l2 8q48 3 60 54
l18 75h-159l7 28l263 250h11zM416 168h143l42 176z" />
    <glyph glyph-name="onehalf" unicode="&#xbd;" horiz-adv-x="763" 
d="M227 328l-2 -11h-173l2 11q56 2 72 67l57 240q7 28 -5 35t-39 -6l3 13l124 71l-85 -357q-16 -61 46 -63zM692 720l-188 -215l-268 -314l-159 -191h-24l177 202l438 518h24zM551 49q49 0 78.5 18t57.5 68h8l-76 -151q-18 16 -74 16h-186l166 152q47 44 66.5 63t40.5 52.5
t21 62.5q0 75 -72 75q-33 0 -61.5 -21.5t-28.5 -48.5q0 -10 7 -24.5t5 -24.5q-2 -11 -11 -20t-22 -9q-25 0 -25 30q0 50 47 89.5t106 39.5q45 0 74 -21.5t29 -62.5q0 -19 -5 -36.5t-19.5 -36.5t-28 -33.5t-42 -38t-49 -39t-63 -47t-70.5 -52.5h127z" />
    <glyph glyph-name="threequarters" unicode="&#xbe;" horiz-adv-x="787" 
d="M348 447q0 -63 -56.5 -102.5t-118.5 -39.5q-51 0 -77 24t-26 57q0 26 13 43.5t29 17.5q25 0 21 -26q-2 -10 -14.5 -27t-12.5 -34q0 -20 18.5 -32.5t45.5 -12.5q50 0 87 37.5t37 89.5q0 32 -23 53.5t-64 21.5q-30 0 -63 -10l-2 8q32 9 54.5 17t50.5 21.5t45 28.5t29 36.5
t12 47.5q0 27 -19.5 42t-50.5 15q-29 0 -51.5 -17t-22.5 -40q0 -9 6 -21.5t5 -21.5q-2 -14 -12 -22.5t-23 -8.5q-26 0 -26 32q0 40 40 74.5t87 34.5q48 0 80.5 -20t32.5 -55q0 -49 -47.5 -82t-119.5 -49q7 1 21 1q51 0 83 -22.5t32 -58.5zM789 720l-187 -215l-268 -314
l-160 -191h-24l177 202l439 518h23zM727 415l-59 -247h60l-23 -31h-45l-18 -76q-8 -29 0 -40t29 -12l-2 -9h-144l2 8q48 3 60 54l18 75h-159l7 28l263 250h11zM469 168h143l43 177z" />
    <glyph glyph-name="questiondown" unicode="&#xbf;" horiz-adv-x="447" 
d="M299 513q20 0 35 -14.5t15 -35.5q0 -19 -15 -33.5t-35 -14.5t-34.5 14.5t-14.5 33.5q0 21 14.5 35.5t34.5 14.5zM284 308q-1 -59 -13.5 -101.5t-35.5 -69t-44.5 -41t-53.5 -27.5q-114 -47 -114 -153q0 -62 37.5 -99t95.5 -37q48 0 82 27.5t34 70.5q0 13 -6 29t-6 24
q0 21 12 33t29 12q22 0 34.5 -17t12.5 -43q0 -60 -56 -104.5t-128 -44.5q-82 0 -141 51.5t-59 127.5q0 117 137 171q7 3 30 11.5t32 13t28 15t28.5 22.5t22 30t20 43t12.5 56h10z" />
    <glyph glyph-name="Agrave" unicode="&#xc0;" horiz-adv-x="638" 
d="M492 787h-13l-184 153h88zM502 161q3 -32 5 -50t7 -39.5t12 -32.5t18.5 -19t27.5 -9l-2 -11h-205l2 11q48 6 62 40q11 26 4 95l-9 106h-254q-36 -61 -53 -90t-32 -61.5t-15 -47.5q0 -40 51 -42l-3 -11h-182l2 11q33 2 56.5 15t46.5 45q16 22 72 114.5t89 149.5
q19 33 57.5 97t55.5 94t39 72t29.5 68.5t6.5 46.5q29 8 60 24zM177 264h245l-33 371q-14 -31 -39.5 -76t-68.5 -118t-63 -108z" />
    <glyph glyph-name="Aacute" unicode="&#xc1;" horiz-adv-x="638" 
d="M594 940l-185 -153h-12l108 153h89zM502 161q3 -32 5 -50t7 -39.5t12 -32.5t18.5 -19t27.5 -9l-2 -11h-205l2 11q48 6 62 40q11 26 4 95l-9 106h-254q-36 -61 -53 -90t-32 -61.5t-15 -47.5q0 -40 51 -42l-3 -11h-182l2 11q33 2 56.5 15t46.5 45q16 22 72 114.5t89 149.5
q19 33 57.5 97t55.5 94t39 72t29.5 68.5t6.5 46.5q29 8 60 24zM177 264h245l-33 371q-14 -31 -39.5 -76t-68.5 -118t-63 -108z" />
    <glyph glyph-name="Acircumflex" unicode="&#xc2;" horiz-adv-x="638" 
d="M465 898l-149 -111h-13l144 153h54l71 -153h-11zM502 161q3 -32 5 -50t7 -39.5t12 -32.5t18.5 -19t27.5 -9l-2 -11h-205l2 11q48 6 62 40q11 26 4 95l-9 106h-254q-36 -61 -53 -90t-32 -61.5t-15 -47.5q0 -40 51 -42l-3 -11h-182l2 11q33 2 56.5 15t46.5 45
q16 22 72 114.5t89 149.5q19 33 57.5 97t55.5 94t39 72t29.5 68.5t6.5 46.5q29 8 60 24zM177 264h245l-33 371q-14 -31 -39.5 -76t-68.5 -118t-63 -108z" />
    <glyph glyph-name="Atilde" unicode="&#xc3;" horiz-adv-x="638" 
d="M384 889q-27 0 -52.5 -34t-33.5 -68h-13q7 27 19.5 55.5t40 57t60.5 28.5q19 0 35.5 -16t27 -35t26 -35t33.5 -16q28 0 53.5 34.5t33.5 67.5h12q-7 -27 -19 -55.5t-38.5 -57t-57.5 -28.5q-21 0 -39 16t-28.5 35t-26.5 35t-33 16zM502 161q3 -32 5 -50t7 -39.5t12 -32.5
t18.5 -19t27.5 -9l-2 -11h-205l2 11q48 6 62 40q11 26 4 95l-9 106h-254q-36 -61 -53 -90t-32 -61.5t-15 -47.5q0 -40 51 -42l-3 -11h-182l2 11q33 2 56.5 15t46.5 45q16 22 72 114.5t89 149.5q19 33 57.5 97t55.5 94t39 72t29.5 68.5t6.5 46.5q29 8 60 24zM177 264h245
l-33 371q-14 -31 -39.5 -76t-68.5 -118t-63 -108z" />
    <glyph glyph-name="Adieresis" unicode="&#xc4;" horiz-adv-x="638" 
d="M370 834q-16 0 -27 11.5t-11 27.5t11 27.5t27 11.5q17 0 28.5 -11.5t11.5 -27.5t-11.5 -27.5t-28.5 -11.5zM548 912q16 0 27.5 -11.5t11.5 -27.5t-11.5 -27.5t-27.5 -11.5t-27.5 11t-11.5 28t11.5 28t27.5 11zM502 161q3 -32 5 -50t7 -39.5t12 -32.5t18.5 -19t27.5 -9
l-2 -11h-205l2 11q48 6 62 40q11 26 4 95l-9 106h-254q-36 -61 -53 -90t-32 -61.5t-15 -47.5q0 -40 51 -42l-3 -11h-182l2 11q33 2 56.5 15t46.5 45q16 22 72 114.5t89 149.5q19 33 57.5 97t55.5 94t39 72t29.5 68.5t6.5 46.5q29 8 60 24zM177 264h245l-33 371
q-14 -31 -39.5 -76t-68.5 -118t-63 -108z" />
    <glyph glyph-name="Aring" unicode="&#xc5;" horiz-adv-x="638" 
d="M461 790q-30 0 -51 21t-21 51q0 31 21 52.5t51 21.5q31 0 52.5 -21.5t21.5 -52.5q0 -30 -21.5 -51t-52.5 -21zM461 919q-23 0 -39 -17t-16 -40t16 -39t39 -16t40 16t17 39t-17 40t-40 17zM502 161q3 -32 5 -50t7 -39.5t12 -32.5t18.5 -19t27.5 -9l-2 -11h-205l2 11
q48 6 62 40q11 26 4 95l-9 106h-254q-36 -61 -53 -90t-32 -61.5t-15 -47.5q0 -40 51 -42l-3 -11h-182l2 11q33 2 56.5 15t46.5 45q16 22 72 114.5t89 149.5q19 33 57.5 97t55.5 94t39 72t29.5 68.5t6.5 46.5q29 8 60 24zM177 264h245l-33 371q-14 -31 -39.5 -76t-68.5 -118
t-63 -108z" />
    <glyph glyph-name="AE" unicode="&#xc6;" horiz-adv-x="915" 
d="M868 188h13l-74 -205q-36 17 -133 17h-323l2 11q38 1 57 22t20 73l3 146h-243q-75 -117 -88 -143q-19 -35 -19 -58q0 -39 54 -40l-4 -11h-197l3 11q42 1 74 24.5t76 89.5l150 225q12 17 34 51q43 64 63 95t46 73t36 66.5t10 39.5q0 32 -44 34l2 11h332q102 0 136 17
l23 -182h-12q-6 42 -14 65t-30 46t-64 32.5t-110 9.5h-133l-6 -299h104q69 0 95.5 17t36.5 68h11l-24 -184h-11q4 55 -16.5 71t-91.5 16h-105l-7 -366q49 -19 124 -19q96 0 148 36t96 140zM198 264h235l8 386q-15 -35 -43.5 -81t-78 -119t-68.5 -103z" />
    <glyph glyph-name="Ccedilla" unicode="&#xc7;" horiz-adv-x="617" 
d="M589 693q23 0 48 20l-15 -262h-11q-2 124 -42 197t-121 73q-87 0 -162 -61.5t-117 -154.5t-42 -189q1 -114 49.5 -192t154.5 -78q63 0 126 42t107 123l8 -2q-44 -96 -123.5 -159t-166.5 -63q-11 0 -16 1l-21 -32q76 -31 76 -85q0 -41 -35 -71.5t-78 -30.5q-27 0 -47.5 14
t-20.5 41q0 17 10 31t25 14q21 0 21 -18q0 -10 -10.5 -22t-11.5 -18q-2 -12 8 -21.5t25 -9.5q32 0 54 20.5t22 51.5q0 52 -73 75l44 62q-93 11 -147 90.5t-55 191.5q0 114 54.5 221t146.5 174t194 67q42 0 85 -20t57 -20z" />
    <glyph glyph-name="Egrave" unicode="&#xc8;" horiz-adv-x="586" 
d="M467 787h-13l-184 153h88zM612 740l11 -185h-12q-6 68 -22 97.5t-57.5 42.5t-132.5 13h-117l-69 -289h135q51 0 76.5 19t36.5 59h12l-42 -172h-11q9 47 -7 64.5t-69 17.5h-134l-90 -375q46 -20 126 -20q108 0 169.5 35t120.5 140h13l-105 -199q-43 12 -120 12h-338l3 11
q31 2 49 19t27 56l132 550q9 39 -1 55t-40 18l3 11h314q92 0 139 20z" />
    <glyph glyph-name="Eacute" unicode="&#xc9;" horiz-adv-x="586" 
d="M569 940l-185 -153h-12l108 153h89zM612 740l11 -185h-12q-6 68 -22 97.5t-57.5 42.5t-132.5 13h-117l-69 -289h135q51 0 76.5 19t36.5 59h12l-42 -172h-11q9 47 -7 64.5t-69 17.5h-134l-90 -375q46 -20 126 -20q108 0 169.5 35t120.5 140h13l-105 -199q-43 12 -120 12
h-338l3 11q31 2 49 19t27 56l132 550q9 39 -1 55t-40 18l3 11h314q92 0 139 20z" />
    <glyph glyph-name="Ecircumflex" unicode="&#xca;" horiz-adv-x="586" 
d="M440 898l-149 -111h-13l144 153h54l71 -153h-11zM612 740l11 -185h-12q-6 68 -22 97.5t-57.5 42.5t-132.5 13h-117l-69 -289h135q51 0 76.5 19t36.5 59h12l-42 -172h-11q9 47 -7 64.5t-69 17.5h-134l-90 -375q46 -20 126 -20q108 0 169.5 35t120.5 140h13l-105 -199
q-43 12 -120 12h-338l3 11q31 2 49 19t27 56l132 550q9 39 -1 55t-40 18l3 11h314q92 0 139 20z" />
    <glyph glyph-name="Edieresis" unicode="&#xcb;" horiz-adv-x="586" 
d="M345 834q-16 0 -27 11.5t-11 27.5t11 27.5t27 11.5q17 0 28.5 -11.5t11.5 -27.5t-11.5 -27.5t-28.5 -11.5zM523 834q-17 0 -28 11t-11 28t11 28t28 11q16 0 27.5 -11.5t11.5 -27.5t-11.5 -27.5t-27.5 -11.5zM612 740l11 -185h-12q-6 68 -22 97.5t-57.5 42.5t-132.5 13
h-117l-69 -289h135q51 0 76.5 19t36.5 59h12l-42 -172h-11q9 47 -7 64.5t-69 17.5h-134l-90 -375q46 -20 126 -20q108 0 169.5 35t120.5 140h13l-105 -199q-43 12 -120 12h-338l3 11q31 2 49 19t27 56l132 550q9 39 -1 55t-40 18l3 11h314q92 0 139 20z" />
    <glyph glyph-name="Igrave" unicode="&#xcc;" horiz-adv-x="304" 
d="M318 787l-184 153h88l109 -153h-13zM-2 0l3 11q60 4 77 77l132 547q9 37 -1 54.5t-41 19.5l3 11h188l-3 -11q-31 -1 -49 -16.5t-28 -57.5l-132 -548q-9 -36 3.5 -55t38.5 -21l-3 -11h-188z" />
    <glyph glyph-name="Iacute" unicode="&#xcd;" horiz-adv-x="304" 
d="M249 787h-12l108 153h89zM-2 0l3 11q60 4 77 77l132 547q9 37 -1 54.5t-41 19.5l3 11h188l-3 -11q-31 -1 -49 -16.5t-28 -57.5l-132 -548q-9 -36 3.5 -55t38.5 -21l-3 -11h-188z" />
    <glyph glyph-name="Icircumflex" unicode="&#xce;" horiz-adv-x="304" 
d="M341 940l71 -153h-11l-96 111l-149 -111h-13l144 153h54zM168 709l3 11h188l-3 -11q-31 -1 -49 -16.5t-28 -57.5l-132 -548q-9 -36 3.5 -55t38.5 -21l-3 -11h-188l3 11q60 4 77 77l132 547q9 37 -1 54.5t-41 19.5z" />
    <glyph glyph-name="Idieresis" unicode="&#xcf;" horiz-adv-x="304" 
d="M210 834q-16 0 -27 11.5t-11 27.5t11 27.5t27 11.5q17 0 28.5 -11.5t11.5 -27.5t-11.5 -27.5t-28.5 -11.5zM388 834q-16 0 -27.5 11t-11.5 28t11.5 28t27.5 11t27.5 -11.5t11.5 -27.5t-11.5 -27.5t-27.5 -11.5zM-2 0l3 11q60 4 77 77l132 547q9 37 -1 54.5t-41 19.5l3 11
h188l-3 -11q-31 -1 -49 -16.5t-28 -57.5l-132 -548q-9 -36 3.5 -55t38.5 -21l-3 -11h-188z" />
    <glyph glyph-name="Eth" unicode="&#xd0;" horiz-adv-x="661" 
d="M396 720q117 0 188 -83.5t72 -222.5q0 -104 -54.5 -200t-145.5 -155t-191 -59h-279l3 11q25 1 46.5 19.5t30.5 57.5l64 266h-14l-108 -2l1 14l108 -2h15l65 269q18 73 -41 76l3 11h237zM267 13q91 0 166 63t115 160t39 202q0 113 -35.5 176.5t-119.5 84.5q-36 9 -146 9
l-83 -344h38l110 2l-1 -14l-110 2h-39l-79 -328q59 -13 145 -13z" />
    <glyph glyph-name="Ntilde" unicode="&#xd1;" horiz-adv-x="667" 
d="M412 889q-27 0 -52.5 -34t-33.5 -68h-13q7 27 19.5 55.5t40 57t60.5 28.5q19 0 35.5 -16t27 -35t26 -35t33.5 -16q28 0 53.5 34.5t33.5 67.5h12q-7 -27 -19 -55.5t-38.5 -57t-57.5 -28.5q-21 0 -39 16t-28.5 35t-26.5 35t-33 16zM576 720h184l-2 -11q-42 -1 -66 -24
t-39 -83l-120 -484q-13 -52 2 -98q-37 -18 -64 -41l-244 654l-119 -511q-25 -106 63 -112l-2 -10h-203l2 10q93 5 120 112l116 469q28 115 -61 118l3 11h125l240 -636l125 518q13 56 -1.5 80.5t-60.5 26.5z" />
    <glyph glyph-name="Ograve" unicode="&#xd2;" horiz-adv-x="688" 
d="M509 787l-184 153h88l109 -153h-13zM296 -13q-118 0 -183 72t-65 191q0 115 53.5 226t149 184t203.5 73q114 0 177.5 -70.5t63.5 -186.5q0 -84 -32.5 -171.5t-85.5 -157.5t-128 -115t-153 -45zM323 7q87 0 156 67t103.5 166t34.5 207q0 116 -48 191t-143 75
q-89 0 -159.5 -65t-106 -162.5t-35.5 -204.5q0 -116 50 -195t148 -79z" />
    <glyph glyph-name="Oacute" unicode="&#xd3;" horiz-adv-x="688" 
d="M440 787h-12l108 153h89zM296 -13q-118 0 -183 72t-65 191q0 115 53.5 226t149 184t203.5 73q114 0 177.5 -70.5t63.5 -186.5q0 -84 -32.5 -171.5t-85.5 -157.5t-128 -115t-153 -45zM323 7q87 0 156 67t103.5 166t34.5 207q0 116 -48 191t-143 75q-89 0 -159.5 -65
t-106 -162.5t-35.5 -204.5q0 -116 50 -195t148 -79z" />
    <glyph glyph-name="Ocircumflex" unicode="&#xd4;" horiz-adv-x="688" 
d="M495 898l-149 -111h-13l144 153h54l71 -153h-11zM454 733q114 0 177.5 -70.5t63.5 -186.5q0 -84 -32.5 -171.5t-85.5 -157.5t-128 -115t-153 -45q-118 0 -183 72t-65 191q0 115 53.5 226t149 184t203.5 73zM323 7q87 0 156 67t103.5 166t34.5 207q0 116 -48 191t-143 75
q-89 0 -159.5 -65t-106 -162.5t-35.5 -204.5q0 -116 50 -195t148 -79z" />
    <glyph glyph-name="Otilde" unicode="&#xd5;" horiz-adv-x="688" 
d="M316 787q7 27 19.5 55.5t40 57t60.5 28.5q19 0 35.5 -16t27 -35t26 -35t33.5 -16q28 0 53.5 34.5t33.5 67.5h12q-7 -27 -19 -55.5t-38.5 -57t-57.5 -28.5q-21 0 -39 16t-28.5 35t-26.5 35t-33 16q-27 0 -52.5 -34t-33.5 -68h-13zM296 -13q-118 0 -183 72t-65 191
q0 115 53.5 226t149 184t203.5 73q114 0 177.5 -70.5t63.5 -186.5q0 -84 -32.5 -171.5t-85.5 -157.5t-128 -115t-153 -45zM323 7q87 0 156 67t103.5 166t34.5 207q0 116 -48 191t-143 75q-89 0 -159.5 -65t-106 -162.5t-35.5 -204.5q0 -116 50 -195t148 -79z" />
    <glyph glyph-name="Odieresis" unicode="&#xd6;" horiz-adv-x="688" 
d="M401 834q-16 0 -27 11.5t-11 27.5t11 27.5t27 11.5q17 0 28.5 -11.5t11.5 -27.5t-11.5 -27.5t-28.5 -11.5zM579 834q-17 0 -28 11t-11 28t11 28t28 11q16 0 27.5 -11.5t11.5 -27.5t-11.5 -27.5t-27.5 -11.5zM296 -13q-118 0 -183 72t-65 191q0 115 53.5 226t149 184
t203.5 73q114 0 177.5 -70.5t63.5 -186.5q0 -84 -32.5 -171.5t-85.5 -157.5t-128 -115t-153 -45zM323 7q87 0 156 67t103.5 166t34.5 207q0 116 -48 191t-143 75q-89 0 -159.5 -65t-106 -162.5t-35.5 -204.5q0 -116 50 -195t148 -79z" />
    <glyph glyph-name="multiply" unicode="&#xd7;" horiz-adv-x="335" 
d="M360 434l-166 -134l101 -132l-16 -13l-101 133l-165 -133l-11 15l164 133l-101 133l16 12l101 -132l166 134z" />
    <glyph glyph-name="Oslash" unicode="&#xd8;" horiz-adv-x="688" 
d="M628 667q67 -70 67 -191q0 -84 -32.5 -171.5t-85.5 -157.5t-128 -115t-153 -45q-105 0 -169 59l-37 -46h-19l45 56q-68 71 -68 194q0 115 53.5 226t149 184t203.5 73q101 0 163 -56l35 43h19zM125 281q0 -100 35 -170l416 515q-49 87 -150 87q-89 0 -159.5 -65
t-106 -162.5t-35.5 -204.5zM323 7q87 0 156 67t103.5 166t34.5 207q0 99 -33 165l-416 -515q53 -90 155 -90z" />
    <glyph glyph-name="Ugrave" unicode="&#xd9;" horiz-adv-x="647" 
d="M501 787l-184 153h88l109 -153h-13zM281 -13q-121 0 -170.5 75t-14.5 221l85 354q18 69 -44 72l2 11h191l-2 -11q-63 -2 -79 -71l-85 -355q-33 -134 2.5 -206t137.5 -72q79 0 143 64t98 202l83 348q21 87 -62 90l2 11h188l-2 -11q-79 -2 -101 -90l-91 -348
q-75 -284 -281 -284z" />
    <glyph glyph-name="Uacute" unicode="&#xda;" horiz-adv-x="647" 
d="M432 787h-12l108 153h89zM281 -13q-121 0 -170.5 75t-14.5 221l85 354q18 69 -44 72l2 11h191l-2 -11q-63 -2 -79 -71l-85 -355q-33 -134 2.5 -206t137.5 -72q79 0 143 64t98 202l83 348q21 87 -62 90l2 11h188l-2 -11q-79 -2 -101 -90l-91 -348q-75 -284 -281 -284z" />
    <glyph glyph-name="Ucircumflex" unicode="&#xdb;" horiz-adv-x="647" 
d="M487 898l-149 -111h-13l144 153h54l71 -153h-11zM568 720h188l-2 -11q-79 -2 -101 -90l-91 -348q-75 -284 -281 -284q-121 0 -170.5 75t-14.5 221l85 354q18 69 -44 72l2 11h191l-2 -11q-63 -2 -79 -71l-85 -355q-33 -134 2.5 -206t137.5 -72q79 0 143 64t98 202l83 348
q21 87 -62 90z" />
    <glyph glyph-name="Udieresis" unicode="&#xdc;" horiz-adv-x="647" 
d="M393 834q-16 0 -27 11.5t-11 27.5t11 27.5t27 11.5q17 0 28.5 -11.5t11.5 -27.5t-11.5 -27.5t-28.5 -11.5zM571 834q-17 0 -28 11t-11 28t11 28t28 11q16 0 27.5 -11.5t11.5 -27.5t-11.5 -27.5t-27.5 -11.5zM281 -13q-121 0 -170.5 75t-14.5 221l85 354q18 69 -44 72
l2 11h191l-2 -11q-63 -2 -79 -71l-85 -355q-33 -134 2.5 -206t137.5 -72q79 0 143 64t98 202l83 348q21 87 -62 90l2 11h188l-2 -11q-79 -2 -101 -90l-91 -348q-75 -284 -281 -284z" />
    <glyph glyph-name="Yacute" unicode="&#xdd;" horiz-adv-x="607" 
d="M587 940l-185 -153h-12l108 153h89zM527 720h183l-3 -11q-43 -4 -74 -32.5t-98 -115.5q-32 -41 -177 -239l-52 -211q-13 -45 -7.5 -72t37.5 -28l-2 -11h-176l3 10q54 2 76 96l52 217l-99 317q-12 36 -28 51.5t-40 17.5l3 11h193l-2 -11q-53 -4 -53 -46q0 -19 8 -42
l83 -282q25 34 84.5 115.5t78.5 107.5q55 75 55 110q0 33 -47 37z" />
    <glyph glyph-name="Thorn" unicode="&#xde;" horiz-adv-x="571" 
d="M370 577q96 0 151.5 -44t55.5 -124q0 -106 -96 -173.5t-226 -67.5h-100l-20 -81q-9 -36 3.5 -55t38.5 -21l-3 -11h-188l3 11q60 4 77 77l132 547q9 37 -1 54.5t-41 19.5l3 11h188l-3 -11q-31 -1 -49 -16.5t-28 -57.5l-14 -58h117zM264 180q97 0 168.5 70t71.5 162
q0 70 -40 111.5t-115 41.5h-99l-91 -378q63 -7 105 -7z" />
    <glyph glyph-name="germandbls" unicode="&#xdf;" horiz-adv-x="574" 
d="M-94 -231q-40 0 -66.5 29t-26.5 65q0 29 16.5 49t37.5 20q34 0 35 -30q0 -18 -20 -34t-20 -35q0 -22 14 -36t41 -14q12 0 21.5 3.5t18 12t15 18t13 27t11.5 32.5t11.5 41t11.5 46.5t13 54t14 59.5l103 428q33 136 93.5 196.5t155.5 60.5q60 0 96.5 -33.5t36.5 -83.5
q0 -35 -17 -62t-42 -44t-49.5 -32.5t-42 -36.5t-17.5 -47q-1 -31 22 -69t50.5 -69t50.5 -72t22 -77q-1 -68 -52.5 -108.5t-136.5 -40.5q-60 0 -94 31t-33 79q1 35 16 61.5t43 26.5q15 0 24 -9t8 -24q0 -19 -22.5 -42.5t-22.5 -49.5q-1 -24 21 -42.5t63 -18.5q60 0 92.5 31
t33.5 84q0 33 -22 71t-48.5 66.5t-48 64.5t-20.5 66q1 34 18.5 59.5t42.5 43t49.5 37t41.5 52.5t17 79q0 49 -24 74t-56 25q-64 0 -109.5 -67t-80.5 -210q-72 -284 -116 -472q-55 -234 -186 -234z" />
    <glyph glyph-name="agrave" unicode="&#xe0;" horiz-adv-x="508" 
d="M417 567h-13l-184 153h88zM373 32q15 0 44.5 33t59.5 83l6 -3q-41 -72 -85 -115t-71 -43q-64 0 -23 110l29 82l-3 1q-45 -86 -99.5 -139.5t-108.5 -53.5q-47 0 -73.5 37t-26.5 98q0 88 46.5 179.5t120 151.5t145.5 60q63 0 88 -73l71 64h8q-23 -55 -47 -127.5t-52 -163
t-40 -125.5q-18 -56 11 -56zM154 36q50 0 116 77.5t105 194.5q18 54 22 96.5t-10.5 69.5t-49.5 27q-49 0 -108.5 -55.5t-102.5 -144t-43 -170.5q0 -39 17.5 -67t53.5 -28z" />
    <glyph glyph-name="aacute" unicode="&#xe1;" horiz-adv-x="508" 
d="M520 720l-185 -153h-12l108 153h89zM501 504q-23 -55 -47 -127.5t-52 -163t-40 -125.5q-18 -56 11 -56q15 0 44.5 33t59.5 83l6 -3q-41 -72 -85 -115t-71 -43q-64 0 -23 110l29 82l-3 1q-45 -86 -99.5 -139.5t-108.5 -53.5q-47 0 -73.5 37t-26.5 98q0 88 46.5 179.5
t120 151.5t145.5 60q63 0 88 -73l71 64h8zM154 36q50 0 116 77.5t105 194.5q18 54 22 96.5t-10.5 69.5t-49.5 27q-49 0 -108.5 -55.5t-102.5 -144t-43 -170.5q0 -39 17.5 -67t53.5 -28z" />
    <glyph glyph-name="acircumflex" unicode="&#xe2;" horiz-adv-x="508" 
d="M390 678l-149 -111h-13l144 153h54l71 -153h-11zM373 32q15 0 44.5 33t59.5 83l6 -3q-41 -72 -85 -115t-71 -43q-64 0 -23 110l29 82l-3 1q-45 -86 -99.5 -139.5t-108.5 -53.5q-47 0 -73.5 37t-26.5 98q0 88 46.5 179.5t120 151.5t145.5 60q63 0 88 -73l71 64h8
q-23 -55 -47 -127.5t-52 -163t-40 -125.5q-18 -56 11 -56zM154 36q50 0 116 77.5t105 194.5q18 54 22 96.5t-10.5 69.5t-49.5 27q-49 0 -108.5 -55.5t-102.5 -144t-43 -170.5q0 -39 17.5 -67t53.5 -28z" />
    <glyph glyph-name="atilde" unicode="&#xe3;" horiz-adv-x="508" 
d="M310 669q-27 0 -52.5 -34t-33.5 -68h-13q7 27 19.5 55.5t40 57t60.5 28.5q19 0 35.5 -16t27 -35t26 -35t33.5 -16q28 0 53.5 34.5t33.5 67.5h12q-7 -27 -19 -55.5t-38.5 -57t-57.5 -28.5q-21 0 -39 16t-28.5 35t-26.5 35t-33 16zM501 504q-23 -55 -47 -127.5t-52 -163
t-40 -125.5q-18 -56 11 -56q15 0 44.5 33t59.5 83l6 -3q-41 -72 -85 -115t-71 -43q-64 0 -23 110l29 82l-3 1q-45 -86 -99.5 -139.5t-108.5 -53.5q-47 0 -73.5 37t-26.5 98q0 88 46.5 179.5t120 151.5t145.5 60q63 0 88 -73l71 64h8zM154 36q50 0 116 77.5t105 194.5
q18 54 22 96.5t-10.5 69.5t-49.5 27q-49 0 -108.5 -55.5t-102.5 -144t-43 -170.5q0 -39 17.5 -67t53.5 -28z" />
    <glyph glyph-name="adieresis" unicode="&#xe4;" horiz-adv-x="508" 
d="M296 614q-16 0 -27 11.5t-11 27.5t11 27.5t27 11.5q17 0 28.5 -11.5t11.5 -27.5t-11.5 -27.5t-28.5 -11.5zM474 692q16 0 27.5 -11.5t11.5 -27.5t-11.5 -27.5t-27.5 -11.5t-27.5 11t-11.5 28t11.5 28t27.5 11zM501 504q-23 -55 -47 -127.5t-52 -163t-40 -125.5
q-18 -56 11 -56q15 0 44.5 33t59.5 83l6 -3q-41 -72 -85 -115t-71 -43q-64 0 -23 110l29 82l-3 1q-45 -86 -99.5 -139.5t-108.5 -53.5q-47 0 -73.5 37t-26.5 98q0 88 46.5 179.5t120 151.5t145.5 60q63 0 88 -73l71 64h8zM154 36q50 0 116 77.5t105 194.5q18 54 22 96.5
t-10.5 69.5t-49.5 27q-49 0 -108.5 -55.5t-102.5 -144t-43 -170.5q0 -39 17.5 -67t53.5 -28z" />
    <glyph glyph-name="aring" unicode="&#xe5;" horiz-adv-x="508" 
d="M386 570q-30 0 -51 21t-21 51q0 31 21 52.5t51 21.5q31 0 52.5 -21.5t21.5 -52.5q0 -30 -21.5 -51t-52.5 -21zM386 699q-23 0 -39 -17t-16 -40t16 -39t39 -16t40 16t17 39t-17 40t-40 17zM373 32q15 0 44.5 33t59.5 83l6 -3q-41 -72 -85 -115t-71 -43q-64 0 -23 110
l29 82l-3 1q-45 -86 -99.5 -139.5t-108.5 -53.5q-47 0 -73.5 37t-26.5 98q0 88 46.5 179.5t120 151.5t145.5 60q63 0 88 -73l71 64h8q-23 -55 -47 -127.5t-52 -163t-40 -125.5q-18 -56 11 -56zM154 36q50 0 116 77.5t105 194.5q18 54 22 96.5t-10.5 69.5t-49.5 27
q-49 0 -108.5 -55.5t-102.5 -144t-43 -170.5q0 -39 17.5 -67t53.5 -28z" />
    <glyph glyph-name="ae" unicode="&#xe6;" horiz-adv-x="735" 
d="M541 262l-128 -36q-10 -43 -10 -76q0 -57 22.5 -91.5t67.5 -34.5q46 0 91 33.5t81 89.5l7 -4q-35 -64 -90.5 -112t-117.5 -48q-57 0 -90.5 46.5t-33.5 113.5q0 12 2 38l-4 1q-44 -85 -100.5 -140t-110.5 -55q-52 0 -78.5 36.5t-26.5 99.5q0 86 43.5 176.5t118 152
t154.5 61.5q44 0 69 -40l51 40h8l-24 -97q79 96 171 96q48 0 83.5 -28t35.5 -74q0 -51 -50 -86.5t-141 -61.5zM154 36q58 0 115.5 68t100.5 193q26 74 26 128q0 76 -60 76q-49 0 -108.5 -56t-102 -145t-42.5 -171q0 -44 19 -68.5t52 -24.5zM614 501q-51 0 -112.5 -84
t-86.5 -183q49 16 81.5 28t70.5 30.5t60.5 37t37.5 44.5t15 56q0 35 -18.5 53t-47.5 18z" />
    <glyph glyph-name="ccedilla" unicode="&#xe7;" horiz-adv-x="431" 
d="M429 402q1 -35 -15 -62.5t-39 -27.5q-15 0 -25 9.5t-10 26.5q0 22 28.5 46t28.5 48q-1 25 -18.5 42t-51.5 17q-54 -1 -108 -51t-88.5 -127.5t-34.5 -154.5q0 -63 29.5 -98t79.5 -35q32 0 71 25.5t73 79.5l6 -3q-27 -60 -80.5 -105t-112.5 -45l-21 -31q76 -31 76 -85
q0 -41 -35 -71.5t-78 -30.5q-27 0 -47.5 14t-20.5 41q0 17 10 31t25 14q21 0 21 -18q0 -10 -10.5 -22t-11.5 -18q-2 -12 8 -21.5t25 -9.5q32 0 54 20.5t22 51.5q0 52 -73 75l43 60q-54 5 -87 49.5t-33 111.5q0 89 38.5 173t106.5 138t145 54q51 0 80 -31.5t30 -79.5z" />
    <glyph glyph-name="egrave" unicode="&#xe8;" horiz-adv-x="423" 
d="M385 567h-13l-184 153h88zM229 262l-128 -36q-10 -43 -10 -76q0 -57 22.5 -91.5t67.5 -34.5q46 0 91 33.5t81 89.5l7 -4q-36 -64 -91.5 -112t-116.5 -48q-57 0 -91 46.5t-34 113.5q0 85 38 170.5t102.5 142t133.5 56.5q48 0 83 -28t35 -74q0 -51 -49.5 -86.5
t-140.5 -61.5zM302 501q-51 0 -112.5 -84t-86.5 -183q49 16 81.5 28t70.5 30.5t60 37t37 44.5t15 56q0 34 -18.5 52.5t-46.5 18.5z" />
    <glyph glyph-name="eacute" unicode="&#xe9;" horiz-adv-x="423" 
d="M487 720l-185 -153h-12l108 153h89zM301 512q48 0 83 -28t35 -74q0 -51 -49.5 -86.5t-140.5 -61.5l-128 -36q-10 -43 -10 -76q0 -57 22.5 -91.5t67.5 -34.5q46 0 91 33.5t81 89.5l7 -4q-36 -64 -91.5 -112t-116.5 -48q-57 0 -91 46.5t-34 113.5q0 85 38 170.5t102.5 142
t133.5 56.5zM103 234q49 16 81.5 28t70.5 30.5t60 37t37 44.5t15 56q0 34 -18.5 52.5t-46.5 18.5q-51 0 -112.5 -84t-86.5 -183z" />
    <glyph glyph-name="ecircumflex" unicode="&#xea;" horiz-adv-x="423" 
d="M394 720l71 -153h-11l-96 111l-149 -111h-13l144 153h54zM301 512q48 0 83 -28t35 -74q0 -51 -49.5 -86.5t-140.5 -61.5l-128 -36q-10 -43 -10 -76q0 -57 22.5 -91.5t67.5 -34.5q46 0 91 33.5t81 89.5l7 -4q-36 -64 -91.5 -112t-116.5 -48q-57 0 -91 46.5t-34 113.5
q0 85 38 170.5t102.5 142t133.5 56.5zM103 234q49 16 81.5 28t70.5 30.5t60 37t37 44.5t15 56q0 34 -18.5 52.5t-46.5 18.5q-51 0 -112.5 -84t-86.5 -183z" />
    <glyph glyph-name="edieresis" unicode="&#xeb;" horiz-adv-x="423" 
d="M263 614q-16 0 -27 11.5t-11 27.5t11 27.5t27 11.5q17 0 28.5 -11.5t11.5 -27.5t-11.5 -27.5t-28.5 -11.5zM441 692q16 0 27.5 -11.5t11.5 -27.5t-11.5 -27.5t-27.5 -11.5q-17 0 -28 11t-11 28t11 28t28 11zM301 512q48 0 83 -28t35 -74q0 -51 -49.5 -86.5t-140.5 -61.5
l-128 -36q-10 -43 -10 -76q0 -57 22.5 -91.5t67.5 -34.5q46 0 91 33.5t81 89.5l7 -4q-36 -64 -91.5 -112t-116.5 -48q-57 0 -91 46.5t-34 113.5q0 85 38 170.5t102.5 142t133.5 56.5zM103 234q49 16 81.5 28t70.5 30.5t60 37t37 44.5t15 56q0 34 -18.5 52.5t-46.5 18.5
q-51 0 -112.5 -84t-86.5 -183z" />
    <glyph glyph-name="igrave" unicode="&#xec;" horiz-adv-x="301" 
d="M288 567l-184 153h88l109 -153h-13zM39 346q117 167 190 167q14 0 20.5 -7.5t5.5 -23.5t-5.5 -31.5t-12.5 -40.5l-107 -321q-11 -30 -11 -44.5t16 -14.5q21 0 54 35.5t67 92.5l6 -4q-48 -87 -94.5 -126.5t-76.5 -39.5q-56 0 -25 95l103 315q18 53 18 60q-1 10 -12 10
q-36 0 -129 -126z" />
    <glyph glyph-name="iacute" unicode="&#xed;" horiz-adv-x="301" 
d="M219 567h-12l108 153h89zM39 346q117 167 190 167q14 0 20.5 -7.5t5.5 -23.5t-5.5 -31.5t-12.5 -40.5l-107 -321q-11 -30 -11 -44.5t16 -14.5q21 0 54 35.5t67 92.5l6 -4q-48 -87 -94.5 -126.5t-76.5 -39.5q-56 0 -25 95l103 315q18 53 18 60q-1 10 -12 10
q-36 0 -129 -126z" />
    <glyph glyph-name="icircumflex" unicode="&#xee;" horiz-adv-x="301" 
d="M382 567h-11l-96 111l-149 -111h-13l144 153h54zM135 30q21 0 54 35.5t67 92.5l6 -4q-48 -87 -94.5 -126.5t-76.5 -39.5q-56 0 -25 95l103 315q18 53 18 60q-1 10 -12 10q-36 0 -129 -126l-7 4q117 167 190 167q14 0 20.5 -7.5t5.5 -23.5t-5.5 -31.5t-12.5 -40.5
l-107 -321q-11 -30 -11 -44.5t16 -14.5z" />
    <glyph glyph-name="idieresis" unicode="&#xef;" horiz-adv-x="301" 
d="M180 614q-16 0 -27 11.5t-11 27.5t11 27.5t27 11.5q17 0 28.5 -11.5t11.5 -27.5t-11.5 -27.5t-28.5 -11.5zM358 614q-16 0 -27.5 11t-11.5 28t11.5 28t27.5 11t27.5 -11.5t11.5 -27.5t-11.5 -27.5t-27.5 -11.5zM39 346q117 167 190 167q14 0 20.5 -7.5t5.5 -23.5
t-5.5 -31.5t-12.5 -40.5l-107 -321q-11 -30 -11 -44.5t16 -14.5q21 0 54 35.5t67 92.5l6 -4q-48 -87 -94.5 -126.5t-76.5 -39.5q-56 0 -25 95l103 315q18 53 18 60q-1 10 -12 10q-36 0 -129 -126z" />
    <glyph glyph-name="eth" unicode="&#xf0;" horiz-adv-x="489" 
d="M386 666l-34 -13q110 -113 110 -287q0 -92 -36 -179.5t-99 -143.5t-134 -56q-70 0 -107 52.5t-37 131.5t35 158t98 131.5t134 52.5q58 0 96 -46q-26 105 -88 175l-45 -17l-125 -56l-16 15l133 49l45 18q-61 64 -163 105l15 6q105 -32 176 -100l34 13l126 52l16 -14z
M169 5q53 0 109 62t91.5 149t35.5 160q0 57 -19.5 88t-54.5 31q-54 0 -110 -64.5t-89.5 -151.5t-33.5 -155q0 -58 18.5 -88.5t52.5 -30.5z" />
    <glyph glyph-name="ntilde" unicode="&#xf1;" horiz-adv-x="571" 
d="M206 567q12 47 42.5 94t76.5 47q19 0 36 -16t27.5 -35t26 -35t32.5 -16q29 0 54 34t33 68h13q-7 -26 -19.5 -55t-39 -57.5t-57.5 -28.5q-21 0 -39 16t-28.5 35t-26.5 35t-33 16q-27 0 -52 -34t-34 -68h-12zM360 -14q-27 0 -33 27t10 72l78 222q32 87 29.5 130t-45.5 43
q-98 0 -302 -480h-54q123 380 129 402q6 19 8.5 30t4 22.5t-1.5 16.5t-10 5q-17 0 -55 -37.5t-71 -91.5l-7 4q54 89 100.5 125.5t78.5 36.5q51 0 24 -88q-13 -42 -50.5 -149t-47.5 -135l3 -1q54 121 98 198.5t78.5 114t59.5 48.5t55 12q26 0 44 -16.5t24 -52.5t-15 -95
l-81 -236q-21 -61 -20 -73q1 -14 15 -14q16 0 51 36.5t68 87.5l6 -4q-38 -62 -87 -111t-84 -49z" />
    <glyph glyph-name="ograve" unicode="&#xf2;" horiz-adv-x="472" 
d="M393 567l-184 153h88l109 -153h-13zM176 -13q-67 0 -105 51t-38 131q0 79 35 158.5t97 132.5t130 53q67 0 105.5 -51t38.5 -131q0 -79 -35.5 -158.5t-97 -132.5t-130.5 -53zM152 5q56 0 113 64.5t91 152t34 157.5q0 53 -19 84.5t-55 31.5q-55 0 -111 -65.5t-89.5 -153.5
t-33.5 -157q0 -52 18 -83t52 -31z" />
    <glyph glyph-name="oacute" unicode="&#xf3;" horiz-adv-x="472" 
d="M324 567h-12l108 153h89zM176 -13q-67 0 -105 51t-38 131q0 79 35 158.5t97 132.5t130 53q67 0 105.5 -51t38.5 -131q0 -79 -35.5 -158.5t-97 -132.5t-130.5 -53zM152 5q56 0 113 64.5t91 152t34 157.5q0 53 -19 84.5t-55 31.5q-55 0 -111 -65.5t-89.5 -153.5t-33.5 -157
q0 -52 18 -83t52 -31z" />
    <glyph glyph-name="ocircumflex" unicode="&#xf4;" horiz-adv-x="472" 
d="M415 720l71 -153h-11l-96 111l-149 -111h-13l144 153h54zM295 513q67 0 105.5 -51t38.5 -131q0 -79 -35.5 -158.5t-97 -132.5t-130.5 -53q-67 0 -105 51t-38 131q0 79 35 158.5t97 132.5t130 53zM152 5q56 0 113 64.5t91 152t34 157.5q0 53 -19 84.5t-55 31.5
q-55 0 -111 -65.5t-89.5 -153.5t-33.5 -157q0 -52 18 -83t52 -31z" />
    <glyph glyph-name="otilde" unicode="&#xf5;" horiz-adv-x="472" 
d="M200 567q7 27 19.5 55.5t40 57t60.5 28.5q19 0 35.5 -16t27 -35t26 -35t33.5 -16q28 0 53.5 34.5t33.5 67.5h12q-7 -27 -19 -55.5t-38.5 -57t-57.5 -28.5q-21 0 -39 16t-28.5 35t-26.5 35t-33 16q-27 0 -52.5 -34t-33.5 -68h-13zM176 -13q-67 0 -105 51t-38 131
q0 79 35 158.5t97 132.5t130 53q67 0 105.5 -51t38.5 -131q0 -79 -35.5 -158.5t-97 -132.5t-130.5 -53zM152 5q56 0 113 64.5t91 152t34 157.5q0 53 -19 84.5t-55 31.5q-55 0 -111 -65.5t-89.5 -153.5t-33.5 -157q0 -52 18 -83t52 -31z" />
    <glyph glyph-name="odieresis" unicode="&#xf6;" horiz-adv-x="472" 
d="M285 614q-16 0 -27 11.5t-11 27.5t11 27.5t27 11.5q17 0 28.5 -11.5t11.5 -27.5t-11.5 -27.5t-28.5 -11.5zM463 614q-17 0 -28 11t-11 28t11 28t28 11q16 0 27.5 -11.5t11.5 -27.5t-11.5 -27.5t-27.5 -11.5zM176 -13q-67 0 -105 51t-38 131q0 79 35 158.5t97 132.5
t130 53q67 0 105.5 -51t38.5 -131q0 -79 -35.5 -158.5t-97 -132.5t-130.5 -53zM152 5q56 0 113 64.5t91 152t34 157.5q0 53 -19 84.5t-55 31.5q-55 0 -111 -65.5t-89.5 -153.5t-33.5 -157q0 -52 18 -83t52 -31z" />
    <glyph glyph-name="oslash" unicode="&#xf8;" horiz-adv-x="472" 
d="M459 500l-47 -55q27 -46 27 -114q0 -79 -35.5 -158.5t-97 -132.5t-130.5 -53q-67 0 -107 53l-34 -40h-19l45 53q-28 48 -28 116q0 79 35 158.5t97 132.5t130 53q69 0 109 -56l36 43h19zM82 119q0 -20 3 -38l298 352q-16 62 -67 62q-55 0 -111 -65.5t-89.5 -153.5
t-33.5 -157zM390 379q0 19 -3 36l-298 -352q16 -58 63 -58q56 0 113 64.5t91 152t34 157.5z" />
    <glyph glyph-name="ugrave" unicode="&#xf9;" horiz-adv-x="571" 
d="M422 567l-184 153h88l109 -153h-13zM211 514q28 0 34 -26.5t-11 -71.5l-78 -223q-21 -59 -27 -96t4 -56.5t39 -19.5q98 0 302 479h54q-123 -380 -129 -402q-6 -19 -8.5 -30t-4 -22.5t1.5 -16.5t10 -5q17 0 55 37.5t72 91.5l6 -4q-55 -89 -101 -125.5t-78 -36.5
q-51 0 -24 89q1 5 99 283l-3 1q-55 -121 -98.5 -198.5t-78.5 -114t-60 -48.5t-55 -12q-26 0 -43.5 16.5t-23.5 52.5t15 95l80 236q21 61 20 73q-1 14 -14 14q-16 0 -51.5 -37t-67.5 -87l-7 4q38 62 87 111t84 49z" />
    <glyph glyph-name="uacute" unicode="&#xfa;" horiz-adv-x="571" 
d="M352 567h-12l108 153h89zM211 514q28 0 34 -26.5t-11 -71.5l-78 -223q-21 -59 -27 -96t4 -56.5t39 -19.5q98 0 302 479h54q-123 -380 -129 -402q-6 -19 -8.5 -30t-4 -22.5t1.5 -16.5t10 -5q17 0 55 37.5t72 91.5l6 -4q-55 -89 -101 -125.5t-78 -36.5q-51 0 -24 89
q1 5 99 283l-3 1q-55 -121 -98.5 -198.5t-78.5 -114t-60 -48.5t-55 -12q-26 0 -43.5 16.5t-23.5 52.5t15 95l80 236q21 61 20 73q-1 14 -14 14q-16 0 -51.5 -37t-67.5 -87l-7 4q38 62 87 111t84 49z" />
    <glyph glyph-name="ucircumflex" unicode="&#xfb;" horiz-adv-x="571" 
d="M408 678l-149 -111h-13l144 153h54l71 -153h-11zM525 153l6 -4q-55 -89 -101 -125.5t-78 -36.5q-51 0 -24 89q1 5 99 283l-3 1q-55 -121 -98.5 -198.5t-78.5 -114t-60 -48.5t-55 -12q-26 0 -43.5 16.5t-23.5 52.5t15 95l80 236q21 61 20 73q-1 14 -14 14q-16 0 -51.5 -37
t-67.5 -87l-7 4q38 62 87 111t84 49q28 0 34 -26.5t-11 -71.5l-78 -223q-21 -59 -27 -96t4 -56.5t39 -19.5q98 0 302 479h54q-123 -380 -129 -402q-6 -19 -8.5 -30t-4 -22.5t1.5 -16.5t10 -5q17 0 55 37.5t72 91.5z" />
    <glyph glyph-name="udieresis" unicode="&#xfc;" horiz-adv-x="571" 
d="M313 614q-16 0 -27 11.5t-11 27.5t11 27.5t27 11.5q17 0 28.5 -11.5t11.5 -27.5t-11.5 -27.5t-28.5 -11.5zM491 614q-17 0 -28 11t-11 28t11 28t28 11q16 0 27.5 -11.5t11.5 -27.5t-11.5 -27.5t-27.5 -11.5zM211 514q28 0 34 -26.5t-11 -71.5l-78 -223q-21 -59 -27 -96
t4 -56.5t39 -19.5q98 0 302 479h54q-123 -380 -129 -402q-6 -19 -8.5 -30t-4 -22.5t1.5 -16.5t10 -5q17 0 55 37.5t72 91.5l6 -4q-55 -89 -101 -125.5t-78 -36.5q-51 0 -24 89q1 5 99 283l-3 1q-55 -121 -98.5 -198.5t-78.5 -114t-60 -48.5t-55 -12q-26 0 -43.5 16.5
t-23.5 52.5t15 95l80 236q21 61 20 73q-1 14 -14 14q-16 0 -51.5 -37t-67.5 -87l-7 4q38 62 87 111t84 49z" />
    <glyph glyph-name="yacute" unicode="&#xfd;" horiz-adv-x="464" 
d="M496 720l-185 -153h-12l108 153h89zM422 513q16 0 26.5 -17.5t10.5 -47.5q0 -101 -83.5 -222t-206.5 -227q-21 -42 -40 -73.5t-51.5 -73.5t-72.5 -65.5t-83 -23.5q-36 0 -58 14.5t-22 34.5q0 16 11.5 29t29.5 13q12 0 20 -10t12.5 -22t17 -22t33.5 -10q59 2 107 96
t71.5 219t23.5 241q0 117 -28 117q-37 0 -106 -123l-8 4q53 99 89 134t65 35q55 0 55 -138q0 -161 -58 -355q106 95 170 190t64 154q0 25 -15 54t-15 47q0 22 12.5 35t28.5 13z" />
    <glyph glyph-name="thorn" unicode="&#xfe;" horiz-adv-x="545" 
d="M342 513q73 0 121.5 -47t48.5 -136q0 -87 -42 -167t-112 -128t-147 -48q-47 0 -80 15l-44 -135q-14 -44 -1.5 -59t61.5 -17l-3 -11h-204l4 10q31 3 47.5 16.5t26.5 46.5l205 627q-27 -9 -104 -49l5 19q45 21 101 38l45 137q21 57 13.5 78.5t-55.5 12.5l3 10l145 36
l-83 -256q25 7 49 7zM195 1q100 0 175.5 101t75.5 222q0 80 -38.5 130.5t-116.5 42.5l-157 -485q28 -11 61 -11z" />
    <glyph glyph-name="ydieresis" unicode="&#xff;" horiz-adv-x="464" 
d="M272 614q-16 0 -27 11.5t-11 27.5t11 27.5t27 11.5q17 0 28.5 -11.5t11.5 -27.5t-11.5 -27.5t-28.5 -11.5zM450 692q16 0 27.5 -11.5t11.5 -27.5t-11.5 -27.5t-27.5 -11.5t-27.5 11t-11.5 28t11.5 28t27.5 11zM422 513q16 0 26.5 -17.5t10.5 -47.5q0 -101 -83.5 -222
t-206.5 -227q-21 -42 -40 -73.5t-51.5 -73.5t-72.5 -65.5t-83 -23.5q-36 0 -58 14.5t-22 34.5q0 16 11.5 29t29.5 13q12 0 20 -10t12.5 -22t17 -22t33.5 -10q59 2 107 96t71.5 219t23.5 241q0 117 -28 117q-37 0 -106 -123l-8 4q53 99 89 134t65 35q55 0 55 -138
q0 -161 -58 -355q106 95 170 190t64 154q0 25 -15 54t-15 47q0 22 12.5 35t28.5 13z" />
    <glyph glyph-name="Amacron" unicode="&#x100;" horiz-adv-x="638" 
d="M308 832h279l-1 -12h-279zM502 161q3 -32 5 -50t7 -39.5t12 -32.5t18.5 -19t27.5 -9l-2 -11h-205l2 11q48 6 62 40q11 26 4 95l-9 106h-254q-36 -61 -53 -90t-32 -61.5t-15 -47.5q0 -40 51 -42l-3 -11h-182l2 11q33 2 56.5 15t46.5 45q16 22 72 114.5t89 149.5
q19 33 57.5 97t55.5 94t39 72t29.5 68.5t6.5 46.5q29 8 60 24zM177 264h245l-33 371q-14 -31 -39.5 -76t-68.5 -118t-63 -108z" />
    <glyph glyph-name="amacron" unicode="&#x101;" horiz-adv-x="508" 
d="M234 612h279l-1 -12h-279zM501 504q-23 -55 -47 -127.5t-52 -163t-40 -125.5q-18 -56 11 -56q15 0 44.5 33t59.5 83l6 -3q-41 -72 -85 -115t-71 -43q-64 0 -23 110l29 82l-3 1q-45 -86 -99.5 -139.5t-108.5 -53.5q-47 0 -73.5 37t-26.5 98q0 88 46.5 179.5t120 151.5
t145.5 60q63 0 88 -73l71 64h8zM154 36q50 0 116 77.5t105 194.5q18 54 22 96.5t-10.5 69.5t-49.5 27q-49 0 -108.5 -55.5t-102.5 -144t-43 -170.5q0 -39 17.5 -67t53.5 -28z" />
    <glyph glyph-name="Abreve" unicode="&#x102;" horiz-adv-x="638" 
d="M445 787q-57 0 -82 44t-9 109h10q-11 -51 12.5 -83t76.5 -32q54 0 93 32t52 83h11q-16 -65 -61.5 -109t-102.5 -44zM502 161q3 -32 5 -50t7 -39.5t12 -32.5t18.5 -19t27.5 -9l-2 -11h-205l2 11q48 6 62 40q11 26 4 95l-9 106h-254q-36 -61 -53 -90t-32 -61.5t-15 -47.5
q0 -40 51 -42l-3 -11h-182l2 11q33 2 56.5 15t46.5 45q16 22 72 114.5t89 149.5q19 33 57.5 97t55.5 94t39 72t29.5 68.5t6.5 46.5q29 8 60 24zM177 264h245l-33 371q-14 -31 -39.5 -76t-68.5 -118t-63 -108z" />
    <glyph glyph-name="abreve" unicode="&#x103;" horiz-adv-x="508" 
d="M371 567q-57 0 -82 44t-9 109h10q-11 -51 12.5 -83t76.5 -32q54 0 93 32t52 83h11q-16 -65 -61.5 -109t-102.5 -44zM501 504q-23 -55 -47 -127.5t-52 -163t-40 -125.5q-18 -56 11 -56q15 0 44.5 33t59.5 83l6 -3q-41 -72 -85 -115t-71 -43q-64 0 -23 110l29 82l-3 1
q-45 -86 -99.5 -139.5t-108.5 -53.5q-47 0 -73.5 37t-26.5 98q0 88 46.5 179.5t120 151.5t145.5 60q63 0 88 -73l71 64h8zM154 36q50 0 116 77.5t105 194.5q18 54 22 96.5t-10.5 69.5t-49.5 27q-49 0 -108.5 -55.5t-102.5 -144t-43 -170.5q0 -39 17.5 -67t53.5 -28z" />
    <glyph glyph-name="Aogonek" unicode="&#x104;" horiz-adv-x="638" 
d="M500 0q-75 -66 -75 -131q0 -26 16 -47.5t50 -21.5q48 0 72 42v-12q-8 -26 -34.5 -47.5t-61.5 -21.5q-34 0 -59 24.5t-25 64.5q0 79 105 150h-123l2 11q48 6 62 40q11 26 4 95l-9 106h-254q-36 -61 -53 -90t-32 -61.5t-15 -47.5q0 -40 51 -42l-3 -11h-182l2 11
q33 2 56.5 15t46.5 45q16 22 72 114.5t89 149.5q19 33 57.5 97t55.5 94t39 72t29.5 68.5t6.5 46.5q29 8 60 24l52 -576q3 -32 5 -50t7 -39.5t12 -32.5t18.5 -19t27.5 -9l-2 -11h-70zM177 264h245l-33 371q-14 -31 -39.5 -76t-68.5 -118t-63 -108z" />
    <glyph glyph-name="aogonek" unicode="&#x105;" horiz-adv-x="508" 
d="M483 145q-34 -61 -71.5 -101.5t-66.5 -52.5q-57 -59 -57 -114q0 -26 16 -47.5t50 -21.5q48 0 72 42v-12q-8 -26 -34.5 -47.5t-61.5 -21.5q-34 0 -59 24.5t-25 64.5q0 71 76 129q-57 4 -18 110l29 82l-3 1q-45 -86 -99.5 -139.5t-108.5 -53.5q-47 0 -73.5 37t-26.5 98
q0 88 46.5 179.5t120 151.5t145.5 60q63 0 88 -73l71 64h8q-23 -55 -47 -127.5t-52 -163t-40 -125.5q-18 -56 11 -56q15 0 44.5 33t59.5 83zM154 36q50 0 116 77.5t105 194.5q18 54 22 96.5t-10.5 69.5t-49.5 27q-49 0 -108.5 -55.5t-102.5 -144t-43 -170.5q0 -39 17.5 -67
t53.5 -28z" />
    <glyph glyph-name="Cacute" unicode="&#x106;" horiz-adv-x="617" 
d="M437 787h-12l108 153h89zM282 -13q-106 0 -167.5 81.5t-62.5 202.5q0 114 54.5 221t146.5 174t194 67q42 0 85 -20t57 -20q23 0 48 20l-15 -262h-11q-2 124 -42 197t-121 73q-87 0 -162 -61.5t-117 -154.5t-42 -189q1 -114 49.5 -192t154.5 -78q63 0 126 42t107 123l8 -2
q-44 -96 -123.5 -159t-166.5 -63z" />
    <glyph glyph-name="cacute" unicode="&#x107;" horiz-adv-x="431" 
d="M306 567h-12l108 153h89zM161 -13q-59 0 -95.5 45t-36.5 116q0 89 38.5 173t106.5 138t145 54q51 0 80 -31.5t30 -79.5q1 -35 -15 -62.5t-39 -27.5q-15 0 -25 9.5t-10 26.5q0 22 28.5 46t28.5 48q-1 25 -18.5 42t-51.5 17q-54 -1 -108 -51t-88.5 -127.5t-34.5 -154.5
q0 -63 29.5 -98t79.5 -35q32 0 71 25.5t73 79.5l6 -3q-27 -60 -80.5 -105t-113.5 -45z" />
    <glyph glyph-name="Ccircumflex" unicode="&#x108;" horiz-adv-x="617" 
d="M493 898l-149 -111h-13l144 153h54l71 -153h-11zM589 693q23 0 48 20l-15 -262h-11q-2 124 -42 197t-121 73q-87 0 -162 -61.5t-117 -154.5t-42 -189q1 -114 49.5 -192t154.5 -78q63 0 126 42t107 123l8 -2q-44 -96 -123.5 -159t-166.5 -63q-106 0 -167.5 81.5
t-62.5 202.5q0 114 54.5 221t146.5 174t194 67q42 0 85 -20t57 -20z" />
    <glyph glyph-name="ccircumflex" unicode="&#x109;" horiz-adv-x="431" 
d="M398 720l71 -153h-11l-96 111l-149 -111h-13l144 153h54zM319 513q51 0 80 -31.5t30 -79.5q1 -35 -15 -62.5t-39 -27.5q-15 0 -25 9.5t-10 26.5q0 22 28.5 46t28.5 48q-1 25 -18.5 42t-51.5 17q-54 -1 -108 -51t-88.5 -127.5t-34.5 -154.5q0 -63 29.5 -98t79.5 -35
q32 0 71 25.5t73 79.5l6 -3q-27 -60 -80.5 -105t-113.5 -45q-59 0 -95.5 45t-36.5 116q0 89 38.5 173t106.5 138t145 54z" />
    <glyph glyph-name="Cdotaccent" unicode="&#x10a;" horiz-adv-x="617" 
d="M491 830q-18 0 -32 13.5t-14 31.5q0 19 14 33t32 14q19 0 32.5 -14t13.5 -33q0 -18 -13.5 -31.5t-32.5 -13.5zM282 -13q-106 0 -167.5 81.5t-62.5 202.5q0 114 54.5 221t146.5 174t194 67q42 0 85 -20t57 -20q23 0 48 20l-15 -262h-11q-2 124 -42 197t-121 73
q-87 0 -162 -61.5t-117 -154.5t-42 -189q1 -114 49.5 -192t154.5 -78q63 0 126 42t107 123l8 -2q-44 -96 -123.5 -159t-166.5 -63z" />
    <glyph glyph-name="cdotaccent" unicode="&#x10b;" horiz-adv-x="431" 
d="M360 610q-18 0 -32 13.5t-14 31.5q0 19 14 33t32 14q19 0 32.5 -14t13.5 -33q0 -18 -13.5 -31.5t-32.5 -13.5zM161 -13q-59 0 -95.5 45t-36.5 116q0 89 38.5 173t106.5 138t145 54q51 0 80 -31.5t30 -79.5q1 -35 -15 -62.5t-39 -27.5q-15 0 -25 9.5t-10 26.5
q0 22 28.5 46t28.5 48q-1 25 -18.5 42t-51.5 17q-54 -1 -108 -51t-88.5 -127.5t-34.5 -154.5q0 -63 29.5 -98t79.5 -35q32 0 71 25.5t73 79.5l6 -3q-27 -60 -80.5 -105t-113.5 -45z" />
    <glyph glyph-name="Ccaron" unicode="&#x10c;" horiz-adv-x="617" 
d="M438 787l-72 153h12l95 -111l149 111h14l-144 -153h-54zM589 693q23 0 48 20l-15 -262h-11q-2 124 -42 197t-121 73q-87 0 -162 -61.5t-117 -154.5t-42 -189q1 -114 49.5 -192t154.5 -78q63 0 126 42t107 123l8 -2q-44 -96 -123.5 -159t-166.5 -63q-106 0 -167.5 81.5
t-62.5 202.5q0 114 54.5 221t146.5 174t194 67q42 0 85 -20t57 -20z" />
    <glyph glyph-name="ccaron" unicode="&#x10d;" horiz-adv-x="431" 
d="M307 567l-72 153h12l95 -111l149 111h14l-144 -153h-54zM319 513q51 0 80 -31.5t30 -79.5q1 -35 -15 -62.5t-39 -27.5q-15 0 -25 9.5t-10 26.5q0 22 28.5 46t28.5 48q-1 25 -18.5 42t-51.5 17q-54 -1 -108 -51t-88.5 -127.5t-34.5 -154.5q0 -63 29.5 -98t79.5 -35
q32 0 71 25.5t73 79.5l6 -3q-27 -60 -80.5 -105t-113.5 -45q-59 0 -95.5 45t-36.5 116q0 89 38.5 173t106.5 138t145 54z" />
    <glyph glyph-name="Dcaron" unicode="&#x10e;" horiz-adv-x="661" 
d="M386 787l-72 153h12l95 -111l149 111h14l-144 -153h-54zM396 720q117 0 188 -83.5t72 -222.5q0 -104 -54.5 -200t-145.5 -155t-191 -59h-279l3 11q25 1 46.5 19.5t30.5 57.5l131 545q18 73 -41 76l3 11h237zM267 13q91 0 166 63t115 160t39 202q0 113 -35.5 176.5
t-119.5 84.5q-36 9 -146 9l-164 -682q59 -13 145 -13z" />
    <glyph glyph-name="dcaron" unicode="&#x10f;" horiz-adv-x="612" 
d="M509 504q-84 -231 -143 -419q-16 -54 14 -54q14 0 42 28.5t68 92.5l8 -4q-51 -85 -97 -123t-73 -38q-63 0 -23 107l33 85l-5 1q-45 -86 -98.5 -139.5t-107.5 -53.5q-48 0 -76 38.5t-28 99.5q0 92 42.5 182.5t112 148t141.5 57.5q37 0 65 -21.5t41 -58.5l6 20l57 172
q22 58 15 78.5t-59 12.5l3 10l148 36zM693 743q24 0 37.5 -16.5t13.5 -39.5q0 -44 -44 -97.5t-122 -80.5l2 12q58 23 96 63.5t45 89.5h-2q-9 -30 -36 -30q-17 0 -30.5 13t-13.5 34q0 22 15.5 37t38.5 15zM158 32q49 0 115 78t105 195q27 83 11.5 139.5t-65.5 56.5
q-47 0 -102.5 -53.5t-94.5 -142.5t-39 -178q0 -39 17.5 -67t52.5 -28z" />
    <glyph glyph-name="Dcroat" unicode="&#x110;" horiz-adv-x="661" 
d="M396 720q117 0 188 -83.5t72 -222.5q0 -104 -54.5 -200t-145.5 -155t-191 -59h-279l3 11q25 1 46.5 19.5t30.5 57.5l64 266h-14l-108 -2l1 14l108 -2h15l65 269q18 73 -41 76l3 11h237zM267 13q91 0 166 63t115 160t39 202q0 113 -35.5 176.5t-119.5 84.5q-36 9 -146 9
l-83 -344h38l110 2l-1 -14l-110 2h-39l-79 -328q59 -13 145 -13z" />
    <glyph glyph-name="dcroat" unicode="&#x111;" horiz-adv-x="528" 
d="M569 597l110 2l-1 -14l-110 2h-31l-28 -83q-84 -231 -143 -419q-16 -54 14 -54q14 0 42 28.5t68 92.5l8 -4q-51 -85 -97 -123t-73 -38q-63 0 -23 107l33 85l-5 1q-45 -86 -98.5 -139.5t-107.5 -53.5q-48 0 -76 38.5t-28 99.5q0 92 42.5 182.5t112 148t141.5 57.5
q37 0 65 -21.5t41 -58.5l6 20l44 134h-31l-108 -2l1 14l108 -2h34l9 28q22 58 15 78.5t-59 12.5l3 10l148 36l-55 -165h29zM378 305q27 83 11.5 139.5t-65.5 56.5q-47 0 -102.5 -53.5t-94.5 -142.5t-39 -178q0 -39 17.5 -67t52.5 -28q49 0 115 78t105 195z" />
    <glyph glyph-name="Emacron" unicode="&#x112;" horiz-adv-x="586" 
d="M562 832l-1 -12h-279l1 12h279zM612 740l11 -185h-12q-6 68 -22 97.5t-57.5 42.5t-132.5 13h-117l-69 -289h135q51 0 76.5 19t36.5 59h12l-42 -172h-11q9 47 -7 64.5t-69 17.5h-134l-90 -375q46 -20 126 -20q108 0 169.5 35t120.5 140h13l-105 -199q-43 12 -120 12h-338
l3 11q31 2 49 19t27 56l132 550q9 39 -1 55t-40 18l3 11h314q92 0 139 20z" />
    <glyph glyph-name="emacron" unicode="&#x113;" horiz-adv-x="423" 
d="M201 612h279l-1 -12h-279zM301 512q48 0 83 -28t35 -74q0 -51 -49.5 -86.5t-140.5 -61.5l-128 -36q-10 -43 -10 -76q0 -57 22.5 -91.5t67.5 -34.5q46 0 91 33.5t81 89.5l7 -4q-36 -64 -91.5 -112t-116.5 -48q-57 0 -91 46.5t-34 113.5q0 85 38 170.5t102.5 142
t133.5 56.5zM103 234q49 16 81.5 28t70.5 30.5t60 37t37 44.5t15 56q0 34 -18.5 52.5t-46.5 18.5q-51 0 -112.5 -84t-86.5 -183z" />
    <glyph glyph-name="Ebreve" unicode="&#x114;" horiz-adv-x="586" 
d="M420 787q-57 0 -82 44t-9 109h10q-11 -51 12.5 -83t76.5 -32q54 0 93 32t52 83h11q-16 -65 -61.5 -109t-102.5 -44zM612 740l11 -185h-12q-6 68 -22 97.5t-57.5 42.5t-132.5 13h-117l-69 -289h135q51 0 76.5 19t36.5 59h12l-42 -172h-11q9 47 -7 64.5t-69 17.5h-134
l-90 -375q46 -20 126 -20q108 0 169.5 35t120.5 140h13l-105 -199q-43 12 -120 12h-338l3 11q31 2 49 19t27 56l132 550q9 39 -1 55t-40 18l3 11h314q92 0 139 20z" />
    <glyph glyph-name="ebreve" unicode="&#x115;" horiz-adv-x="423" 
d="M491 720h11q-16 -65 -61.5 -109t-102.5 -44t-82 44t-9 109h10q-11 -51 12.5 -83t76.5 -32q54 0 93 32t52 83zM301 512q48 0 83 -28t35 -74q0 -51 -49.5 -86.5t-140.5 -61.5l-128 -36q-10 -43 -10 -76q0 -57 22.5 -91.5t67.5 -34.5q46 0 91 33.5t81 89.5l7 -4
q-36 -64 -91.5 -112t-116.5 -48q-57 0 -91 46.5t-34 113.5q0 85 38 170.5t102.5 142t133.5 56.5zM103 234q49 16 81.5 28t70.5 30.5t60 37t37 44.5t15 56q0 34 -18.5 52.5t-46.5 18.5q-51 0 -112.5 -84t-86.5 -183z" />
    <glyph glyph-name="Edotaccent" unicode="&#x116;" horiz-adv-x="586" 
d="M437 830q-18 0 -32 13.5t-14 31.5q0 19 14 33t32 14q19 0 32.5 -14t13.5 -33q0 -18 -13.5 -31.5t-32.5 -13.5zM612 740l11 -185h-12q-6 68 -22 97.5t-57.5 42.5t-132.5 13h-117l-69 -289h135q51 0 76.5 19t36.5 59h12l-42 -172h-11q9 47 -7 64.5t-69 17.5h-134l-90 -375
q46 -20 126 -20q108 0 169.5 35t120.5 140h13l-105 -199q-43 12 -120 12h-338l3 11q31 2 49 19t27 56l132 550q9 39 -1 55t-40 18l3 11h314q92 0 139 20z" />
    <glyph glyph-name="edotaccent" unicode="&#x117;" horiz-adv-x="423" 
d="M355 610q-18 0 -32 13.5t-14 31.5q0 19 14 33t32 14q19 0 32.5 -14t13.5 -33q0 -18 -13.5 -31.5t-32.5 -13.5zM229 262l-128 -36q-10 -43 -10 -76q0 -57 22.5 -91.5t67.5 -34.5q46 0 91 33.5t81 89.5l7 -4q-36 -64 -91.5 -112t-116.5 -48q-57 0 -91 46.5t-34 113.5
q0 85 38 170.5t102.5 142t133.5 56.5q48 0 83 -28t35 -74q0 -51 -49.5 -86.5t-140.5 -61.5zM302 501q-51 0 -112.5 -84t-86.5 -183q49 16 81.5 28t70.5 30.5t60 37t37 44.5t15 56q0 34 -18.5 52.5t-46.5 18.5z" />
    <glyph glyph-name="Eogonek" unicode="&#x118;" horiz-adv-x="586" 
d="M612 740l11 -185h-12q-6 68 -22 97.5t-57.5 42.5t-132.5 13h-117l-69 -289h135q51 0 76.5 19t36.5 59h12l-42 -172h-11q9 47 -7 64.5t-69 17.5h-134l-90 -375q46 -20 126 -20q108 0 169.5 35t120.5 140h13l-105 -199q-43 12 -118 12q-66 -63 -66 -123q0 -26 16 -47.5
t50 -21.5q48 0 72 42v-12q-8 -26 -34.5 -47.5t-61.5 -21.5q-34 0 -59 24.5t-25 64.5q0 78 94 142h-326l3 11q31 2 49 19t27 56l132 550q9 39 -1 55t-40 18l3 11h314q92 0 139 20z" />
    <glyph glyph-name="eogonek" unicode="&#x119;" horiz-adv-x="423" 
d="M229 262l-128 -36q-10 -43 -10 -76q0 -57 22.5 -91.5t67.5 -34.5q46 0 91 33.5t81 89.5l7 -4q-56 -98 -132 -139q-70 -65 -70 -127q0 -26 16 -47.5t50 -21.5q48 0 72 42v-12q-8 -26 -34.5 -47.5t-61.5 -21.5q-34 0 -59 24.5t-25 64.5q0 71 80 132q-21 -7 -44 -7
q-57 0 -91 46.5t-34 113.5q0 85 38 170.5t102.5 142t133.5 56.5q48 0 83 -28t35 -74q0 -51 -49.5 -86.5t-140.5 -61.5zM302 501q-51 0 -112.5 -84t-86.5 -183q49 16 81.5 28t70.5 30.5t60 37t37 44.5t15 56q0 34 -18.5 52.5t-46.5 18.5z" />
    <glyph glyph-name="Ecaron" unicode="&#x11a;" horiz-adv-x="586" 
d="M385 787l-72 153h12l95 -111l149 111h14l-144 -153h-54zM612 740l11 -185h-12q-6 68 -22 97.5t-57.5 42.5t-132.5 13h-117l-69 -289h135q51 0 76.5 19t36.5 59h12l-42 -172h-11q9 47 -7 64.5t-69 17.5h-134l-90 -375q46 -20 126 -20q108 0 169.5 35t120.5 140h13
l-105 -199q-43 12 -120 12h-338l3 11q31 2 49 19t27 56l132 550q9 39 -1 55t-40 18l3 11h314q92 0 139 20z" />
    <glyph glyph-name="ecaron" unicode="&#x11b;" horiz-adv-x="423" 
d="M303 567l-72 153h12l95 -111l149 111h14l-144 -153h-54zM301 512q48 0 83 -28t35 -74q0 -51 -49.5 -86.5t-140.5 -61.5l-128 -36q-10 -43 -10 -76q0 -57 22.5 -91.5t67.5 -34.5q46 0 91 33.5t81 89.5l7 -4q-36 -64 -91.5 -112t-116.5 -48q-57 0 -91 46.5t-34 113.5
q0 85 38 170.5t102.5 142t133.5 56.5zM103 234q49 16 81.5 28t70.5 30.5t60 37t37 44.5t15 56q0 34 -18.5 52.5t-46.5 18.5q-51 0 -112.5 -84t-86.5 -183z" />
    <glyph glyph-name="Gcircumflex" unicode="&#x11c;" horiz-adv-x="657" 
d="M482 898l-149 -111h-13l144 153h54l71 -153h-11zM458 335h196l-2 -11q-59 0 -76 -67l-65 -270h-12q5 26 -5.5 46t-34.5 20q-17 0 -45 -16.5t-70 -33t-94 -16.5q-91 0 -145 77.5t-56 191.5q-1 112 52.5 223t144 182.5t188.5 71.5q53 0 102 -20.5t61 -20.5q23 0 47 20
l-22 -267h-13q4 75 -12 135t-57.5 100.5t-105.5 40.5q-85 0 -158.5 -70t-113.5 -174.5t-39 -209.5q0 -113 49.5 -184t120.5 -71q67 0 125.5 47.5t76.5 124.5l16 65q10 42 -2 58.5t-54 16.5z" />
    <glyph glyph-name="gcircumflex" unicode="&#x11d;" horiz-adv-x="448" 
d="M349 678l-149 -111h-13l144 153h54l71 -153h-11zM462 540q21 -1 31.5 -11.5t10.5 -26.5q0 -18 -10.5 -29t-29.5 -10q-12 1 -25 13.5t-21 12.5q-23 1 -41 -40q21 -36 21 -86q1 -80 -53 -148t-135 -68q-50 0 -83 31q-30 -9 -46 -22.5t-15 -30.5q1 -18 17.5 -31t61.5 -32
l143 -61q53 -23 75 -47t23 -58q2 -53 -50.5 -90t-137.5 -37q-118 0 -179.5 36.5t-62.5 85.5q-1 42 32.5 74.5t88.5 44.5q-34 16 -47.5 32.5t-13.5 44.5q-1 34 29.5 60.5t75.5 35.5q-40 42 -42 114q-1 81 51.5 148.5t133.5 67.5q71 0 107 -55q13 39 38.5 61.5t52.5 20.5z
M194 160q51 0 102 83t51 168q0 39 -14.5 63.5t-44.5 24.5q-59 0 -107.5 -81t-48.5 -162q0 -96 62 -96zM257 -66l-147 61q-12 5 -21 9q-44 -15 -64.5 -44.5t-19.5 -61.5q2 -55 51.5 -86.5t145.5 -31.5q55 0 91 20t38 59q2 45 -74 75z" />
    <glyph glyph-name="Gbreve" unicode="&#x11e;" horiz-adv-x="657" 
d="M462 787q-57 0 -82 44t-9 109h10q-11 -51 12.5 -83t76.5 -32q54 0 93 32t52 83h11q-16 -65 -61.5 -109t-102.5 -44zM250 -13q-91 0 -145 77.5t-56 191.5q-1 112 52.5 223t144 182.5t188.5 71.5q53 0 102 -20.5t61 -20.5q23 0 47 20l-22 -267h-13q4 75 -12 135
t-57.5 100.5t-105.5 40.5q-85 0 -158.5 -70t-113.5 -174.5t-39 -209.5q0 -113 49.5 -184t120.5 -71q67 0 125.5 47.5t76.5 124.5l16 65q10 42 -2 58.5t-54 16.5l3 11h196l-2 -11q-59 0 -76 -67l-65 -270h-12q5 26 -5.5 46t-34.5 20q-17 0 -45 -16.5t-70 -33t-94 -16.5z" />
    <glyph glyph-name="gbreve" unicode="&#x11f;" horiz-adv-x="448" 
d="M299 567q-57 0 -82 44t-9 109h10q-11 -51 12.5 -83t76.5 -32q54 0 93 32t52 83h11q-16 -65 -61.5 -109t-102.5 -44zM462 540q21 -1 31.5 -11.5t10.5 -26.5q0 -18 -10.5 -29t-29.5 -10q-12 1 -25 13.5t-21 12.5q-23 1 -41 -40q21 -36 21 -86q1 -80 -53 -148t-135 -68
q-50 0 -83 31q-30 -9 -46 -22.5t-15 -30.5q1 -18 17.5 -31t61.5 -32l143 -61q53 -23 75 -47t23 -58q2 -53 -50.5 -90t-137.5 -37q-118 0 -179.5 36.5t-62.5 85.5q-1 42 32.5 74.5t88.5 44.5q-34 16 -47.5 32.5t-13.5 44.5q-1 34 29.5 60.5t75.5 35.5q-40 42 -42 114
q-1 81 51.5 148.5t133.5 67.5q71 0 107 -55q13 39 38.5 61.5t52.5 20.5zM194 160q51 0 102 83t51 168q0 39 -14.5 63.5t-44.5 24.5q-59 0 -107.5 -81t-48.5 -162q0 -96 62 -96zM257 -66l-147 61q-12 5 -21 9q-44 -15 -64.5 -44.5t-19.5 -61.5q2 -55 51.5 -86.5t145.5 -31.5
q55 0 91 20t38 59q2 45 -74 75z" />
    <glyph glyph-name="Gdotaccent" unicode="&#x120;" horiz-adv-x="657" 
d="M480 830q-18 0 -32 13.5t-14 31.5q0 19 14 33t32 14q19 0 32.5 -14t13.5 -33q0 -18 -13.5 -31.5t-32.5 -13.5zM250 -13q-91 0 -145 77.5t-56 191.5q-1 112 52.5 223t144 182.5t188.5 71.5q53 0 102 -20.5t61 -20.5q23 0 47 20l-22 -267h-13q4 75 -12 135t-57.5 100.5
t-105.5 40.5q-85 0 -158.5 -70t-113.5 -174.5t-39 -209.5q0 -113 49.5 -184t120.5 -71q67 0 125.5 47.5t76.5 124.5l16 65q10 42 -2 58.5t-54 16.5l3 11h196l-2 -11q-59 0 -76 -67l-65 -270h-12q5 26 -5.5 46t-34.5 20q-17 0 -45 -16.5t-70 -33t-94 -16.5z" />
    <glyph glyph-name="gdotaccent" unicode="&#x121;" horiz-adv-x="448" 
d="M316 610q-18 0 -32 13.5t-14 31.5q0 19 14 33t32 14q19 0 32.5 -14t13.5 -33q0 -18 -13.5 -31.5t-32.5 -13.5zM462 540q21 -1 31.5 -11.5t10.5 -26.5q0 -18 -10.5 -29t-29.5 -10q-12 1 -25 13.5t-21 12.5q-23 1 -41 -40q21 -36 21 -86q1 -80 -53 -148t-135 -68
q-50 0 -83 31q-30 -9 -46 -22.5t-15 -30.5q1 -18 17.5 -31t61.5 -32l143 -61q53 -23 75 -47t23 -58q2 -53 -50.5 -90t-137.5 -37q-118 0 -179.5 36.5t-62.5 85.5q-1 42 32.5 74.5t88.5 44.5q-34 16 -47.5 32.5t-13.5 44.5q-1 34 29.5 60.5t75.5 35.5q-40 42 -42 114
q-1 81 51.5 148.5t133.5 67.5q71 0 107 -55q13 39 38.5 61.5t52.5 20.5zM194 160q51 0 102 83t51 168q0 39 -14.5 63.5t-44.5 24.5q-59 0 -107.5 -81t-48.5 -162q0 -96 62 -96zM257 -66l-147 61q-12 5 -21 9q-44 -15 -64.5 -44.5t-19.5 -61.5q2 -55 51.5 -86.5t145.5 -31.5
q55 0 91 20t38 59q2 45 -74 75z" />
    <glyph glyph-name="uni0122" unicode="&#x122;" horiz-adv-x="657" 
d="M250 -13q-91 0 -145 77.5t-56 191.5q-1 112 52.5 223t144 182.5t188.5 71.5q53 0 102 -20.5t61 -20.5q23 0 47 20l-22 -267h-13q4 75 -12 135t-57.5 100.5t-105.5 40.5q-85 0 -158.5 -70t-113.5 -174.5t-39 -209.5q0 -113 49.5 -184t120.5 -71q67 0 125.5 47.5
t76.5 124.5l16 65q10 42 -2 58.5t-54 16.5l3 11h196l-2 -11q-59 0 -76 -67l-65 -270h-12q5 26 -5.5 46t-34.5 20q-17 0 -45 -16.5t-70 -33t-94 -16.5zM247 -57q25 -1 39 -21.5t11 -46.5q-5 -53 -43 -100t-111 -76v11q56 25 90 65.5t41 90.5q0 3 -1 4q-2 2 -4 -3
q-12 -29 -41 -27q-16 1 -29 16.5t-11 38.5t19.5 36.5t39.5 11.5z" />
    <glyph glyph-name="uni0123" unicode="&#x123;" horiz-adv-x="448" 
d="M301 560q-25 1 -38 20t-11 46q5 53 43.5 100.5t112.5 76.5l-1 -12q-55 -24 -90 -65t-42 -91q0 -3 1 -4q2 -2 4 3q11 29 40 27q16 -1 29 -15.5t10 -38.5q-2 -22 -18.5 -35.5t-39.5 -11.5zM462 540q21 -1 31.5 -11.5t10.5 -26.5q0 -18 -10.5 -29t-29.5 -10q-12 1 -25 13.5
t-21 12.5q-23 1 -41 -40q21 -36 21 -86q1 -80 -53 -148t-135 -68q-50 0 -83 31q-30 -9 -46 -22.5t-15 -30.5q1 -18 17.5 -31t61.5 -32l143 -61q53 -23 75 -47t23 -58q2 -53 -50.5 -90t-137.5 -37q-118 0 -179.5 36.5t-62.5 85.5q-1 42 32.5 74.5t88.5 44.5
q-34 16 -47.5 32.5t-13.5 44.5q-1 34 29.5 60.5t75.5 35.5q-40 42 -42 114q-1 81 51.5 148.5t133.5 67.5q71 0 107 -55q13 39 38.5 61.5t52.5 20.5zM194 160q51 0 102 83t51 168q0 39 -14.5 63.5t-44.5 24.5q-59 0 -107.5 -81t-48.5 -162q0 -96 62 -96zM257 -66l-147 61
q-12 5 -21 9q-44 -15 -64.5 -44.5t-19.5 -61.5q2 -55 51.5 -86.5t145.5 -31.5q55 0 91 20t38 59q2 45 -74 75z" />
    <glyph glyph-name="Hcircumflex" unicode="&#x124;" horiz-adv-x="694" 
d="M503 898l-149 -111h-13l144 153h54l71 -153h-11zM573 720h187l-2 -11q-34 -1 -51 -16t-27 -58l-132 -548q-18 -72 42 -76l-2 -11h-187l2 11q59 2 78 77l68 283h-346l-68 -284q-17 -73 41 -76l-2 -11h-188l3 11q61 2 78 77l132 547q9 37 -1 54.5t-42 19.5l3 11h187l-2 -11
q-33 -1 -50 -16t-28 -58l-60 -252h346l60 252q9 38 -0.5 55.5t-40.5 18.5z" />
    <glyph glyph-name="hcircumflex" unicode="&#x125;" horiz-adv-x="528" 
d="M264 897l-149 -111h-13l144 153h54l71 -153h-12zM483 157l7 -2q-40 -70 -88 -119.5t-87 -49.5q-19 0 -28.5 11t-9 33.5t12.5 54.5l85 239q56 151 -15 151q-14 0 -33.5 -12t-49 -45.5t-61.5 -84.5t-73.5 -137.5t-83.5 -195.5h-59l199 642q16 50 8.5 65.5t-48.5 11.5l3 9
l139 34l-175 -562l3 -2q85 172 150 243.5t123 71.5q29 0 45.5 -14.5t20 -49.5t-17.5 -93l-89 -258q-9 -24 -11 -38t1.5 -20.5t14.5 -6.5q33 0 117 124z" />
    <glyph glyph-name="Hbar" unicode="&#x126;" horiz-adv-x="694" 
d="M758 709q-34 -1 -51 -16t-27 -58l-22 -90h50l-1 -12h-52l-107 -446q-18 -72 42 -76l-2 -11h-187l2 11q59 2 78 77l68 283h-346l-68 -284q-17 -73 41 -76l-2 -11h-188l3 11q61 2 78 77l107 445h-115l1 12h117l22 90q9 37 -1 54.5t-42 19.5l3 11h187l-2 -11q-33 -1 -50 -16
t-28 -58l-22 -90h346l22 90q9 38 -0.5 55.5t-40.5 18.5l2 11h187zM552 383l36 150h-346l-36 -150h346z" />
    <glyph glyph-name="hbar" unicode="&#x127;" horiz-adv-x="528" 
d="M483 157l7 -2q-40 -70 -88 -119.5t-87 -49.5q-19 0 -28.5 11t-9 33.5t12.5 54.5l85 239q56 151 -15 151q-14 0 -33.5 -12t-49 -45.5t-61.5 -84.5t-73.5 -137.5t-83.5 -195.5h-59l182 587h-24l-109 -2l2 14l108 -2h26l14 45q16 50 8.5 65.5t-48.5 11.5l3 9l139 34
l-51 -165h32l111 2l-2 -14l-110 2h-34l-121 -387l3 -2q85 172 150 243.5t123 71.5q29 0 45.5 -14.5t20 -49.5t-17.5 -93l-89 -258q-9 -24 -11 -38t1.5 -20.5t14.5 -6.5q33 0 117 124z" />
    <glyph glyph-name="Itilde" unicode="&#x128;" horiz-adv-x="304" 
d="M125 787q7 27 19.5 55.5t40 57t60.5 28.5q19 0 35.5 -16t27 -35t26 -35t33.5 -16q28 0 53.5 34.5t33.5 67.5h12q-7 -27 -19 -55.5t-38.5 -57t-57.5 -28.5q-21 0 -39 16t-28.5 35t-26.5 35t-33 16q-27 0 -52.5 -34t-33.5 -68h-13zM-2 0l3 11q60 4 77 77l132 547
q9 37 -1 54.5t-41 19.5l3 11h188l-3 -11q-31 -1 -49 -16.5t-28 -57.5l-132 -548q-9 -36 3.5 -55t38.5 -21l-3 -11h-188z" />
    <glyph glyph-name="itilde" unicode="&#x129;" horiz-adv-x="301" 
d="M95 567q7 27 19.5 55.5t40 57t60.5 28.5q19 0 35.5 -16t27 -35t26 -35t33.5 -16q28 0 53.5 34.5t33.5 67.5h12q-7 -27 -19 -55.5t-38.5 -57t-57.5 -28.5q-21 0 -39 16t-28.5 35t-26.5 35t-33 16q-27 0 -52.5 -34t-33.5 -68h-13zM39 346q117 167 190 167q14 0 20.5 -7.5
t5.5 -23.5t-5.5 -31.5t-12.5 -40.5l-107 -321q-11 -30 -11 -44.5t16 -14.5q21 0 54 35.5t67 92.5l6 -4q-48 -87 -94.5 -126.5t-76.5 -39.5q-56 0 -25 95l103 315q18 53 18 60q-1 10 -12 10q-36 0 -129 -126z" />
    <glyph glyph-name="Imacron" unicode="&#x12a;" horiz-adv-x="304" 
d="M147 820l1 12h279l-1 -12h-279zM-2 0l3 11q60 4 77 77l132 547q9 37 -1 54.5t-41 19.5l3 11h188l-3 -11q-31 -1 -49 -16.5t-28 -57.5l-132 -548q-9 -36 3.5 -55t38.5 -21l-3 -11h-188z" />
    <glyph glyph-name="imacron" unicode="&#x12b;" horiz-adv-x="301" 
d="M117 600l1 12h279l-1 -12h-279zM39 346q117 167 190 167q14 0 20.5 -7.5t5.5 -23.5t-5.5 -31.5t-12.5 -40.5l-107 -321q-11 -30 -11 -44.5t16 -14.5q21 0 54 35.5t67 92.5l6 -4q-48 -87 -94.5 -126.5t-76.5 -39.5q-56 0 -25 95l103 315q18 53 18 60q-1 10 -12 10
q-36 0 -129 -126z" />
    <glyph glyph-name="Iogonek" unicode="&#x12e;" horiz-adv-x="304" 
d="M171 720h188l-3 -11q-31 -1 -49 -16.5t-28 -57.5l-132 -548q-9 -36 3.5 -55t38.5 -21l-3 -11h-68q-66 -63 -66 -123q0 -26 16 -47.5t50 -21.5q48 0 72 42v-12q-8 -26 -34.5 -47.5t-61.5 -21.5q-34 0 -59 24.5t-25 64.5q0 78 94 142h-106l3 11q60 4 77 77l132 547
q9 37 -1 54.5t-41 19.5z" />
    <glyph glyph-name="iogonek" unicode="&#x12f;" horiz-adv-x="301" 
d="M272 702q19 0 32.5 -14t13.5 -33q0 -18 -13.5 -31.5t-32.5 -13.5q-18 0 -32 13.5t-14 31.5q0 19 14 33t32 14zM135 30q21 0 54 35.5t67 92.5l6 -4q-48 -87 -94.5 -126.5t-76.5 -39.5h-7q-54 -57 -54 -111q0 -26 16 -47.5t50 -21.5q48 0 72 42v-12q-8 -26 -34.5 -47.5
t-61.5 -21.5q-34 0 -59 24.5t-25 64.5q0 73 84 135q-30 17 -6 90l103 315q18 53 18 60q-1 10 -12 10q-36 0 -129 -126l-7 4q117 167 190 167q14 0 20.5 -7.5t5.5 -23.5t-5.5 -31.5t-12.5 -40.5l-107 -321q-11 -30 -11 -44.5t16 -14.5z" />
    <glyph glyph-name="Idotaccent" unicode="&#x130;" horiz-adv-x="304" 
d="M302 830q-18 0 -32 13.5t-14 31.5q0 19 14 33t32 14q19 0 32.5 -14t13.5 -33q0 -18 -13.5 -31.5t-32.5 -13.5zM-2 0l3 11q60 4 77 77l132 547q9 37 -1 54.5t-41 19.5l3 11h188l-3 -11q-31 -1 -49 -16.5t-28 -57.5l-132 -548q-9 -36 3.5 -55t38.5 -21l-3 -11h-188z" />
    <glyph glyph-name="dotlessi" unicode="&#x131;" horiz-adv-x="301" 
d="M39 346q117 167 190 167q14 0 20.5 -7.5t5.5 -23.5t-5.5 -31.5t-12.5 -40.5l-107 -321q-11 -30 -11 -44.5t16 -14.5q21 0 54 35.5t67 92.5l6 -4q-48 -87 -94.5 -126.5t-76.5 -39.5q-56 0 -25 95l103 315q18 53 18 60q-1 10 -12 10q-36 0 -129 -126z" />
    <glyph glyph-name="Jcircumflex" unicode="&#x134;" horiz-adv-x="454" 
d="M504 940l71 -153h-11l-96 111l-149 -111h-13l144 153h54zM341 709l2 11h190l-2 -10q-31 -1 -46.5 -16.5t-24.5 -54.5l-97 -407q-17 -70 -46.5 -121t-64.5 -76.5t-66.5 -36.5t-61.5 -11q-67 0 -103 40t-36 94q-1 43 23.5 77.5t57.5 34.5q36 0 37 -31q0 -17 -12.5 -32.5
t-27.5 -25.5t-27.5 -27.5t-12.5 -39.5q0 -28 26.5 -52.5t65.5 -24.5q62 0 102.5 41.5t63.5 133.5l108 452q13 42 3 61.5t-51 20.5z" />
    <glyph glyph-name="jcircumflex" unicode="&#x135;" horiz-adv-x="271" 
d="M368 567h-11l-96 111l-149 -111h-13l144 153h54zM225 515q24 0 25 -27.5t-13 -73.5l-114 -409q-35 -124 -83.5 -180t-113.5 -56q-37 0 -58.5 26t-21.5 60q1 32 15.5 54.5t35.5 22.5q11 0 17.5 -5.5t5.5 -15.5q0 -14 -14.5 -35t-15.5 -44q0 -50 52 -50q37 0 64 30.5
t37 71.5q7 28 16 92.5t23 113.5l92 318q15 54 8 62q-3 3 -10 3q-37 0 -119 -130l-7 4q50 88 98.5 128t80.5 40z" />
    <glyph glyph-name="uni0136" unicode="&#x136;" horiz-adv-x="627" 
d="M720 709q-43 -1 -89.5 -29t-109.5 -87l-245 -233l59 10l128 -252q33 -62 53.5 -84t50.5 -23l-2 -11h-66q-30 0 -52.5 23t-48.5 73l-129 257l-92 -88l-43 -178q-17 -72 41 -76l-2 -11h-187l3 11q60 2 77 77l132 547q9 37 -1 54.5t-41 19.5l3 11h186l-2 -11
q-31 -1 -49 -16.5t-29 -57.5l-83 -349l322 318q67 64 45 93q-10 11 -31 12l3 11h202zM237 -57q25 -1 39 -21.5t11 -46.5q-5 -53 -43 -100t-111 -76v11q56 25 90 65.5t41 90.5q0 3 -1 4q-2 2 -4 -3q-12 -29 -41 -27q-16 1 -29 16.5t-11 38.5t19.5 36.5t39.5 11.5z" />
    <glyph glyph-name="uni0137" unicode="&#x137;" horiz-adv-x="499" 
d="M468 513q24 0 36.5 -13.5t10.5 -33.5q-2 -17 -16 -29t-35 -12q-18 0 -35 10.5t-25 10.5q-14 0 -36.5 -24.5t-45.5 -56.5t-59.5 -65.5t-74.5 -47.5q76 10 114 -5.5t35 -70.5l-4 -82q-2 -55 9 -64q4 -4 11 -4q36 0 92 99l8 -4q-78 -135 -137 -135q-51 0 -46 75l6 92
q4 59 -25 79t-107 7l-75 -239h-63l197 625q5 15 7.5 23.5t5 20.5t2.5 18t-1 13.5t-5.5 10.5t-11.5 5.5t-17.5 2t-24.5 -2.5l3 10l148 36l-161 -512q46 8 84.5 38t64.5 67t50.5 73t55 60.5t65.5 24.5zM143 -57q25 -1 39 -21.5t11 -46.5q-5 -53 -43 -100t-111 -76v11
q56 25 90 65.5t41 90.5q0 3 -1 4q-2 2 -4 -3q-12 -29 -41 -27q-16 1 -29 16.5t-11 38.5t19.5 36.5t39.5 11.5z" />
    <glyph glyph-name="Lacute" unicode="&#x139;" horiz-adv-x="551" 
d="M433 940l-185 -153h-12l108 153h89zM534 207h13l-112 -220q-46 13 -116 13h-333l2 11q60 2 78 77l131 545q19 73 -41 76l3 11h186l-3 -11q-31 -1 -49 -17.5t-28 -58.5l-145 -603q44 -18 120 -18q57 0 90.5 5.5t69.5 25.5t66.5 58.5t67.5 105.5z" />
    <glyph glyph-name="lacute" unicode="&#x13a;" horiz-adv-x="254" 
d="M229 787h-12l108 153h89zM60 -17q-29 0 -39 25.5t3 69.5l174 547q21 55 13.5 77.5t-58.5 13.5l3 10l147 36l-211 -665q-24 -75 9 -75q37 0 113 116l7 -3q-93 -152 -161 -152z" />
    <glyph glyph-name="uni013B" unicode="&#x13b;" horiz-adv-x="551" 
d="M534 207h13l-112 -220q-46 13 -116 13h-333l2 11q60 2 78 77l131 545q19 73 -41 76l3 11h186l-3 -11q-31 -1 -49 -17.5t-28 -58.5l-145 -603q44 -18 120 -18q57 0 90.5 5.5t69.5 25.5t66.5 58.5t67.5 105.5zM178 -57q25 -1 39 -21.5t11 -46.5q-5 -53 -43 -100t-111 -76
v11q56 25 90 65.5t41 90.5q0 3 -1 4q-2 2 -4 -3q-12 -29 -41 -27q-16 1 -29 16.5t-11 38.5t19.5 36.5t39.5 11.5z" />
    <glyph glyph-name="uni013C" unicode="&#x13c;" horiz-adv-x="254" 
d="M60 -17q-29 0 -39 25.5t3 69.5l174 547q21 55 13.5 77.5t-58.5 13.5l3 10l147 36l-211 -665q-24 -75 9 -75q37 0 113 116l7 -3q-93 -152 -161 -152zM23 -57q25 -1 39 -21.5t11 -46.5q-5 -53 -43 -100t-112 -76l1 11q56 25 90 65.5t41 90.5q0 3 -1 4q-2 2 -4 -3
q-12 -29 -41 -27q-16 1 -29 16t-11 39q2 23 19.5 36.5t39.5 11.5z" />
    <glyph glyph-name="Lcaron" unicode="&#x13d;" horiz-adv-x="551" 
d="M534 207h13l-112 -220q-46 13 -116 13h-333l2 11q60 2 78 77l131 545q19 73 -41 76l3 11h186l-3 -11q-31 -1 -49 -17.5t-28 -58.5l-145 -603q44 -18 120 -18q57 0 90.5 5.5t69.5 25.5t66.5 58.5t67.5 105.5zM410 621q-17 0 -30.5 13t-13.5 34q0 22 15.5 37t38.5 15
q24 0 37.5 -16.5t13.5 -39.5q0 -44 -44.5 -98t-121.5 -80l2 11q57 23 95.5 64t45.5 89l-2 1q-9 -30 -36 -30z" />
    <glyph glyph-name="lcaron" unicode="&#x13e;" horiz-adv-x="316" 
d="M60 -17q-29 0 -39 25.5t3 69.5l174 547q21 55 13.5 77.5t-58.5 13.5l3 10l147 36l-211 -665q-24 -75 9 -75q37 0 113 116l7 -3q-93 -152 -161 -152zM277 487l2 11q57 23 95.5 64t45.5 89h-2q-10 -30 -36 -30q-17 0 -30.5 13.5t-13.5 34.5q0 22 15.5 37t38.5 15
q24 0 37.5 -16.5t13.5 -39.5q0 -44 -44.5 -98t-121.5 -80z" />
    <glyph glyph-name="Ldot" unicode="&#x13f;" horiz-adv-x="633" 
d="M534 207h13l-112 -220q-46 13 -116 13h-333l2 11q60 2 78 77l131 545q19 73 -41 76l3 11h186l-3 -11q-31 -1 -49 -17.5t-28 -58.5l-145 -603q44 -18 120 -18q57 0 90.5 5.5t69.5 25.5t66.5 58.5t67.5 105.5zM407 266q-20 0 -35 14.5t-15 35.5q0 20 15 34t35 14t34 -14
t14 -34q0 -21 -14 -35.5t-34 -14.5z" />
    <glyph glyph-name="ldot" unicode="&#x140;" horiz-adv-x="419" 
d="M60 -17q-29 0 -39 25.5t3 69.5l174 547q21 55 13.5 77.5t-58.5 13.5l3 10l147 36l-211 -665q-24 -75 9 -75q37 0 113 116l7 -3q-93 -152 -161 -152zM285 268q-20 0 -35 14.5t-15 35.5q0 20 15 34t35 14t34.5 -14t14.5 -34q0 -21 -14.5 -35.5t-34.5 -14.5z" />
    <glyph glyph-name="Lslash" unicode="&#x141;" horiz-adv-x="587" 
d="M571 207h12l-111 -220q-46 13 -116 13h-333l2 11q59 2 77 77l60 249l-36 -17l-93 -46l2 19l132 61l67 279q9 38 -0.5 56.5t-40.5 19.5l3 11h185l-3 -11q-31 -1 -48.5 -17t-27.5 -59l-58 -242l233 115l-2 -25l-209 -95l-27 -13l-83 -343q44 -18 121 -18q57 0 90.5 5.5
t69.5 25.5t66.5 58.5t67.5 105.5z" />
    <glyph glyph-name="lslash" unicode="&#x142;" horiz-adv-x="288" 
d="M263 455l95 69l-7 -28l-91 -56l-40 -26l-101 -317q-24 -75 9 -75q37 0 113 116l6 -3q-48 -80 -89.5 -116t-71.5 -36q-29 0 -39 25.5t4 69.5l90 285l-14 -9l-97 -67l6 24l96 59l14 9l78 246q22 55 14.5 77.5t-58.5 13.5l3 10l147 36l-105 -332z" />
    <glyph glyph-name="Nacute" unicode="&#x143;" horiz-adv-x="667" 
d="M622 940l-185 -153h-12l108 153h89zM576 720h184l-2 -11q-42 -1 -66 -24t-39 -83l-120 -484q-13 -52 2 -98q-37 -18 -64 -41l-244 654l-119 -511q-25 -106 63 -112l-2 -10h-203l2 10q93 5 120 112l116 469q28 115 -61 118l3 11h125l240 -636l125 518q13 56 -1.5 80.5
t-60.5 26.5z" />
    <glyph glyph-name="nacute" unicode="&#x144;" horiz-adv-x="571" 
d="M323 567h-12l108 153h89zM360 -14q-27 0 -33 27t10 72l78 222q32 87 29.5 130t-45.5 43q-98 0 -302 -480h-54q123 380 129 402q6 19 8.5 30t4 22.5t-1.5 16.5t-10 5q-17 0 -55 -37.5t-71 -91.5l-7 4q54 89 100.5 125.5t78.5 36.5q51 0 24 -88q-13 -42 -50.5 -149
t-47.5 -135l3 -1q54 121 98 198.5t78.5 114t59.5 48.5t55 12q26 0 44 -16.5t24 -52.5t-15 -95l-81 -236q-21 -61 -20 -73q1 -14 15 -14q16 0 51 36.5t68 87.5l6 -4q-38 -62 -87 -111t-84 -49z" />
    <glyph glyph-name="uni0145" unicode="&#x145;" horiz-adv-x="667" 
d="M576 720h184l-2 -11q-42 -1 -66 -24t-39 -83l-120 -484q-13 -52 2 -98q-37 -18 -64 -41l-244 654l-119 -511q-25 -106 63 -112l-2 -10h-203l2 10q93 5 120 112l116 469q28 115 -61 118l3 11h125l240 -636l125 518q13 56 -1.5 80.5t-60.5 26.5zM256 -57q25 -1 39 -21.5
t11 -46.5q-5 -53 -43 -100t-111 -76v11q56 25 90 65.5t41 90.5q0 3 -1 4q-2 2 -4 -3q-12 -29 -41 -27q-16 1 -29 16.5t-11 38.5t19.5 36.5t39.5 11.5z" />
    <glyph glyph-name="uni0146" unicode="&#x146;" horiz-adv-x="571" 
d="M360 -14q-27 0 -33 27t10 72l78 222q32 87 29.5 130t-45.5 43q-98 0 -302 -480h-54q123 380 129 402q6 19 8.5 30t4 22.5t-1.5 16.5t-10 5q-17 0 -55 -37.5t-71 -91.5l-7 4q54 89 100.5 125.5t78.5 36.5q51 0 24 -88q-13 -42 -50.5 -149t-47.5 -135l3 -1q54 121 98 198.5
t78.5 114t59.5 48.5t55 12q26 0 44 -16.5t24 -52.5t-15 -95l-81 -236q-21 -61 -20 -73q1 -14 15 -14q16 0 51 36.5t68 87.5l6 -4q-38 -62 -87 -111t-84 -49zM200 -57q24 -1 38 -21.5t11 -46.5q-4 -53 -42.5 -100t-111.5 -76v11q56 25 90 65.5t41 90.5q0 3 -1 4q-2 2 -4 -3
q-12 -29 -41 -27q-16 1 -29 16.5t-10 38.5q1 23 18.5 36.5t40.5 11.5z" />
    <glyph glyph-name="Ncaron" unicode="&#x147;" horiz-adv-x="667" 
d="M438 787l-72 153h12l95 -111l149 111h14l-144 -153h-54zM576 720h184l-2 -11q-42 -1 -66 -24t-39 -83l-120 -484q-13 -52 2 -98q-37 -18 -64 -41l-244 654l-119 -511q-25 -106 63 -112l-2 -10h-203l2 10q93 5 120 112l116 469q28 115 -61 118l3 11h125l240 -636l125 518
q13 56 -1.5 80.5t-60.5 26.5z" />
    <glyph glyph-name="ncaron" unicode="&#x148;" horiz-adv-x="571" 
d="M338 567l-71 153h11l96 -111l149 111h13l-144 -153h-54zM406 26q16 0 51 36.5t68 87.5l6 -4q-38 -62 -87 -111t-84 -49q-27 0 -33 27t10 72l78 222q32 87 29.5 130t-45.5 43q-98 0 -302 -480h-54q123 380 129 402q6 19 8.5 30t4 22.5t-1.5 16.5t-10 5q-17 0 -55 -37.5
t-71 -91.5l-7 4q54 89 100.5 125.5t78.5 36.5q51 0 24 -88q-13 -42 -50.5 -149t-47.5 -135l3 -1q54 121 98 198.5t78.5 114t59.5 48.5t55 12q26 0 44 -16.5t24 -52.5t-15 -95l-81 -236q-21 -61 -20 -73q1 -14 15 -14z" />
    <glyph glyph-name="napostrophe" unicode="&#x149;" horiz-adv-x="674" 
d="M59 441l2 11q57 23 95.5 64t45.5 89l-2 1q-9 -30 -36 -30q-17 0 -30.5 13t-13.5 34q0 22 15.5 37t38.5 15q24 0 37.5 -16.5t13.5 -39.5q0 -44 -44.5 -98t-121.5 -80zM463 -14q-27 0 -33 27t10 72l78 222q32 87 29.5 130t-45.5 43q-98 0 -302 -480h-54q123 380 129 402
q6 19 8.5 30t4 22.5t-1.5 16.5t-10 5q-17 0 -55 -37.5t-71 -91.5l-7 4q54 89 100.5 125.5t78.5 36.5q51 0 24 -88q-13 -42 -50.5 -149t-47.5 -135l3 -1q54 121 98 198.5t78.5 114t59.5 48.5t55 12q26 0 44 -16.5t24 -52.5t-15 -95l-81 -236q-21 -61 -20 -73q1 -14 15 -14
q16 0 51 36.5t68 87.5l6 -4q-38 -62 -87 -111t-84 -49z" />
    <glyph glyph-name="Eng" unicode="&#x14a;" horiz-adv-x="667" 
d="M576 720h184l-2 -11q-42 -1 -66 -24t-39 -83l-121 -488q-9 -38 -9 -85t-6 -81q-17 -77 -61.5 -127.5t-108.5 -50.5q-41 0 -67.5 26t-26.5 60q1 30 15.5 53t36.5 23t22 -21q0 -15 -15 -35.5t-15 -43.5q-1 -21 16 -35t43 -14q53 0 82 47t29 110q0 50 -16 95l-224 600
l-119 -513q-25 -106 63 -112l-2 -10h-203l2 10q93 5 120 112l116 469q27 115 -61 118l3 11h125l240 -637l125 519q14 53 -0.5 79.5t-61.5 27.5z" />
    <glyph glyph-name="eng" unicode="&#x14b;" horiz-adv-x="532" 
d="M188 -231q-38 0 -61.5 26t-23.5 60q0 29 15 52t36 23q26 0 26 -23q0 -12 -17.5 -34.5t-17.5 -42.5q-1 -22 13.5 -35.5t40.5 -13.5q63 0 87 81q5 17 18.5 88.5t29.5 119.5l78 237q14 42 20.5 69t8.5 53t-8.5 38.5t-32.5 12.5q-99 0 -302 -480h-59q127 394 130 404
q6 17 9 28.5t4.5 23t-1.5 17t-10 5.5q-18 0 -55.5 -38t-67.5 -91l-8 2q53 90 99 127t77 37q27 0 34 -25t-6 -64q-12 -40 -50 -146t-50 -142l3 -1q55 122 98.5 200t78.5 115t60 49t56 12q48 0 62 -48t-10 -116l-113 -344q-41 -128 -85 -182t-106 -54z" />
    <glyph glyph-name="Omacron" unicode="&#x14c;" horiz-adv-x="688" 
d="M338 820l1 12h279l-1 -12h-279zM296 -13q-118 0 -183 72t-65 191q0 115 53.5 226t149 184t203.5 73q114 0 177.5 -70.5t63.5 -186.5q0 -84 -32.5 -171.5t-85.5 -157.5t-128 -115t-153 -45zM323 7q87 0 156 67t103.5 166t34.5 207q0 116 -48 191t-143 75q-89 0 -159.5 -65
t-106 -162.5t-35.5 -204.5q0 -116 50 -195t148 -79z" />
    <glyph glyph-name="omacron" unicode="&#x14d;" horiz-adv-x="472" 
d="M222 600l1 12h279l-1 -12h-279zM176 -13q-67 0 -105 51t-38 131q0 79 35 158.5t97 132.5t130 53q67 0 105.5 -51t38.5 -131q0 -79 -35.5 -158.5t-97 -132.5t-130.5 -53zM152 5q56 0 113 64.5t91 152t34 157.5q0 53 -19 84.5t-55 31.5q-55 0 -111 -65.5t-89.5 -153.5
t-33.5 -157q0 -52 18 -83t52 -31z" />
    <glyph glyph-name="Obreve" unicode="&#x14e;" horiz-adv-x="688" 
d="M476 787q-57 0 -82 44t-9 109h10q-11 -51 12.5 -83t76.5 -32q54 0 93 32t52 83h11q-16 -65 -61.5 -109t-102.5 -44zM296 -13q-118 0 -183 72t-65 191q0 115 53.5 226t149 184t203.5 73q114 0 177.5 -70.5t63.5 -186.5q0 -84 -32.5 -171.5t-85.5 -157.5t-128 -115
t-153 -45zM323 7q87 0 156 67t103.5 166t34.5 207q0 116 -48 191t-143 75q-89 0 -159.5 -65t-106 -162.5t-35.5 -204.5q0 -116 50 -195t148 -79z" />
    <glyph glyph-name="obreve" unicode="&#x14f;" horiz-adv-x="472" 
d="M360 567q-57 0 -82 44t-9 109h10q-11 -51 12.5 -83t76.5 -32q54 0 93 32t52 83h11q-16 -65 -61.5 -109t-102.5 -44zM176 -13q-67 0 -105 51t-38 131q0 79 35 158.5t97 132.5t130 53q67 0 105.5 -51t38.5 -131q0 -79 -35.5 -158.5t-97 -132.5t-130.5 -53zM152 5
q56 0 113 64.5t91 152t34 157.5q0 53 -19 84.5t-55 31.5q-55 0 -111 -65.5t-89.5 -153.5t-33.5 -157q0 -52 18 -83t52 -31z" />
    <glyph glyph-name="Ohungarumlaut" unicode="&#x150;" horiz-adv-x="688" 
d="M360 787l108 153h80l-176 -153h-12zM518 787l125 153h82l-195 -153h-12zM296 -13q-118 0 -183 72t-65 191q0 115 53.5 226t149 184t203.5 73q114 0 177.5 -70.5t63.5 -186.5q0 -84 -32.5 -171.5t-85.5 -157.5t-128 -115t-153 -45zM323 7q87 0 156 67t103.5 166t34.5 207
q0 116 -48 191t-143 75q-89 0 -159.5 -65t-106 -162.5t-35.5 -204.5q0 -116 50 -195t148 -79z" />
    <glyph glyph-name="ohungarumlaut" unicode="&#x151;" horiz-adv-x="472" 
d="M244 567l108 153h80l-176 -153h-12zM402 567l125 153h82l-195 -153h-12zM176 -13q-67 0 -105 51t-38 131q0 79 35 158.5t97 132.5t130 53q67 0 105.5 -51t38.5 -131q0 -79 -35.5 -158.5t-97 -132.5t-130.5 -53zM152 5q56 0 113 64.5t91 152t34 157.5q0 53 -19 84.5
t-55 31.5q-55 0 -111 -65.5t-89.5 -153.5t-33.5 -157q0 -52 18 -83t52 -31z" />
    <glyph glyph-name="OE" unicode="&#x152;" horiz-adv-x="1000" 
d="M1027 740l11 -185h-12q-6 68 -22 97.5t-58 42.5t-133 13h-116l-69 -289h134q51 0 77 19t37 59h11l-41 -172h-12q10 47 -6 64.5t-69 17.5h-134l-90 -375q45 -20 125 -20q108 0 169.5 35t120.5 140h13l-105 -199q-41 12 -120 12h-281q-24 0 -80.5 -6.5t-93.5 -6.5
q-70 0 -122 30t-78.5 82t-33.5 120.5t13 145.5q37 153 154 260.5t259 107.5q34 0 84 -6.5t90 -6.5h238q93 0 140 20zM146 427q-20 -84 -21 -158t17.5 -133.5t63.5 -94.5t113 -35q41 0 68.5 5.5t45 14t29.5 29t17.5 38.5t14.5 54l101 423q7 30 7.5 53t-3.5 38.5t-15 26.5
t-22 17t-29 9t-33 4t-37 1q-105 0 -196.5 -86t-120.5 -206z" />
    <glyph glyph-name="oe" unicode="&#x153;" horiz-adv-x="747" 
d="M553 262l-128 -36q-10 -43 -10 -76q0 -57 22.5 -91.5t67.5 -34.5q46 0 91 33.5t81 89.5l7 -4q-36 -64 -91.5 -112t-116.5 -48q-46 0 -77 30.5t-43 79.5q-79 -106 -180 -106q-67 0 -105 51t-38 131q0 79 35 158.5t97 132.5t130 53q53 0 89 -33.5t49 -89.5q85 122 192 122
q48 0 83 -28t35 -74q0 -51 -49.5 -86.5t-140.5 -61.5zM626 501q-51 0 -112.5 -84t-86.5 -183q49 16 81.5 28t70.5 30.5t60 37t37 44.5t15 56q0 34 -18.5 52.5t-46.5 18.5zM152 5q56 0 113 64.5t91 152t34 157.5q0 53 -19 84.5t-55 31.5q-55 0 -111 -65.5t-89.5 -153.5
t-33.5 -157q0 -52 18 -83t52 -31z" />
    <glyph glyph-name="Racute" unicode="&#x154;" horiz-adv-x="590" 
d="M563 940l-185 -153h-12l108 153h89zM450 97q22 -50 43.5 -68t51.5 -18l-2 -11h-69q-32 0 -53.5 18t-38.5 58l-110 259h-79l-59 -245q-16 -76 40 -79l-3 -11h-185l3 11q59 2 78 79l130 542q9 37 -0.5 56t-40.5 20l3 12h210q94 0 155 -47.5t61 -126.5q0 -88 -80 -149.5
t-180 -61.5h-21l-2 -7l51 -10zM282 708l-85 -355q77 -7 98 -7q93 0 154 60t61 144q0 70 -42.5 114t-121.5 44h-64z" />
    <glyph glyph-name="racute" unicode="&#x155;" horiz-adv-x="435" 
d="M275 567h-12l108 153h89zM33 0q9 29 40 123t55 168.5t32 101.5q22 74 11 83q-2 2 -6 2q-31 0 -118 -130l-7 3q106 169 177 169q55 0 11 -125l-78 -223l4 -1q38 90 72 155.5t59 100.5t49 55.5t39.5 25.5t33.5 5q30 0 47.5 -17t18.5 -42q0 -25 -14 -43.5t-35 -18.5
q-33 0 -33 28q-1 8 4.5 19t5.5 16q0 23 -28 23q-43 0 -114.5 -117t-163.5 -361h-62z" />
    <glyph glyph-name="uni0156" unicode="&#x156;" horiz-adv-x="590" 
d="M450 97q22 -50 43.5 -68t51.5 -18l-2 -11h-69q-32 0 -53.5 18t-38.5 58l-110 259h-79l-59 -245q-16 -76 40 -79l-3 -11h-185l3 11q59 2 78 79l130 542q9 37 -0.5 56t-40.5 20l3 12h210q94 0 155 -47.5t61 -126.5q0 -88 -80 -149.5t-180 -61.5h-21l-2 -7l51 -10zM282 708
l-85 -355q77 -7 98 -7q93 0 154 60t61 144q0 70 -42.5 114t-121.5 44h-64zM198 -57q25 -1 39 -21.5t11 -46.5q-5 -53 -43 -100t-111 -76v11q56 25 90 65.5t41 90.5q0 3 -1 4q-2 2 -4 -3q-12 -29 -41 -27q-16 1 -29 16.5t-11 38.5t19.5 36.5t39.5 11.5z" />
    <glyph glyph-name="uni0157" unicode="&#x157;" horiz-adv-x="435" 
d="M33 0q9 29 40 123t55 168.5t32 101.5q22 74 11 83q-2 2 -6 2q-31 0 -118 -130l-7 3q106 169 177 169q55 0 11 -125l-78 -223l4 -1q38 90 72 155.5t59 100.5t49 55.5t39.5 25.5t33.5 5q30 0 47.5 -17t18.5 -42q0 -25 -14 -43.5t-35 -18.5q-33 0 -33 28q-1 8 4.5 19t5.5 16
q0 23 -28 23q-43 0 -114.5 -117t-163.5 -361h-62zM142 -57q25 -1 39 -21.5t11 -46.5q-5 -53 -43 -100t-111 -76v11q56 25 90 65.5t41 90.5q0 3 -1 4q-2 2 -4 -3q-12 -29 -41 -27q-16 1 -29 16.5t-11 38.5t19.5 36.5t39.5 11.5z" />
    <glyph glyph-name="Rcaron" unicode="&#x158;" horiz-adv-x="590" 
d="M378 787l-72 153h12l95 -111l149 111h14l-144 -153h-54zM450 97q22 -50 43.5 -68t51.5 -18l-2 -11h-69q-32 0 -53.5 18t-38.5 58l-110 259h-79l-59 -245q-16 -76 40 -79l-3 -11h-185l3 11q59 2 78 79l130 542q9 37 -0.5 56t-40.5 20l3 12h210q94 0 155 -47.5t61 -126.5
q0 -88 -80 -149.5t-180 -61.5h-21l-2 -7l51 -10zM282 708l-85 -355q77 -7 98 -7q93 0 154 60t61 144q0 70 -42.5 114t-121.5 44h-64z" />
    <glyph glyph-name="rcaron" unicode="&#x159;" horiz-adv-x="435" 
d="M275 567l-72 153h12l95 -111l149 111h14l-144 -153h-54zM407 513q30 0 47.5 -17t18.5 -42q0 -25 -14 -43.5t-35 -18.5q-33 0 -33 28q-1 8 4.5 19t5.5 16q0 23 -28 23q-43 0 -114.5 -117t-163.5 -361h-62q9 29 40 123t55 168.5t32 101.5q22 74 11 83q-2 2 -6 2
q-31 0 -118 -130l-7 3q106 169 177 169q55 0 11 -125l-78 -223l4 -1q38 90 72 155.5t59 100.5t49 55.5t39.5 25.5t33.5 5z" />
    <glyph glyph-name="Sacute" unicode="&#x15a;" horiz-adv-x="549" 
d="M357 787h-12l108 153h89zM11 -3l36 284h11q-1 -139 56 -210.5t157 -71.5q67 0 120.5 47t53.5 120q0 46 -33 83t-80.5 64t-94.5 55.5t-80 71t-33 96.5q0 78 70.5 137.5t159.5 59.5q49 0 105 -23t67 -23q23 0 37 36h8l-33 -226h-12q4 101 -45.5 162.5t-132.5 61.5
q-65 0 -117.5 -41t-51.5 -104q0 -49 33.5 -89t81.5 -68.5t95.5 -56.5t81.5 -67.5t34 -87.5q0 -90 -71.5 -155t-166.5 -65q-42 0 -82.5 11.5t-63.5 23t-43.5 18t-33.5 -2.5t-24 -40h-9z" />
    <glyph glyph-name="sacute" unicode="&#x15b;" horiz-adv-x="387" 
d="M255 567h-12l108 153h89zM126 -13q-57 0 -93 31t-34 80q2 18 15 33.5t31 15.5q17 0 28 -12.5t9 -30.5q-2 -15 -9.5 -28.5t-8.5 -26.5q-1 -23 18.5 -37t52.5 -14q39 0 72.5 30t34.5 72q2 33 -19.5 72t-48 70t-47.5 72t-19 77q4 52 50.5 87t106.5 35q54 0 88.5 -33
t32.5 -72q-1 -19 -12.5 -34.5t-29.5 -15.5q-17 0 -26.5 10t-8.5 28q1 13 12.5 27.5t11.5 25.5q1 23 -19 39t-50 16q-39 0 -69 -24t-32 -64q-2 -36 34 -88.5t72 -106t33 -92.5q-3 -56 -52 -99t-124 -43z" />
    <glyph glyph-name="Scircumflex" unicode="&#x15c;" horiz-adv-x="549" 
d="M413 898l-149 -111h-13l144 153h54l71 -153h-11zM563 723h8l-33 -226h-12q4 101 -45.5 162.5t-132.5 61.5q-65 0 -117.5 -41t-51.5 -104q0 -49 33.5 -89t81.5 -68.5t95.5 -56.5t81.5 -67.5t34 -87.5q0 -90 -71.5 -155t-166.5 -65q-42 0 -82.5 11.5t-63.5 23t-43.5 18
t-33.5 -2.5t-24 -40h-9l36 284h11q-1 -139 56 -210.5t157 -71.5q67 0 120.5 47t53.5 120q0 46 -33 83t-80.5 64t-94.5 55.5t-80 71t-33 96.5q0 78 70.5 137.5t159.5 59.5q49 0 105 -23t67 -23q23 0 37 36z" />
    <glyph glyph-name="scircumflex" unicode="&#x15d;" horiz-adv-x="418" 
d="M342 720l71 -153h-12l-95 111l-149 -111h-13l144 153h54zM265 513q54 0 88.5 -33t32.5 -72q-1 -19 -12.5 -34.5t-29.5 -15.5q-17 0 -26.5 10t-8.5 28q1 13 12.5 27.5t11.5 25.5q1 23 -19 39t-50 16q-39 0 -69 -24t-32 -64q-2 -36 34 -88.5t72 -106t33 -92.5
q-3 -56 -52 -99t-124 -43q-57 0 -93 31t-34 80q2 18 15 33.5t31 15.5q17 0 28 -12.5t9 -30.5q-2 -15 -9.5 -28.5t-8.5 -26.5q-1 -23 18.5 -37t52.5 -14q39 0 72.5 30t34.5 72q2 33 -19.5 72t-48 70t-47.5 72t-19 77q4 52 50.5 87t106.5 35z" />
    <glyph glyph-name="Scedilla" unicode="&#x15e;" horiz-adv-x="549" 
d="M563 723h8l-33 -226h-12q4 101 -45.5 162.5t-132.5 61.5q-65 0 -117.5 -41t-51.5 -104q0 -49 33.5 -89t81.5 -68.5t95.5 -56.5t81.5 -67.5t34 -87.5q0 -90 -71.5 -155t-166.5 -65q-17 0 -25 1l-21 -32q76 -31 76 -85q0 -41 -35 -71.5t-78 -30.5q-27 0 -47.5 14t-20.5 41
q0 17 10 31t25 14q21 0 21 -18q0 -10 -10.5 -22t-11.5 -18q-2 -12 8 -21.5t25 -9.5q32 0 54 20.5t22 51.5q0 52 -73 75l45 62q-34 4 -68 16t-53.5 21.5t-37.5 14t-30 -5.5t-22 -38h-9l36 284h11q-1 -139 56 -210.5t157 -71.5q67 0 120.5 47t53.5 120q0 46 -33 83t-80.5 64
t-94.5 55.5t-80 71t-33 96.5q0 78 70.5 137.5t159.5 59.5q49 0 105 -23t67 -23q23 0 37 36z" />
    <glyph glyph-name="scedilla" unicode="&#x15f;" horiz-adv-x="387" 
d="M265 513q54 0 88.5 -33t32.5 -72q-1 -19 -12.5 -34.5t-29.5 -15.5q-17 0 -26.5 10t-8.5 28q1 13 12.5 27.5t11.5 25.5q1 23 -19 39t-50 16q-39 0 -69 -24t-32 -64q-2 -36 34 -88.5t72 -106t33 -92.5q-3 -56 -52 -99t-124 -43h-1l-21 -31q76 -31 76 -85q0 -41 -35 -71.5
t-78 -30.5q-27 0 -47.5 14t-20.5 41q0 17 10 31t25 14q21 0 21 -18q0 -10 -10.5 -22t-11.5 -18q-2 -12 8 -21.5t25 -9.5q32 0 54 20.5t22 51.5q0 52 -73 75l43 60q-52 5 -83.5 35.5t-29.5 75.5q2 18 15 33.5t31 15.5q17 0 28 -12.5t9 -30.5q-2 -15 -9.5 -28.5t-8.5 -26.5
q-1 -23 18.5 -37t52.5 -14q39 0 72.5 30t34.5 72q2 33 -19.5 72t-48 70t-47.5 72t-19 77q4 52 50.5 87t106.5 35z" />
    <glyph glyph-name="Scaron" unicode="&#x160;" horiz-adv-x="549" 
d="M358 787l-72 153h12l95 -111l149 111h14l-144 -153h-54zM563 723h8l-33 -226h-12q4 101 -45.5 162.5t-132.5 61.5q-65 0 -117.5 -41t-51.5 -104q0 -49 33.5 -89t81.5 -68.5t95.5 -56.5t81.5 -67.5t34 -87.5q0 -90 -71.5 -155t-166.5 -65q-42 0 -82.5 11.5t-63.5 23
t-43.5 18t-33.5 -2.5t-24 -40h-9l36 284h11q-1 -139 56 -210.5t157 -71.5q67 0 120.5 47t53.5 120q0 46 -33 83t-80.5 64t-94.5 55.5t-80 71t-33 96.5q0 78 70.5 137.5t159.5 59.5q49 0 105 -23t67 -23q23 0 37 36z" />
    <glyph glyph-name="scaron" unicode="&#x161;" horiz-adv-x="387" 
d="M255 567l-72 153h12l95 -111l149 111h14l-144 -153h-54zM265 513q54 0 88.5 -33t32.5 -72q-1 -19 -12.5 -34.5t-29.5 -15.5q-17 0 -26.5 10t-8.5 28q1 13 12.5 27.5t11.5 25.5q1 23 -19 39t-50 16q-39 0 -69 -24t-32 -64q-2 -36 34 -88.5t72 -106t33 -92.5
q-3 -56 -52 -99t-124 -43q-57 0 -93 31t-34 80q2 18 15 33.5t31 15.5q17 0 28 -12.5t9 -30.5q-2 -15 -9.5 -28.5t-8.5 -26.5q-1 -23 18.5 -37t52.5 -14q39 0 72.5 30t34.5 72q2 33 -19.5 72t-48 70t-47.5 72t-19 77q4 52 50.5 87t106.5 35z" />
    <glyph glyph-name="uni0162" unicode="&#x162;" horiz-adv-x="607" 
d="M555 720q71 0 119 21l-9 -217h-11q0 52 -4.5 82t-20 55.5t-46 36t-80.5 10.5h-57l-148 -621q-9 -36 2.5 -55t37.5 -21l-3 -11h-186l3 11q60 2 78 77l149 620h-54q-50 0 -86 -10.5t-63.5 -36t-46.5 -56t-43 -81.5h-13l96 217q51 -21 109 -21h277zM242 -44q76 -31 76 -85
q0 -41 -35 -71.5t-78 -30.5q-27 0 -47.5 14t-20.5 41q0 17 10 31t25 14q21 0 21 -18q0 -10 -10.5 -22t-11.5 -18q-2 -12 8 -21.5t25 -9.5q32 0 54 20.5t22 51.5q0 52 -73 75l51 71h12z" />
    <glyph glyph-name="uni0163" unicode="&#x163;" horiz-adv-x="339" 
d="M249 486l-127 -386q-24 -71 4 -71q43 0 130 129l8 -2q-91 -149 -168 -166l-22 -34q76 -31 76 -85q0 -41 -35 -71.5t-78 -30.5q-27 0 -47.5 14t-20.5 41q0 17 10 31t25 14q21 0 21 -18q0 -10 -10.5 -22t-11.5 -18q-2 -12 8 -21.5t25 -9.5q32 0 54 20.5t22 51.5
q0 52 -73 75l44 61q-27 0 -36.5 24.5t4.5 70.5l131 403h-93l3 14h94l43 131l73 17l-49 -148q68 2 129 19l-14 -33h-119z" />
    <glyph glyph-name="Tcaron" unicode="&#x164;" horiz-adv-x="607" 
d="M401 787l-72 153h12l95 -111l149 111h14l-144 -153h-54zM555 720q71 0 119 21l-9 -217h-11q0 52 -4.5 82t-20 55.5t-46 36t-80.5 10.5h-57l-148 -621q-9 -36 2.5 -55t37.5 -21l-3 -11h-186l3 11q60 2 78 77l149 620h-54q-50 0 -86 -10.5t-63.5 -36t-46.5 -56t-43 -81.5
h-13l96 217q51 -21 109 -21h277z" />
    <glyph glyph-name="tcaron" unicode="&#x165;" horiz-adv-x="438" 
d="M515 721q24 0 37.5 -16.5t13.5 -39.5q0 -45 -44.5 -98.5t-122.5 -79.5l3 11q57 23 95.5 64t45.5 89h-3q-8 -30 -35 -30q-17 0 -31 13.5t-14 34.5q0 22 16 37t39 15zM302 648l-49 -148q68 2 129 19l-14 -33h-119l-127 -386q-24 -71 4 -71q43 0 130 129l8 -2
q-54 -90 -101.5 -129t-79.5 -39q-27 0 -36.5 24.5t4.5 70.5l131 403h-93l3 14h94l43 131z" />
    <glyph glyph-name="Tbar" unicode="&#x166;" horiz-adv-x="607" 
d="M555 720q71 0 119 21l-9 -217h-11q0 52 -4.5 82t-20 55.5t-46 36t-80.5 10.5h-57l-82 -344h26l110 2l-1 -14l-110 2h-27l-64 -267q-9 -36 2.5 -55t37.5 -21l-3 -11h-186l3 11q60 2 78 77l64 266h-29l-108 -2l1 14l108 -2h30l83 344h-54q-50 0 -86 -10.5t-63.5 -36
t-46.5 -56t-43 -81.5h-13l96 217q51 -21 109 -21h277z" />
    <glyph glyph-name="tbar" unicode="&#x167;" horiz-adv-x="339" 
d="M368 486h-119l-66 -199h72l110 2l-1 -14l-110 2h-74l-58 -177q-24 -71 4 -71q43 0 130 129l8 -2q-54 -90 -101.5 -129t-79.5 -39q-27 0 -36.5 24.5t4.5 70.5l63 194l-92 -2l1 14l94 -2l65 199h-93l3 14h94l43 131l73 17l-49 -148q68 2 129 19z" />
    <glyph glyph-name="Utilde" unicode="&#x168;" horiz-adv-x="647" 
d="M308 787q7 27 19.5 55.5t40 57t60.5 28.5q19 0 35.5 -16t27 -35t26 -35t33.5 -16q28 0 53.5 34.5t33.5 67.5h12q-7 -27 -19 -55.5t-38.5 -57t-57.5 -28.5q-21 0 -39 16t-28.5 35t-26.5 35t-33 16q-27 0 -52.5 -34t-33.5 -68h-13zM281 -13q-121 0 -170.5 75t-14.5 221
l85 354q18 69 -44 72l2 11h191l-2 -11q-63 -2 -79 -71l-85 -355q-33 -134 2.5 -206t137.5 -72q79 0 143 64t98 202l83 348q21 87 -62 90l2 11h188l-2 -11q-79 -2 -101 -90l-91 -348q-75 -284 -281 -284z" />
    <glyph glyph-name="utilde" unicode="&#x169;" horiz-adv-x="571" 
d="M228 567q7 27 19.5 55.5t40 57t60.5 28.5q19 0 35.5 -16t27 -35t26 -35t33.5 -16q28 0 53.5 34.5t33.5 67.5h12q-7 -27 -19 -55.5t-38.5 -57t-57.5 -28.5q-21 0 -39 16t-28.5 35t-26.5 35t-33 16q-27 0 -52.5 -34t-33.5 -68h-13zM211 514q28 0 34 -26.5t-11 -71.5
l-78 -223q-21 -59 -27 -96t4 -56.5t39 -19.5q98 0 302 479h54q-123 -380 -129 -402q-6 -19 -8.5 -30t-4 -22.5t1.5 -16.5t10 -5q17 0 55 37.5t72 91.5l6 -4q-55 -89 -101 -125.5t-78 -36.5q-51 0 -24 89q1 5 99 283l-3 1q-55 -121 -98.5 -198.5t-78.5 -114t-60 -48.5
t-55 -12q-26 0 -43.5 16.5t-23.5 52.5t15 95l80 236q21 61 20 73q-1 14 -14 14q-16 0 -51.5 -37t-67.5 -87l-7 4q38 62 87 111t84 49z" />
    <glyph glyph-name="Umacron" unicode="&#x16a;" horiz-adv-x="647" 
d="M330 820l1 12h279l-1 -12h-279zM281 -13q-121 0 -170.5 75t-14.5 221l85 354q18 69 -44 72l2 11h191l-2 -11q-63 -2 -79 -71l-85 -355q-33 -134 2.5 -206t137.5 -72q79 0 143 64t98 202l83 348q21 87 -62 90l2 11h188l-2 -11q-79 -2 -101 -90l-91 -348
q-75 -284 -281 -284z" />
    <glyph glyph-name="umacron" unicode="&#x16b;" horiz-adv-x="571" 
d="M250 600l1 12h279l-1 -12h-279zM211 514q28 0 34 -26.5t-11 -71.5l-78 -223q-21 -59 -27 -96t4 -56.5t39 -19.5q98 0 302 479h54q-123 -380 -129 -402q-6 -19 -8.5 -30t-4 -22.5t1.5 -16.5t10 -5q17 0 55 37.5t72 91.5l6 -4q-55 -89 -101 -125.5t-78 -36.5q-51 0 -24 89
q1 5 99 283l-3 1q-55 -121 -98.5 -198.5t-78.5 -114t-60 -48.5t-55 -12q-26 0 -43.5 16.5t-23.5 52.5t15 95l80 236q21 61 20 73q-1 14 -14 14q-16 0 -51.5 -37t-67.5 -87l-7 4q38 62 87 111t84 49z" />
    <glyph glyph-name="Ubreve" unicode="&#x16c;" horiz-adv-x="647" 
d="M468 787q-57 0 -82 44t-9 109h10q-11 -51 12.5 -83t76.5 -32q54 0 93 32t52 83h11q-16 -65 -61.5 -109t-102.5 -44zM281 -13q-121 0 -170.5 75t-14.5 221l85 354q18 69 -44 72l2 11h191l-2 -11q-63 -2 -79 -71l-85 -355q-33 -134 2.5 -206t137.5 -72q79 0 143 64t98 202
l83 348q21 87 -62 90l2 11h188l-2 -11q-79 -2 -101 -90l-91 -348q-75 -284 -281 -284z" />
    <glyph glyph-name="ubreve" unicode="&#x16d;" horiz-adv-x="571" 
d="M388 567q-57 0 -82 44t-9 109h10q-11 -51 12.5 -83t76.5 -32q54 0 93 32t52 83h11q-16 -65 -61.5 -109t-102.5 -44zM211 514q28 0 34 -26.5t-11 -71.5l-78 -223q-21 -59 -27 -96t4 -56.5t39 -19.5q98 0 302 479h54q-123 -380 -129 -402q-6 -19 -8.5 -30t-4 -22.5
t1.5 -16.5t10 -5q17 0 55 37.5t72 91.5l6 -4q-55 -89 -101 -125.5t-78 -36.5q-51 0 -24 89q1 5 99 283l-3 1q-55 -121 -98.5 -198.5t-78.5 -114t-60 -48.5t-55 -12q-26 0 -43.5 16.5t-23.5 52.5t15 95l80 236q21 61 20 73q-1 14 -14 14q-16 0 -51.5 -37t-67.5 -87l-7 4
q38 62 87 111t84 49z" />
    <glyph glyph-name="Uring" unicode="&#x16e;" horiz-adv-x="647" 
d="M483 790q-30 0 -51 21t-21 51q0 31 21 52.5t51 21.5q31 0 52.5 -21.5t21.5 -52.5q0 -30 -21.5 -51t-52.5 -21zM483 807q23 0 40 16t17 39t-17 40t-40 17t-39 -17t-16 -40t16 -39t39 -16zM281 -13q-121 0 -170.5 75t-14.5 221l85 354q18 69 -44 72l2 11h191l-2 -11
q-63 -2 -79 -71l-85 -355q-33 -134 2.5 -206t137.5 -72q79 0 143 64t98 202l83 348q21 87 -62 90l2 11h188l-2 -11q-79 -2 -101 -90l-91 -348q-75 -284 -281 -284z" />
    <glyph glyph-name="uring" unicode="&#x16f;" horiz-adv-x="571" 
d="M404 570q-30 0 -51 21t-21 51q0 31 21 52.5t51 21.5q31 0 52.5 -21.5t21.5 -52.5q0 -30 -21.5 -51t-52.5 -21zM404 587q23 0 40 16t17 39t-17 40t-40 17t-39 -17t-16 -40t16 -39t39 -16zM211 514q28 0 34 -26.5t-11 -71.5l-78 -223q-21 -59 -27 -96t4 -56.5t39 -19.5
q98 0 302 479h54q-123 -380 -129 -402q-6 -19 -8.5 -30t-4 -22.5t1.5 -16.5t10 -5q17 0 55 37.5t72 91.5l6 -4q-55 -89 -101 -125.5t-78 -36.5q-51 0 -24 89q1 5 99 283l-3 1q-55 -121 -98.5 -198.5t-78.5 -114t-60 -48.5t-55 -12q-26 0 -43.5 16.5t-23.5 52.5t15 95l80 236
q21 61 20 73q-1 14 -14 14q-16 0 -51.5 -37t-67.5 -87l-7 4q38 62 87 111t84 49z" />
    <glyph glyph-name="Uhungarumlaut" unicode="&#x170;" horiz-adv-x="647" 
d="M352 787l108 153h80l-176 -153h-12zM510 787l125 153h82l-195 -153h-12zM281 -13q-121 0 -170.5 75t-14.5 221l85 354q18 69 -44 72l2 11h191l-2 -11q-63 -2 -79 -71l-85 -355q-33 -134 2.5 -206t137.5 -72q79 0 143 64t98 202l83 348q21 87 -62 90l2 11h188l-2 -11
q-79 -2 -101 -90l-91 -348q-75 -284 -281 -284z" />
    <glyph glyph-name="uhungarumlaut" unicode="&#x171;" horiz-adv-x="571" 
d="M273 567l108 153h80l-176 -153h-12zM431 567l125 153h82l-195 -153h-12zM211 514q28 0 34 -26.5t-11 -71.5l-78 -223q-21 -59 -27 -96t4 -56.5t39 -19.5q98 0 302 479h54q-123 -380 -129 -402q-6 -19 -8.5 -30t-4 -22.5t1.5 -16.5t10 -5q17 0 55 37.5t72 91.5l6 -4
q-55 -89 -101 -125.5t-78 -36.5q-51 0 -24 89q1 5 99 283l-3 1q-55 -121 -98.5 -198.5t-78.5 -114t-60 -48.5t-55 -12q-26 0 -43.5 16.5t-23.5 52.5t15 95l80 236q21 61 20 73q-1 14 -14 14q-16 0 -51.5 -37t-67.5 -87l-7 4q38 62 87 111t84 49z" />
    <glyph glyph-name="Uogonek" unicode="&#x172;" horiz-adv-x="647" 
d="M568 720h188l-2 -11q-79 -2 -101 -90l-91 -348q-38 -144 -107 -213.5t-172 -70.5q-53 -56 -53 -110q0 -26 16 -47.5t50 -21.5q48 0 72 42v-12q-8 -26 -34.5 -47.5t-61.5 -21.5q-34 0 -59 24.5t-25 64.5q0 70 76 129q-112 5 -157 80.5t-11 215.5l85 354q18 69 -44 72l2 11
h191l-2 -11q-63 -2 -79 -71l-85 -355q-32 -129 0 -201t125 -77l9 6l9 -1l-6 -5h3q79 0 143 64t98 202l83 348q21 87 -62 90z" />
    <glyph glyph-name="uogonek" unicode="&#x173;" horiz-adv-x="571" 
d="M403 -192q48 0 72 42v-12q-8 -26 -34.5 -47.5t-61.5 -21.5q-34 0 -59 24.5t-25 64.5q0 73 82 133q-13 -4 -25 -4q-51 0 -24 89q1 5 99 283l-3 1q-55 -121 -98.5 -198.5t-78.5 -114t-60 -48.5t-55 -12q-26 0 -43.5 16.5t-23.5 52.5t15 95l80 236q21 61 20 73q-1 14 -14 14
q-16 0 -51.5 -37t-67.5 -87l-7 4q38 62 87 111t84 49q28 0 34 -26.5t-11 -71.5l-78 -223q-21 -59 -27 -96t4 -56.5t39 -19.5q98 0 302 479h54q-123 -380 -129 -402q-6 -19 -8.5 -30t-4 -22.5t1.5 -16.5t10 -5q17 0 55 37.5t72 91.5l6 -4q-61 -98 -118 -139h1
q-77 -67 -77 -133q0 -26 16 -47.5t50 -21.5z" />
    <glyph glyph-name="Wcircumflex" unicode="&#x174;" horiz-adv-x="960" 
d="M645 898l-149 -111h-13l144 153h54l71 -153h-12zM891 720h182l-3 -11q-32 -1 -56.5 -15.5t-49.5 -51.5q-69 -103 -157 -257q-20 -34 -56.5 -96t-53.5 -92t-38 -71t-29.5 -68t-8.5 -47q-33 -10 -62 -26l-40 445q-4 -7 -13 -22.5t-13 -22.5q-16 -28 -55.5 -93t-55 -91.5
t-38 -69.5t-30.5 -69.5t-7 -47.5q-31 -9 -61 -25l-51 563q-9 108 -20 125q-17 27 -58 32l3 11h213l-3 -11q-47 -6 -61 -40q-14 -28 -7 -95l46 -486q23 52 171 299l38 66l-9 99q-1 10 -2.5 28.5t-2 27.5t-2.5 23.5t-4 21.5t-5.5 17.5t-8 16t-11 11t-15.5 8t-20 3.5l3 11h207
l-4 -11q-44 -6 -61 -40q-12 -25 -6 -95l46 -490q22 50 170 303q15 26 44.5 75.5t42.5 72t29.5 54t23.5 49.5t7 30q0 39 -51 41z" />
    <glyph glyph-name="wcircumflex" unicode="&#x175;" horiz-adv-x="748" 
d="M528 678l-149 -111h-13l144 153h54l71 -153h-11zM680 513q44 0 44 -108q0 -92 -32.5 -188t-93 -163t-129.5 -67t-97 83q-35 -41 -70.5 -62t-61.5 -21q-56 0 -87 39t-28 103q3 67 51.5 139.5t146.5 179.5h-165q-113 0 -113 -90q0 -15 7.5 -22t14.5 -7q5 0 15 10t24 10
q12 0 19.5 -8.5t7.5 -19.5q0 -14 -11 -25t-29 -11q-24 0 -40.5 20.5t-16.5 56.5q0 63 45 100.5t126 37.5h117q30 0 38 10l5 -4l-33 -60q-154 -179 -154 -293q0 -104 101 -104q41 0 88 33q-12 42 -12 100q0 73 19.5 148.5t55 129t76.5 53.5q31 0 48 -27t17 -74
q0 -80 -46.5 -163t-112.5 -143q36 -57 106 -57q46 0 89.5 47.5t68 111t24.5 116.5q0 39 -15 67t-30 47.5t-15 37.5q0 17 10 27t28 10zM381 269q-2 -98 29 -154q52 49 89.5 115.5t40.5 118.5q3 47 -13.5 78t-42.5 31q-32 0 -67 -62t-36 -127z" />
    <glyph glyph-name="Ycircumflex" unicode="&#x176;" horiz-adv-x="607" 
d="M458 898l-149 -111h-13l144 153h54l71 -153h-11zM527 720h183l-3 -11q-43 -4 -74 -32.5t-98 -115.5q-32 -41 -177 -239l-52 -211q-13 -45 -7.5 -72t37.5 -28l-2 -11h-176l3 10q54 2 76 96l52 217l-99 317q-12 36 -28 51.5t-40 17.5l3 11h193l-2 -11q-53 -4 -53 -46
q0 -19 8 -42l83 -282q25 34 84.5 115.5t78.5 107.5q55 75 55 110q0 33 -47 37z" />
    <glyph glyph-name="ycircumflex" unicode="&#x177;" horiz-adv-x="464" 
d="M403 720l71 -153h-11l-96 111l-149 -111h-13l144 153h54zM422 513q16 0 26.5 -17.5t10.5 -47.5q0 -101 -83.5 -222t-206.5 -227q-21 -42 -40 -73.5t-51.5 -73.5t-72.5 -65.5t-83 -23.5q-36 0 -58 14.5t-22 34.5q0 16 11.5 29t29.5 13q12 0 20 -10t12.5 -22t17 -22
t33.5 -10q59 2 107 96t71.5 219t23.5 241q0 117 -28 117q-37 0 -106 -123l-8 4q53 99 89 134t65 35q55 0 55 -138q0 -161 -58 -355q106 95 170 190t64 154q0 25 -15 54t-15 47q0 22 12.5 35t28.5 13z" />
    <glyph glyph-name="Ydieresis" unicode="&#x178;" horiz-adv-x="607" 
d="M363 834q-16 0 -27 11.5t-11 27.5t11 27.5t27 11.5q17 0 28.5 -11.5t11.5 -27.5t-11.5 -27.5t-28.5 -11.5zM541 834q-17 0 -28 11t-11 28t11 28t28 11q16 0 27.5 -11.5t11.5 -27.5t-11.5 -27.5t-27.5 -11.5zM527 720h183l-3 -11q-43 -4 -74 -32.5t-98 -115.5
q-32 -41 -177 -239l-52 -211q-13 -45 -7.5 -72t37.5 -28l-2 -11h-176l3 10q54 2 76 96l52 217l-99 317q-12 36 -28 51.5t-40 17.5l3 11h193l-2 -11q-53 -4 -53 -46q0 -19 8 -42l83 -282q25 34 84.5 115.5t78.5 107.5q55 75 55 110q0 33 -47 37z" />
    <glyph glyph-name="Zacute" unicode="&#x179;" horiz-adv-x="592" 
d="M582 940l-185 -153h-12l108 153h89zM270 13q54 0 95 14.5t74 47.5t57 70t54 97h12l-122 -269q-35 27 -100 27h-371l583 706h-199q-78 0 -125 -39.5t-98 -129.5h-12l98 211q45 -28 120 -28h314l-576 -698q57 -9 196 -9z" />
    <glyph glyph-name="zacute" unicode="&#x17a;" horiz-adv-x="453" 
d="M450 720l-185 -153h-12l108 153h89zM452 513q21 0 30 -13q-14 -39 -71 -75q-193 -182 -329 -292q38 17 77.5 4.5t66.5 -35t57 -44t49 -21.5q23 0 37 17.5t14 43.5q0 13 -5 21t-15.5 11t-17.5 4t-21 0t-16 -1q-15 0 -23.5 8.5t-8.5 22.5q0 17 14 27t34 10q28 0 49.5 -26.5
t21.5 -68.5q0 -55 -33.5 -86.5t-72.5 -31.5q-26 0 -57.5 26.5t-70.5 53.5t-83 27q-41 0 -51 -18q-4 -7 -5 -14t-1 -18t-1 -17q-4 -41 -29 -41q-20 0 -20 27q0 53 88 110q224 206 319 283q-21 -12 -53 -5t-56.5 20t-61 26t-66.5 13q-26 0 -43.5 -14t-17.5 -32q0 -17 12.5 -29
t34.5 -12q16 0 25.5 -8t9.5 -22q0 -13 -11.5 -20t-26.5 -7q-29 0 -44.5 20t-15.5 53q0 53 39 88t87 35q37 0 107 -31t94 -31q28 0 43 28q3 5 8.5 17t9.5 17z" />
    <glyph glyph-name="Zdotaccent" unicode="&#x17b;" horiz-adv-x="592" 
d="M450 830q-18 0 -32 13.5t-14 31.5q0 19 14 33t32 14q19 0 32.5 -14t13.5 -33q0 -18 -13.5 -31.5t-32.5 -13.5zM270 13q54 0 95 14.5t74 47.5t57 70t54 97h12l-122 -269q-35 27 -100 27h-371l583 706h-199q-78 0 -125 -39.5t-98 -129.5h-12l98 211q45 -28 120 -28h314
l-576 -698q57 -9 196 -9z" />
    <glyph glyph-name="zdotaccent" unicode="&#x17c;" horiz-adv-x="453" 
d="M319 610q-18 0 -32 13.5t-14 31.5q0 19 14 33t32 14q19 0 32.5 -14t13.5 -33q0 -18 -13.5 -31.5t-32.5 -13.5zM452 513q21 0 30 -13q-14 -39 -71 -75q-193 -182 -329 -292q38 17 77.5 4.5t66.5 -35t57 -44t49 -21.5q23 0 37 17.5t14 43.5q0 13 -5 21t-15.5 11t-17.5 4
t-21 0t-16 -1q-15 0 -23.5 8.5t-8.5 22.5q0 17 14 27t34 10q28 0 49.5 -26.5t21.5 -68.5q0 -55 -33.5 -86.5t-72.5 -31.5q-26 0 -57.5 26.5t-70.5 53.5t-83 27q-41 0 -51 -18q-4 -7 -5 -14t-1 -18t-1 -17q-4 -41 -29 -41q-20 0 -20 27q0 53 88 110q224 206 319 283
q-21 -12 -53 -5t-56.5 20t-61 26t-66.5 13q-26 0 -43.5 -14t-17.5 -32q0 -17 12.5 -29t34.5 -12q16 0 25.5 -8t9.5 -22q0 -13 -11.5 -20t-26.5 -7q-29 0 -44.5 20t-15.5 53q0 53 39 88t87 35q37 0 107 -31t94 -31q28 0 43 28q3 5 8.5 17t9.5 17z" />
    <glyph glyph-name="Zcaron" unicode="&#x17d;" horiz-adv-x="592" 
d="M397 787l-72 153h12l95 -111l149 111h14l-144 -153h-54zM270 13q54 0 95 14.5t74 47.5t57 70t54 97h12l-122 -269q-35 27 -100 27h-371l583 706h-199q-78 0 -125 -39.5t-98 -129.5h-12l98 211q45 -28 120 -28h314l-576 -698q57 -9 196 -9z" />
    <glyph glyph-name="zcaron" unicode="&#x17e;" horiz-adv-x="453" 
d="M266 567l-72 153h12l95 -111l149 111h14l-144 -153h-54zM452 513q21 0 30 -13q-14 -39 -71 -75q-193 -182 -329 -292q38 17 77.5 4.5t66.5 -35t57 -44t49 -21.5q23 0 37 17.5t14 43.5q0 13 -5 21t-15.5 11t-17.5 4t-21 0t-16 -1q-15 0 -23.5 8.5t-8.5 22.5q0 17 14 27
t34 10q28 0 49.5 -26.5t21.5 -68.5q0 -55 -33.5 -86.5t-72.5 -31.5q-26 0 -57.5 26.5t-70.5 53.5t-83 27q-41 0 -51 -18q-4 -7 -5 -14t-1 -18t-1 -17q-4 -41 -29 -41q-20 0 -20 27q0 53 88 110q224 206 319 283q-21 -12 -53 -5t-56.5 20t-61 26t-66.5 13q-26 0 -43.5 -14
t-17.5 -32q0 -17 12.5 -29t34.5 -12q16 0 25.5 -8t9.5 -22q0 -13 -11.5 -20t-26.5 -7q-29 0 -44.5 20t-15.5 53q0 53 39 88t87 35q37 0 107 -31t94 -31q28 0 43 28q3 5 8.5 17t9.5 17z" />
    <glyph glyph-name="uni0218" unicode="&#x218;" horiz-adv-x="549" 
d="M11 -3l36 284h11q-1 -139 56 -210.5t157 -71.5q67 0 120.5 47t53.5 120q0 46 -33 83t-80.5 64t-94.5 55.5t-80 71t-33 96.5q0 78 70.5 137.5t159.5 59.5q49 0 105 -23t67 -23q23 0 37 36h8l-33 -226h-12q4 101 -45.5 162.5t-132.5 61.5q-65 0 -117.5 -41t-51.5 -104
q0 -49 33.5 -89t81.5 -68.5t95.5 -56.5t81.5 -67.5t34 -87.5q0 -90 -71.5 -155t-166.5 -65q-42 0 -82.5 11.5t-63.5 23t-43.5 18t-33.5 -2.5t-24 -40h-9zM199 -57q25 -1 39 -21.5t11 -46.5q-5 -53 -43 -100t-111 -76v11q56 25 90 65.5t41 90.5q0 3 -1 4q-2 2 -4 -3
q-12 -29 -41 -27q-16 1 -29 16.5t-11 38.5t19.5 36.5t39.5 11.5z" />
    <glyph glyph-name="uni0219" unicode="&#x219;" horiz-adv-x="418" 
d="M126 -13q-57 0 -93 31t-34 80q2 18 15 33.5t31 15.5q17 0 28 -12.5t9 -30.5q-2 -15 -9.5 -28.5t-8.5 -26.5q-1 -23 18.5 -37t52.5 -14q39 0 72.5 30t34.5 72q2 33 -19.5 72t-48 70t-47.5 72t-19 77q4 52 50.5 87t106.5 35q54 0 88.5 -33t32.5 -72q-1 -19 -12.5 -34.5
t-29.5 -15.5q-17 0 -26.5 10t-8.5 28q1 13 12.5 27.5t11.5 25.5q1 23 -19 39t-50 16q-39 0 -69 -24t-32 -64q-2 -36 34 -88.5t72 -106t33 -92.5q-3 -56 -52 -99t-124 -43zM125 -57q25 -1 39 -21.5t11 -46.5q-5 -53 -43 -100t-112 -76l1 11q55 25 89 65.5t41 90.5q1 3 -1 4
q-2 2 -4 -3q-12 -29 -41 -27q-16 1 -29 16.5t-10 38.5q2 23 19.5 36.5t39.5 11.5z" />
    <glyph glyph-name="uni021A" unicode="&#x21a;" horiz-adv-x="607" 
d="M555 720q71 0 119 21l-9 -217h-11q0 52 -4.5 82t-20 55.5t-46 36t-80.5 10.5h-57l-148 -621q-9 -36 2.5 -55t37.5 -21l-3 -11h-186l3 11q60 2 78 77l149 620h-54q-50 0 -86 -10.5t-63.5 -36t-46.5 -56t-43 -81.5h-13l96 217q51 -21 109 -21h277zM220 -57q25 -1 39 -21.5
t11 -46.5q-5 -53 -43 -100t-111 -76v11q56 25 90 65.5t41 90.5q0 3 -1 4q-2 2 -4 -3q-12 -29 -41 -27q-16 1 -29 16.5t-11 38.5t19.5 36.5t39.5 11.5z" />
    <glyph glyph-name="uni021B" unicode="&#x21b;" horiz-adv-x="339" 
d="M249 486l-127 -386q-24 -71 4 -71q43 0 130 129l8 -2q-54 -90 -101.5 -129t-79.5 -39q-27 0 -36.5 24.5t4.5 70.5l131 403h-93l3 14h94l43 131l73 17l-49 -148q68 2 129 19l-14 -33h-119zM52 -57q25 -1 39 -21.5t11 -46.5q-5 -53 -43 -100t-112 -76l1 11q56 25 90 65.5
t40 90.5q1 4 -1 4l-3 -3q-12 -29 -41 -27q-16 1 -29.5 16t-10.5 39q2 23 19.5 36.5t39.5 11.5z" />
    <glyph glyph-name="uni0237" unicode="&#x237;" horiz-adv-x="271" 
d="M-74 -231q-37 0 -58.5 26t-21.5 60q1 32 15.5 54.5t35.5 22.5q11 0 17.5 -5.5t5.5 -15.5q0 -14 -14.5 -35t-15.5 -44q0 -50 52 -50q37 0 64 30.5t37 71.5q7 28 16 92.5t23 113.5l92 318q15 54 8 62q-3 3 -10 3q-37 0 -119 -130l-7 4q50 88 98.5 128t80.5 40
q24 0 25 -27.5t-13 -73.5l-114 -409q-35 -124 -83.5 -180t-113.5 -56z" />
    <glyph glyph-name="uni02BC" unicode="&#x2bc;" horiz-adv-x="189" 
d="M88 487l2 11q58 23 96.5 64t45.5 89h-3q-10 -30 -35 -30q-17 0 -31 13.5t-14 34.5q0 22 15.5 37t38.5 15q24 0 38 -16.5t14 -39.5q0 -45 -44.5 -98.5t-122.5 -79.5z" />
    <glyph glyph-name="gravecomb" unicode="&#x300;" 
d="M41 567l-184 153h88l109 -153h-13z" />
    <glyph glyph-name="acutecomb" unicode="&#x301;" 
d="M-90 567h-12l108 153h89z" />
    <glyph glyph-name="uni0302" unicode="&#x302;" 
d="M43 567h-11l-97 111l-149 -111h-13l144 153h54z" />
    <glyph glyph-name="tildecomb" unicode="&#x303;" 
d="M-253 567q7 27 19.5 55.5t40 57t60.5 28.5q19 0 35.5 -16t27 -35t26 -35t33.5 -16q28 0 53.5 34.5t33.5 67.5h12q-7 -27 -19 -55.5t-38.5 -57t-57.5 -28.5q-21 0 -39 16t-28.5 35t-26.5 35t-33 16q-27 0 -52.5 -34t-33.5 -68h-13z" />
    <glyph glyph-name="uni0304" unicode="&#x304;" 
d="M-224 600l1 12h279l-1 -12h-279z" />
    <glyph glyph-name="uni0306" unicode="&#x306;" 
d="M-84 567q-57 0 -82 44t-9 109h10q-11 -51 12.5 -83t76.5 -32q54 0 93 32t52 83h11q-16 -65 -61.5 -109t-102.5 -44z" />
    <glyph glyph-name="uni0307" unicode="&#x307;" 
d="M15 610q-18 0 -32 13.5t-14 31.5q0 19 14 33t32 14q19 0 32.5 -14t13.5 -33q0 -18 -13.5 -31.5t-32.5 -13.5z" />
    <glyph glyph-name="uni0308" unicode="&#x308;" 
d="M-159 614q-16 0 -27 11.5t-11 27.5t11 27.5t27 11.5q17 0 28.5 -11.5t11.5 -27.5t-11.5 -27.5t-28.5 -11.5zM19 614q-17 0 -28 11t-11 28t11 28t28 11q16 0 27.5 -11.5t11.5 -27.5t-11.5 -27.5t-27.5 -11.5z" />
    <glyph glyph-name="uni030A" unicode="&#x30a;" 
d="M-16 570q-30 0 -51 21t-21 51q0 31 21 52.5t51 21.5q31 0 53 -21.5t22 -52.5q0 -30 -22 -51t-53 -21zM-16 587q24 0 41 16t17 39t-17 40t-41 17q-23 0 -39 -17t-16 -40t16 -39t39 -16z" />
    <glyph glyph-name="uni030B" unicode="&#x30b;" 
d="M-270 567l108 153h80l-176 -153h-12zM-112 567l125 153h82l-195 -153h-12z" />
    <glyph glyph-name="uni030C" unicode="&#x30c;" 
d="M75 720h14l-145 -153h-54l-72 153h12l95 -111z" />
    <glyph glyph-name="uni0312" unicode="&#x312;" 
d="M-11 560q-25 1 -38 20t-11 46q5 53 44 100.5t113 76.5l-1 -12q-56 -24 -91 -65.5t-42 -90.5q0 -3 1 -4q2 -2 4 3q11 29 41 27q16 -1 29 -15.5t10 -38.5q-2 -23 -19 -36t-40 -11z" />
    <glyph glyph-name="uni0326" unicode="&#x326;" 
d="M-162 -57q25 -1 39 -21.5t11 -46.5q-5 -53 -43 -100t-112 -76l1 11q56 25 90 65.5t41 90.5q0 3 -1 4q-2 2 -4 -3q-12 -29 -41 -27q-16 1 -29 16t-11 39q2 23 19.5 36.5t39.5 11.5z" />
    <glyph glyph-name="uni0327" unicode="&#x327;" 
d="M-194 -44q76 -31 76 -85q0 -41 -35 -71.5t-78 -30.5q-27 0 -47.5 14t-20.5 41q0 17 10 31t25 14q21 0 21 -18q0 -10 -10.5 -21.5t-11.5 -18.5q-2 -12 8 -21.5t25 -9.5q32 0 54 20.5t22 51.5q0 52 -73 75l51 71h12z" />
    <glyph glyph-name="uni0328" unicode="&#x328;" 
d="M-225 -231q-35 0 -59.5 24.5t-24.5 64.5q0 82 110 153l9 -1q-78 -68 -78 -133q0 -26 16.5 -47.5t50.5 -21.5q48 0 72 42v-12q-8 -26 -34.5 -47.5t-61.5 -21.5z" />
    <glyph glyph-name="uni0335" unicode="&#x335;" 
d="M-343 352l1 14l108 -2h124l110 2l-1 -14l-110 2h-124z" />
    <glyph glyph-name="uni0336" unicode="&#x336;" 
d="M-608 533l1 12h648l-1 -12h-648z" />
    <glyph glyph-name="uni0337" unicode="&#x337;" 
d="M-271 287l6 24l96 59l131 85l96 69l-7 -28l-92 -56l-133 -86z" />
    <glyph glyph-name="uni0338" unicode="&#x338;" 
d="M-423 0l424 500h19l-424 -500h-19z" />
    <glyph glyph-name="uni0401" unicode="&#x401;" horiz-adv-x="586" 
d="M345 834q-16 0 -27 11.5t-11 27.5t11 27.5t27 11.5q17 0 28.5 -11.5t11.5 -27.5t-11.5 -27.5t-28.5 -11.5zM523 834q-17 0 -28 11t-11 28t11 28t28 11q16 0 27.5 -11.5t11.5 -27.5t-11.5 -27.5t-27.5 -11.5zM612 740l11 -185h-12q-6 68 -22 97.5t-57.5 42.5t-132.5 13
h-117l-69 -289h135q51 0 76.5 19t36.5 59h12l-42 -172h-11q9 47 -7 64.5t-69 17.5h-134l-90 -375q46 -20 126 -20q108 0 169.5 35t120.5 140h13l-105 -199q-43 12 -120 12h-338l3 11q31 2 49 19t27 56l132 550q9 39 -1 55t-40 18l3 11h314q92 0 139 20z" />
    <glyph glyph-name="uni0404" unicode="&#x404;" horiz-adv-x="617" 
d="M589 693q23 0 48 20l-15 -262h-11q-2 124 -42 197t-121 73q-111 0 -199 -96t-114 -226h140q86 0 116 18t46 73h10l-46 -195h-11q13 59 -12 75t-106 16h-139q-6 -35 -6 -70q1 -114 49.5 -192t154.5 -78q63 0 126 42t107 123l8 -2q-44 -96 -123.5 -159t-166.5 -63
q-106 0 -167.5 81.5t-62.5 202.5q0 114 54.5 221t146.5 174t194 67q42 0 85 -20t57 -20z" />
    <glyph glyph-name="uni0406" unicode="&#x406;" horiz-adv-x="304" 
d="M-2 0l3 11q60 4 77 77l132 547q9 37 -1 54.5t-41 19.5l3 11h188l-3 -11q-31 -1 -49 -16.5t-28 -57.5l-132 -548q-9 -36 3.5 -55t38.5 -21l-3 -11h-188z" />
    <glyph glyph-name="uni0407" unicode="&#x407;" horiz-adv-x="304" 
d="M210 834q-16 0 -27 11.5t-11 27.5t11 27.5t27 11.5q17 0 28.5 -11.5t11.5 -27.5t-11.5 -27.5t-28.5 -11.5zM388 834q-16 0 -27.5 11t-11.5 28t11.5 28t27.5 11t27.5 -11.5t11.5 -27.5t-11.5 -27.5t-27.5 -11.5zM-2 0l3 11q60 4 77 77l132 547q9 37 -1 54.5t-41 19.5l3 11
h188l-3 -11q-31 -1 -49 -16.5t-28 -57.5l-132 -548q-9 -36 3.5 -55t38.5 -21l-3 -11h-188z" />
    <glyph glyph-name="uni0410" unicode="&#x410;" horiz-adv-x="638" 
d="M502 161q3 -32 5 -50t7 -39.5t12 -32.5t18.5 -19t27.5 -9l-2 -11h-205l2 11q48 6 62 40q11 26 4 95l-9 106h-254q-36 -61 -53 -90t-32 -61.5t-15 -47.5q0 -40 51 -42l-3 -11h-182l2 11q33 2 56.5 15t46.5 45q16 22 72 114.5t89 149.5q19 33 57.5 97t55.5 94t39 72
t29.5 68.5t6.5 46.5q29 8 60 24zM177 264h245l-33 371q-14 -31 -39.5 -76t-68.5 -118t-63 -108z" />
    <glyph glyph-name="uni0411" unicode="&#x411;" horiz-adv-x="584" 
d="M476 720q69 0 119 21l-9 -211h-11q-1 105 -29.5 141.5t-123.5 36.5h-140l-78 -327l151 -1q83 -1 133.5 -41t50.5 -108q0 -105 -83.5 -168t-206.5 -63h-263l2 11q61 4 78 77l131 545q18 73 -41 76l3 11h317zM321 367l-120 1l-83 -347q61 -9 124 -9q89 0 157.5 67.5
t68.5 154.5q0 63 -43 97.5t-104 35.5z" />
    <glyph glyph-name="uni0412" unicode="&#x412;" horiz-adv-x="587" 
d="M390 378q69 -9 109.5 -50t40.5 -107q0 -98 -83.5 -159.5t-207.5 -61.5h-263l3 11q61 4 79 77l130 545q18 73 -42 76l3 11h204q103 0 160.5 -39t57.5 -111q0 -71 -54 -121.5t-137 -70.5zM348 708h-65l-77 -323q43 -4 45 -4l71 -1q85 8 138.5 64.5t53.5 136.5
q0 127 -166 127zM243 12q90 0 158 62.5t68 149.5q-1 68 -44 105t-106 38h-10h-11l-66 1h-30l-83 -347q61 -9 124 -9z" />
    <glyph glyph-name="uni0413" unicode="&#x413;" horiz-adv-x="518" 
d="M466 720q69 0 119 22l-9 -218h-12q0 52 -4.5 82t-19.5 56t-45.5 36.5t-80.5 10.5h-70q-31 -1 -49 -16.5t-28 -57.5l-132 -548q-9 -36 3.5 -55t38.5 -21l-3 -11h-188l3 11q60 4 77 77l132 547q9 37 -1 54.5t-41 19.5l3 11h307z" />
    <glyph glyph-name="uni0414" unicode="&#x414;" horiz-adv-x="663" 
d="M258 720h467l-3 -11q-30 -1 -48 -16.5t-30 -62.5l-131 -547q-10 -40 5 -55.5t55 -16.5l-3 -11l-53 -220h-11q12 49 16.5 85t1 68.5t-22.5 49.5t-54 17h-411q-67 0 -107.5 -59.5t-65.5 -160.5h-11l53 220l3 13h50q137 48 244 213.5t132 359.5q9 66 -7.5 94t-72.5 29z
M574 635q12 47 -1.5 60.5t-66.5 13.5h-43q-59 0 -82.5 -28.5t-32.5 -94.5q-47 -326 -297 -573h319q23 0 42.5 15.5t27.5 47.5z" />
    <glyph glyph-name="uni0415" unicode="&#x415;" horiz-adv-x="586" 
d="M612 740l11 -185h-12q-6 68 -22 97.5t-57.5 42.5t-132.5 13h-117l-69 -289h135q51 0 76.5 19t36.5 59h12l-42 -172h-11q9 47 -7 64.5t-69 17.5h-134l-90 -375q46 -20 126 -20q108 0 169.5 35t120.5 140h13l-105 -199q-43 12 -120 12h-338l3 11q31 2 49 19t27 56l132 550
q9 39 -1 55t-40 18l3 11h314q92 0 139 20z" />
    <glyph glyph-name="uni0416" unicode="&#x416;" horiz-adv-x="963" 
d="M984 733q57 0 57 -48q0 -22 -20 -40t-46 -18q-17 0 -31.5 7t-23.5 7q-20 0 -46 -24.5t-75 -83.5q-4 -5 -20.5 -25.5t-23.5 -28.5t-22.5 -26t-26 -28.5t-25 -24t-29 -24t-29.5 -18.5l51 13l124 -253q33 -65 52.5 -85.5t53.5 -21.5l-2 -11h-71q-30 0 -50.5 22t-46.5 74
l-124 255q-39 -19 -84 -21l-58 -243q-9 -36 3 -55t38 -21l-3 -11h-187l2 11q59 3 78 77l58 242q-37 3 -67 21l-233 -255q-47 -51 -79.5 -73.5t-62.5 -22.5h-74l3 11q31 1 60.5 22t89.5 85l234 255l53 -16q-13 10 -24 24t-18.5 25.5t-16 32.5t-12 30.5t-11.5 34t-10 29.5
q-12 32 -17.5 46t-15 32t-17.5 24t-19 6q-9 0 -27.5 -7t-35.5 -7q-21 0 -32.5 12t-11.5 30q0 26 21 45t55 19q30 0 54 -30.5t33 -56.5t25 -82q4 -14 6 -20q25 -93 42 -124q40 -71 111 -78l70 293q9 37 -1 54.5t-40 19.5l2 11h188l-3 -11q-31 -1 -49 -16.5t-28 -57.5
l-70 -293q39 2 76 19.5t69.5 49.5t54 57.5t50.5 64.5q5 7 8 11q6 7 26 34.5t29 38.5t27.5 33.5t30 33.5t27.5 24.5t30 19t27 5.5z" />
    <glyph glyph-name="uni0417" unicode="&#x417;" horiz-adv-x="568" 
d="M317 389q95 0 155 -43t60 -111q0 -74 -49 -132t-125 -87t-162 -29q-101 0 -148.5 44t-47.5 95q0 34 22.5 59.5t51.5 25.5q18 0 29.5 -10t11.5 -28t-21.5 -45.5t-21.5 -44.5q0 -32 30.5 -58t94.5 -26q105 0 179.5 66.5t74.5 164.5q0 67 -46 105.5t-129 38.5q-32 0 -69 -6
l-1 11q139 24 223.5 81.5t84.5 148.5q0 48 -30 79.5t-86 31.5q-75 0 -151 -56t-125 -167h-11l92 236h8q-2 -41 24 -41q10 0 72 20.5t112 20.5q71 0 116.5 -31t45.5 -92q0 -78 -78 -136t-188 -83v-2h2z" />
    <glyph glyph-name="uni0418" unicode="&#x418;" horiz-adv-x="702" 
d="M580 720h188l-2 -11q-31 -1 -49 -16.5t-29 -57.5l-131 -548q-17 -72 41 -76l-2 -11h-188l2 11q61 4 78 77l127 530l-482 -540q-5 -32 7.5 -48.5t36.5 -18.5l-3 -11h-188l3 11q60 4 77 77l132 547q9 37 -1 54.5t-41 19.5l3 11h188l-3 -11q-31 -1 -49 -16.5t-28 -57.5
l-128 -530l482 540q11 61 -43 64z" />
    <glyph glyph-name="uni0419" unicode="&#x419;" horiz-adv-x="702" 
d="M500 805q-68 0 -106 27.5t-38 62.5q0 24 14 35t31 11q11 0 20 -8t9 -25q0 -9 -8 -22.5t-8 -20.5q0 -17 19 -32.5t67 -15.5q86 0 143 70l7 -6q-25 -34 -67.5 -55t-82.5 -21zM580 720h188l-2 -11q-31 -1 -49 -16.5t-29 -57.5l-131 -548q-17 -72 41 -76l-2 -11h-188l2 11
q61 4 78 77l127 530l-482 -540q-5 -32 7.5 -48.5t36.5 -18.5l-3 -11h-188l3 11q60 4 77 77l132 547q9 37 -1 54.5t-41 19.5l3 11h188l-3 -11q-31 -1 -49 -16.5t-28 -57.5l-128 -530l482 540q11 61 -43 64z" />
    <glyph glyph-name="uni041A" unicode="&#x41a;" horiz-adv-x="628" 
d="M654 733q53 0 53 -50q0 -21 -18 -38.5t-43 -17.5q-23 0 -40 7t-25 7q-21 0 -46 -24t-75 -84q-2 -3 -27.5 -34t-34.5 -41t-30.5 -33t-39.5 -37.5t-38 -26.5l48 8l128 -251q33 -63 53 -84.5t50 -22.5l-3 -11h-70q-29 0 -48.5 21.5t-47.5 74.5l-127 256q-40 -19 -79 -22
l-59 -243q-9 -36 3.5 -55t38.5 -21l-3 -11h-188l3 11q60 4 77 77l132 547q9 37 -1 54.5t-41 19.5l3 11h188l-3 -11q-31 -1 -49 -16.5t-28 -57.5l-70 -293q32 3 65 19t53.5 31t52 51t41 48.5t39.5 52.5q80 105 111 136q54 53 95 53z" />
    <glyph glyph-name="uni041B" unicode="&#x41b;" horiz-adv-x="634" 
d="M-57 39q0 23 15.5 38.5t39.5 15.5q17 0 37 -18t33 -18q44 0 104 137t97 328q23 112 12.5 149t-74.5 38l2 11h491l-2 -11q-32 -1 -50 -17t-29 -62l-130 -544q-9 -38 3.5 -56t37.5 -19l-2 -11h-187l2 11q59 2 78 76l130 543q11 46 1 62t-36 16h-112q-61 0 -79 -29.5
t-42 -156.5q-18 -97 -42.5 -183t-59 -170.5t-81 -134t-98.5 -49.5q-28 0 -43.5 14.5t-15.5 39.5z" />
    <glyph glyph-name="uni041C" unicode="&#x41c;" horiz-adv-x="826" 
d="M713 720h141l-3 -11q-33 -1 -53.5 -20t-26.5 -64l-80 -534q-11 -77 43 -80l-3 -11h-187l3 11q28 1 48 20.5t25 55.5l90 570l-156 -283q-23 -43 -49 -90t-40.5 -73.5t-30.5 -56t-24 -45t-16 -32t-11 -27t-5.5 -20t-2.5 -19.5q-38 -12 -66 -28l-40 681l-181 -561
q-15 -45 2 -67.5t60 -24.5l-3 -11h-190l3 11q79 2 109 91l171 521q29 84 -53 86l2 11h145l40 -645q32 57 90 162.5t79 143.5q136 249 156 296q11 27 14 43z" />
    <glyph glyph-name="uni041D" unicode="&#x41d;" horiz-adv-x="694" 
d="M573 720h187l-2 -11q-34 -1 -51 -16t-27 -58l-132 -548q-18 -72 42 -76l-2 -11h-187l2 11q59 2 78 77l68 283h-346l-68 -284q-17 -73 41 -76l-2 -11h-188l3 11q61 2 78 77l132 547q9 37 -1 54.5t-42 19.5l3 11h187l-2 -11q-33 -1 -50 -16t-28 -58l-60 -252h346l60 252
q9 38 -0.5 55.5t-40.5 18.5z" />
    <glyph glyph-name="uni041E" unicode="&#x41e;" horiz-adv-x="688" 
d="M296 -13q-118 0 -183 72t-65 191q0 115 53.5 226t149 184t203.5 73q114 0 177.5 -70.5t63.5 -186.5q0 -84 -32.5 -171.5t-85.5 -157.5t-128 -115t-153 -45zM323 7q87 0 156 67t103.5 166t34.5 207q0 116 -48 191t-143 75q-89 0 -159.5 -65t-106 -162.5t-35.5 -204.5
q0 -116 50 -195t148 -79z" />
    <glyph glyph-name="uni041F" unicode="&#x41f;" horiz-adv-x="677" 
d="M743 720l-2 -11q-33 -2 -50.5 -17t-27.5 -57l-131 -548q-10 -40 3.5 -57.5t37.5 -18.5l-2 -11h-186l2 11q59 2 78 77l132 552q9 38 -2.5 52.5t-40.5 14.5h-212q-32 0 -49.5 -14t-26.5 -53l-132 -553q-10 -40 3.5 -57.5t37.5 -18.5l-2 -11h-187l3 11q60 2 77 77l131 547
q11 41 -0.5 57t-40.5 17l3 11h584z" />
    <glyph glyph-name="uni0420" unicode="&#x420;" horiz-adv-x="569" 
d="M612 560q1 -108 -96.5 -178.5t-225.5 -70.5h-102l-53 -221q-20 -76 39 -79l-2 -11h-186l3 11q60 3 78 79l130 543q18 73 -41 76l3 11h249q95 0 149 -42.5t55 -117.5zM285 323q102 0 178 72.5t76 164.5q0 66 -40.5 107t-115.5 41h-100l-90 -378q35 -7 92 -7z" />
    <glyph glyph-name="uni0421" unicode="&#x421;" horiz-adv-x="617" 
d="M282 -13q-106 0 -167.5 81.5t-62.5 202.5q0 114 54.5 221t146.5 174t194 67q42 0 85 -20t57 -20q23 0 48 20l-15 -262h-11q-2 124 -42 197t-121 73q-87 0 -162 -61.5t-117 -154.5t-42 -189q1 -114 49.5 -192t154.5 -78q63 0 126 42t107 123l8 -2q-44 -96 -123.5 -159
t-166.5 -63z" />
    <glyph glyph-name="uni0422" unicode="&#x422;" horiz-adv-x="607" 
d="M555 720q71 0 119 21l-9 -217h-11q0 52 -4.5 82t-20 55.5t-46 36t-80.5 10.5h-57l-148 -621q-9 -36 2.5 -55t37.5 -21l-3 -11h-186l3 11q60 2 78 77l149 620h-54q-50 0 -86 -10.5t-63.5 -36t-46.5 -56t-43 -81.5h-13l96 217q51 -21 109 -21h277z" />
    <glyph glyph-name="uni0423" unicode="&#x423;" horiz-adv-x="598" 
d="M529 720h190l-3 -11q-47 -2 -78.5 -33.5t-99.5 -144.5l-232 -389q-49 -82 -107.5 -126t-114.5 -44q-38 0 -57.5 17t-19.5 41q0 23 17.5 38.5t49.5 15.5q23 0 53.5 -21t46.5 -21q23 0 61.5 36.5t73.5 95.5l17 29l-114 364q-28 87 -47.5 113.5t-57.5 28.5l3 11h201l-3 -11
q-36 -3 -46 -25.5t8 -85.5l104 -315l148 250q27 45 40.5 77t16.5 50.5t-4 29.5t-18.5 14.5t-30.5 4.5z" />
    <glyph glyph-name="uni0424" unicode="&#x424;" horiz-adv-x="797" 
d="M397 96l-2 -9q-17 -72 41 -76l-2 -11h-188l2 11q61 4 78 77l2 8q-128 3 -198.5 65.5t-70.5 159.5q0 142 122 243t284 105l2 8q9 37 -1 54.5t-40 19.5l3 11h187l-2 -11q-31 -1 -49 -16.5t-28 -57.5l-2 -8q127 -4 196.5 -66.5t69.5 -158.5q0 -94 -57 -173.5t-149.5 -125.5
t-197.5 -49zM136 317q0 -80 49 -140t146 -66l130 543h-2q-146 0 -234.5 -93.5t-88.5 -243.5zM724 439q0 85 -48 145.5t-145 68.5l-130 -543q140 0 231.5 92t91.5 237z" />
    <glyph glyph-name="uni0425" unicode="&#x425;" horiz-adv-x="642" 
d="M542 720h181l-3 -11q-71 -5 -159 -108l-183 -214l105 -287q17 -45 38.5 -66.5t52.5 -22.5l-3 -11h-199l2 11q63 7 27 107l-78 216l-177 -206q-92 -108 26 -117l-2 -11h-221l3 11q45 3 91 35.5t121 120.5l154 181l-98 271q-18 52 -33 70t-47 20l2 11h192l-3 -11
q-67 -10 -38 -90l80 -219l173 202q84 98 -6 107z" />
    <glyph glyph-name="uni0426" unicode="&#x426;" horiz-adv-x="689" 
d="M567 720h196l-2 -11q-32 -1 -52.5 -19.5t-33.5 -69.5l-126 -526q-12 -50 3.5 -66t52.5 -17l-3 -11l-53 -220h-11q8 32 12 66t3.5 70.5t-15.5 60t-44 23.5h-509l4 11q29 1 48.5 18.5t31.5 65.5l127 525q11 56 2 72t-42 17l3 11h189l-2 -11q-34 -1 -52 -18.5t-31 -70.5
l-127 -528q-11 -44 2 -61.5t33 -17.5h236q30 0 45.5 14.5t27.5 63.5l128 529q12 51 0.5 69.5t-43.5 19.5z" />
    <glyph glyph-name="uni0427" unicode="&#x427;" horiz-adv-x="628" 
d="M507 720h187l-2 -11q-31 -1 -49 -16.5t-28 -57.5l-132 -548q-9 -36 3 -55t38 -21l-2 -11h-188l3 11q60 4 77 77l67 278q-112 -70 -219 -70q-24 0 -46 5.5t-44.5 19t-34.5 37t-17 59t9 85.5l27 114q11 56 3.5 74t-35.5 19l3 11h185l-3 -11q-29 -1 -49.5 -21t-33.5 -72
l-30 -123q-10 -54 -6 -87.5t25.5 -52t44.5 -25.5t52 -7q88 0 173 63l60 251q18 71 -41 74z" />
    <glyph glyph-name="uni0428" unicode="&#x428;" horiz-adv-x="957" 
d="M837 720h186l-2 -11q-31 -1 -49 -16.5t-29 -57.5l-131 -548q-10 -40 3.5 -57.5t37.5 -18.5l-2 -11h-865l3 11q61 4 77 77l131 547q11 41 -0.5 57t-40.5 17l3 11h186l-3 -11q-33 -2 -50 -17t-27 -57l-131 -548q-18 -74 41 -74h154q58 0 77 75l131 547q10 41 -1.5 57
t-39.5 17l2 11h186l-2 -11q-34 -2 -51 -16.5t-27 -57.5l-131 -548q-18 -74 42 -74h153q60 0 77 75l131 547q10 41 -1 57t-40 17z" />
    <glyph glyph-name="uni0429" unicode="&#x429;" horiz-adv-x="957" 
d="M837 720h186l-2 -11q-31 -1 -49 -16.5t-29 -57.5l-131 -548q-10 -40 3.5 -57.5t37.5 -18.5h16l-55 -231h-10q10 43 14 80.5t1.5 70t-16 51t-38.5 18.5h-779l3 11q61 4 77 77l131 547q11 41 -0.5 57t-40.5 17l3 11h186l-3 -11q-33 -2 -50 -17t-27 -57l-131 -548
q-18 -74 41 -74h154q58 0 77 75l131 547q10 41 -1.5 57t-39.5 17l2 11h186l-2 -11q-34 -2 -51 -16.5t-27 -57.5l-131 -548q-18 -74 42 -74h153q60 0 77 75l131 547q10 41 -1 57t-40 17z" />
    <glyph glyph-name="uni042A" unicode="&#x42a;" horiz-adv-x="774" 
d="M537 383q82 0 133 -41.5t51 -110.5q0 -105 -83.5 -168t-207.5 -63h-263l3 11q60 4 77 77l131 545q18 73 -41 76h-12q-50 0 -86 -10.5t-63.5 -36.5t-46.5 -56.5t-44 -81.5h-12l97 218q44 -22 108 -22h247l-2 -11q-33 -2 -50 -17.5t-28 -58.5l-59 -249zM423 12
q89 0 158 68.5t69 154.5q0 62 -43.5 98.5t-103.5 36.5l-121 1l-83 -350q61 -9 124 -9z" />
    <glyph glyph-name="uni042B" unicode="&#x42b;" horiz-adv-x="874" 
d="M356 383q82 0 133.5 -41.5t51.5 -110.5q0 -105 -84 -168t-207 -63h-264l3 11q60 4 77 77l131 545q19 73 -41 76l3 11h186l-3 -11q-32 -2 -49.5 -17.5t-27.5 -58.5l-60 -249zM741 720h188l-2 -11q-31 -1 -49 -16.5t-29 -57.5l-131 -548q-17 -72 41 -76l-2 -11h-188l2 11
q61 4 78 77l131 547q9 37 -1 54.5t-40 19.5zM242 12q89 0 158 68.5t69 154.5q0 62 -43.5 98.5t-103.5 36.5l-120 1l-84 -350q58 -9 124 -9z" />
    <glyph glyph-name="uni042C" unicode="&#x42c;" horiz-adv-x="594" 
d="M356 383q82 0 133.5 -41.5t51.5 -110.5q0 -105 -84 -168t-207 -63h-264l3 11q60 4 77 77l131 545q19 73 -41 76l3 11h186l-3 -11q-32 -2 -49.5 -17.5t-27.5 -58.5l-60 -249zM242 12q89 0 158 68.5t69 154.5q0 62 -43.5 98.5t-103.5 36.5l-120 1l-84 -350q58 -9 124 -9z
" />
    <glyph glyph-name="uni042D" unicode="&#x42d;" horiz-adv-x="621" 
d="M404 733q104 0 162.5 -75t58.5 -193q0 -116 -50.5 -225t-144.5 -181t-206 -72q-87 0 -146 50t-59 122q0 42 23 71t54 29q20 0 33.5 -11.5t13.5 -31.5q0 -27 -29 -56.5t-29 -58.5q0 -41 38 -70.5t93 -29.5q113 0 205.5 110t122.5 275h-135q-86 0 -116.5 -18t-45.5 -73h-11
l47 195h10q-13 -59 12 -75t106 -16h135q10 54 10 119q0 91 -39 147t-115 56q-92 0 -172 -79.5t-129 -195.5h-14l108 274q26 -23 52 -23q16 0 67 18t90 18z" />
    <glyph glyph-name="uni042E" unicode="&#x42e;" horiz-adv-x="971" 
d="M737 733q114 0 177.5 -70.5t63.5 -186.5q0 -84 -32.5 -171.5t-85.5 -157.5t-128 -115t-153 -45q-118 0 -183 72t-65 191q0 53 12 107h-143l-65 -270q-9 -36 3.5 -55t38.5 -21l-3 -11h-188l3 11q60 4 77 77l132 547q9 37 -1 54.5t-41 19.5l3 11h188l-3 -11
q-31 -1 -49 -16.5t-28 -57.5l-63 -262q50 -4 142 -4q38 149 147.5 256.5t243.5 107.5zM606 7q87 0 156 67t103.5 166t34.5 207q0 116 -48 191t-143 75q-89 0 -159.5 -65t-106 -162.5t-35.5 -204.5q0 -116 50 -195t148 -79z" />
    <glyph glyph-name="uni042F" unicode="&#x42f;" horiz-adv-x="593" 
d="M660 720l-4 -12q-30 -1 -48.5 -18t-28.5 -58l-129 -542q-20 -76 40 -79l-3 -11h-185l3 11q59 3 77 79l59 245h-87l-224 -259q-68 -76 -129 -76h-74l3 11q31 0 61 17.5t74 68.5l193 221l58 10l2 8q-83 7 -135.5 53t-52.5 118q0 90 80 151.5t180 61.5h270zM369 347h75
l85 353q-59 9 -112 9q-93 0 -155 -60.5t-62 -145.5q1 -68 45 -112t124 -44z" />
    <glyph glyph-name="uni0430" unicode="&#x430;" horiz-adv-x="508" 
d="M373 32q15 0 44.5 33t59.5 83l6 -3q-41 -72 -85 -115t-71 -43q-64 0 -23 110l29 82l-3 1q-45 -86 -99.5 -139.5t-108.5 -53.5q-47 0 -73.5 37t-26.5 98q0 88 46.5 179.5t120 151.5t145.5 60q63 0 88 -73l71 64h8q-23 -55 -47 -127.5t-52 -163t-40 -125.5q-18 -56 11 -56z
M154 36q50 0 116 77.5t105 194.5q18 54 22 96.5t-10.5 69.5t-49.5 27q-49 0 -108.5 -55.5t-102.5 -144t-43 -170.5q0 -39 17.5 -67t53.5 -28z" />
    <glyph glyph-name="uni0431" unicode="&#x431;" horiz-adv-x="471" 
d="M378 625q-107 -1 -177 -67.5t-120 -205.5q38 72 95 116.5t120 44.5q67 0 105 -51t38 -131q0 -79 -35 -158.5t-97 -132.5t-130 -53t-106 51t-38 131q0 56 18 111q50 193 133 296t211 103q105 0 151.5 11t80.5 57l8 -4q-54 -70 -107.5 -93.5t-149.5 -24.5zM316 495
q-55 0 -111 -65.5t-89.5 -153.5t-33.5 -157q0 -52 18 -83t52 -31q56 0 113 64.5t91 152t34 157.5q0 53 -19 84.5t-55 31.5z" />
    <glyph glyph-name="uni0432" unicode="&#x432;" horiz-adv-x="463" 
d="M436 407q0 -56 -61.5 -89.5t-161.5 -47.5l-46 -6q118 7 174 -30t56 -89q0 -71 -70.5 -116t-149.5 -45q-69 0 -108 50t-39 123q0 83 38 165t103 136t136 54q53 0 91 -26.5t38 -78.5zM309 499q-55 0 -112.5 -72t-87.5 -167q134 26 201 64t67 104q0 71 -68 71zM337 162
q0 46 -53.5 74t-176.5 16q-17 -57 -17 -107q0 -62 23.5 -104.5t72.5 -42.5q58 0 104.5 51t46.5 113z" />
    <glyph glyph-name="uni0433" unicode="&#x433;" horiz-adv-x="397" 
d="M328 88q-45 -39 -103 -70t-109 -31q-49 0 -73 26t-24 65q0 31 28.5 66.5t69 68t81 64.5t69 67t28.5 66q0 59 -66 59q-65 0 -158 -77l-5 6q50 48 109 81.5t110 33.5q43 0 63.5 -22t20.5 -56q0 -27 -29 -61t-70.5 -67t-82.5 -67.5t-70 -73t-29 -72.5q0 -62 76 -62
q80 0 159 62z" />
    <glyph glyph-name="uni0434" unicode="&#x434;" horiz-adv-x="476" 
d="M339 755q57 -41 88 -109.5t34.5 -145t-7.5 -149.5t-35 -137q-31 -95 -98 -161t-145 -66q-67 0 -105 51t-38 131q0 79 35 158.5t97 132.5t130 53q91 0 127 -89q14 108 -11.5 196.5t-76.5 129.5zM152 5q56 0 113 64.5t91 152t34 157.5q0 53 -19 84.5t-55 31.5
q-55 0 -111 -65.5t-89.5 -153.5t-33.5 -157q0 -52 18 -83t52 -31z" />
    <glyph glyph-name="uni0435" unicode="&#x435;" horiz-adv-x="423" 
d="M229 262l-128 -36q-10 -43 -10 -76q0 -57 22.5 -91.5t67.5 -34.5q46 0 91 33.5t81 89.5l7 -4q-36 -64 -91.5 -112t-116.5 -48q-57 0 -91 46.5t-34 113.5q0 85 38 170.5t102.5 142t133.5 56.5q48 0 83 -28t35 -74q0 -51 -49.5 -86.5t-140.5 -61.5zM302 501
q-51 0 -112.5 -84t-86.5 -183q49 16 81.5 28t70.5 30.5t60 37t37 44.5t15 56q0 34 -18.5 52.5t-46.5 18.5z" />
    <glyph glyph-name="uni0436" unicode="&#x436;" horiz-adv-x="868" 
d="M867 409q1 -37 -17 -67t-42 -30q-14 0 -24 9.5t-10 26.5q0 21 29 43.5t32 44.5q5 31 -8.5 48t-42.5 17q-35 -1 -82.5 -50t-83.5 -129t-36 -154q0 -62 25.5 -97.5t63.5 -35.5q27 0 59 25.5t60 79.5l6 -2q-27 -63 -70 -107t-91 -44q-45 0 -77 41.5t-32 116.5q0 95 55 196
q-158 -205 -205 -341h-54l127 380q-30 -58 -73 -123t-92.5 -127t-100.5 -102.5t-88 -40.5q-43 0 -67.5 30t-25.5 82q-1 34 15.5 61.5t39.5 27.5q14 0 24 -9.5t10 -26.5q0 -21 -26 -42.5t-29 -42.5q-5 -27 10.5 -47.5t43.5 -20.5q36 1 81 50t78.5 128.5t33.5 154.5
q0 63 -22.5 98t-58.5 35q-28 0 -63.5 -26t-63.5 -79l-6 3q24 60 71.5 105t97.5 45q45 0 74 -42t29 -119q0 -98 -53 -197q152 198 201 345h54l-130 -390q42 79 104 167.5t137.5 162t124.5 73.5q86 0 88 -104z" />
    <glyph glyph-name="uni0437" unicode="&#x437;" horiz-adv-x="437" 
d="M412 422q0 -53 -69 -94t-174 -66v-2q34 2 47 2q82 0 123 -28.5t41 -70.5q0 -74 -66.5 -125t-157.5 -51q-84 0 -118 31.5t-34 71.5q0 22 16 40t36 18q44 0 44 -38q0 -14 -15 -31t-15 -30q0 -24 23.5 -38t64.5 -14q68 0 107.5 47.5t39.5 114.5q0 41 -33 66.5t-94 25.5
q-41 0 -78 -9l-2 8q250 64 250 182q0 33 -20 52t-59 19q-47 0 -77.5 -19t-33.5 -43q-2 -12 1 -27t1 -23q-7 -29 -35 -29q-18 0 -27 11t-7 30q5 46 57.5 78t131.5 32q57 0 94.5 -24t37.5 -67z" />
    <glyph glyph-name="uni0438" unicode="&#x438;" horiz-adv-x="571" 
d="M211 514q28 0 34 -26.5t-11 -71.5l-78 -223q-21 -59 -27 -96t4 -56.5t39 -19.5q98 0 302 479h54q-123 -380 -129 -402q-6 -19 -8.5 -30t-4 -22.5t1.5 -16.5t10 -5q17 0 55 37.5t72 91.5l6 -4q-55 -89 -101 -125.5t-78 -36.5q-51 0 -24 89q1 5 99 283l-3 1
q-55 -121 -98.5 -198.5t-78.5 -114t-60 -48.5t-55 -12q-26 0 -43.5 16.5t-23.5 52.5t15 95l80 236q21 61 20 73q-1 14 -14 14q-16 0 -51.5 -37t-67.5 -87l-7 4q38 62 87 111t84 49z" />
    <glyph glyph-name="uni0439" unicode="&#x439;" horiz-adv-x="571" 
d="M544 661q-25 -34 -67.5 -55t-82.5 -21q-68 0 -106 27.5t-38 62.5q0 24 14 35t31 11q11 0 20 -8t9 -25q0 -9 -8 -22.5t-8 -20.5q0 -17 19 -32.5t67 -15.5q86 0 143 70zM211 514q28 0 34 -26.5t-11 -71.5l-78 -223q-21 -59 -27 -96t4 -56.5t39 -19.5q98 0 302 479h54
q-123 -380 -129 -402q-6 -19 -8.5 -30t-4 -22.5t1.5 -16.5t10 -5q17 0 55 37.5t72 91.5l6 -4q-55 -89 -101 -125.5t-78 -36.5q-51 0 -24 89q1 5 99 283l-3 1q-55 -121 -98.5 -198.5t-78.5 -114t-60 -48.5t-55 -12q-26 0 -43.5 16.5t-23.5 52.5t15 95l80 236q21 61 20 73
q-1 14 -14 14q-16 0 -51.5 -37t-67.5 -87l-7 4q38 62 87 111t84 49z" />
    <glyph glyph-name="uni043A" unicode="&#x43a;" horiz-adv-x="525" 
d="M501 513q25 0 37 -12.5t11 -32.5q-2 -16 -16 -28.5t-35 -12.5q-17 0 -33.5 10t-25.5 10q-5 0 -11.5 -3.5t-16.5 -14.5t-16 -18.5t-22 -26.5q-28 -35 -42.5 -52.5t-45.5 -44t-61 -38.5q72 9 106.5 -6.5t32.5 -69.5l-4 -79q-2 -55 9 -64q4 -4 11 -4q36 0 92 99l8 -4
q-78 -135 -137 -135q-51 0 -46 75l6 88q5 61 -20.5 80t-104.5 6l-75 -235h-63q12 37 60 185.5t69 216.5q6 19 8.5 30t4 22.5t-1.5 16.5t-10 5q-18 0 -55 -37.5t-68 -90.5l-6 3q52 89 96.5 125.5t73.5 36.5q57 0 28 -88l-57 -179q41 7 77.5 33.5t54.5 49.5t48 66
q20 30 31.5 46t30 35.5t37.5 28t41 8.5z" />
    <glyph glyph-name="uni043B" unicode="&#x43b;" horiz-adv-x="552" 
d="M-60 34q0 20 13 33t35 13q14 0 34.5 -16.5t32.5 -16.5q46 0 94 79.5t88 206.5q30 98 24.5 126.5t-49.5 30.5l3 10h289q-9 -26 -115 -386q-5 -18 -8.5 -31.5t-6 -28t0 -22.5t9.5 -8q17 0 50.5 35t70.5 91l7 -4q-45 -73 -93.5 -116t-74.5 -43q-31 0 -34 34t16 95l95 328
q8 28 3.5 36.5t-25.5 8.5h-59q-12 0 -20.5 -2t-15.5 -8.5t-11.5 -13t-9.5 -22t-8.5 -28t-11 -38.5t-13.5 -47q-104 -343 -247 -343q-63 0 -63 47z" />
    <glyph glyph-name="uni043C" unicode="&#x43c;" horiz-adv-x="717" 
d="M678 147l7 -4q-88 -156 -152 -156q-25 0 -31.5 25.5t2.5 87.5l49 357l-16 -33q-68 -127 -171 -343q-25 -52 -25 -75q-36 -14 -67 -33l8 484q-8 -28 -40 -127q-114 -343 -234 -343q-64 0 -64 48q0 19 14 32.5t34 13.5q13 0 32 -15t30 -15q30 0 65.5 47.5t61 106
t49.5 128.5q35 106 32.5 131t-46.5 26l3 10h124l-5 -442l158 314q39 78 58 128h63l-51 -401q-10 -69 14 -69q29 0 98 117z" />
    <glyph glyph-name="uni043D" unicode="&#x43d;" horiz-adv-x="570" 
d="M400 24q19 0 56.5 37.5t67.5 91.5l6 -4q-51 -89 -97.5 -125.5t-76.5 -36.5q-26 0 -31.5 26t7.5 63l56 174h-206l-80 -250h-63l129 402q6 19 9 30t5 22.5t-1 16.5t-10 5q-19 0 -56.5 -37t-68.5 -91l-6 3q51 88 97.5 125t77.5 37q25 0 30.5 -26t-7.5 -62l-52 -162h206
l77 237l62 -1l-129 -401q-6 -19 -9 -30t-5 -22.5t1 -16.5t11 -5z" />
    <glyph glyph-name="uni043E" unicode="&#x43e;" horiz-adv-x="472" 
d="M176 -13q-67 0 -105 51t-38 131q0 79 35 158.5t97 132.5t130 53q67 0 105.5 -51t38.5 -131q0 -79 -35.5 -158.5t-97 -132.5t-130.5 -53zM152 5q56 0 113 64.5t91 152t34 157.5q0 53 -19 84.5t-55 31.5q-55 0 -111 -65.5t-89.5 -153.5t-33.5 -157q0 -52 18 -83t52 -31z
" />
    <glyph glyph-name="uni043F" unicode="&#x43f;" horiz-adv-x="571" 
d="M360 -14q-27 0 -33 27t10 72l78 222q32 87 29.5 130t-45.5 43q-98 0 -302 -480h-54q123 380 129 402q6 19 8.5 30t4 22.5t-1.5 16.5t-10 5q-17 0 -55 -37.5t-71 -91.5l-7 4q54 89 100.5 125.5t78.5 36.5q51 0 24 -88q-13 -42 -50.5 -149t-47.5 -135l3 -1q54 121 98 198.5
t78.5 114t59.5 48.5t55 12q26 0 44 -16.5t24 -52.5t-15 -95l-81 -236q-21 -61 -20 -73q1 -14 15 -14q16 0 51 36.5t68 87.5l6 -4q-38 -62 -87 -111t-84 -49z" />
    <glyph glyph-name="uni0440" unicode="&#x440;" horiz-adv-x="491" 
d="M289 513q73 0 121 -47t48 -136q0 -87 -42 -167t-111.5 -128t-146.5 -48q-46 0 -82 14l-43 -134q-13 -44 -1 -59t61 -17l-3 -11h-203l3 10q31 3 47.5 16.5t27.5 46.5l201 626q-27 -9 -101 -45l4 16q110 39 176 90h5l-11 -33q29 6 50 6zM142 1q66 0 124.5 47.5t92 122.5
t33.5 153q0 83 -37.5 131t-118.5 42l-156 -484q33 -12 62 -12z" />
    <glyph glyph-name="uni0441" unicode="&#x441;" horiz-adv-x="431" 
d="M161 -13q-59 0 -95.5 45t-36.5 116q0 89 38.5 173t106.5 138t145 54q51 0 80 -31.5t30 -79.5q1 -35 -15 -62.5t-39 -27.5q-15 0 -25 9.5t-10 26.5q0 22 28.5 46t28.5 48q-1 25 -18.5 42t-51.5 17q-54 -1 -108 -51t-88.5 -127.5t-34.5 -154.5q0 -63 29.5 -98t79.5 -35
q32 0 71 25.5t73 79.5l6 -3q-27 -60 -80.5 -105t-113.5 -45z" />
    <glyph glyph-name="uni0442" unicode="&#x442;" horiz-adv-x="852" 
d="M44 0q130 404 133 413q19 60 -6 60q-40 0 -124 -128l-7 4q62 94 104.5 129t76.5 35q53 0 28 -85q-4 -13 -98 -287l3 -1q55 121 98.5 198.5t78.5 114t60 48.5t54 12q25 0 43 -16t23.5 -50.5t-13.5 -90.5l-74 -215l3 -1q55 121 98.5 198.5t78.5 114t60 48.5t55 12
q25 0 42 -16t21.5 -50.5t-13.5 -90.5l-80 -243q-22 -65 -14 -78q4 -5 13 -5q17 0 51.5 38t67.5 91l7 -4q-39 -66 -87.5 -117t-85.5 -51q-59 0 -26 98l78 229q56 166 -15 166q-93 0 -299 -480h-69l109 314q59 166 -15 166q-20 0 -45 -22t-60.5 -73.5t-84.5 -148.5t-109 -236
h-61z" />
    <glyph glyph-name="uni0443" unicode="&#x443;" horiz-adv-x="464" 
d="M459 448q0 -101 -83.5 -222t-206.5 -227q-21 -42 -40 -73.5t-51.5 -73.5t-72.5 -65.5t-83 -23.5q-36 0 -58 14.5t-22 34.5q0 16 11.5 29t29.5 13q12 0 20 -10t12.5 -22t17 -22t33.5 -10q59 2 107 96t71.5 219t23.5 241q0 117 -28 117q-37 0 -106 -123l-8 4q53 99 89 134
t65 35q55 0 55 -138q0 -161 -58 -355q106 95 170 190t64 154q0 25 -15 54t-15 47q0 22 12.5 35t28.5 13t26.5 -17.5t10.5 -47.5z" />
    <glyph glyph-name="uni0444" unicode="&#x444;" horiz-adv-x="740" 
d="M537 513q73 0 121.5 -47t48.5 -136q0 -87 -42 -167t-112 -128t-147 -48q-40 0 -68 9q-25 -95 -77 -162t-123 -67q-38 0 -65 27t-27 60q0 27 13 46t33 19q35 0 35 -33q0 -13 -14.5 -30t-14.5 -32q0 -18 14.5 -30t36.5 -12q18 0 33 7.5t27 25.5t20.5 33.5t17.5 46t13 48.5
t13 55q-32 -11 -70 -11q-73 0 -121.5 47.5t-48.5 136.5q0 133 91.5 237.5t208.5 104.5q39 0 67 -9q2 5 3.5 13t2.5 10q14 54 28 92.5t36 74.5t54 54.5t73 18.5q40 0 67.5 -33t28.5 -74q0 -26 -12 -42t-30 -16q-37 0 -37 35q0 11 16.5 30t16.5 35q0 21 -15.5 37t-41.5 16
q-18 0 -32 -4.5t-24 -16.5t-16.5 -24.5t-13.5 -37.5t-11.5 -45.5t-12.5 -58t-15 -66.5q48 11 72 11zM390 1q100 0 175.5 101t75.5 222q0 88 -42.5 135t-135.5 31l-3 -11q-49 -185 -119 -470q26 -8 49 -8zM276 10q6 30 10 44q76 292 111 438q-26 7 -48 7q-66 0 -124.5 -47.5
t-92 -122.5t-33.5 -153q0 -88 42.5 -135t134.5 -31z" />
    <glyph glyph-name="uni0445" unicode="&#x445;" horiz-adv-x="477" 
d="M505 462q1 -26 -12.5 -43t-35.5 -17q-14 0 -21.5 9t-8.5 19t-5.5 19t-14.5 9q-42 0 -140 -187l19 -130q6 -40 10 -58t13.5 -30.5t24.5 -12.5q21 0 43.5 33t36.5 98l6 -2q-13 -74 -47.5 -128.5t-73.5 -54.5q-28 0 -43 22t-22 69l-22 146q-62 -124 -102.5 -180t-81.5 -56
q-25 0 -40 16.5t-15 41.5q0 23 13 38t31 15q16 0 25.5 -8t11.5 -17.5t7.5 -17.5t15.5 -8q32 0 133 193l-22 145q-7 45 -14 63.5t-23 18.5q-26 0 -49 -33t-38 -86l-7 1q14 50 33.5 85.5t38.5 51t33.5 21.5t26.5 6q23 0 35.5 -17.5t18.5 -62.5l22 -148q61 123 102.5 175.5
t79.5 52.5q25 0 41 -14t17 -37z" />
    <glyph glyph-name="uni0446" unicode="&#x446;" horiz-adv-x="571" 
d="M531 149q-25 -43 -57.5 -88.5t-46.5 -69t-14 -44.5q0 -14 6 -33.5t6 -37.5q0 -45 -51 -75.5t-143 -32.5v7q80 4 108.5 30t35.5 79q3 21 6 36t5.5 25t10.5 22.5t12 18t19 24.5t24 30l-2 2q-55 -55 -98 -55q-51 0 -24 89q1 5 99 283l-3 1q-55 -121 -98.5 -198.5t-78.5 -114
t-60 -48.5t-55 -12q-26 0 -43.5 16.5t-23.5 52.5t15 95l80 236q21 61 20 73q-1 14 -14 14q-16 0 -51.5 -37t-67.5 -87l-7 4q38 62 87 111t84 49q28 0 34 -26.5t-11 -71.5l-78 -223q-21 -59 -27 -96t4 -56.5t39 -19.5q98 0 302 479h54q-123 -380 -129 -402q-6 -19 -8.5 -30
t-4 -22.5t1.5 -16.5t10 -5q16 0 50.5 33t68.5 83l7 12l1 1z" />
    <glyph glyph-name="uni0447" unicode="&#x447;" horiz-adv-x="524" 
d="M170 514q16 0 24 -8.5t7.5 -27t-7 -43.5t-19.5 -63q-17 -50 -22 -82t5 -51.5t39 -19.5q50 0 111.5 68t121.5 213h54q-123 -380 -129 -402q-6 -19 -8.5 -30t-4 -22.5t1 -16.5t9.5 -5q18 0 55.5 37t69.5 90l6 -4q-54 -88 -100 -124t-78 -36q-49 0 -24 81q11 35 29 88.5
t42.5 122.5t35.5 103l-3 1q-109 -196 -227 -196q-42 0 -59.5 35.5t3.5 115.5l21 68q16 50 13 58q-2 9 -16 9q-26 0 -90 -86l-7 6q85 121 146 121z" />
    <glyph glyph-name="uni0448" unicode="&#x448;" horiz-adv-x="852" 
d="M808 500q-128 -397 -133 -413q-20 -60 7 -60q38 0 124 128l6 -4q-62 -94 -104.5 -129t-76.5 -35q-54 0 -27 85q13 42 50 150t47 137l-3 1q-55 -121 -98.5 -198.5t-78.5 -114t-60 -48.5t-54 -12q-25 0 -43 16t-23.5 51t14.5 90l73 215l-3 1q-55 -121 -98.5 -198.5
t-78.5 -114t-60 -48.5t-55 -12q-40 0 -56 37t7 120l80 243q20 63 14 76q-5 6 -14 7q-17 0 -50.5 -37.5t-67.5 -90.5l-7 3q37 66 86 117t86 51q60 0 26 -97l-77 -230q-57 -165 15 -165q93 0 299 479h68l-109 -314q-58 -165 15 -165q28 0 63.5 38t96 148t139.5 293h61z" />
    <glyph glyph-name="uni0449" unicode="&#x449;" horiz-adv-x="852" 
d="M812 151q-26 -45 -59 -90.5t-47 -69t-14 -44.5q0 -14 6.5 -33.5t6.5 -37.5q0 -45 -51.5 -75.5t-142.5 -32.5v7q80 6 108.5 31t35.5 78q3 22 6 37t5 24t10.5 22t11.5 18t19 25l24 30l-2 3q-53 -56 -98 -56q-54 0 -27 85q13 42 50 150t47 137l-3 1q-55 -121 -98.5 -198.5
t-78.5 -114t-60 -48.5t-54 -12q-25 0 -43 16t-23.5 51t14.5 90l73 215l-3 1q-55 -121 -98.5 -198.5t-78.5 -114t-60 -48.5t-55 -12q-40 0 -56 37t7 120l80 243q20 63 14 76q-5 6 -14 7q-17 0 -50.5 -37.5t-67.5 -90.5l-7 3q37 66 86 117t86 51q60 0 26 -97l-77 -230
q-57 -165 15 -165q93 0 299 479h68l-109 -314q-58 -165 15 -165q28 0 63.5 38t96 148t139.5 293h61q-128 -397 -133 -413q-20 -60 7 -60q38 0 124 128z" />
    <glyph glyph-name="uni044A" unicode="&#x44a;" horiz-adv-x="508" 
d="M371 310q67 0 93 -52.5t5 -121.5q-15 -54 -57 -90t-81.5 -48t-75.5 -12q-47 0 -85 29.5t-55 69.5q98 283 124 374h-94q-51 0 -80.5 -24.5t-29.5 -58.5q0 -30 20 -30q5 0 15 10.5t24 10.5q12 0 19.5 -8.5t7.5 -19.5q0 -15 -11 -26t-30 -11q-23 0 -38 21t-15 53q0 58 40 91
t115 33h92q33 0 40 9l5 -3l-16 -47l-85 -246q65 97 153 97zM408 146q15 59 -2.5 96t-63.5 37q-50 0 -92 -42.5t-58 -95.5q-19 -59 -1 -100.5t67 -41.5q50 0 92 39t58 108z" />
    <glyph glyph-name="uni044B" unicode="&#x44b;" horiz-adv-x="752" 
d="M317 310q52 0 78 -33t26 -84q0 -87 -64.5 -147t-153.5 -60q-47 0 -85.5 29.5t-55.5 69.5q66 187 104 317q6 17 9 28t4.5 22.5t-1.5 17.5t-11 6q-17 0 -55 -37.5t-71 -91.5l-7 4q99 162 182 162q49 0 23 -82q-14 -43 -42 -124t-33 -94q65 97 153 97zM707 158l6 -4
q-48 -87 -94.5 -126.5t-76.5 -39.5q-56 0 -25 95l103 315q18 53 18 60q-1 10 -12 10q-36 0 -129 -126l-7 4q117 167 190 167q14 0 20.5 -7.5t5.5 -23.5t-5.5 -31.5t-12.5 -40.5l-107 -321q-11 -30 -11 -44.5t16 -14.5q21 0 54 35.5t67 92.5zM204 -1q66 0 111 61t45 134
q0 39 -18.5 62t-53.5 23q-62 0 -110.5 -63.5t-48.5 -132.5q0 -38 19.5 -61t55.5 -23z" />
    <glyph glyph-name="uni044C" unicode="&#x44c;" horiz-adv-x="451" 
d="M317 310q52 0 78 -33t26 -84q0 -87 -64.5 -147t-153.5 -60q-47 0 -85.5 29.5t-55.5 69.5q66 187 104 317q6 17 9 28t4.5 22.5t-1.5 17.5t-11 6q-17 0 -55 -37.5t-71 -91.5l-7 4q99 162 182 162q49 0 23 -82q-14 -43 -42 -124t-33 -94q65 97 153 97zM204 -1q66 0 111 61
t45 134q0 39 -18.5 62t-53.5 23q-62 0 -110.5 -63.5t-48.5 -132.5q0 -38 19.5 -61t55.5 -23z" />
    <glyph glyph-name="uni044D" unicode="&#x44d;" horiz-adv-x="435" 
d="M274 513q59 0 95.5 -45t36.5 -117q0 -88 -38.5 -172t-106.5 -138t-145 -54q-54 0 -84 32.5t-30 82.5q0 32 15 57.5t37 25.5q14 0 24 -10t10 -27q0 -19 -23 -41.5t-26 -40.5q-4 -26 14 -46.5t55 -20.5q73 0 138 79t86 184h-211v13h213q5 32 5 57q0 63 -29.5 98t-79.5 35
q-32 0 -71 -25.5t-73 -79.5l-6 3q27 61 80.5 105.5t113.5 44.5z" />
    <glyph glyph-name="uni044E" unicode="&#x44e;" horiz-adv-x="710" 
d="M534 513q67 0 105 -51t38 -131q0 -79 -35 -158.5t-97 -132.5t-130 -53q-67 0 -105.5 51t-38.5 131q0 43 10 82h-98l-80 -250h-63l129 401q6 19 9 30t5 22.5t-1 16.5t-10 5q-19 0 -56.5 -37t-68.5 -91l-8 2q52 89 99 126t78 37q25 0 30.5 -26t-7.5 -62l-52 -163h97
q27 103 96.5 177t153.5 74zM390 5q56 0 113 64.5t91 152t34 157.5q0 53 -19 84.5t-55 31.5q-55 0 -111 -65.5t-89 -153.5t-33 -157q0 -52 17.5 -83t51.5 -31z" />
    <glyph glyph-name="uni044F" unicode="&#x44f;" horiz-adv-x="541" 
d="M371 24q19 0 57 38t67 91l7 -4q-51 -89 -97.5 -125.5t-78.5 -36.5q-25 0 -30.5 24.5t7.5 64.5l49 152h-67q-42 0 -73 -30.5t-59 -93.5q-33 -71 -53 -95.5t-52 -24.5q-34 0 -52 44t-13 108h7q-1 -53 11 -83t28 -30q17 0 31 22t41 81q3 7 5 11q21 46 50 69.5t74 25.5l17 1
q-55 5 -91 38.5t-36 85.5q0 65 62 104t147 39h173l-129 -402q-6 -20 -9 -30.5t-5 -22.5t1 -16.5t11 -4.5zM182 335q0 -41 31.5 -67.5t73.5 -26.5q32 0 70 4l78 244h-83q-87 0 -128.5 -41t-41.5 -113z" />
    <glyph glyph-name="uni0451" unicode="&#x451;" horiz-adv-x="423" 
d="M263 614q-16 0 -27 11.5t-11 27.5t11 27.5t27 11.5q17 0 28.5 -11.5t11.5 -27.5t-11.5 -27.5t-28.5 -11.5zM441 692q16 0 27.5 -11.5t11.5 -27.5t-11.5 -27.5t-27.5 -11.5q-17 0 -28 11t-11 28t11 28t28 11zM301 512q48 0 83 -28t35 -74q0 -51 -49.5 -86.5t-140.5 -61.5
l-128 -36q-10 -43 -10 -76q0 -57 22.5 -91.5t67.5 -34.5q46 0 91 33.5t81 89.5l7 -4q-36 -64 -91.5 -112t-116.5 -48q-57 0 -91 46.5t-34 113.5q0 85 38 170.5t102.5 142t133.5 56.5zM103 234q49 16 81.5 28t70.5 30.5t60 37t37 44.5t15 56q0 34 -18.5 52.5t-46.5 18.5
q-51 0 -112.5 -84t-86.5 -183z" />
    <glyph glyph-name="uni0454" unicode="&#x454;" horiz-adv-x="435" 
d="M319 513q54 0 84 -32.5t30 -82.5q0 -32 -15 -57t-37 -25q-14 0 -24 9.5t-10 26.5q0 20 23 42t26 40q4 26 -14 46.5t-55 20.5q-66 0 -128 -68t-89 -163h204v-13h-207q-11 -46 -11 -88q0 -64 29.5 -99t79.5 -35q32 0 71 25.5t73 79.5l6 -3q-27 -60 -80.5 -105t-113.5 -45
q-59 0 -95.5 45t-36.5 117q0 89 38.5 172.5t106.5 137.5t145 54z" />
    <glyph glyph-name="uni0456" unicode="&#x456;" horiz-adv-x="301" 
d="M272 610q-18 0 -32 13.5t-14 31.5q0 19 14 33t32 14q19 0 32.5 -14t13.5 -33q0 -18 -13.5 -31.5t-32.5 -13.5zM39 346q117 167 190 167q14 0 20.5 -7.5t5.5 -23.5t-5.5 -31.5t-12.5 -40.5l-107 -321q-11 -30 -11 -44.5t16 -14.5q21 0 54 35.5t67 92.5l6 -4
q-48 -87 -94.5 -126.5t-76.5 -39.5q-56 0 -25 95l103 315q18 53 18 60q-1 10 -12 10q-36 0 -129 -126z" />
    <glyph glyph-name="uni0457" unicode="&#x457;" horiz-adv-x="301" 
d="M180 614q-16 0 -27 11.5t-11 27.5t11 27.5t27 11.5q17 0 28.5 -11.5t11.5 -27.5t-11.5 -27.5t-28.5 -11.5zM358 614q-16 0 -27.5 11t-11.5 28t11.5 28t27.5 11t27.5 -11.5t11.5 -27.5t-11.5 -27.5t-27.5 -11.5zM39 346q117 167 190 167q14 0 20.5 -7.5t5.5 -23.5
t-5.5 -31.5t-12.5 -40.5l-107 -321q-11 -30 -11 -44.5t16 -14.5q21 0 54 35.5t67 92.5l6 -4q-48 -87 -94.5 -126.5t-76.5 -39.5q-56 0 -25 95l103 315q18 53 18 60q-1 10 -12 10q-36 0 -129 -126z" />
    <glyph glyph-name="uni0490" unicode="&#x490;" horiz-adv-x="467" 
d="M596 905h12l-43 -218q-46 22 -115 22h-106q-31 -1 -49 -16.5t-28 -57.5l-132 -548q-9 -36 3.5 -55t38.5 -21l-3 -11h-188l3 11q60 4 77 77l132 547q9 37 -1 54.5t-41 19.5l3 11h242q50 0 83 10.5t54.5 36.5t33 56t24.5 82z" />
    <glyph glyph-name="uni0491" unicode="&#x491;" horiz-adv-x="378" 
d="M444 635h11l-34 -166q-42 20 -108 20h-100l-156 -489h-63l159 500h108q50 0 82 7.5t51.5 26t29.5 41t20 60.5z" />
    <glyph glyph-name="Wgrave" unicode="&#x1e80;" horiz-adv-x="960" 
d="M672 787h-13l-184 153h88zM891 720h182l-3 -11q-32 -1 -56.5 -15.5t-49.5 -51.5q-69 -103 -157 -257q-20 -34 -56.5 -96t-53.5 -92t-38 -71t-29.5 -68t-8.5 -47q-33 -10 -62 -26l-40 445q-4 -7 -13 -22.5t-13 -22.5q-16 -28 -55.5 -93t-55 -91.5t-38 -69.5t-30.5 -69.5
t-7 -47.5q-31 -9 -61 -25l-51 563q-9 108 -20 125q-17 27 -58 32l3 11h213l-3 -11q-47 -6 -61 -40q-14 -28 -7 -95l46 -486q23 52 171 299l38 66l-9 99q-1 10 -2.5 28.5t-2 27.5t-2.5 23.5t-4 21.5t-5.5 17.5t-8 16t-11 11t-15.5 8t-20 3.5l3 11h207l-4 -11q-44 -6 -61 -40
q-12 -25 -6 -95l46 -490q22 50 170 303q15 26 44.5 75.5t42.5 72t29.5 54t23.5 49.5t7 30q0 39 -51 41z" />
    <glyph glyph-name="wgrave" unicode="&#x1e81;" horiz-adv-x="748" 
d="M555 567h-13l-184 153h88zM680 513q44 0 44 -108q0 -92 -32.5 -188t-93 -163t-129.5 -67t-97 83q-35 -41 -70.5 -62t-61.5 -21q-56 0 -87 39t-28 103q3 67 51.5 139.5t146.5 179.5h-165q-113 0 -113 -90q0 -15 7.5 -22t14.5 -7q5 0 15 10t24 10q12 0 19.5 -8.5t7.5 -19.5
q0 -14 -11 -25t-29 -11q-24 0 -40.5 20.5t-16.5 56.5q0 63 45 100.5t126 37.5h117q30 0 38 10l5 -4l-33 -60q-154 -179 -154 -293q0 -104 101 -104q41 0 88 33q-12 42 -12 100q0 73 19.5 148.5t55 129t76.5 53.5q31 0 48 -27t17 -74q0 -80 -46.5 -163t-112.5 -143
q36 -57 106 -57q46 0 89.5 47.5t68 111t24.5 116.5q0 39 -15 67t-30 47.5t-15 37.5q0 17 10 27t28 10zM381 269q-2 -98 29 -154q52 49 89.5 115.5t40.5 118.5q3 47 -13.5 78t-42.5 31q-32 0 -67 -62t-36 -127z" />
    <glyph glyph-name="Wacute" unicode="&#x1e82;" horiz-adv-x="960" 
d="M775 940l-185 -153h-12l108 153h89zM891 720h182l-3 -11q-32 -1 -56.5 -15.5t-49.5 -51.5q-69 -103 -157 -257q-20 -34 -56.5 -96t-53.5 -92t-38 -71t-29.5 -68t-8.5 -47q-33 -10 -62 -26l-40 445q-4 -7 -13 -22.5t-13 -22.5q-16 -28 -55.5 -93t-55 -91.5t-38 -69.5
t-30.5 -69.5t-7 -47.5q-31 -9 -61 -25l-51 563q-9 108 -20 125q-17 27 -58 32l3 11h213l-3 -11q-47 -6 -61 -40q-14 -28 -7 -95l46 -486q23 52 171 299l38 66l-9 99q-1 10 -2.5 28.5t-2 27.5t-2.5 23.5t-4 21.5t-5.5 17.5t-8 16t-11 11t-15.5 8t-20 3.5l3 11h207l-4 -11
q-44 -6 -61 -40q-12 -25 -6 -95l46 -490q22 50 170 303q15 26 44.5 75.5t42.5 72t29.5 54t23.5 49.5t7 30q0 39 -51 41z" />
    <glyph glyph-name="wacute" unicode="&#x1e83;" horiz-adv-x="748" 
d="M657 720l-185 -153h-12l108 153h89zM680 513q44 0 44 -108q0 -92 -32.5 -188t-93 -163t-129.5 -67t-97 83q-35 -41 -70.5 -62t-61.5 -21q-56 0 -87 39t-28 103q3 67 51.5 139.5t146.5 179.5h-165q-113 0 -113 -90q0 -15 7.5 -22t14.5 -7q5 0 15 10t24 10q12 0 19.5 -8.5
t7.5 -19.5q0 -14 -11 -25t-29 -11q-24 0 -40.5 20.5t-16.5 56.5q0 63 45 100.5t126 37.5h117q30 0 38 10l5 -4l-33 -60q-154 -179 -154 -293q0 -104 101 -104q41 0 88 33q-12 42 -12 100q0 73 19.5 148.5t55 129t76.5 53.5q31 0 48 -27t17 -74q0 -80 -46.5 -163t-112.5 -143
q36 -57 106 -57q46 0 89.5 47.5t68 111t24.5 116.5q0 39 -15 67t-30 47.5t-15 37.5q0 17 10 27t28 10zM381 269q-2 -98 29 -154q52 49 89.5 115.5t40.5 118.5q3 47 -13.5 78t-42.5 31q-32 0 -67 -62t-36 -127z" />
    <glyph glyph-name="Wdieresis" unicode="&#x1e84;" horiz-adv-x="960" 
d="M551 834q-16 0 -27 11.5t-11 27.5t11 27.5t27 11.5q17 0 28.5 -11.5t11.5 -27.5t-11.5 -27.5t-28.5 -11.5zM729 834q-17 0 -28 11t-11 28t11 28t28 11q16 0 27.5 -11.5t11.5 -27.5t-11.5 -27.5t-27.5 -11.5zM891 720h182l-3 -11q-32 -1 -56.5 -15.5t-49.5 -51.5
q-69 -103 -157 -257q-20 -34 -56.5 -96t-53.5 -92t-38 -71t-29.5 -68t-8.5 -47q-33 -10 -62 -26l-40 445q-4 -7 -13 -22.5t-13 -22.5q-16 -28 -55.5 -93t-55 -91.5t-38 -69.5t-30.5 -69.5t-7 -47.5q-31 -9 -61 -25l-51 563q-9 108 -20 125q-17 27 -58 32l3 11h213l-3 -11
q-47 -6 -61 -40q-14 -28 -7 -95l46 -486q23 52 171 299l38 66l-9 99q-1 10 -2.5 28.5t-2 27.5t-2.5 23.5t-4 21.5t-5.5 17.5t-8 16t-11 11t-15.5 8t-20 3.5l3 11h207l-4 -11q-44 -6 -61 -40q-12 -25 -6 -95l46 -490q22 50 170 303q15 26 44.5 75.5t42.5 72t29.5 54
t23.5 49.5t7 30q0 39 -51 41z" />
    <glyph glyph-name="wdieresis" unicode="&#x1e85;" horiz-adv-x="748" 
d="M433 614q-16 0 -27 11.5t-11 27.5t11 27.5t27 11.5q17 0 28.5 -11.5t11.5 -27.5t-11.5 -27.5t-28.5 -11.5zM611 614q-17 0 -28 11t-11 28t11 28t28 11q16 0 27.5 -11.5t11.5 -27.5t-11.5 -27.5t-27.5 -11.5zM680 513q44 0 44 -108q0 -92 -32.5 -188t-93 -163t-129.5 -67
t-97 83q-35 -41 -70.5 -62t-61.5 -21q-56 0 -87 39t-28 103q3 67 51.5 139.5t146.5 179.5h-165q-113 0 -113 -90q0 -15 7.5 -22t14.5 -7q5 0 15 10t24 10q12 0 19.5 -8.5t7.5 -19.5q0 -14 -11 -25t-29 -11q-24 0 -40.5 20.5t-16.5 56.5q0 63 45 100.5t126 37.5h117
q30 0 38 10l5 -4l-33 -60q-154 -179 -154 -293q0 -104 101 -104q41 0 88 33q-12 42 -12 100q0 73 19.5 148.5t55 129t76.5 53.5q31 0 48 -27t17 -74q0 -80 -46.5 -163t-112.5 -143q36 -57 106 -57q46 0 89.5 47.5t68 111t24.5 116.5q0 39 -15 67t-30 47.5t-15 37.5
q0 17 10 27t28 10zM381 269q-2 -98 29 -154q52 49 89.5 115.5t40.5 118.5q3 47 -13.5 78t-42.5 31q-32 0 -67 -62t-36 -127z" />
    <glyph glyph-name="uni1E9E" unicode="&#x1e9e;" horiz-adv-x="654" 
d="M320 403q119 34 205.5 -11t86.5 -146q0 -110 -86 -184.5t-194 -74.5q-74 0 -106.5 33t-32.5 78q0 40 21.5 66t45.5 26q30 0 30 -28q0 -20 -19 -48.5t-19 -52.5q0 -27 24.5 -44.5t57.5 -17.5q83 0 142.5 72t59.5 164q0 100 -75.5 139.5t-182.5 1.5l-5 8l287 271
q-30 28 -76 46.5t-92 18.5q-110 0 -143 -134l-140 -586h-124l3 11q59 2 78 77l104 438q14 59 40.5 101t59 64t64.5 32t66 10q37 0 89 -8t89.5 -8t72.5 17l4 -9l-337 -318z" />
    <glyph glyph-name="Ygrave" unicode="&#x1ef2;" horiz-adv-x="607" 
d="M485 787h-13l-184 153h88zM527 720h183l-3 -11q-43 -4 -74 -32.5t-98 -115.5q-32 -41 -177 -239l-52 -211q-13 -45 -7.5 -72t37.5 -28l-2 -11h-176l3 10q54 2 76 96l52 217l-99 317q-12 36 -28 51.5t-40 17.5l3 11h193l-2 -11q-53 -4 -53 -46q0 -19 8 -42l83 -282
q25 34 84.5 115.5t78.5 107.5q55 75 55 110q0 33 -47 37z" />
    <glyph glyph-name="ygrave" unicode="&#x1ef3;" horiz-adv-x="464" 
d="M393 567h-13l-184 153h88zM459 448q0 -101 -83.5 -222t-206.5 -227q-21 -42 -40 -73.5t-51.5 -73.5t-72.5 -65.5t-83 -23.5q-36 0 -58 14.5t-22 34.5q0 16 11.5 29t29.5 13q12 0 20 -10t12.5 -22t17 -22t33.5 -10q59 2 107 96t71.5 219t23.5 241q0 117 -28 117
q-37 0 -106 -123l-8 4q53 99 89 134t65 35q55 0 55 -138q0 -161 -58 -355q106 95 170 190t64 154q0 25 -15 54t-15 47q0 22 12.5 35t28.5 13t26.5 -17.5t10.5 -47.5z" />
    <glyph glyph-name="endash" unicode="&#x2013;" horiz-adv-x="540" 
d="M47 290l9 22l165 -5h172l125 5l-9 -22l-160 5h-184z" />
    <glyph glyph-name="emdash" unicode="&#x2014;" horiz-adv-x="920" 
d="M47 290l14 22l299 -5h312l226 5l-14 -22l-291 5h-333z" />
    <glyph glyph-name="uni2015" unicode="&#x2015;" horiz-adv-x="920" 
d="M47 290l14 22l299 -5h312l226 5l-14 -22l-291 5h-333z" />
    <glyph glyph-name="quoteleft" unicode="&#x2018;" horiz-adv-x="212" 
d="M288 720l-3 -11q-57 -23 -95.5 -64t-45.5 -89h3q8 30 35 30q17 0 31 -13.5t14 -34.5q0 -22 -16 -37t-39 -15q-24 0 -37.5 16.5t-13.5 39.5q0 45 44.5 98.5t122.5 79.5z" />
    <glyph glyph-name="quoteright" unicode="&#x2019;" horiz-adv-x="212" 
d="M94 487l2 11q58 23 96.5 64t45.5 89h-3q-10 -30 -35 -30q-17 0 -31 13.5t-14 34.5q0 22 15.5 37t38.5 15q24 0 38 -16.5t14 -39.5q0 -45 -44.5 -98.5t-122.5 -79.5z" />
    <glyph glyph-name="quotesinglbase" unicode="&#x201a;" horiz-adv-x="212" 
d="M-59 -148l3 11q57 23 95.5 64t45.5 89l-2 1q-9 -31 -36 -31q-17 0 -30.5 13.5t-13.5 34.5q0 22 15.5 37t38.5 15q24 0 37.5 -16.5t13.5 -39.5q0 -45 -44.5 -98.5t-122.5 -79.5z" />
    <glyph glyph-name="quotedblleft" unicode="&#x201c;" horiz-adv-x="375" 
d="M288 720l-3 -11q-57 -23 -95.5 -64t-45.5 -89h3q8 30 35 30q17 0 31 -13.5t14 -34.5q0 -22 -16 -37t-39 -15q-24 0 -37.5 16.5t-13.5 39.5q0 45 44.5 98.5t122.5 79.5zM450 720l-2 -11q-58 -23 -96 -63.5t-45 -89.5h2q10 30 36 30q17 0 30.5 -13.5t13.5 -34.5
q0 -22 -15.5 -37t-38.5 -15q-24 0 -37.5 16.5t-13.5 39.5q0 45 44.5 98.5t121.5 79.5z" />
    <glyph glyph-name="quotedblright" unicode="&#x201d;" horiz-adv-x="373" 
d="M94 487l2 11q58 23 96.5 64t45.5 89h-3q-10 -30 -35 -30q-17 0 -31 13.5t-14 34.5q0 22 15.5 37t38.5 15q24 0 38 -16.5t14 -39.5q0 -45 -44.5 -98.5t-122.5 -79.5zM255 487l3 11q57 23 95.5 64t45.5 89h-3q-8 -30 -35 -30q-17 0 -31 13.5t-14 34.5q0 22 16 37t39 15
q24 0 37.5 -16.5t13.5 -39.5q0 -45 -44.5 -98.5t-122.5 -79.5z" />
    <glyph glyph-name="quotedblbase" unicode="&#x201e;" horiz-adv-x="375" 
d="M-59 -148l3 11q57 23 95.5 64t45.5 89l-2 1q-9 -31 -36 -31q-17 0 -30.5 13.5t-13.5 34.5q0 22 15.5 37t38.5 15q24 0 37.5 -16.5t13.5 -39.5q0 -45 -44.5 -98.5t-122.5 -79.5zM104 -148l2 11q58 23 96.5 64t45.5 89l-3 1q-9 -31 -35 -31q-17 0 -31 13.5t-14 34.5
q0 22 15.5 37t38.5 15q24 0 38 -16.5t14 -39.5q0 -45 -44.5 -98.5t-122.5 -79.5z" />
    <glyph glyph-name="dagger" unicode="&#x2020;" horiz-adv-x="591" 
d="M613 539h10l-41 -170h-9q6 31 -6 48.5t-58 17.5h-145l-138 -573q-18 -72 48 -72l-3 -10h-178l3 10q65 0 83 73l138 572h-145q-79 0 -96 -66h-10l41 170h10q-6 -31 6.5 -48t58.5 -17h144l38 157q11 46 -2.5 62.5t-43.5 16.5l2 10h178l-2 -10q-31 0 -52.5 -16.5
t-32.5 -62.5l-38 -157h145q80 0 95 65z" />
    <glyph glyph-name="daggerdbl" unicode="&#x2021;" horiz-adv-x="591" 
d="M613 539h10l-41 -170h-9q6 31 -6 48.5t-58 17.5h-145l-71 -293h145q80 0 95 66h10l-41 -170h-9q6 31 -6 48t-58 17h-145l-58 -241q-18 -72 48 -72l-3 -10h-178l3 10q65 0 83 73l58 240h-144q-81 0 -96 -65h-10l41 170h9q-6 -31 6.5 -48.5t59.5 -17.5h143l71 293h-145
q-79 0 -96 -66h-10l41 170h10q-6 -31 6.5 -48t58.5 -17h144l38 157q11 46 -2.5 62.5t-43.5 16.5l2 10h178l-2 -10q-31 0 -52.5 -16.5t-32.5 -62.5l-38 -157h145q80 0 95 65z" />
    <glyph glyph-name="bullet" unicode="&#x2022;" horiz-adv-x="338" 
d="M179 216q-35 0 -59 24t-24 59q0 34 24 58t59 24q34 0 58 -24t24 -58t-24 -58.5t-58 -24.5z" />
    <glyph glyph-name="ellipsis" unicode="&#x2026;" horiz-adv-x="598" 
d="M49 -13q-20 0 -35 14.5t-15 35.5q0 20 15 34t35 14t34 -14t14 -34q0 -21 -14 -35.5t-34 -14.5zM248 -13q-20 0 -34.5 14.5t-14.5 35.5q0 20 14.5 34t34.5 14t34.5 -14t14.5 -34q0 -21 -14.5 -35.5t-34.5 -14.5zM448 -13q-20 0 -35 14.5t-15 35.5q0 20 15 34t35 14
t34.5 -14t14.5 -34q0 -21 -14.5 -35.5t-34.5 -14.5z" />
    <glyph glyph-name="perthousand" unicode="&#x2030;" horiz-adv-x="1180" 
d="M216 342q-63 0 -96 56t-13 140q20 83 80 139t123 56t96 -55.5t13 -139.5t-80 -140t-123 -56zM218 354q45 0 85.5 52t59.5 132q20 80 4.5 131.5t-60.5 51.5t-85 -51.5t-60 -131.5q-19 -80 -3.5 -132t59.5 -52zM115 0l177 202l438 518h24l-188 -215l-268 -314l-160 -191
h-23zM548 -13q-63 0 -96 56t-13 140q20 83 80 139t123 56t96 -55.5t13 -139.5t-80 -140t-123 -56zM923 -13q-63 0 -96 56t-13 140q20 83 80 139t123 56t96 -55.5t13 -139.5t-80 -140t-123 -56zM551 -1q45 0 85 52t60 132q20 79 4 131t-61 52t-85 -51.5t-60 -131.5
q-19 -79 -3.5 -131.5t60.5 -52.5zM926 -1q45 0 85 52t60 132q20 79 4 131t-61 52t-85 -51.5t-60 -131.5q-19 -79 -3.5 -131.5t60.5 -52.5z" />
    <glyph glyph-name="guilsinglleft" unicode="&#x2039;" horiz-adv-x="285" 
d="M308 450l-201 -209l100 -206h-17l-162 207l263 208h17z" />
    <glyph glyph-name="guilsinglright" unicode="&#x203a;" horiz-adv-x="285" 
d="M90 450l163 -207l-262 -208h-17l199 210l-100 205h17z" />
    <glyph glyph-name="fraction" unicode="&#x2044;" horiz-adv-x="482" 
d="M-42 0l178 202l438 518h24l-188 -215l-268 -314l-160 -191h-24z" />
    <glyph glyph-name="Euro" unicode="&#x20ac;" horiz-adv-x="680" 
d="M652 693q23 0 47 20l-14 -262h-12q-2 124 -41.5 197t-120.5 73q-106 0 -191.5 -88.5t-116.5 -212.5h169l117 5l-9 -21l-148 5h-131q-7 -31 -11 -75l24 -1h121l117 5l-9 -21l-148 5h-105v-6q0 -53 11 -99t33.5 -85.5t63 -62.5t95.5 -23q64 0 127 42t107 123l8 -2
q-45 -96 -124 -159t-166 -63q-106 0 -167.5 81.5t-62.5 202.5q0 25 3 49l-85 -3l6 21l81 -2q4 30 16 72l-82 -4l6 21l80 -3q45 132 147.5 221.5t221.5 89.5q43 0 86 -20t57 -20z" />
    <glyph glyph-name="minus" unicode="&#x2212;" horiz-adv-x="464" 
d="M443 318l-7 -22l-139 5h-144l-104 -5l7 22l134 -5h154z" />
    <glyph glyph-name="AE.ss02" horiz-adv-x="909" 
d="M616 12q100 0 151.5 33.5t100.5 143.5h13l-82 -206q-53 17 -123 17h-342l2 11q24 1 46 22t32 64q6 25 6 62l1 93h-244q-88 -134 -99 -181q-7 -30 6 -44.5t36 -15.5l-2 -11h-182l2 11q67 2 112 73l174 266q102 158 134.5 211.5t42.5 81.5q-6 25 -47 26l2 11q11 0 22 2
t19.5 4t18 7t14.5 7.5t13.5 9.5t11.5 9.5t11 10t9 8.5q18 -9 62 -13t86.5 -4.5t138.5 -0.5q92 0 157 28l-54 -187h-13q11 43 13 71.5t-18 45t-57.5 23t-105.5 6.5h-185l-2 -288h124q53 0 78 19.5t34 60.5h12l-33 -172h-12q7 48 -9 64t-72 16h-123l-3 -379q66 -16 123 -16z
M185 264h236l3 386q-11 -22 -34 -61t-43.5 -71.5t-56 -89t-51.5 -81.5z" />
    <glyph glyph-name="B.ss02" horiz-adv-x="594" 
d="M395 378q70 -7 112.5 -45.5t42.5 -98.5q0 -106 -85 -170t-209 -64h-271l3 11q59 2 78 79l121 501q11 39 1.5 59.5t-44.5 11.5l3 11q131 40 173.5 50t89.5 10q89 0 135.5 -43t46.5 -106q0 -76 -56 -132.5t-141 -73.5zM287 703l-76 -317q42 -6 102 -6q85 0 145 61t60 145
q0 63 -44 95.5t-109 32.5q-28 0 -78 -11zM247 12q87 0 156.5 68.5t69.5 155.5q0 61 -43.5 96.5t-118.5 35.5h-104l-83 -346q75 -10 123 -10z" />
    <glyph glyph-name="C.ss02" horiz-adv-x="625" 
d="M282 -13q-112 0 -173.5 73t-61.5 189q0 114 55 226t148.5 185t194.5 73q45 0 82 -13t56 -27t36.5 -22.5t34 0t37.5 39.5h7l-113 -264h-12q46 110 9.5 192.5t-140.5 82.5q-86 0 -160 -66.5t-115.5 -167.5t-41.5 -205q0 -101 46.5 -167.5t146.5 -66.5q70 0 135 40.5
t109 123.5l8 -3q-37 -88 -120 -155t-168 -67z" />
    <glyph glyph-name="Cacute.ss02" horiz-adv-x="625" 
d="M446 787h-12l108 153h89zM282 -13q-112 0 -173.5 73t-61.5 189q0 114 55 226t148.5 185t194.5 73q45 0 82 -13t56 -27t36.5 -22.5t34 0t37.5 39.5h7l-113 -264h-12q46 110 9.5 192.5t-140.5 82.5q-86 0 -160 -66.5t-115.5 -167.5t-41.5 -205q0 -101 46.5 -167.5
t146.5 -66.5q70 0 135 40.5t109 123.5l8 -3q-37 -88 -120 -155t-168 -67z" />
    <glyph glyph-name="Ccaron.ss02" horiz-adv-x="625" 
d="M446 787l-72 153h12l95 -111l149 111h14l-144 -153h-54zM691 710h7l-113 -264h-12q46 110 9.5 192.5t-140.5 82.5q-86 0 -160 -66.5t-115.5 -167.5t-41.5 -205q0 -101 46.5 -167.5t146.5 -66.5q70 0 135 40.5t109 123.5l8 -3q-37 -88 -120 -155t-168 -67
q-112 0 -173.5 73t-61.5 189q0 114 55 226t148.5 185t194.5 73q45 0 82 -13t56 -27t36.5 -22.5t34 0t37.5 39.5z" />
    <glyph glyph-name="Ccircumflex.ss02" horiz-adv-x="625" 
d="M501 898l-149 -111h-13l144 153h54l71 -153h-11zM691 710h7l-113 -264h-12q46 110 9.5 192.5t-140.5 82.5q-86 0 -160 -66.5t-115.5 -167.5t-41.5 -205q0 -101 46.5 -167.5t146.5 -66.5q70 0 135 40.5t109 123.5l8 -3q-37 -88 -120 -155t-168 -67q-112 0 -173.5 73
t-61.5 189q0 114 55 226t148.5 185t194.5 73q45 0 82 -13t56 -27t36.5 -22.5t34 0t37.5 39.5z" />
    <glyph glyph-name="Cdotaccent.ss02" horiz-adv-x="625" 
d="M499 830q-18 0 -32 13.5t-14 31.5q0 19 14 33t32 14q19 0 32.5 -14t13.5 -33q0 -18 -13.5 -31.5t-32.5 -13.5zM282 -13q-112 0 -173.5 73t-61.5 189q0 114 55 226t148.5 185t194.5 73q45 0 82 -13t56 -27t36.5 -22.5t34 0t37.5 39.5h7l-113 -264h-12q46 110 9.5 192.5
t-140.5 82.5q-86 0 -160 -66.5t-115.5 -167.5t-41.5 -205q0 -101 46.5 -167.5t146.5 -66.5q70 0 135 40.5t109 123.5l8 -3q-37 -88 -120 -155t-168 -67z" />
    <glyph glyph-name="D.ss02" horiz-adv-x="656" 
d="M-15 0l3 11q61 2 79 81l110 460q19 77 15 95q-6 25 -47 15l2 11l81 24q111 35 196 35q113 0 177 -70t64 -177q0 -132 -72 -244t-193 -176.5t-260 -64.5h-155zM116 13h22q128 0 233 66.5t163 177t58 239.5q0 128 -79 184.5t-209 26.5l-22 -4z" />
    <glyph glyph-name="Eth.ss02" horiz-adv-x="676" 
d="M445 732q113 0 177 -70t64 -177q0 -132 -72 -244t-193 -176.5t-261 -64.5h-154l3 11q61 2 79 81l63 262h-11l-109 -2l1 14l109 -2h12l45 188q18 77 14 94q-6 27 -47 16l3 11l80 24q113 35 197 35zM159 13q193 0 323.5 142.5t130.5 340.5q0 128 -79 184.5t-209 26.5
l-23 -4l-81 -339h43l110 2l-1 -14l-110 2h-44l-82 -341h22z" />
    <glyph glyph-name="Dcaron.ss02" horiz-adv-x="656" 
d="M416 787l-72 153h12l95 -111l149 111h14l-144 -153h-54zM424 732q113 0 177 -70t64 -177q0 -132 -72 -244t-193 -176.5t-260 -64.5h-155l3 11q61 2 79 81l110 460q19 77 15 95q-6 25 -47 15l2 11l81 24q111 35 196 35zM138 13q128 0 233 66.5t163 177t58 239.5
q0 128 -79 184.5t-209 26.5l-22 -4l-166 -690h22z" />
    <glyph glyph-name="Dcroat.ss02" horiz-adv-x="676" 
d="M445 732q113 0 177 -70t64 -177q0 -132 -72 -244t-193 -176.5t-261 -64.5h-154l3 11q61 2 79 81l63 262h-11l-109 -2l1 14l109 -2h12l45 188q18 77 14 94q-6 27 -47 16l3 11l80 24q113 35 197 35zM159 13q193 0 323.5 142.5t130.5 340.5q0 128 -79 184.5t-209 26.5
l-23 -4l-81 -339h43l110 2l-1 -14l-110 2h-44l-82 -341h22z" />
    <glyph glyph-name="E.ss02" horiz-adv-x="590" 
d="M524 720q90 0 146 29l-80 -194h-13q15 40 19 64.5t-4.5 46.5t-39 31.5t-85.5 9.5h-185l-70 -291l1 3h134q53 0 79 19.5t37 60.5h12l-42 -172h-11q10 48 -6.5 64t-72.5 16h-133l-90 -375q45 -20 125 -20q110 0 172.5 35t122.5 140h12l-109 -202q-40 15 -119 15h-338l3 11
q59 2 76 75l124 514q11 45 -2.5 56.5t-41.5 5.5l2 11q66 19 122 62q34 -10 84.5 -12.5t170.5 -2.5z" />
    <glyph glyph-name="Eacute.ss02" horiz-adv-x="590" 
d="M606 940l-185 -153h-12l108 153h89zM524 720q90 0 146 29l-80 -194h-13q15 40 19 64.5t-4.5 46.5t-39 31.5t-85.5 9.5h-185l-70 -291l1 3h134q53 0 79 19.5t37 60.5h12l-42 -172h-11q10 48 -6.5 64t-72.5 16h-133l-90 -375q45 -20 125 -20q110 0 172.5 35t122.5 140h12
l-109 -202q-40 15 -119 15h-338l3 11q59 2 76 75l124 514q11 45 -2.5 56.5t-41.5 5.5l2 11q66 19 122 62q34 -10 84.5 -12.5t170.5 -2.5z" />
    <glyph glyph-name="Ebreve.ss02" horiz-adv-x="590" 
d="M457 787q-57 0 -82 44t-9 109h10q-11 -51 12.5 -83t76.5 -32q54 0 93 32t52 83h11q-16 -65 -61.5 -109t-102.5 -44zM524 720q90 0 146 29l-80 -194h-13q15 40 19 64.5t-4.5 46.5t-39 31.5t-85.5 9.5h-185l-70 -291l1 3h134q53 0 79 19.5t37 60.5h12l-42 -172h-11
q10 48 -6.5 64t-72.5 16h-133l-90 -375q45 -20 125 -20q110 0 172.5 35t122.5 140h12l-109 -202q-40 15 -119 15h-338l3 11q59 2 76 75l124 514q11 45 -2.5 56.5t-41.5 5.5l2 11q66 19 122 62q34 -10 84.5 -12.5t170.5 -2.5z" />
    <glyph glyph-name="Ecaron.ss02" horiz-adv-x="590" 
d="M422 787l-72 153h12l95 -111l149 111h14l-144 -153h-54zM524 720q90 0 146 29l-80 -194h-13q15 40 19 64.5t-4.5 46.5t-39 31.5t-85.5 9.5h-185l-70 -291l1 3h134q53 0 79 19.5t37 60.5h12l-42 -172h-11q10 48 -6.5 64t-72.5 16h-133l-90 -375q45 -20 125 -20
q110 0 172.5 35t122.5 140h12l-109 -202q-40 15 -119 15h-338l3 11q59 2 76 75l124 514q11 45 -2.5 56.5t-41.5 5.5l2 11q66 19 122 62q34 -10 84.5 -12.5t170.5 -2.5z" />
    <glyph glyph-name="Ecircumflex.ss02" horiz-adv-x="590" 
d="M477 898l-149 -111h-13l144 153h54l71 -153h-11zM524 720q90 0 146 29l-80 -194h-13q15 40 19 64.5t-4.5 46.5t-39 31.5t-85.5 9.5h-185l-70 -291l1 3h134q53 0 79 19.5t37 60.5h12l-42 -172h-11q10 48 -6.5 64t-72.5 16h-133l-90 -375q45 -20 125 -20q110 0 172.5 35
t122.5 140h12l-109 -202q-40 15 -119 15h-338l3 11q59 2 76 75l124 514q11 45 -2.5 56.5t-41.5 5.5l2 11q66 19 122 62q34 -10 84.5 -12.5t170.5 -2.5z" />
    <glyph glyph-name="Edieresis.ss02" horiz-adv-x="590" 
d="M382 834q-16 0 -27 11.5t-11 27.5t11 27.5t27 11.5q17 0 28.5 -11.5t11.5 -27.5t-11.5 -27.5t-28.5 -11.5zM560 834q-16 0 -27.5 11t-11.5 28t11.5 28t27.5 11t27.5 -11.5t11.5 -27.5t-11.5 -27.5t-27.5 -11.5zM524 720q90 0 146 29l-80 -194h-13q15 40 19 64.5
t-4.5 46.5t-39 31.5t-85.5 9.5h-185l-70 -291l1 3h134q53 0 79 19.5t37 60.5h12l-42 -172h-11q10 48 -6.5 64t-72.5 16h-133l-90 -375q45 -20 125 -20q110 0 172.5 35t122.5 140h12l-109 -202q-40 15 -119 15h-338l3 11q59 2 76 75l124 514q11 45 -2.5 56.5t-41.5 5.5l2 11
q66 19 122 62q34 -10 84.5 -12.5t170.5 -2.5z" />
    <glyph glyph-name="Edotaccent.ss02" horiz-adv-x="590" 
d="M474 830q-18 0 -32 13.5t-14 31.5q0 19 14 33t32 14q19 0 32.5 -14t13.5 -33q0 -18 -13.5 -31.5t-32.5 -13.5zM524 720q90 0 146 29l-80 -194h-13q15 40 19 64.5t-4.5 46.5t-39 31.5t-85.5 9.5h-185l-70 -291l1 3h134q53 0 79 19.5t37 60.5h12l-42 -172h-11
q10 48 -6.5 64t-72.5 16h-133l-90 -375q45 -20 125 -20q110 0 172.5 35t122.5 140h12l-109 -202q-40 15 -119 15h-338l3 11q59 2 76 75l124 514q11 45 -2.5 56.5t-41.5 5.5l2 11q66 19 122 62q34 -10 84.5 -12.5t170.5 -2.5z" />
    <glyph glyph-name="Egrave.ss02" horiz-adv-x="590" 
d="M504 787h-13l-184 153h88zM524 720q90 0 146 29l-80 -194h-13q15 40 19 64.5t-4.5 46.5t-39 31.5t-85.5 9.5h-185l-70 -291l1 3h134q53 0 79 19.5t37 60.5h12l-42 -172h-11q10 48 -6.5 64t-72.5 16h-133l-90 -375q45 -20 125 -20q110 0 172.5 35t122.5 140h12l-109 -202
q-40 15 -119 15h-338l3 11q59 2 76 75l124 514q11 45 -2.5 56.5t-41.5 5.5l2 11q66 19 122 62q34 -10 84.5 -12.5t170.5 -2.5z" />
    <glyph glyph-name="Emacron.ss02" horiz-adv-x="590" 
d="M599 832l-1 -12h-279l1 12h279zM524 720q90 0 146 29l-80 -194h-13q15 40 19 64.5t-4.5 46.5t-39 31.5t-85.5 9.5h-185l-70 -291l1 3h134q53 0 79 19.5t37 60.5h12l-42 -172h-11q10 48 -6.5 64t-72.5 16h-133l-90 -375q45 -20 125 -20q110 0 172.5 35t122.5 140h12
l-109 -202q-40 15 -119 15h-338l3 11q59 2 76 75l124 514q11 45 -2.5 56.5t-41.5 5.5l2 11q66 19 122 62q34 -10 84.5 -12.5t170.5 -2.5z" />
    <glyph glyph-name="Eogonek.ss02" horiz-adv-x="590" 
d="M524 720q90 0 146 29l-80 -194h-13q15 40 19 64.5t-4.5 46.5t-39 31.5t-85.5 9.5h-185l-70 -291l1 3h134q53 0 79 19.5t37 60.5h12l-42 -172h-11q10 48 -6.5 64t-72.5 16h-133l-90 -375q45 -20 125 -20q110 0 172.5 35t122.5 140h12l-109 -202q-38 14 -104 15
q-66 -63 -66 -123q0 -26 16 -47.5t50 -21.5q48 0 72 42v-12q-8 -26 -34.5 -47.5t-61.5 -21.5q-34 0 -59 24.5t-25 64.5q0 78 94 142h-1h-338l3 11q59 2 76 75l124 514q11 45 -2.5 56.5t-41.5 5.5l2 11q66 19 122 62q34 -10 84.5 -12.5t170.5 -2.5z" />
    <glyph glyph-name="F.ss02" horiz-adv-x="542" 
d="M493 720q101 0 159 28l-80 -193h-12q12 32 17 51t4 41t-13.5 33t-40.5 19t-73 8h-172l-69 -288h122q53 0 79 19.5t37 60.5h11l-41 -172h-12q7 38 -9.5 59t-68.5 21h-121l-77 -318q-9 -37 0.5 -57t32.5 -21l-3 -11h-178l4 11q59 2 77 78l123 512q10 44 -2.5 55t-41.5 6
l2 11q64 19 122 62q10 -4 23 -6.5t30.5 -4t32 -2.5t36.5 -1.5t34.5 -0.5h36h31.5z" />
    <glyph glyph-name="G.ss02" horiz-adv-x="652" 
d="M274 -13q-98 0 -158.5 88.5t-60.5 213.5q0 112 55.5 214.5t150 166t199.5 63.5q42 0 78 -13.5t55.5 -27.5t38 -23t33.5 -0.5t33 41.5h8l-112 -262h-13q27 71 26 132t-39 101t-104 40q-98 0 -177.5 -64t-121.5 -161t-42 -203q0 -118 54.5 -198.5t126.5 -80.5
q57 0 112.5 45.5t72.5 116.5l17 73q10 45 -1 60t-55 15l3 11h196l-3 -11q-31 0 -48.5 -15t-26.5 -52l-65 -270h-12q2 66 -38 66q-18 0 -45 -16.5t-63 -33t-74 -16.5z" />
    <glyph glyph-name="Gbreve.ss02" horiz-adv-x="652" 
d="M465 787q-57 0 -82 44t-9 109h10q-11 -51 12.5 -83t76.5 -32q54 0 93 32t52 83h11q-16 -65 -61.5 -109t-102.5 -44zM274 -13q-98 0 -158.5 88.5t-60.5 213.5q0 112 55.5 214.5t150 166t199.5 63.5q42 0 78 -13.5t55.5 -27.5t38 -23t33.5 -0.5t33 41.5h8l-112 -262h-13
q27 71 26 132t-39 101t-104 40q-98 0 -177.5 -64t-121.5 -161t-42 -203q0 -118 54.5 -198.5t126.5 -80.5q57 0 112.5 45.5t72.5 116.5l17 73q10 45 -1 60t-55 15l3 11h196l-3 -11q-31 0 -48.5 -15t-26.5 -52l-65 -270h-12q2 66 -38 66q-18 0 -45 -16.5t-63 -33t-74 -16.5z
" />
    <glyph glyph-name="Gcircumflex.ss02" horiz-adv-x="652" 
d="M485 898l-149 -111h-13l144 153h54l71 -153h-11zM450 324l3 11h196l-3 -11q-31 0 -48.5 -15t-26.5 -52l-65 -270h-12q2 66 -38 66q-18 0 -45 -16.5t-63 -33t-74 -16.5q-98 0 -158.5 88.5t-60.5 213.5q0 112 55.5 214.5t150 166t199.5 63.5q42 0 78 -13.5t55.5 -27.5
t38 -23t33.5 -0.5t33 41.5h8l-112 -262h-13q27 71 26 132t-39 101t-104 40q-98 0 -177.5 -64t-121.5 -161t-42 -203q0 -118 54.5 -198.5t126.5 -80.5q57 0 112.5 45.5t72.5 116.5l17 73q10 45 -1 60t-55 15z" />
    <glyph glyph-name="uni0122.ss02" horiz-adv-x="652" 
d="M274 -13q-98 0 -158.5 88.5t-60.5 213.5q0 112 55.5 214.5t150 166t199.5 63.5q42 0 78 -13.5t55.5 -27.5t38 -23t33.5 -0.5t33 41.5h8l-112 -262h-13q27 71 26 132t-39 101t-104 40q-98 0 -177.5 -64t-121.5 -161t-42 -203q0 -118 54.5 -198.5t126.5 -80.5
q57 0 112.5 45.5t72.5 116.5l17 73q10 45 -1 60t-55 15l3 11h196l-3 -11q-31 0 -48.5 -15t-26.5 -52l-65 -270h-12q2 66 -38 66q-18 0 -45 -16.5t-63 -33t-74 -16.5zM251 -57q25 -1 39 -21.5t11 -46.5q-5 -53 -43 -100t-111 -76v11q56 25 90 65.5t41 90.5q0 3 -1 4
q-2 2 -4 -3q-12 -29 -41 -27q-16 1 -29 16.5t-11 38.5t19.5 36.5t39.5 11.5z" />
    <glyph glyph-name="K.ss02" horiz-adv-x="630" 
d="M721 709q-44 -1 -91 -29.5t-109 -86.5l-242 -230l55 12l96 -207q40 -88 70 -130.5t73 -68.5l-2 -10l-43 19q-61 30 -96.5 66.5t-65.5 101.5l-97 207l-91 -86l-43 -180q-9 -36 3.5 -55t38.5 -21l-3 -11h-188l3 11q60 4 77 77l132 547q9 37 -1 54.5t-41 19.5l3 11h188
l-3 -11q-31 -1 -49 -16.5t-28 -57.5l-84 -348l322 317q66 64 45 93q-10 11 -31 12l2 11h202z" />
    <glyph glyph-name="uni0136.ss02" horiz-adv-x="630" 
d="M721 709q-44 -1 -91 -29.5t-109 -86.5l-242 -230l55 12l96 -207q40 -88 70 -130.5t73 -68.5l-2 -10l-43 19q-61 30 -96.5 66.5t-65.5 101.5l-97 207l-91 -86l-43 -180q-9 -36 3.5 -55t38.5 -21l-3 -11h-188l3 11q60 4 77 77l132 547q9 37 -1 54.5t-41 19.5l3 11h188
l-3 -11q-31 -1 -49 -16.5t-28 -57.5l-84 -348l322 317q66 64 45 93q-10 11 -31 12l2 11h202zM288 -57q25 -1 39 -21.5t11 -46.5q-5 -53 -43 -100t-111 -76v11q56 25 90 65.5t41 90.5q0 3 -1 4q-2 2 -4 -3q-12 -29 -41 -27q-16 1 -29 16.5t-11 38.5t19.5 36.5t39.5 11.5z" />
    <glyph glyph-name="M.ss02" horiz-adv-x="826" 
d="M835 733l2 -9q-27 -9 -41.5 -29.5t-23.5 -69.5q-20 -98 -80 -534q-12 -77 42 -80l-2 -11h-191l3 11q28 1 49 20.5t27 55.5l86 565q-44 -81 -150.5 -278.5t-119.5 -220.5q-3 -5 -10.5 -20t-10 -19.5t-8.5 -16.5t-8 -16.5t-6.5 -14.5t-6 -15t-3.5 -13t-3 -14.5t-1 -12.5
q-40 -11 -68 -31l-47 671l-176 -548q-28 -90 61 -92l-2 -11h-190l2 11q79 2 109 91l162 492q16 47 0.5 64t-54.5 10l-1 9q88 17 155 55l47 -658l247 457q72 132 66 168z" />
    <glyph glyph-name="N.ss02" horiz-adv-x="665" 
d="M575 720h184l-4 -11q-41 -1 -65 -24t-39 -83l-121 -484q-14 -56 3 -98q-10 -3 -21.5 -9.5t-18 -11.5t-14.5 -12t-9 -8l-244 654l-119 -511q-12 -57 4 -83.5t60 -28.5l-2 -10h-203l2 10q92 5 119 112l115 462q14 55 -4.5 72t-65.5 8l2 11q76 20 135 63l240 -649l125 513
q14 59 -3 82.5t-60 24.5z" />
    <glyph glyph-name="Nacute.ss02" horiz-adv-x="665" 
d="M621 940l-185 -153h-12l108 153h89zM575 720h184l-4 -11q-41 -1 -65 -24t-39 -83l-121 -484q-14 -56 3 -98q-10 -3 -21.5 -9.5t-18 -11.5t-14.5 -12t-9 -8l-244 654l-119 -511q-12 -57 4 -83.5t60 -28.5l-2 -10h-203l2 10q92 5 119 112l115 462q14 55 -4.5 72t-65.5 8
l2 11q76 20 135 63l240 -649l125 513q14 59 -3 82.5t-60 24.5z" />
    <glyph glyph-name="Ncaron.ss02" horiz-adv-x="665" 
d="M437 787l-72 153h12l95 -111l149 111h14l-144 -153h-54zM575 720h184l-4 -11q-41 -1 -65 -24t-39 -83l-121 -484q-14 -56 3 -98q-10 -3 -21.5 -9.5t-18 -11.5t-14.5 -12t-9 -8l-244 654l-119 -511q-12 -57 4 -83.5t60 -28.5l-2 -10h-203l2 10q92 5 119 112l115 462
q14 55 -4.5 72t-65.5 8l2 11q76 20 135 63l240 -649l125 513q14 59 -3 82.5t-60 24.5z" />
    <glyph glyph-name="uni0145.ss02" horiz-adv-x="665" 
d="M575 720h184l-4 -11q-41 -1 -65 -24t-39 -83l-121 -484q-14 -56 3 -98q-10 -3 -21.5 -9.5t-18 -11.5t-14.5 -12t-9 -8l-244 654l-119 -511q-12 -57 4 -83.5t60 -28.5l-2 -10h-203l2 10q92 5 119 112l115 462q14 55 -4.5 72t-65.5 8l2 11q76 20 135 63l240 -649l125 513
q14 59 -3 82.5t-60 24.5zM253 -57q25 -1 39 -21.5t11 -46.5q-5 -53 -43 -100t-111 -76v11q56 25 90 65.5t41 90.5q0 3 -1 4q-2 2 -4 -3q-12 -29 -41 -27q-16 1 -29 16.5t-11 38.5t19.5 36.5t39.5 11.5z" />
    <glyph glyph-name="Eng.ss02" horiz-adv-x="667" 
d="M367 -231q-49 0 -72 34t-13 76q6 23 20.5 39t33.5 16q31 0 22 -32q-2 -9 -13 -24t-14 -29q-7 -25 5 -44.5t44 -19.5q34 0 60 26.5t34 54.5q9 41 5 69t-23 81l-230 617l-119 -511q-23 -107 64 -112l-3 -10h-202l2 10q92 5 119 112l115 463q13 53 -4 70.5t-66 8.5l2 11
q82 21 137 63l241 -650l125 514q13 59 -4 82.5t-59 24.5l3 11h184l-3 -11q-42 -1 -66 -24t-39 -83l-121 -484q-10 -42 -3.5 -99.5t-4.5 -101.5q-14 -59 -57.5 -103.5t-99.5 -44.5z" />
    <glyph glyph-name="Ntilde.ss02" horiz-adv-x="665" 
d="M411 889q-27 0 -52.5 -34t-33.5 -68h-13q7 27 19.5 55.5t40 57t60.5 28.5q19 0 35.5 -16t27 -35t26 -35t33.5 -16q28 0 53.5 34.5t33.5 67.5h12q-7 -27 -19 -55.5t-38.5 -57t-57.5 -28.5q-21 0 -39 16t-28.5 35t-26.5 35t-33 16zM575 720h184l-4 -11q-41 -1 -65 -24
t-39 -83l-121 -484q-14 -56 3 -98q-10 -3 -21.5 -9.5t-18 -11.5t-14.5 -12t-9 -8l-244 654l-119 -511q-12 -57 4 -83.5t60 -28.5l-2 -10h-203l2 10q92 5 119 112l115 462q14 55 -4.5 72t-65.5 8l2 11q76 20 135 63l240 -649l125 513q14 59 -3 82.5t-60 24.5z" />
    <glyph glyph-name="OE.ss02" horiz-adv-x="999" 
d="M478 0q-28 0 -90 -6.5t-98 -6.5q-116 0 -179.5 73.5t-63.5 191.5q0 117 56.5 228t152.5 182t203 71q34 0 81 -7t65 -7q29 0 73 16q34 -10 86 -12.5t172 -2.5q89 0 145 29l-80 -194h-12q34 91 11 121.5t-122 30.5h-187l-69 -288h134q53 0 79 19.5t37 60.5h12l-39 -172h-12
q9 47 -9 63.5t-71 16.5h-134l-90 -374q45 -21 125 -21q110 0 172.5 35t123.5 140h12l-110 -202q-45 15 -118 15h-256zM124 260q0 -117 49.5 -186.5t151.5 -69.5q38 0 63.5 6.5t42 16.5t29.5 37t20.5 52.5t20.5 77.5l85 355q28 93 0.5 131.5t-139.5 38.5q-94 0 -169.5 -69.5
t-114.5 -173.5t-39 -216z" />
    </font>
</defs>
</svg>
